<?xml version="1.0" encoding="utf-8"?>
<!-- Generator: Adobe Illustrator 19.2.1, SVG Export Plug-In . SVG Version: 6.00 Build 0)  -->
<svg version="1.1" id="Layer_1" xmlns="http://www.w3.org/2000/svg" xmlns:xlink="http://www.w3.org/1999/xlink" x="0px" y="0px"
	 viewBox="0 0 674 151.4" style="enable-background:new 0 0 674 151.4;" xml:space="preserve">
<style type="text/css">
	.st0{fill:#3D3D3D;}
	.st1{fill:#0075A8;}
	.st2{fill:#CCD1D3;}
	.st3{fill:#0D5E8C;}
	.st4{fill:#0071BC;}
	.st5{fill:#FFFFFF;}
	.st6{fill:#BDC3C7;}
	.st7{fill:#F15354;}
	.st8{fill:#A3ABAF;}
	.st9{fill:#58D68D;}
	.st10{fill:#2ECC71;}
	.st11{fill:#3498DB;}
	.st12{fill:#EADF5A;}
	.st13{fill:#F1C40F;}
	.st14{fill:#2D8490;}
	.st15{fill:#3A6F81;}
	.st16{fill:#ECF0F1;}
	.st17{opacity:0.2;fill:#78C9CF;}
</style>
<g>
	<path class="st0" d="M249.7,65h-13.5c-2.5,0-4.3-0.9-5.4-2.8l-10.6-18.6c-0.5-0.8-1.1-1.4-1.7-1.7c-0.6-0.4-1.5-0.5-2.6-0.5h-3.8
		V65h-14.9V0.8h20.9c4.6,0,8.6,0.5,11.9,1.4c3.3,1,5.9,2.3,8,4c2.1,1.7,3.6,3.7,4.5,6c0.9,2.3,1.4,4.8,1.4,7.6c0,2.1-0.3,4-0.8,5.9
		c-0.6,1.8-1.4,3.6-2.5,5.1c-1.1,1.6-2.4,3-4,4.2c-1.6,1.2-3.4,2.2-5.5,3c1,0.5,1.9,1.1,2.7,1.9c0.9,0.7,1.6,1.6,2.3,2.7L249.7,65z
		 M218.1,31c2,0,3.7-0.3,5.2-0.8c1.4-0.5,2.6-1.2,3.5-2.1c0.9-0.9,1.6-2,2-3.2c0.4-1.2,0.6-2.5,0.6-3.9c0-2.8-0.9-5-2.8-6.6
		c-1.8-1.6-4.7-2.4-8.5-2.4h-6v19H218.1z"/>
	<path class="st0" d="M312.6,65H301c-1.3,0-2.3-0.3-3.1-0.9c-0.8-0.6-1.4-1.4-1.8-2.3l-3.8-11.2H268l-3.8,11.2
		c-0.3,0.8-0.9,1.6-1.7,2.2c-0.8,0.7-1.9,1-3.1,1h-11.6l24.8-64.1h15.2L312.6,65z M288.9,40.4L283,22.9c-0.4-1.1-0.9-2.4-1.4-3.9
		c-0.5-1.5-1-3.1-1.5-4.9c-0.4,1.8-0.9,3.4-1.4,5c-0.5,1.5-1,2.8-1.4,4l-5.9,17.5H288.9z"/>
	<path class="st0" d="M376.2,0.8V65h-7.7c-1.1,0-2.1-0.2-2.9-0.5c-0.8-0.4-1.5-1-2.3-1.9l-30.2-38.2c0.1,1.1,0.2,2.3,0.2,3.3
		c0,1.1,0.1,2.1,0.1,3V65h-13.1V0.8h7.8c0.6,0,1.2,0,1.6,0.1s0.8,0.2,1.2,0.3c0.4,0.2,0.7,0.4,1,0.7s0.7,0.7,1.1,1.2l30.5,38.5
		c-0.1-1.2-0.2-2.4-0.3-3.6c-0.1-1.2-0.1-2.3-0.1-3.3V0.8H376.2z"/>
	<path class="st0" d="M432.6,48.4c0.4,0,0.7,0.1,1.1,0.2c0.4,0.1,0.7,0.4,1,0.7l5.9,6.2c-2.6,3.4-5.8,5.9-9.7,7.6s-8.5,2.6-13.8,2.6
		c-4.9,0-9.2-0.8-13.1-2.5c-3.9-1.7-7.1-3.9-9.8-6.9c-2.7-2.9-4.7-6.4-6.2-10.4c-1.4-4-2.2-8.4-2.2-13c0-4.8,0.8-9.2,2.3-13.2
		s3.7-7.5,6.6-10.4c2.8-2.9,6.2-5.2,10.1-6.8c3.9-1.6,8.3-2.4,13-2.4c2.4,0,4.7,0.2,6.8,0.6c2.1,0.4,4.1,1,6,1.8
		c1.8,0.7,3.5,1.7,5.1,2.7c1.6,1.1,2.9,2.2,4.1,3.4l-5,6.7c-0.3,0.4-0.7,0.8-1.1,1.1c-0.4,0.3-1.1,0.5-1.8,0.5c-0.5,0-1-0.1-1.5-0.4
		c-0.5-0.2-1-0.5-1.5-0.9c-0.5-0.3-1.1-0.7-1.7-1.1c-0.6-0.4-1.4-0.8-2.2-1.1c-0.9-0.3-1.9-0.6-3-0.9c-1.2-0.2-2.5-0.4-4.1-0.4
		c-2.5,0-4.7,0.5-6.8,1.4c-2,0.9-3.8,2.2-5.3,4c-1.5,1.7-2.6,3.9-3.4,6.4c-0.8,2.5-1.2,5.4-1.2,8.7c0,3.3,0.4,6.2,1.3,8.8
		c0.9,2.6,2.1,4.7,3.7,6.4s3.3,3.1,5.4,4c2.1,0.9,4.3,1.4,6.6,1.4c1.3,0,2.6-0.1,3.7-0.2c1.1-0.1,2.2-0.4,3.1-0.7
		c1-0.3,1.9-0.7,2.7-1.2c0.8-0.5,1.7-1.2,2.6-2c0.4-0.3,0.7-0.5,1.1-0.7S432.1,48.4,432.6,48.4z"/>
	<path class="st0" d="M503.4,0.8V65h-15V37.9h-26V65h-15V0.8h15v26.8h26V0.8H503.4z"/>
	<path class="st0" d="M531.7,12.3v15h20.2v11h-20.2v15.3H558V65h-41.3V0.8H558v11.4H531.7z"/>
	<path class="st0" d="M620.2,65h-13.5c-2.5,0-4.3-0.9-5.4-2.8l-10.6-18.6c-0.5-0.8-1.1-1.4-1.7-1.7c-0.6-0.4-1.5-0.5-2.6-0.5h-3.8
		V65h-14.9V0.8h20.9c4.6,0,8.6,0.5,11.9,1.4c3.3,1,5.9,2.3,8,4c2.1,1.7,3.6,3.7,4.5,6s1.4,4.8,1.4,7.6c0,2.1-0.3,4-0.8,5.9
		c-0.6,1.8-1.4,3.6-2.5,5.1c-1.1,1.6-2.4,3-4,4.2s-3.4,2.2-5.5,3c1,0.5,1.9,1.1,2.7,1.9s1.6,1.6,2.3,2.7L620.2,65z M588.6,31
		c2,0,3.7-0.3,5.2-0.8c1.4-0.5,2.6-1.2,3.5-2.1s1.6-2,2-3.2c0.4-1.2,0.6-2.5,0.6-3.9c0-2.8-0.9-5-2.8-6.6c-1.8-1.6-4.7-2.4-8.5-2.4
		h-6v19H588.6z"/>
	<path class="st1" d="M269.3,87.8V152h-13.1v-36.9c0-0.9,0-1.8,0.1-2.8s0.1-2,0.2-3l-17,33c-0.5,1-1.2,1.8-2.1,2.3
		c-0.9,0.5-1.9,0.8-3.1,0.8h-2c-1.1,0-2.2-0.3-3.1-0.8c-0.9-0.5-1.6-1.3-2.1-2.3l-17-33c0.1,1.1,0.2,2.1,0.2,3.1
		c0.1,1,0.1,1.9,0.1,2.8V152h-13.1V87.8h11.4c0.6,0,1.2,0,1.7,0c0.5,0,0.9,0.1,1.3,0.3c0.4,0.1,0.7,0.4,1,0.7
		c0.3,0.3,0.6,0.7,0.9,1.3l16.5,32.5c0.6,1.1,1.2,2.3,1.7,3.5c0.5,1.2,1.1,2.4,1.6,3.7c0.5-1.3,1-2.6,1.6-3.8
		c0.5-1.2,1.1-2.4,1.7-3.5L253,90.1c0.3-0.6,0.6-1,0.9-1.3c0.3-0.3,0.7-0.5,1-0.7c0.4-0.1,0.8-0.2,1.3-0.3c0.5,0,1,0,1.7,0H269.3z"
		/>
	<path class="st1" d="M296.6,99.3v15h20.2v11h-20.2v15.3H323V152h-41.3V87.8H323v11.4H296.6z"/>
	<path class="st1" d="M378.2,99.6h-18V152h-14.9V99.6h-18V87.8h51V99.6z"/>
	<path class="st1" d="M437,152h-11.5c-1.3,0-2.3-0.3-3.1-0.9c-0.8-0.6-1.4-1.4-1.8-2.3l-3.8-11.2h-24.4l-3.8,11.2
		c-0.3,0.8-0.9,1.6-1.7,2.2s-1.9,1-3.1,1h-11.6l24.8-64.1h15.2L437,152z M413.3,127.4l-5.9-17.6c-0.4-1.1-0.9-2.4-1.4-3.9
		s-1-3.1-1.5-4.9c-0.4,1.8-0.9,3.4-1.4,5s-1,2.8-1.4,4l-5.9,17.5H413.3z"/>
	<path class="st1" d="M500.2,119.9c0,4.6-0.8,8.9-2.4,12.8s-3.8,7.3-6.8,10.2c-2.9,2.9-6.4,5.1-10.5,6.7c-4.1,1.6-8.6,2.4-13.6,2.4
		H442V87.8h24.9c5,0,9.5,0.8,13.6,2.4c4.1,1.6,7.6,3.8,10.5,6.7c2.9,2.8,5.2,6.2,6.8,10.1S500.2,115.3,500.2,119.9z M485,119.9
		c0-3.2-0.4-6-1.2-8.6c-0.8-2.6-2-4.7-3.5-6.5c-1.5-1.8-3.4-3.1-5.7-4.1c-2.2-1-4.8-1.4-7.6-1.4H457v41.2h9.9c2.8,0,5.4-0.5,7.6-1.4
		c2.2-1,4.1-2.3,5.7-4.1c1.5-1.8,2.7-3.9,3.5-6.5S485,123.1,485,119.9z"/>
	<path class="st1" d="M564.3,152h-11.5c-1.3,0-2.3-0.3-3.1-0.9c-0.8-0.6-1.4-1.4-1.8-2.3l-3.8-11.2h-24.4l-3.8,11.2
		c-0.3,0.8-0.9,1.6-1.7,2.2s-1.9,1-3.1,1h-11.6l24.8-64.1h15.2L564.3,152z M540.7,127.4l-5.9-17.6c-0.4-1.1-0.9-2.4-1.4-3.9
		c-0.5-1.5-1-3.1-1.5-4.9c-0.4,1.8-0.9,3.4-1.4,5c-0.5,1.5-1,2.8-1.4,4l-5.9,17.5H540.7z"/>
	<path class="st1" d="M609.2,99.6h-18V152h-14.9V99.6h-18V87.8h51V99.6z"/>
	<path class="st1" d="M668,152h-11.5c-1.3,0-2.3-0.3-3.1-0.9c-0.8-0.6-1.4-1.4-1.8-2.3l-3.8-11.2h-24.4l-3.8,11.2
		c-0.3,0.8-0.9,1.6-1.7,2.2s-1.9,1-3.1,1h-11.6l24.8-64.1h15.2L668,152z M644.3,127.4l-5.9-17.6c-0.4-1.1-0.9-2.4-1.4-3.9
		c-0.5-1.5-1-3.1-1.5-4.9c-0.4,1.8-0.9,3.4-1.4,5c-0.5,1.5-1,2.8-1.4,4l-5.9,17.5H644.3z"/>
</g>
<g>
	<polyline class="st16" points="58.3,0.2 58.3,151.5 165,151.5 165,36.2 129,36.2 129,0.2 	"/>
</g>
<g>
	<rect x="-6" y="104.3" transform="matrix(0.6271 -0.7789 0.7789 0.6271 -74.039 63.8351)" class="st6" width="71.3" height="10"/>
	
		<rect x="40.1" y="81.4" transform="matrix(0.6271 -0.7789 0.7789 0.6271 -53.3064 68.7229)" class="st8" width="10" height="17.3"/>
	
		<ellipse transform="matrix(0.6272 -0.7789 0.7789 0.6272 -17.4441 77.1713)" class="st17" cx="71.9" cy="56.8" rx="30.7" ry="30.7"/>
	<path class="st6" d="M71.9,26.1c6.8,0,13.5,2.2,19.2,6.8c13.2,10.6,15.3,29.9,4.7,43.1c-6.1,7.5-14.9,11.4-23.9,11.4
		c-6.8,0-13.5-2.2-19.2-6.8C39.5,70.1,37.4,50.8,48,37.6C54.1,30,62.9,26.1,71.9,26.1 M71.9,16.1L71.9,16.1
		c-12.4,0-23.9,5.5-31.7,15.2c-14.1,17.5-11.3,43.1,6.2,57.2c7.2,5.8,16.3,9,25.5,9c12.4,0,23.9-5.5,31.7-15.2
		c14.1-17.5,11.3-43.1-6.2-57.2C90.2,19.3,81.1,16.1,71.9,16.1L71.9,16.1z"/>
</g>
<polyline class="st2" points="165,36.2 129,36.2 129,0.2 "/>
</svg>
