<?xml version="1.0" encoding="utf-8"?>
<!-- Generator: Adobe Illustrator 19.1.0, SVG Export Plug-In . SVG Version: 6.00 Build 0)  -->
<svg version="1.1" id="Layer_1" xmlns="http://www.w3.org/2000/svg" xmlns:xlink="http://www.w3.org/1999/xlink" x="0px" y="0px"
	 viewBox="0 0 723.1 241.9" style="enable-background:new 0 0 723.1 241.9;" xml:space="preserve">
<style type="text/css">
	.st0{fill:#FFFFFF;stroke:#3D3D3D;stroke-width:10;stroke-miterlimit:10;}
	.st1{fill:#FFFFFF;stroke:#E6E6E6;stroke-width:10;stroke-miterlimit:10;}
	.st2{fill:none;stroke:#E6E6E6;stroke-width:10;stroke-miterlimit:10;}
	.st3{fill:#3D3D3D;}
	.st4{fill:#FFFFFF;}
	.st5{fill:#F7C94A;}
	.st6{fill:#313131;}
	.st7{fill:#0D5E8C;}
	.st8{fill:#0071BC;}
	.st9{fill:none;stroke:#8B8B8B;stroke-width:6;stroke-miterlimit:10;stroke-dasharray:15,20,15,20,15,20;}
	.st10{fill:url(#SVGID_1_);}
	.st11{fill:none;stroke:#3D3D3D;stroke-width:10;stroke-miterlimit:10;}
	.st12{fill:#0075A8;}
	.st13{fill:none;stroke:#3D3D3D;stroke-width:5;stroke-miterlimit:10;stroke-dasharray:10,7,10,7,10,7;}
	.st14{fill:none;stroke:#F1C40F;stroke-width:6;stroke-miterlimit:10;stroke-dasharray:15,20,15,20,15,20;}
	.st15{fill:#29373C;}
	.st16{fill:#F7F9F9;}
	.st17{fill:#CCD1D3;}
	.st18{opacity:0.1;fill:#0071BC;}
	.st19{fill:none;stroke:#F1C40F;stroke-width:4;stroke-linecap:round;stroke-miterlimit:10;}
	.st20{fill:#F1C40F;}
	.st21{fill:none;stroke:#CCD1D3;stroke-width:2;stroke-miterlimit:10;stroke-dasharray:3,2,3,2,3,2;}
	.st22{fill:#CCCCCC;}
	.st23{fill:none;stroke:#CE242B;stroke-width:5;stroke-miterlimit:10;}
	.st24{fill:none;stroke:#CE242B;stroke-width:10;stroke-miterlimit:10;}
	.st25{fill:none;}
	.st26{fill:url(#SVGID_2_);}
	.st27{fill:url(#SVGID_3_);}
	.st28{fill:url(#SVGID_4_);}
	.st29{fill:url(#SVGID_5_);}
	.st30{fill:url(#SVGID_6_);}
	.st31{fill:url(#SVGID_7_);}
	.st32{fill:url(#SVGID_8_);}
	.st33{fill:url(#SVGID_9_);}
	.st34{fill:url(#SVGID_10_);}
	.st35{fill:url(#SVGID_11_);}
	.st36{fill:url(#SVGID_12_);}
	.st37{fill:url(#SVGID_13_);}
	.st38{fill:url(#SVGID_14_);}
	.st39{fill:url(#SVGID_15_);}
	.st40{fill:url(#SVGID_16_);}
	.st41{fill:url(#SVGID_17_);}
	.st42{fill:url(#SVGID_18_);}
	.st43{fill:url(#SVGID_19_);}
	.st44{fill:url(#SVGID_20_);}
	.st45{fill:url(#SVGID_21_);}
	.st46{fill:url(#SVGID_22_);}
	.st47{fill:url(#SVGID_23_);}
	.st48{fill:url(#SVGID_24_);}
	.st49{fill:url(#SVGID_25_);}
	.st50{fill:url(#SVGID_26_);}
	.st51{fill:none;stroke:#3D3D3D;stroke-width:7;stroke-miterlimit:10;}
	.st52{fill:url(#);stroke:#3D3D3D;stroke-width:7;stroke-miterlimit:10;}
	.st53{fill:#FFFFFF;stroke:#3D3D3D;stroke-width:7;stroke-miterlimit:10;}
	.st54{fill:#FFFFFF;stroke:#3D3D3D;stroke-width:5;stroke-miterlimit:10;}
	.st55{opacity:0.3;}
	.st56{fill:#8B8B8B;}
	.st57{fill:#FFFFFF;stroke:#3D3D3D;stroke-width:2;stroke-miterlimit:10;}
	.st58{fill:#2ECC71;}
	.st59{fill:none;stroke:#CCD1D3;stroke-miterlimit:10;stroke-dasharray:2,1,2,1,2,1;}
	.st60{fill:#A3ABAF;}
	.st61{fill:#3498DB;}
	.st62{fill:#2980B9;}
	.st63{fill:#E67E22;}
	.st64{fill:#D35401;}
	.st65{fill:#E49701;}
	.st66{fill:#EADF5A;}
	.st67{fill:#D7C320;}
	.st68{fill:#34495E;}
	.st69{fill:#2C3E50;}
	.st70{fill:#2B2B2B;}
	.st71{fill:#262626;}
	.st72{fill:#3A6F81;}
	.st73{fill:#356272;}
	.st74{fill:#00558B;}
	.st75{fill:#27AE60;}
	.st76{fill:#A5C63B;}
	.st77{fill:#8EB021;}
	.st78{fill:#ECF0F1;}
	.st79{fill:#BDC3C7;}
	.st80{fill:#95A5A6;}
	.st81{fill:#7F8C8D;}
	.st82{fill:#E74C3C;}
	.st83{fill:#C0392B;}
	.st84{fill:#F15354;}
	.st85{fill:#EA3738;}
	.st86{fill:#78C9CF;}
	.st87{fill:#389EA8;}
	.st88{fill:#2D8490;}
	.st89{fill:#1A6470;}
	.st90{fill:#21364A;}
	.st91{fill:#040B15;}
	.st92{fill:#99A3A8;}
	.st93{fill:#66767C;}
	.st94{fill:#334851;}
	.st95{fill:#5C686F;}
	.st96{fill:#0A141A;}
	.st97{fill:none;stroke:#F1C40F;stroke-width:2;stroke-miterlimit:10;}
	.st98{fill:none;stroke:#D35401;stroke-width:5;stroke-linecap:round;stroke-linejoin:round;stroke-miterlimit:10;}
	.st99{fill:#E6E6E6;}
	.st100{fill:#006BB7;}
	.st101{fill:#E5F1F8;}
	.st102{fill:#0C5988;}
	.st103{fill:#25343A;}
	.st104{fill:#DEEBF2;}
	.st105{fill:#B7C5CD;}
</style>
<g>
	<path class="st3" d="M290.4,132.7v9.7h-31.6V90H271v42.7H290.4z"/>
	<path class="st3" d="M352.2,116.2c0,3.8-0.7,7.3-2,10.6c-1.3,3.3-3.2,6.1-5.5,8.5s-5.2,4.3-8.6,5.7c-3.3,1.4-7.1,2.1-11.1,2.1
		s-7.8-0.7-11.2-2.1c-3.4-1.4-6.2-3.3-8.6-5.7c-2.4-2.4-4.2-5.2-5.5-8.5c-1.3-3.3-2-6.8-2-10.6s0.7-7.3,2-10.6
		c1.3-3.3,3.2-6.1,5.5-8.5c2.4-2.4,5.3-4.3,8.6-5.7c3.4-1.4,7.1-2.1,11.2-2.1s7.8,0.7,11.1,2.1c3.3,1.4,6.2,3.3,8.6,5.7
		c2.4,2.4,4.2,5.2,5.5,8.5C351.6,108.9,352.2,112.4,352.2,116.2z M339.8,116.2c0-2.6-0.3-4.9-1-7c-0.7-2.1-1.6-3.8-2.9-5.3
		c-1.3-1.4-2.8-2.5-4.6-3.3c-1.8-0.8-3.9-1.2-6.2-1.2c-2.4,0-4.4,0.4-6.3,1.2c-1.8,0.8-3.4,1.9-4.6,3.3c-1.3,1.4-2.2,3.2-2.9,5.3
		c-0.7,2.1-1,4.4-1,7c0,2.6,0.3,5,1,7c0.7,2.1,1.6,3.8,2.9,5.3c1.3,1.4,2.8,2.5,4.6,3.3s3.9,1.1,6.3,1.1c2.3,0,4.4-0.4,6.2-1.1
		c1.8-0.8,3.4-1.9,4.6-3.3c1.3-1.4,2.2-3.2,2.9-5.3S339.8,118.8,339.8,116.2z"/>
	<path class="st3" d="M410.6,90v52.5h-6.3c-0.9,0-1.7-0.1-2.4-0.5c-0.6-0.3-1.3-0.8-1.9-1.6l-24.7-31.3c0.1,0.9,0.2,1.8,0.2,2.7
		s0.1,1.7,0.1,2.5v28.1h-10.7V90h6.4c0.5,0,1,0,1.3,0.1c0.4,0,0.7,0.1,1,0.3c0.3,0.1,0.6,0.3,0.8,0.6c0.3,0.2,0.6,0.6,0.9,1
		l24.9,31.5c-0.1-1-0.2-2-0.3-2.9c0-0.9-0.1-1.8-0.1-2.7V90H410.6z"/>
	<path class="st3" d="M451.3,115.2H470v22.1c-2.7,2-5.5,3.4-8.6,4.3s-6.2,1.3-9.5,1.3c-4.3,0-8.2-0.7-11.8-2s-6.6-3.2-9.1-5.6
		c-2.5-2.4-4.5-5.2-5.8-8.5c-1.4-3.3-2.1-6.8-2.1-10.7c0-3.9,0.6-7.5,1.9-10.8c1.3-3.3,3.1-6.1,5.6-8.5s5.3-4.2,8.7-5.5
		s7.2-2,11.5-2c2.2,0,4.2,0.2,6.2,0.5c1.9,0.4,3.7,0.9,5.3,1.5c1.6,0.6,3.1,1.4,4.4,2.2c1.3,0.9,2.5,1.8,3.6,2.8l-3.5,5.4
		c-0.6,0.8-1.3,1.4-2.1,1.5c-0.9,0.2-1.8,0-2.8-0.6c-1-0.6-1.9-1.1-2.7-1.5c-0.9-0.4-1.7-0.8-2.6-1c-0.9-0.3-1.8-0.5-2.8-0.6
		c-1-0.1-2.1-0.2-3.3-0.2c-2.3,0-4.3,0.4-6.2,1.2c-1.8,0.8-3.4,1.9-4.7,3.4c-1.3,1.5-2.3,3.2-3,5.3c-0.7,2.1-1,4.3-1,6.9
		c0,2.8,0.4,5.3,1.2,7.4c0.8,2.2,1.9,4,3.3,5.5c1.4,1.5,3.1,2.6,5,3.4c2,0.8,4.1,1.2,6.5,1.2c1.5,0,2.8-0.1,4-0.4
		c1.2-0.3,2.3-0.7,3.5-1.2v-8h-5.2c-0.8,0-1.4-0.2-1.8-0.6c-0.4-0.4-0.6-0.9-0.6-1.5V115.2z"/>
	<path class="st3" d="M529.3,90v52.5h-12.2v-22.2h-21.3v22.2h-12.2V90h12.2v21.9h21.3V90H529.3z"/>
	<path class="st3" d="M596.4,116.2c0,3.8-0.7,7.3-2,10.6c-1.3,3.3-3.2,6.1-5.5,8.5s-5.2,4.3-8.6,5.7c-3.3,1.4-7.1,2.1-11.1,2.1
		s-7.8-0.7-11.2-2.1c-3.4-1.4-6.2-3.3-8.6-5.7c-2.4-2.4-4.2-5.2-5.5-8.5c-1.3-3.3-2-6.8-2-10.6s0.7-7.3,2-10.6
		c1.3-3.3,3.2-6.1,5.5-8.5c2.4-2.4,5.3-4.3,8.6-5.7c3.4-1.4,7.1-2.1,11.2-2.1s7.8,0.7,11.1,2.1c3.3,1.4,6.2,3.3,8.6,5.7
		c2.4,2.4,4.2,5.2,5.5,8.5C595.7,108.9,596.4,112.4,596.4,116.2z M583.9,116.2c0-2.6-0.3-4.9-1-7c-0.7-2.1-1.6-3.8-2.9-5.3
		c-1.3-1.4-2.8-2.5-4.6-3.3c-1.8-0.8-3.9-1.2-6.2-1.2c-2.4,0-4.4,0.4-6.3,1.2c-1.8,0.8-3.4,1.9-4.6,3.3c-1.3,1.4-2.2,3.2-2.9,5.3
		c-0.7,2.1-1,4.4-1,7c0,2.6,0.3,5,1,7c0.7,2.1,1.6,3.8,2.9,5.3c1.3,1.4,2.8,2.5,4.6,3.3s3.9,1.1,6.3,1.1c2.3,0,4.4-0.4,6.2-1.1
		c1.8-0.8,3.4-1.9,4.6-3.3c1.3-1.4,2.2-3.2,2.9-5.3S583.9,118.8,583.9,116.2z"/>
	<path class="st3" d="M651.8,142.4h-11c-2,0-3.5-0.8-4.4-2.3l-8.7-15.2c-0.4-0.6-0.9-1.1-1.4-1.4c-0.5-0.3-1.2-0.4-2.2-0.4h-3.1
		v19.4h-12.2V90H626c3.8,0,7,0.4,9.7,1.2c2.7,0.8,4.9,1.9,6.6,3.3c1.7,1.4,2.9,3,3.7,4.9c0.8,1.9,1.2,4,1.2,6.2
		c0,1.7-0.2,3.3-0.7,4.8c-0.5,1.5-1.1,2.9-2,4.2c-0.9,1.3-2,2.4-3.3,3.4c-1.3,1-2.8,1.8-4.5,2.5c0.8,0.4,1.5,0.9,2.2,1.5
		c0.7,0.6,1.3,1.3,1.9,2.2L651.8,142.4z M626,114.6c1.7,0,3.1-0.2,4.2-0.6c1.2-0.4,2.1-1,2.9-1.7c0.7-0.7,1.3-1.6,1.6-2.6
		c0.3-1,0.5-2.1,0.5-3.2c0-2.3-0.8-4.1-2.2-5.4c-1.5-1.3-3.8-1.9-7-1.9h-4.9v15.6H626z"/>
	<path class="st3" d="M707.5,90v52.5h-6.3c-0.9,0-1.7-0.1-2.4-0.5c-0.6-0.3-1.3-0.8-1.9-1.6l-24.7-31.3c0.1,0.9,0.2,1.8,0.2,2.7
		s0.1,1.7,0.1,2.5v28.1h-10.7V90h6.4c0.5,0,1,0,1.3,0.1c0.4,0,0.7,0.1,1,0.3c0.3,0.1,0.6,0.3,0.8,0.6c0.3,0.2,0.6,0.6,0.9,1
		l24.9,31.5c-0.1-1-0.2-2-0.3-2.9c0-0.9-0.1-1.8-0.1-2.7V90H707.5z"/>
</g>
<path class="st12" d="M247.7,84.8c0.9,5-2.7,9-7.6,9h-15.3c-0.4,0-0.5,0-0.9,0V82.7c0.4,0,0.5,0,0.9,0h4.1c5.1,0,9.2-4.1,9.2-9.2
	v-4.1c0-5.1,1.2-9.2,2.8-9.2c1.6,0,3.5,4.1,4.3,9L247.7,84.8L247.7,84.8z M220.2,83.4c-2.8,0.9-4.8,2.8-4.8,5s2,3.9,4.8,5V83.4
	L220.2,83.4z M211,71.5h-24.8c-0.2,0-0.4,0-0.5,0h-25.5c-0.4,0-0.5,0-0.9,0v-2.3c0-5.1-1.2-9.2-2.8-9.2c-1.6,0-3.5,4.1-4.3,9
	l-2.7,15.6c-0.9,5,2.7,9,7.6,9h15.3c1.6,0,3-0.2,4.4-0.7c-0.5,2.7-2.8,4.6-5.5,4.6h-21.5c-3.5,0-6-3.2-5.5-6.6l2.1-13.1
	c0.5-3.4-2.1-6.6-5.5-6.6H34.2c-2.3,0-4.3,1.4-5.1,3.4L9,105.4c-0.4,0.5-0.4,1.2,0.2,1.6l3.9,4.6c0.5,0.5,1.4,0.7,2,0.2l13.7-10.8
	v65.8c0,3,2.5,5.7,5.7,5.7h30.3c3,0,5.7-2.5,5.7-5.7V144c0-3,2.5-5.7,5.7-5.7h75.7c3.2,0,5.7,2.5,5.7,5.7v22.7c0,3,2.5,5.7,5.7,5.7
	h30.3c3,0,5.7-2.5,5.7-5.7v-24.5H183c-5.1,0-9.2-4.1-9.2-9.2v-15.8c0-3,1.4-5.7,3.7-7.3v18.8c0,5.1,4.1,9.2,9.2,9.2h24.8
	c5.1,0,9.2-4.1,9.2-9.2V80.9C220.2,75.7,216.2,71.5,211,71.5L211,71.5z"/>
</svg>
