<?xml version="1.0" encoding="UTF-8" standalone="no"?>
<svg
   xmlns:dc="http://purl.org/dc/elements/1.1/"
   xmlns:cc="http://creativecommons.org/ns#"
   xmlns:rdf="http://www.w3.org/1999/02/22-rdf-syntax-ns#"
   xmlns:svg="http://www.w3.org/2000/svg"
   xmlns="http://www.w3.org/2000/svg"
   viewBox="0 0 228.77499 278.85001"
   height="278.85001"
   width="228.77499"
   xml:space="preserve"
   version="1.1"
   id="svg2"><metadata
     id="metadata8"><rdf:RDF><cc:Work
         rdf:about=""><dc:format>image/svg+xml</dc:format><dc:type
           rdf:resource="http://purl.org/dc/dcmitype/StillImage" /></cc:Work></rdf:RDF></metadata><defs
     id="defs6" /><g
     transform="matrix(1.25,0,0,-1.25,0,278.85)"
     id="g10"><g
       transform="scale(0.1,0.1)"
       id="g12"><path
         id="path14"
         style="fill:#100f0d;fill-opacity:1;fill-rule:nonzero;stroke:none"
         d="m 0.015625,442.07 72.636675,0 167.6177,-222.82 0,222.82 77.695,0 0,-360.3395 -66.945,0 -173.2622,227.5075 0,-227.5075 -77.742175,0 0,360.3395" /><path
         id="path16"
         style="fill:#100f0d;fill-opacity:1;fill-rule:nonzero;stroke:none"
         d="M 548.918,240.199 C 544.34,275 523.887,298.5 491.215,298.5 c -32.25,0 -53.223,-23.09 -59.328,-58.301 l 117.031,0 z m -193.191,-23 0,1.039 c 0,78.192 55.726,142.571 135.488,142.571 91.441,0 133.34,-71.028 133.34,-148.739 0,-6.101 -0.45,-13.3 -1.024,-20.429 l -190.644,0 c 7.718,-35.25 32.207,-53.692 66.984,-53.692 26.082,0 44.953,8.18 66.442,28.141 l 44.414,-39.352 c -25.5,-31.6989 -62.329,-51.0974 -111.86,-51.0974 -82.308,0 -143.14,57.7304 -143.14,141.5584" /><path
         id="path18"
         style="fill:#100f0d;fill-opacity:1;fill-rule:nonzero;stroke:none"
         d="m 673.07,159.492 0,129.809 -32.695,0 0,66.418 32.695,0 0,69.98 77.645,0 0,-69.98 64.461,0 0,-66.418 -64.461,0 0,-117.063 c 0,-17.879 7.719,-26.597 25.062,-26.597 14.301,0 27.071,3.57 38.364,9.769 l 0,-62.3787 c -16.368,-9.7422 -35.332,-15.8594 -61.407,-15.8594 -47.492,0 -79.664,18.9179 -79.664,82.3201" /><path
         id="path20"
         style="fill:#100f0d;fill-opacity:1;fill-rule:nonzero;stroke:none"
         d="m 1433.13,218.238 0,1.012 c 0,45.48 -30.66,75.629 -66.91,75.629 -36.27,0 -66.43,-30.149 -66.43,-75.629 l 0,-1.012 c 0,-45.508 30.16,-75.679 66.43,-75.679 36.25,0 66.91,29.679 66.91,75.679 z m -209.98,137.481 77.66,0 0,-39.34 c 18.9,25.551 44.95,44.43 85.34,44.43 63.92,0 124.72,-50.079 124.72,-141.559 l 0,-1.012 c 0,-91.5 -59.8,-141.5778 -124.72,-141.5778 -41.38,0 -66.98,18.9101 -85.34,40.8788 l 0,-117.539 -77.66,0 0,355.719" /><path
         id="path22"
         style="fill:#100f0d;fill-opacity:1;fill-rule:nonzero;stroke:none"
         d="m 1752.55,218.238 0,1.012 c 0,45.48 -30.7,75.629 -66.98,75.629 -36.23,0 -66.42,-30.149 -66.42,-75.629 l 0,-1.012 c 0,-45.508 30.19,-75.679 66.42,-75.679 36.28,0 66.98,29.679 66.98,75.679 z m -210.07,137.481 77.7,0 0,-39.34 c 18.9,25.551 45,44.43 85.35,44.43 63.89,0 124.67,-50.079 124.67,-141.559 l 0,-1.012 c 0,-91.5 -59.76,-141.5778 -124.67,-141.5778 -41.42,0 -67,18.9101 -85.35,40.8788 l 0,-117.539 -77.7,0 0,355.719" /><path
         id="path24"
         style="fill:#100f0d;fill-opacity:1;fill-rule:nonzero;stroke:none"
         d="m 1065.4,231.461 -47.5,116.121 -47.572,-116.121 95.072,0 z m -81.9,210.641 70.72,0 149.52,-360.3715 -82.02,0 -32.95,80.3005 -141.84,0 -32.711,-80.3005 -80.203,0 L 983.5,442.102" /><path
         id="path26"
         style="fill:#3862b7;fill-opacity:1;fill-rule:nonzero;stroke:none"
         d="m 0,2230.84 0,-1518.52 708.66,0 0,911.13 404.96,0 0,-911.13 708.65,0 0,1518.52 -1822.27,0" /></g></g></svg>