<?xml version="1.0" encoding="utf-8"?>
<!-- Generator: Adobe Illustrator 21.1.0, SVG Export Plug-In . SVG Version: 6.00 Build 0)  -->
<svg version="1.1" id="Layer_1" xmlns="http://www.w3.org/2000/svg" xmlns:xlink="http://www.w3.org/1999/xlink" x="0px" y="0px"
	 viewBox="0 0 778.2 176.6" style="enable-background:new 0 0 778.2 176.6;" xml:space="preserve">
<style type="text/css">
	.st0{fill:none;stroke:#BDC3C7;stroke-width:5;stroke-miterlimit:10;}
	.st1{fill:#CCD1D3;}
	.st2{fill:#99A3A8;}
	.st3{fill:none;stroke:#A3ABAF;stroke-width:5;stroke-linecap:round;stroke-linejoin:round;stroke-miterlimit:10;}
	.st4{fill:#3D3D3D;}
	.st5{fill:#0075A8;}
	.st6{fill:#B3C78F;}
	.st7{fill:none;stroke:#CCD1D3;stroke-miterlimit:10;}
	.st8{fill:none;stroke:#CCD1D3;stroke-width:1.893;stroke-miterlimit:10;}
	.st9{fill:#F15354;}
	.st10{fill:#A3ABAF;}
	.st11{fill:#3498DB;}
	.st12{fill:#2980B9;}
	.st13{fill:#E67E22;}
	.st14{fill:#D35401;}
	.st15{fill:#F1C40F;}
	.st16{fill:#E49701;}
	.st17{fill:#EADF5A;}
	.st18{fill:#D7C320;}
	.st19{fill:#34495E;}
	.st20{fill:#2C3E50;}
	.st21{fill:#2B2B2B;}
	.st22{fill:#262626;}
	.st23{fill:#3A6F81;}
	.st24{fill:#356272;}
	.st25{fill:#00558B;}
	.st26{fill:#27AE60;}
	.st27{fill:#169242;}
	.st28{fill:#A5C63B;}
	.st29{fill:#8EB021;}
	.st30{fill:#ECF0F1;}
	.st31{fill:#BDC3C7;}
	.st32{fill:#95A5A6;}
	.st33{fill:#7F8C8D;}
	.st34{fill:#E74C3C;}
	.st35{fill:#C0392B;}
	.st36{fill:#EA3738;}
	.st37{fill:#78C9CF;}
	.st38{fill:#389EA8;}
	.st39{fill:#2D8490;}
	.st40{fill:#1A6470;}
	.st41{fill:#21364A;}
	.st42{fill:#040B15;}
	.st43{fill:#66767C;}
	.st44{fill:#334851;}
	.st45{fill:#5C686F;}
	.st46{fill:#29373C;}
	.st47{fill:#0A141A;}
	.st48{fill:#FFFFFF;}
	.st49{fill:#0D5E8C;}
	.st50{fill:#0071BC;}
	.st51{fill:#808080;stroke:#000000;stroke-width:0.5;stroke-miterlimit:10;}
	.st52{fill:#DFDFDF;stroke:#000000;stroke-width:0.5;stroke-miterlimit:10;}
	.st53{stroke:#000000;stroke-width:0.5;stroke-miterlimit:10;}
	.st54{fill:none;stroke:#A3ABAF;stroke-width:12;stroke-miterlimit:10;}
	.st55{fill:none;stroke:#F15354;stroke-width:0.4376;stroke-miterlimit:10;}
	.st56{fill:none;stroke:#F15354;stroke-miterlimit:10;}
	.st57{fill:none;stroke:#3498DB;stroke-width:15;stroke-linecap:square;stroke-miterlimit:10;}
	.st58{fill:none;stroke:#A3ABAF;stroke-width:9;stroke-miterlimit:10;}
	.st59{opacity:0.5;fill:url(#SVGID_1_);}
	.st60{clip-path:url(#SVGID_3_);enable-background:new    ;}
	.st61{fill:#D3AC0D;}
	.st62{fill:#B5930B;}
	.st63{opacity:0.5;fill:url(#SVGID_4_);}
	.st64{clip-path:url(#SVGID_6_);enable-background:new    ;}
	.st65{opacity:0.5;fill:url(#SVGID_7_);}
	.st66{clip-path:url(#SVGID_9_);enable-background:new    ;}
	.st67{opacity:0.5;fill:url(#SVGID_10_);}
	.st68{clip-path:url(#SVGID_12_);enable-background:new    ;}
	.st69{fill:#58D68D;}
	.st70{fill:#2ECC71;}
	.st71{fill:none;stroke:#2ECC71;stroke-width:1.1621;stroke-miterlimit:10;}
	.st72{fill:none;stroke:#F1C40F;stroke-width:1.1621;stroke-miterlimit:10;}
	.st73{fill:none;stroke:#0075A8;stroke-width:1.1621;stroke-miterlimit:10;}
	.st74{fill:none;stroke:#BDC3C7;stroke-width:10;stroke-miterlimit:10;}
	.st75{fill:none;stroke:#A3ABAF;stroke-width:10;stroke-miterlimit:10;}
	.st76{opacity:0.2;fill:#78C9CF;}
	.st77{fill:none;stroke:#0075A8;stroke-miterlimit:10;}
	.st78{fill:#5D5D5D;}
	.st79{fill:none;stroke:#99A3A8;stroke-miterlimit:10;}
	.st80{fill:none;stroke:#0075A8;stroke-width:1.8275;stroke-miterlimit:10;}
	.st81{opacity:0.7;}
	.st82{fill:none;stroke:#3A6F81;stroke-width:10;stroke-miterlimit:10;}
	.st83{fill:none;stroke:#EADF5A;stroke-width:8;stroke-miterlimit:10;}
	.st84{fill:none;stroke:#EADF5A;stroke-width:5;stroke-miterlimit:10;}
	.st85{fill:none;stroke:#2980B9;stroke-width:4.5153;stroke-miterlimit:10;}
	.st86{fill:none;stroke:#EADF5A;stroke-width:3.6413;stroke-miterlimit:10;}
	.st87{fill:none;stroke:#78C9CF;stroke-width:4.5153;stroke-miterlimit:10;}
	.st88{fill:none;stroke:#A5C63B;stroke-width:10;stroke-linecap:round;stroke-linejoin:round;stroke-miterlimit:10;}
	.st89{fill:#D6EAF8;}
	.st90{fill:#85C1E9;}
</style>
<g>
	<path class="st4" d="M208.4,21.1h24.5c11.6,0,19.4,5.6,19.4,16.5c0,8.9-6.1,14.3-12,16.1c1.8,1.5,3.1,3.5,4.1,5.6
		c2.5,5,4.1,10.6,9.3,10.6c1.3,0,2.4-0.4,2.4-0.4L255,80c0,0-3.2,0.8-5.9,0.8c-7,0-11.1-2.7-15.2-12.1c-1.8-4.2-4.2-11.6-7.5-11.6
		h-3.3v23.5h-14.7V21.1z M223.1,31.7v14.6h5.3c4.2,0,9.2-1.3,9.2-7.7c0-5.2-3.3-7-7.4-7H223.1z"/>
	<path class="st4" d="M272.6,21.1h14.9l20.1,59.4h-14.9L289,69.2h-19.9l-3.6,11.3h-12.8L272.6,21.1z M272.6,58.3h12.8l-4-12.5
		c-1.4-4.2-2-10.2-2-10.2h-0.4c0,0-0.9,6.1-2.2,10.1L272.6,58.3z"/>
	<path class="st4" d="M308.6,21.1h15.8l15.6,29.5c1.3,2.6,3.1,7,4.5,10.6h0.4c-0.2-3.3-0.6-8.1-0.6-11.5V21.1h12.1v59.4h-15.4
		l-16.2-29.4c-1.5-2.6-3.1-6.5-4.3-9.7H320c0.3,3.3,0.7,7.3,0.7,10.6v28.5h-12.1V21.1z"/>
	<path class="st4" d="M359.8,50.4c0-21.5,10.6-30.4,27.1-30.4c17.3,0,24.3,9.5,22.4,22.4l-13.7,1.2c1.5-9.4-2.2-13.2-8.9-13.2
		c-6.4,0-11.6,4.8-11.6,20.1c0,16.2,5.6,20.3,12.1,20.3c6.1,0,11-3.8,9.9-11.5l12.8,1.3c1,12.1-7.7,20.9-23.6,20.9
		C370.2,81.5,359.8,72,359.8,50.4z"/>
	<path class="st4" d="M413.3,21.1H428v22.4h18V21.1h14.7v59.4h-14.7V55.3h-18v25.2h-14.7V21.1z"/>
	<path class="st4" d="M467.1,21.1h39.3V32h-24.6v12.8h20.7v10.9h-20.7v13.9h25.5v10.9h-40.2V21.1z"/>
	<path class="st4" d="M510.6,21.1H535c11.6,0,19.4,5.6,19.4,16.5c0,8.9-6.1,14.3-12,16.1c1.8,1.5,3.1,3.5,4.1,5.6
		c2.5,5,4.1,10.6,9.3,10.6c1.3,0,2.4-0.4,2.4-0.4L557.2,80c0,0-3.2,0.8-5.9,0.8c-7,0-11.1-2.7-15.2-12.1c-1.8-4.2-4.2-11.6-7.5-11.6
		h-3.3v23.5h-14.7V21.1z M525.3,31.7v14.6h5.3c4.2,0,9.2-1.3,9.2-7.7c0-5.2-3.3-7-7.4-7H525.3z"/>
	<path class="st5" d="M205.6,125.4c0-21.5,10.6-30.4,27.1-30.4c17.3,0,24.3,9.5,22.4,22.4l-13.7,1.2c1.5-9.4-2.2-13.2-8.9-13.2
		c-6.4,0-11.6,4.8-11.6,20.1c0,16.2,5.6,20.3,12.1,20.3c6.1,0,11-3.8,9.9-11.5l12.8,1.3c1,12.1-7.7,20.9-23.6,20.9
		C216,156.5,205.6,147,205.6,125.4z"/>
	<path class="st5" d="M256.4,125c0-21.4,11.4-29.9,27.3-29.9c15.7,0,27,8.5,27,29.9c0,23.8-11.7,31.6-27,31.6
		C267.8,156.5,256.4,148,256.4,125z M295.7,125c0-14.8-5.8-19.5-12.1-19.5s-12.1,4.8-12.1,19.5c0,16.5,5.7,21.2,12.1,21.2
		S295.7,141.4,295.7,125z"/>
	<path class="st5" d="M314.3,96.1h24.5c11.6,0,19.4,5.6,19.4,16.5c0,8.9-6.1,14.3-12,16.1c1.8,1.5,3.1,3.5,4.1,5.6
		c2.5,5,4.1,10.6,9.3,10.6c1.3,0,2.4-0.4,2.4-0.4L361,155c0,0-3.2,0.8-5.9,0.8c-7,0-11.1-2.7-15.2-12.1c-1.8-4.2-4.2-11.6-7.5-11.6
		H329v23.5h-14.7V96.1z M329,106.7v14.6h5.3c4.2,0,9.2-1.3,9.2-7.7c0-5.2-3.3-7-7.4-7H329z"/>
	<path class="st5" d="M363.9,96.1h39.3V107h-24.6v12.8h20.7v10.9h-20.7v13.9h25.5v10.9h-40.2V96.1z"/>
	<path class="st5" d="M429.3,136c-1.1,4.8,0.8,10.2,10.1,10.2c6.2,0,8.3-2.5,8.3-5.7c0-4.9-4.9-6.2-10.7-8.3
		c-8.7-3-19.4-7.2-19.4-19.6c0-11.1,8.5-17.9,23.1-17.5c17.8,0.4,22.8,10.8,20.9,19.9l-13.5,1.2c0.9-6.9-1.6-10.7-8.5-10.7
		c-4.7,0-7.3,1.8-7.3,5.5c0,4.9,4.8,6.4,10.6,8.4c9,3,19.6,6.6,19.6,18.9c0,10.6-7.9,18.3-23.4,18.3c-14.5,0-24.5-6.7-22.4-19.4
		L429.3,136z"/>
	<path class="st5" d="M465.9,96.1h39.3V107h-24.6v12.8h20.7v10.9h-20.7v13.9h25.5v10.9h-40.2V96.1z"/>
	<path class="st5" d="M509.4,96.1h24.5c11.6,0,19.4,5.6,19.4,16.5c0,8.9-6.1,14.3-12,16.1c1.8,1.5,3.1,3.5,4.1,5.6
		c2.5,5,4.1,10.6,9.3,10.6c1.3,0,2.4-0.4,2.4-0.4l-1.1,10.5c0,0-3.2,0.8-5.9,0.8c-7,0-11.1-2.7-15.2-12.1
		c-1.8-4.2-4.2-11.6-7.5-11.6h-3.3v23.5h-14.7V96.1z M524.1,106.7v14.6h5.3c4.2,0,9.2-1.3,9.2-7.7c0-5.2-3.3-7-7.4-7H524.1z"/>
	<path class="st5" d="M553.5,96.1h15.2l11.2,33.5c1.4,4.3,1.9,10.7,1.9,10.7h0.4c0,0,0.6-6.4,2-10.6l11-33.6h13.3l-20.3,59.4h-14.3
		L553.5,96.1z"/>
	<path class="st5" d="M606.8,96.1h30.6v10.4h-8v38.6h8v10.4h-30.6v-10.4h7.9v-38.6h-7.9V96.1z"/>
	<path class="st5" d="M638.3,125.4c0-21.5,10.6-30.4,27.1-30.4c17.3,0,24.3,9.5,22.4,22.4l-13.7,1.2c1.5-9.4-2.2-13.2-8.9-13.2
		c-6.4,0-11.6,4.8-11.6,20.1c0,16.2,5.6,20.3,12.1,20.3c6.1,0,11-3.8,9.9-11.5l12.8,1.3c1,12.1-7.7,20.9-23.6,20.9
		C648.7,156.5,638.3,147,638.3,125.4z"/>
	<path class="st5" d="M691.8,96.1h39.3V107h-24.6v12.8h20.7v10.9h-20.7v13.9h25.5v10.9h-40.2V96.1z"/>
	<path class="st5" d="M745.2,136c-1.1,4.8,0.8,10.2,10.1,10.2c6.2,0,8.3-2.5,8.3-5.7c0-4.9-4.9-6.2-10.7-8.3
		c-8.7-3-19.4-7.2-19.4-19.6c0-11.1,8.5-17.9,23.1-17.5c17.8,0.4,22.8,10.8,20.9,19.9l-13.5,1.2c0.9-6.9-1.6-10.7-8.5-10.7
		c-4.7,0-7.3,1.8-7.3,5.5c0,4.9,4.8,6.4,10.6,8.4c9,3,19.6,6.6,19.6,18.9c0,10.6-7.9,18.3-23.4,18.3c-14.5,0-24.5-6.7-22.4-19.4
		L745.2,136z"/>
</g>
<g>
	<path class="st89" d="M88.3,176.6C39.6,176.6,0,137,0,88.3S39.6,0,88.3,0s88.3,39.6,88.3,88.3S137,176.6,88.3,176.6z"/>
	<path class="st90" d="M88.3,149.8c-33.9,0-61.5-27.6-61.5-61.5c0-33.9,27.6-61.5,61.5-61.5s61.5,27.6,61.5,61.5
		C149.8,122.2,122.2,149.8,88.3,149.8z"/>
	<circle class="st11" cx="88.3" cy="88.3" r="34.6"/>
</g>
</svg>
