<?xml version="1.0" encoding="utf-8"?>
<!-- Generator: Adobe Illustrator 19.1.0, SVG Export Plug-In . SVG Version: 6.00 Build 0)  -->
<svg version="1.1" id="Layer_1" xmlns="http://www.w3.org/2000/svg" xmlns:xlink="http://www.w3.org/1999/xlink" x="0px" y="0px"
	 viewBox="0 0 566 496" style="enable-background:new 0 0 566 496;" xml:space="preserve">
<style type="text/css">
	.st0{fill:#0075A8;}
	.st1{fill:#FFFFFF;stroke:#3D3D3D;stroke-width:10;stroke-miterlimit:10;}
	.st2{fill:#3D3D3D;}
	.st3{fill:#FFFFFF;}
	.st4{fill:none;stroke:#3D3D3D;stroke-width:7;stroke-miterlimit:10;}
	.st5{fill:url(#);stroke:#3D3D3D;stroke-width:7;stroke-miterlimit:10;}
	.st6{fill:#FFFFFF;stroke:#3D3D3D;stroke-width:7;stroke-miterlimit:10;}
	.st7{fill:#FFFFFF;stroke:#3D3D3D;stroke-width:5;stroke-miterlimit:10;}
	.st8{fill:#DABCAA;}
	.st9{fill:url(#);}
	.st10{fill:#D6DBDF;}
	.st11{fill:#66767C;}
	.st12{fill:#EBEDEF;stroke:#66767C;stroke-width:5;stroke-miterlimit:10;}
	.st13{fill:none;stroke:#66767C;stroke-width:5;stroke-miterlimit:10;}
	.st14{fill:#3498DB;}
	.st15{fill:#2980B9;}
	.st16{fill:none;stroke:#809EAD;stroke-width:7;stroke-miterlimit:10;}
	.st17{fill:none;stroke:#000000;stroke-width:3;stroke-miterlimit:10;}
	.st18{fill:none;}
	.st19{fill:none;stroke:#000000;stroke-width:0.3;stroke-linejoin:round;}
	.st20{fill:none;stroke:#000000;stroke-width:3;stroke-miterlimit:10;stroke-dasharray:2,10,5,10,10,10;}
	.st21{fill:none;stroke:#000000;stroke-width:3;stroke-miterlimit:10;stroke-dasharray:1,10,10,5,10,4;}
	.st22{fill:none;stroke:#000000;stroke-width:3;stroke-miterlimit:10;stroke-dasharray:8,10,2,10,4,10;}
	.st23{fill:none;stroke:#000000;stroke-width:3;stroke-miterlimit:10;stroke-dasharray:20,10,5,10,10,10;}
	.st24{fill:url(#);stroke:#000000;stroke-width:3;stroke-miterlimit:10;}
	.st25{fill:#CF9E76;}
	.st26{fill:url(#);stroke:#926D5A;stroke-width:10;stroke-miterlimit:10;}
	.st27{fill:#926D5A;}
	.st28{fill:none;stroke:#FF30C6;stroke-miterlimit:10;}
	.st29{fill:none;stroke:#000000;stroke-miterlimit:10;}
	.st30{fill:none;stroke:#000000;stroke-width:2;stroke-miterlimit:10;}
	.st31{fill:none;stroke:#000000;stroke-width:4;stroke-miterlimit:10;}
	.st32{fill:none;stroke:#000000;stroke-width:5;stroke-miterlimit:10;}
	.st33{fill:none;stroke:#000000;stroke-width:6;stroke-miterlimit:10;}
	.st34{fill:none;stroke:#3D3D3D;stroke-width:10;stroke-miterlimit:10;}
	.st35{fill:none;stroke:#3D3D3D;stroke-width:5;stroke-miterlimit:10;stroke-dasharray:10,7,10,7,10,7;}
	.st36{fill:none;stroke:#3D3D3D;stroke-width:2;stroke-miterlimit:10;stroke-dasharray:10,7,10,7,10,7;}
	.st37{fill:#FFFFFF;stroke:#3D3D3D;stroke-width:2;stroke-miterlimit:10;stroke-dasharray:6,5,5,5,5,5;}
	.st38{fill:#FFFFFF;stroke:#3D3D3D;stroke-width:3;stroke-miterlimit:10;}
	.st39{fill:#FFFFFF;stroke:#3D3D3D;stroke-width:3;stroke-miterlimit:10;stroke-dasharray:10,7,10,7,10,7;}
	.st40{fill:none;stroke:#3D3D3D;stroke-width:3;stroke-linecap:square;stroke-miterlimit:10;}
	.st41{fill:url(#);stroke:#3D3D3D;stroke-width:3;stroke-linecap:square;stroke-miterlimit:10;}
	.st42{fill:none;stroke:#231F20;stroke-width:0.3;}
	.st43{fill:url(#);stroke:#3D3D3D;stroke-width:10;stroke-miterlimit:10;}
</style>
<g>
	<g>
		<path class="st2" d="M519.4,69.6c0.4,5.9,0.7,11.5,1.5,16.3c0,0.1,0,0.3,0,0.5c2.5,0.9,5.7,1.6,9,3.6h5.5
			c11.2,0,19.2-9.3,17.2-20.5l-5.6-35.3c-1.6-11.2-6.1-20.5-9.7-20.5c-3.6,0-6.5,9.2-6.5,20.8v9.2c0,8.5-4.9,15.7-12.1,19
			C519.1,65,519.3,67.3,519.4,69.6z"/>
		<path class="st2" d="M478.6,123.2c-2.4,0.3-4.9,0.4-7.4,0.2c-19.6-1.2-37.3-16.6-49.2-27.2c-14.6,1.4-26.3,1.8-35.9,1.2
			c-0.4,0-0.9-0.2-1.3-0.3c-1.5,0.7-3.2,0.9-4.9,0.9h-48.5c-8,0-13.6-7.1-12.4-14.7l4.8-29.5c1.2-7.6-4.8-14.7-12.4-14.7H70.2
			c-5.2,0-9.6,3.1-11.6,7.6l-45.3,69.3c-0.8,1.2-0.8,2.8,0.4,3.6l8.8,10.4c1.2,1.2,3.3,1.6,4.5,0.4l31-24.4v148.7
			c0,6.8,5.4,12.5,12.6,12.5h68.5c6.8,0,12.8-5.3,12.8-12.5v-51.3c0-6.8,5.6-13.2,12.8-13.2h171.1c7.2,0,13.1,6,13.1,13.2v51.3
			c0,6.8,5.4,12.5,12.6,12.5h68.5c6.8,0,12.9-5.3,12.9-12.5V199h-36.5c-11.6,0-20.5-9-20.5-20.7v-35.7c0-6.8,3-12.8,8-16.4v42.5
			c0,11.6,9.3,21.3,20.9,21.3H471c11.6,0,21-9.6,21-21.3v-48.9C488,121.3,483.4,122.6,478.6,123.2z"/>
	</g>
	<g>
		<path class="st0" d="M421.7,87.9c-8.3-47-8.7-56.8-0.2-67.7c-15.8,4.3-38.2,16.3-32.3,69.8C409.5,90.8,421.7,87.9,421.7,87.9z"/>
		<g>
			<path class="st2" d="M550.8,104c-0.2-1.5-1.4-2.9-6.8-5.7c-3-1.5-7.1-3.4-12.2-5.5c-4.8-2-9.7-3.9-13.2-5.1c0.1-0.5,0.1-1,0-1.5
				c-0.8-4.9-1.2-10.6-1.5-16.5c-0.8-12.8-1.7-27.4-7.8-39.1c-3.4-6.5-8.3-11.6-14.5-15.3c-6.8-4-15.5-6.4-25.8-7.1
				c-3.7-0.2-7.7-0.2-11.8,0c0,0-0.1,0-0.1,0c-1.5,0.1-2.9,0.2-4.4,0.3c-20,1.4-42.6,2.9-56.9,19.6c-11.4,13.3-15.8,34-13.3,63.4
				c0.2,2,1.8,3.5,3.7,3.7c11,0.7,23.6,0,36.5-1.3c12.9,11.5,29.8,26.1,48.5,27.3c2.3,0.1,4.6,0.1,7-0.2c6.4-0.8,12-2.8,17.9-5
				c5.7-2.1,12.2-4.4,20.5-6.1c7.4-1.5,14.4-1.5,20-1.5c6.1,0,10.4-0.1,13-1.8C550.5,106,551,105,550.8,104z M457.5,12.3
				c4.1-0.2,7.9-0.2,11.4,0c50.3,3.1,41.7,46.9,45.9,74c-0.3-0.1-0.4-0.2-0.5-0.2l0,0c-2.1-2.4-6.4-3.7-12.5-4
				c-16.3-1-44.8,4.1-72.7,7.2c-0.2-0.9-0.3-1.9-0.5-2.8l-2,0.3c0.1,0.9,0.3,1.8,0.5,2.7c-1,0.1-2,0.2-3,0.3l0,0
				c-4-23-5.7-41.2-4.9-54.2c0.9-15.3,5-19.2,8.2-19.8l-0.1-0.3c0.2,0,0.5-0.1,0.7-0.1c-0.4,0.3-0.8,0.7-1.2,1.1l1.5,1.3
				c0.8-1,1.7-1.6,2.8-2l-0.3-1C439.7,13.3,448.8,12.9,457.5,12.3z M386.5,91.2c-4.1-49,11.8-66.6,32.8-73.6
				c-7.4,13-4.1,44.9,0.8,72.6C408.2,91.3,396.7,91.9,386.5,91.2z M536.6,104.4c-5.8,0-12.9,0.1-20.7,1.6
				c-8.6,1.7-15.2,4.1-21.1,6.2c-5.9,2.2-11.1,4-17,4.8c-18.5,2.3-35.5-11.2-49.6-23.7c8.9-1,17.8-2.1,26.3-3.3
				c18.5-2.4,36-4.7,47-4c7.8,0.5,9.5,2.3,9.9,2.9c0.7,1.2,1.9,1.9,3.2,1.9c0.3,0,0.7,0,1-0.1c3,1.1,8.4,3.1,14.1,5.4
				c10.1,4.1,14.4,6.5,16.1,7.6C543.7,104.4,540.3,104.4,536.6,104.4z"/>
			<path class="st2" d="M427,19.9l-1.8-0.9c-0.6,1.1-1.1,2.4-1.5,3.9l1.9,0.6C426.1,22.1,426.5,20.9,427,19.9z"/>
			<path class="st2" d="M423.8,39.4l-2,0c0,1.3,0,2.6,0,4l2,0C423.8,42,423.8,40.7,423.8,39.4z"/>
			<path class="st2" d="M424,46.2l-2,0.1c0,1.3,0.1,2.6,0.2,4l2-0.1C424.1,48.8,424,47.5,424,46.2z"/>
			<path class="st2" d="M425,26.1l-2-0.4c-0.3,1.2-0.5,2.6-0.6,4l2,0.2C424.6,28.6,424.8,27.3,425,26.1z"/>
			<path class="st2" d="M424,34.2c0-0.5,0.1-1,0.1-1.4l-2-0.2c0,0.5-0.1,1-0.1,1.5c-0.1,0.8-0.1,1.7-0.1,2.6l2,0.1
				C423.9,35.8,424,35,424,34.2z"/>
			<path class="st2" d="M424.9,59.7l-2,0.2c0.1,1.3,0.3,2.6,0.4,4l2-0.2C425.2,62.3,425.1,61,424.9,59.7z"/>
			<path class="st2" d="M425.6,80.1c0.2,1.3,0.4,2.6,0.6,4l2-0.3c-0.2-1.3-0.4-2.6-0.6-3.9L425.6,80.1z"/>
			<path class="st2" d="M424.3,52.9l-2,0.1c0.1,1.3,0.2,2.6,0.3,4l2-0.2C424.5,55.5,424.4,54.2,424.3,52.9z"/>
			<path class="st2" d="M426.6,73.1l-2,0.3c0.2,1.3,0.4,2.6,0.6,4l2-0.3C426.9,75.7,426.7,74.4,426.6,73.1z"/>
			<path class="st2" d="M425.7,66.4l-2,0.2c0.2,1.3,0.3,2.6,0.5,4l2-0.3C426,69,425.8,67.7,425.7,66.4z"/>
		</g>
	</g>
	<path class="st2" d="M407.8,64.7c0-13.1-2.8-23.8-6.8-24.9V40h-48v-5.5c0-11.6-2.9-20.8-6.5-20.8c-3.6,0-8.1,9.2-9.7,20.4l-6,35.4
		c-2,11.2,6,20.5,17.2,20.5h53v-0.3C404,88.8,407.8,78,407.8,64.7z"/>
</g>
<g>
	<path class="st2" d="M78.5,345.4c0.4,0,0.8,0.1,1.2,0.2c0.4,0.2,0.8,0.4,1.2,0.8l6.7,7c-2.9,3.8-6.6,6.7-11,8.7
		c-4.4,1.9-9.6,2.9-15.7,2.9c-5.5,0-10.5-0.9-14.9-2.8c-4.4-1.9-8.1-4.5-11.2-7.8c-3-3.3-5.4-7.2-7-11.8c-1.6-4.6-2.5-9.5-2.5-14.8
		c0-5.4,0.9-10.4,2.7-15c1.8-4.5,4.2-8.5,7.4-11.8c3.2-3.3,7-5.9,11.5-7.7c4.5-1.8,9.4-2.8,14.8-2.8c2.7,0,5.3,0.2,7.7,0.7
		c2.4,0.5,4.7,1.2,6.8,2c2.1,0.8,4,1.9,5.8,3.1c1.8,1.2,3.3,2.5,4.7,3.9L81,308c-0.4,0.5-0.8,0.9-1.3,1.3s-1.2,0.6-2.1,0.6
		c-0.6,0-1.2-0.1-1.7-0.4c-0.5-0.3-1.1-0.6-1.7-1c-0.6-0.4-1.3-0.8-2-1.2c-0.7-0.4-1.6-0.9-2.5-1.2c-1-0.4-2.1-0.7-3.5-1
		c-1.3-0.3-2.9-0.4-4.6-0.4c-2.8,0-5.4,0.5-7.7,1.6c-2.3,1-4.3,2.5-6,4.5c-1.7,2-3,4.4-3.9,7.3c-0.9,2.9-1.4,6.2-1.4,9.9
		c0,3.7,0.5,7.1,1.5,10c1,2.9,2.4,5.3,4.1,7.3c1.8,2,3.8,3.5,6.1,4.5s4.8,1.6,7.5,1.6c1.5,0,2.9-0.1,4.2-0.2
		c1.3-0.1,2.5-0.4,3.5-0.8c1.1-0.3,2.1-0.8,3.1-1.4c1-0.6,2-1.3,3-2.2c0.4-0.3,0.8-0.6,1.3-0.8C77.6,345.5,78,345.4,78.5,345.4z"/>
	<path class="st2" d="M174.8,327.8c0,5.3-0.9,10.2-2.7,14.7c-1.8,4.5-4.4,8.5-7.7,11.8c-3.3,3.3-7.3,6-11.9,7.9
		c-4.6,1.9-9.8,2.8-15.5,2.8c-5.7,0-10.8-0.9-15.5-2.8c-4.7-1.9-8.7-4.5-12-7.9c-3.3-3.3-5.9-7.3-7.7-11.8
		c-1.8-4.5-2.7-9.4-2.7-14.7c0-5.3,0.9-10.2,2.7-14.7c1.8-4.5,4.4-8.5,7.7-11.8c3.3-3.3,7.3-5.9,12-7.8c4.7-1.9,9.8-2.8,15.5-2.8
		c5.7,0,10.8,1,15.5,2.9c4.7,1.9,8.6,4.5,11.9,7.9c3.3,3.3,5.9,7.3,7.7,11.8C173.9,317.7,174.8,322.6,174.8,327.8z M157.5,327.8
		c0-3.6-0.5-6.8-1.4-9.7c-0.9-2.9-2.3-5.3-4-7.3s-3.9-3.5-6.4-4.6c-2.5-1.1-5.4-1.6-8.7-1.6c-3.3,0-6.2,0.5-8.7,1.6
		c-2.6,1.1-4.7,2.6-6.5,4.6s-3.1,4.4-4,7.3c-0.9,2.9-1.4,6.1-1.4,9.7c0,3.6,0.5,6.9,1.4,9.8c0.9,2.9,2.3,5.3,4,7.3s3.9,3.5,6.5,4.6
		c2.5,1.1,5.5,1.6,8.7,1.6c3.2,0,6.1-0.5,8.7-1.6c2.5-1.1,4.7-2.6,6.4-4.6s3.1-4.4,4-7.3C157,334.7,157.5,331.5,157.5,327.8z"/>
	<path class="st2" d="M258.3,291.4v72.8h-8.8c-1.3,0-2.4-0.2-3.3-0.6c-0.9-0.4-1.8-1.1-2.6-2.2L209.3,318c0.1,1.3,0.2,2.6,0.3,3.8
		s0.1,2.4,0.1,3.4v39.1h-14.9v-72.8h8.9c0.7,0,1.3,0,1.8,0.1s1,0.2,1.4,0.4c0.4,0.2,0.8,0.4,1.1,0.8c0.4,0.3,0.8,0.8,1.2,1.3
		l34.7,43.8c-0.2-1.4-0.3-2.8-0.4-4.1c-0.1-1.3-0.1-2.6-0.1-3.7v-38.5H258.3z"/>
	<path class="st2" d="M347.8,291.4l-29.2,72.8h-15.3l-29.2-72.8h13.6c1.5,0,2.7,0.3,3.5,1c0.9,0.7,1.6,1.6,2.1,2.6l14.1,39
		c0.7,1.7,1.3,3.6,2,5.6c0.6,2,1.2,4.1,1.8,6.3c0.5-2.2,1-4.3,1.6-6.3c0.6-2,1.2-3.9,1.9-5.6l14-39c0.4-0.9,1-1.8,2-2.5
		s2.1-1.1,3.5-1.1H347.8z"/>
	<path class="st2" d="M432.4,327.8c0,5.3-0.9,10.2-2.7,14.7c-1.8,4.5-4.4,8.5-7.7,11.8c-3.3,3.3-7.3,6-11.9,7.9
		c-4.6,1.9-9.8,2.8-15.5,2.8c-5.7,0-10.8-0.9-15.5-2.8c-4.7-1.9-8.7-4.5-12-7.9c-3.3-3.3-5.9-7.3-7.7-11.8
		c-1.8-4.5-2.7-9.4-2.7-14.7c0-5.3,0.9-10.2,2.7-14.7c1.8-4.5,4.4-8.5,7.7-11.8c3.3-3.3,7.3-5.9,12-7.8c4.7-1.9,9.8-2.8,15.5-2.8
		c5.7,0,10.8,1,15.5,2.9c4.7,1.9,8.6,4.5,11.9,7.9c3.3,3.3,5.9,7.3,7.7,11.8C431.5,317.7,432.4,322.6,432.4,327.8z M415.1,327.8
		c0-3.6-0.5-6.8-1.4-9.7c-0.9-2.9-2.3-5.3-4-7.3s-3.9-3.5-6.4-4.6c-2.5-1.1-5.4-1.6-8.7-1.6c-3.3,0-6.2,0.5-8.7,1.6
		c-2.6,1.1-4.7,2.6-6.5,4.6s-3.1,4.4-4,7.3c-0.9,2.9-1.4,6.1-1.4,9.7c0,3.6,0.5,6.9,1.4,9.8c0.9,2.9,2.3,5.3,4,7.3s3.9,3.5,6.5,4.6
		c2.5,1.1,5.5,1.6,8.7,1.6c3.2,0,6.1-0.5,8.7-1.6c2.5-1.1,4.7-2.6,6.4-4.6s3.1-4.4,4-7.3C414.6,334.7,415.1,331.5,415.1,327.8z"/>
	<path class="st2" d="M482.6,336.6v27.7h-16.9v-27.7l-26.4-45.1h14.9c1.5,0,2.6,0.3,3.5,1c0.8,0.7,1.6,1.6,2.1,2.6l10.3,21.2
		c0.9,1.7,1.6,3.2,2.3,4.7c0.7,1.5,1.3,2.9,1.9,4.3c0.5-1.4,1.1-2.9,1.7-4.3c0.7-1.5,1.4-3,2.3-4.6l10.2-21.2
		c0.2-0.4,0.5-0.9,0.9-1.3c0.3-0.4,0.7-0.8,1.2-1.2s1-0.6,1.5-0.8s1.2-0.3,1.9-0.3h15L482.6,336.6z"/>
	<path class="st0" d="M89.2,441.4v24c-3.5,2.4-7.2,4.2-11.2,5.6s-8.5,2.1-13.5,2.1c-5.5,0-10.5-0.8-14.8-2.5
		c-4.4-1.7-8.1-4.1-11.2-7.2c-3.1-3.1-5.4-6.9-7.1-11.3c-1.6-4.4-2.5-9.4-2.5-14.9s0.8-10.5,2.4-14.9c1.6-4.4,3.9-8.2,7-11.3
		s6.7-5.5,11-7.2c4.3-1.7,9.1-2.5,14.5-2.5c2.6,0,5.1,0.2,7.3,0.5c2.2,0.3,4.3,0.8,6.2,1.5c1.9,0.7,3.7,1.5,5.4,2.6
		c1.7,1,3.3,2.2,4.9,3.6l-0.7,1.1c-0.3,0.4-0.6,0.5-1.1,0.4c-0.3-0.1-0.9-0.5-1.8-1.3c-0.9-0.8-2.2-1.6-3.9-2.5s-3.9-1.7-6.5-2.4
		c-2.6-0.7-5.9-1.1-9.7-1.1c-4.9,0-9.3,0.8-13.3,2.3c-4,1.5-7.3,3.8-10.1,6.7s-4.9,6.4-6.4,10.6c-1.5,4.1-2.2,8.8-2.2,14.1
		c0,5.2,0.8,9.9,2.2,14.1c1.5,4.2,3.7,7.7,6.5,10.6c2.8,2.9,6.2,5.1,10.3,6.7c4,1.6,8.6,2.3,13.7,2.3c2.3,0,4.4-0.1,6.4-0.4
		s3.9-0.7,5.6-1.3c1.8-0.6,3.5-1.3,5.2-2.1c1.7-0.8,3.3-1.7,5-2.8v-20.7H71.8c-0.2,0-0.4-0.1-0.6-0.2c-0.2-0.2-0.2-0.3-0.2-0.5v-1.4
		H89.2z"/>
	<path class="st0" d="M154.9,469.9v2.4h-37.6V402h2.8v67.9H154.9z"/>
	<path class="st0" d="M199,470.7c3.6,0,6.9-0.6,9.7-1.9s5.3-3,7.2-5.3c2-2.2,3.5-4.9,4.5-7.9c1-3,1.6-6.3,1.6-9.7V402h2.8v43.9
		c0,3.8-0.6,7.4-1.8,10.7s-2.9,6.2-5.2,8.7s-5,4.4-8.2,5.8c-3.2,1.4-6.8,2.1-10.8,2.1s-7.6-0.7-10.8-2.1c-3.2-1.4-5.9-3.4-8.1-5.8
		c-2.2-2.5-4-5.4-5.2-8.7s-1.8-6.9-1.8-10.7V402h2.8v43.8c0,3.5,0.5,6.7,1.6,9.8s2.6,5.7,4.5,7.9c2,2.2,4.4,4,7.3,5.3
		C192.1,470,195.4,470.7,199,470.7z"/>
	<path class="st0" d="M289.5,409.3c-0.2,0.3-0.5,0.5-0.8,0.5c-0.4,0-0.9-0.3-1.5-1c-0.6-0.7-1.6-1.4-2.7-2.2
		c-1.2-0.8-2.7-1.5-4.5-2.2c-1.8-0.6-4.1-1-6.8-1c-2.7,0-5.2,0.4-7.3,1.2c-2.1,0.8-3.9,1.9-5.3,3.3s-2.5,3-3.2,4.8
		c-0.7,1.8-1.1,3.7-1.1,5.7c0,2.6,0.5,4.7,1.5,6.4s2.4,3.2,4.1,4.3c1.7,1.2,3.6,2.2,5.8,3c2.2,0.8,4.4,1.6,6.6,2.3s4.5,1.6,6.6,2.4
		c2.2,0.8,4.1,1.9,5.8,3.2c1.7,1.3,3.1,2.9,4.1,4.8c1,1.9,1.5,4.3,1.5,7.1c0,2.9-0.5,5.6-1.5,8.2c-1,2.6-2.4,4.8-4.3,6.7
		c-1.9,1.9-4.2,3.4-6.9,4.4c-2.7,1.1-5.8,1.6-9.3,1.6c-2.4,0-4.5-0.2-6.4-0.6c-1.9-0.4-3.7-1-5.3-1.8c-1.6-0.8-3.1-1.7-4.5-2.9
		c-1.3-1.1-2.6-2.4-3.9-3.8l0.7-1c0.2-0.2,0.3-0.3,0.4-0.4c0.1-0.1,0.3-0.1,0.5-0.1c0.2,0,0.6,0.2,1,0.6c0.4,0.4,1,0.9,1.6,1.5
		c0.7,0.6,1.5,1.3,2.4,2c0.9,0.7,2,1.4,3.3,2c1.3,0.6,2.8,1.1,4.4,1.6s3.6,0.6,5.7,0.6c3,0,5.8-0.5,8.1-1.4c2.4-0.9,4.4-2.2,6.1-3.9
		c1.7-1.6,2.9-3.6,3.8-5.8c0.9-2.2,1.3-4.6,1.3-7.1c0-2.7-0.5-4.9-1.5-6.6c-1-1.7-2.4-3.2-4.1-4.3c-1.7-1.2-3.6-2.1-5.8-2.9
		s-4.4-1.5-6.6-2.2s-4.5-1.5-6.6-2.3s-4.1-1.9-5.8-3.2c-1.7-1.3-3-3-4.1-4.9s-1.5-4.4-1.5-7.3c0-2.3,0.4-4.5,1.3-6.6
		c0.9-2.1,2.1-4,3.8-5.6c1.6-1.6,3.7-2.9,6.1-3.9c2.4-1,5.2-1.4,8.3-1.4c3.5,0,6.7,0.6,9.4,1.7c2.7,1.1,5.3,2.9,7.6,5.3L289.5,409.3
		z"/>
	<path class="st0" d="M364.1,404.4h-25.8v67.9h-2.8v-67.9h-25.9V402h54.4V404.4z"/>
	<path class="st0" d="M428.3,469.9l-0.1,2.3h-41.5V402h41.5v2.3h-38.8v31.2h32.6v2.3h-32.6v32.2H428.3z"/>
	<path class="st0" d="M501.5,472.3h-2.2c-0.4,0-0.7-0.1-1-0.2c-0.3-0.1-0.6-0.3-0.8-0.7l-24.8-30.4c-0.3-0.4-0.5-0.7-0.8-0.9
		c-0.3-0.2-0.6-0.4-1-0.6c-0.3-0.2-0.8-0.3-1.2-0.3s-1.1-0.1-1.8-0.1h-10.2v33.1h-2.8V402h16.9c7.6,0,13.4,1.5,17.4,4.5
		s6,7.5,6,13.5c0,2.8-0.5,5.3-1.5,7.5c-1,2.2-2.5,4.2-4.4,5.9c-1.9,1.6-4.1,3-6.8,3.9c-2.7,1-5.6,1.6-8.8,1.8
		c0.6,0.3,1.2,0.8,1.8,1.5L501.5,472.3z M457.6,437.1H471c3.3,0,6.3-0.4,8.9-1.2c2.7-0.8,4.9-1.9,6.8-3.4c1.9-1.5,3.3-3.3,4.2-5.4
		s1.5-4.5,1.5-7.1c0-5.4-1.8-9.4-5.3-12c-3.5-2.6-8.6-3.8-15.3-3.8h-14.2V437.1z"/>
</g>
</svg>
