<?xml version="1.0" encoding="utf-8"?>
<!-- Generator: Adobe Illustrator 21.1.0, SVG Export Plug-In . SVG Version: 6.00 Build 0)  -->
<svg version="1.1" id="svg2" xmlns="http://www.w3.org/2000/svg" xmlns:xlink="http://www.w3.org/1999/xlink" x="0px" y="0px"
	 viewBox="0 0 524 142.2" style="enable-background:new 0 0 524 142.2;" xml:space="preserve">
<style type="text/css">
	.st0{fill:#326CE5;}
	.st1{fill:#FFFFFF;stroke:#FFFFFF;stroke-width:0.25;}
</style>
<g>
	<path class="st0" d="M187.8,89.4c3.7,0.1,6.4,1.1,8.3,3.1c1.9,2,2.8,4.9,2.8,8.9c0,4-0.9,7-2.8,8.9s-4.6,3-8.3,3.1h-8.3v-24H187.8z
		 M186.6,111.5c1.7,0,3.2-0.2,4.5-0.6c1.2-0.4,2.3-1,3.1-1.8c0.8-0.8,1.4-1.9,1.8-3.1c0.4-1.3,0.6-2.8,0.6-4.6
		c0-1.8-0.2-3.3-0.6-4.6c-0.4-1.3-1-2.3-1.8-3.1c-0.8-0.8-1.8-1.4-3.1-1.8c-1.2-0.4-2.7-0.6-4.5-0.6h-4.9v20.1H186.6z"/>
	<path class="st0" d="M215.4,89.4l9.4,24h-2.5l-2.9-7.5h-10.9l-2.9,7.5h-2.4l9.7-24H215.4z M218.7,104l-4.6-12.3l-4.8,12.3H218.7z"
		/>
	<path class="st0" d="M232.1,108.6c0.4,0.8,1,1.5,1.7,2c0.7,0.5,1.5,0.8,2.5,1.1c1,0.2,2,0.3,3.1,0.3c0.6,0,1.3-0.1,2.1-0.3
		c0.7-0.2,1.4-0.5,2.1-0.9c0.6-0.4,1.2-0.9,1.6-1.5c0.4-0.6,0.6-1.4,0.6-2.2c0-0.7-0.2-1.3-0.5-1.7c-0.3-0.5-0.7-0.9-1.2-1.2
		c-0.5-0.3-1-0.6-1.6-0.8c-0.6-0.2-1.2-0.4-1.7-0.5l-5.3-1.3c-0.7-0.2-1.4-0.4-2-0.7c-0.7-0.3-1.2-0.6-1.7-1.1
		c-0.5-0.4-0.9-1-1.2-1.6c-0.3-0.7-0.5-1.4-0.5-2.4c0-0.6,0.1-1.3,0.3-2.1c0.2-0.8,0.6-1.5,1.3-2.2c0.6-0.7,1.5-1.3,2.5-1.8
		c1.1-0.5,2.5-0.7,4.1-0.7c1.2,0,2.3,0.2,3.4,0.5c1.1,0.3,2,0.8,2.8,1.4c0.8,0.6,1.5,1.4,1.9,2.3c0.5,0.9,0.7,2,0.7,3.2h-2.3
		c0-0.9-0.3-1.7-0.6-2.4s-0.9-1.3-1.4-1.7c-0.6-0.5-1.3-0.8-2.1-1c-0.8-0.2-1.6-0.4-2.4-0.4c-0.8,0-1.5,0.1-2.3,0.3
		c-0.7,0.2-1.4,0.4-1.9,0.8c-0.6,0.4-1,0.9-1.3,1.5c-0.3,0.6-0.5,1.4-0.5,2.3c0,0.6,0.1,1,0.3,1.5s0.5,0.8,0.8,1.1
		c0.3,0.3,0.7,0.5,1.2,0.7c0.4,0.2,0.9,0.3,1.4,0.4l5.9,1.4c0.9,0.2,1.7,0.5,2.4,0.8c0.8,0.3,1.4,0.7,2,1.2c0.6,0.5,1,1.1,1.3,1.8
		c0.3,0.7,0.5,1.5,0.5,2.5c0,0.3,0,0.6-0.1,1.1c-0.1,0.4-0.2,0.9-0.4,1.4c-0.2,0.5-0.5,1-0.9,1.5c-0.4,0.5-0.9,1-1.6,1.4
		c-0.7,0.4-1.5,0.8-2.5,1s-2.2,0.4-3.6,0.4c-1.4,0-2.7-0.2-3.9-0.5c-1.2-0.3-2.2-0.8-3.1-1.5c-0.9-0.7-1.5-1.5-2-2.6
		c-0.5-1.1-0.7-2.3-0.6-3.8h2.3C231.5,106.7,231.7,107.8,232.1,108.6z"/>
	<path class="st0" d="M257.3,89.4v10.4h14.3V89.4h2.3v24h-2.3v-11.6h-14.3v11.6H255v-24H257.3z"/>
	<path class="st0" d="M292.2,89.4c1,0,2,0.1,2.9,0.3c0.9,0.2,1.7,0.5,2.5,1s1.3,1.1,1.7,1.8s0.6,1.7,0.6,2.8c0,0.6-0.1,1.2-0.3,1.8
		c-0.2,0.6-0.5,1.1-0.9,1.6c-0.4,0.5-0.8,0.9-1.3,1.2c-0.5,0.3-1.1,0.6-1.7,0.7v0.1c1.5,0.2,2.8,0.8,3.7,1.9c0.9,1.1,1.4,2.4,1.4,4
		c0,0.4,0,0.8-0.1,1.3c-0.1,0.5-0.2,1-0.4,1.5c-0.2,0.5-0.5,1-0.9,1.5c-0.4,0.5-0.9,0.9-1.5,1.3c-0.6,0.4-1.4,0.7-2.4,0.9
		c-0.9,0.2-2,0.4-3.3,0.4H282v-24H292.2z M292.2,99.9c0.9,0,1.7-0.1,2.4-0.3c0.7-0.2,1.2-0.5,1.7-0.9c0.4-0.4,0.8-0.8,1-1.3
		c0.2-0.5,0.3-1,0.3-1.6c0-3-1.8-4.5-5.4-4.5h-7.9v8.6H292.2z M292.2,111.5c0.9,0,1.7-0.1,2.4-0.2c0.8-0.1,1.4-0.4,2-0.8
		c0.6-0.4,1-0.9,1.4-1.5c0.3-0.6,0.5-1.4,0.5-2.4c0-1.5-0.5-2.7-1.6-3.5c-1.1-0.8-2.7-1.2-4.7-1.2h-7.9v9.6H292.2z"/>
	<path class="st0" d="M307.3,96.7c0.5-1.5,1.2-2.8,2.1-4s2.1-2.1,3.6-2.8c1.4-0.7,3.1-1,5-1c1.9,0,3.5,0.3,4.9,1
		c1.4,0.7,2.6,1.6,3.5,2.8s1.6,2.5,2.1,4c0.5,1.5,0.7,3.1,0.7,4.7s-0.2,3.2-0.7,4.7c-0.5,1.5-1.2,2.8-2.1,4
		c-0.9,1.1-2.1,2.1-3.5,2.7c-1.4,0.7-3.1,1-4.9,1c-1.9,0-3.5-0.3-5-1c-1.4-0.7-2.6-1.6-3.6-2.7c-0.9-1.1-1.6-2.5-2.1-4
		c-0.5-1.5-0.7-3.1-0.7-4.7S306.8,98.2,307.3,96.7z M309.4,105.3c0.3,1.3,0.9,2.4,1.6,3.4c0.7,1,1.7,1.8,2.8,2.4
		c1.1,0.6,2.5,0.9,4.1,0.9c1.6,0,3-0.3,4.1-0.9c1.1-0.6,2.1-1.4,2.8-2.4c0.7-1,1.3-2.1,1.6-3.4c0.3-1.3,0.5-2.6,0.5-3.9
		c0-1.3-0.2-2.6-0.5-3.9c-0.3-1.3-0.9-2.4-1.6-3.4c-0.7-1-1.7-1.8-2.8-2.4c-1.1-0.6-2.5-0.9-4.1-0.9c-1.6,0-3,0.3-4.1,0.9
		c-1.1,0.6-2.1,1.4-2.8,2.4c-0.7,1-1.3,2.1-1.6,3.4c-0.3,1.3-0.5,2.5-0.5,3.9C308.9,102.7,309,104,309.4,105.3z"/>
	<path class="st0" d="M345.7,89.4l9.4,24h-2.5l-2.9-7.5h-10.9l-2.9,7.5h-2.4l9.7-24H345.7z M349,104l-4.6-12.3l-4.8,12.3H349z"/>
	<path class="st0" d="M371.7,89.4c1,0,1.9,0.1,2.8,0.4c0.9,0.2,1.7,0.6,2.3,1.1c0.7,0.5,1.2,1.2,1.6,2c0.4,0.8,0.6,1.7,0.6,2.8
		c0,1.5-0.4,2.8-1.2,4c-0.8,1.1-2,1.8-3.5,2.2v0.1c0.8,0.1,1.4,0.3,2,0.6s0.9,0.7,1.3,1.2c0.3,0.5,0.6,1,0.7,1.6
		c0.1,0.6,0.2,1.3,0.3,2c0,0.4,0,0.9,0.1,1.5c0,0.6,0.1,1.2,0.1,1.8c0.1,0.6,0.2,1.2,0.3,1.7c0.1,0.5,0.3,0.9,0.6,1.2h-2.5
		c-0.1-0.2-0.2-0.5-0.3-0.8c-0.1-0.3-0.1-0.7-0.2-1c0-0.3-0.1-0.7-0.1-1c0-0.3,0-0.6-0.1-0.9c0-0.9-0.1-1.7-0.2-2.5
		s-0.3-1.6-0.6-2.3c-0.3-0.7-0.8-1.2-1.4-1.6c-0.6-0.4-1.5-0.6-2.5-0.5H363v10.7h-2.3v-24H371.7z M371.5,100.8c0.7,0,1.4-0.1,2-0.3
		c0.6-0.2,1.2-0.5,1.6-0.9c0.5-0.4,0.8-0.9,1.1-1.5c0.3-0.6,0.4-1.2,0.4-2c0-1.5-0.4-2.6-1.3-3.5c-0.9-0.9-2.2-1.3-3.9-1.3H363v9.5
		H371.5z"/>
	<path class="st0" d="M394.8,89.4c3.7,0.1,6.4,1.1,8.3,3.1c1.9,2,2.8,4.9,2.8,8.9c0,4-0.9,7-2.8,8.9s-4.6,3-8.3,3.1h-8.3v-24H394.8z
		 M393.7,111.5c1.7,0,3.2-0.2,4.5-0.6c1.2-0.4,2.3-1,3.1-1.8c0.8-0.8,1.4-1.9,1.8-3.1c0.4-1.3,0.6-2.8,0.6-4.6
		c0-1.8-0.2-3.3-0.6-4.6c-0.4-1.3-1-2.3-1.8-3.1c-0.8-0.8-1.8-1.4-3.1-1.8c-1.2-0.4-2.7-0.6-4.5-0.6h-4.9v20.1H393.7z"/>
</g>
<g id="layer1_3_">
	<g id="g3052_3_">
		<path id="path3055_3_" class="st0" d="M72.8,0c-1.3,0.1-2.6,0.4-3.8,1L18,25.3c-2.7,1.3-4.6,3.7-5.3,6.6L0.2,86.6
			c-0.6,2.6-0.1,5.3,1.3,7.4c0.2,0.3,0.4,0.5,0.6,0.8l35.3,43.8c1.9,2.3,4.7,3.6,7.6,3.6h56.6c3,0,5.8-1.3,7.6-3.6l35.2-43.9
			c1.8-2.3,2.5-5.3,1.9-8.2l-12.6-54.7c-0.7-2.9-2.6-5.3-5.3-6.6L77.5,1C76,0.3,74.4-0.1,72.8,0z"/>
		<path id="path3059_3_" class="st1" d="M73.3,18.6c-1.8,0.1-3.1,1.6-3,3.4c0,0,0,0.1,0,0.1c0,0.2,0,0.6,0,0.8
			c0.1,1,0.2,1.9,0.4,2.9c0.3,1.8,0.4,3.7,0.3,5.5c-0.2,0.6-0.5,1.2-1,1.6l-0.1,1.3c-1.9,0.2-3.7,0.4-5.5,0.8
			c-7.6,1.7-14.6,5.7-19.9,11.4l-1.1-0.8c-0.6,0.2-1.3,0.1-1.8-0.2c-1.5-1.1-2.9-2.3-4.1-3.7c-0.6-0.7-1.3-1.5-2-2.1
			c-0.2-0.2-0.5-0.4-0.7-0.5c-0.6-0.5-1.3-0.8-2.1-0.8c-0.9,0-1.8,0.4-2.4,1.1c-1,1.5-0.7,3.5,0.8,4.5l0,0c0.2,0.2,0.5,0.4,0.6,0.5
			c0.8,0.5,1.7,1,2.5,1.5c1.6,0.9,3.2,2,4.6,3.2c0.4,0.5,0.6,1.1,0.6,1.8l1,0.9c-5.4,8.1-7.6,17.9-6.2,27.5l-1.3,0.4
			c-0.3,0.5-0.8,1-1.3,1.3c-1.8,0.5-3.6,0.8-5.5,0.9c-1,0-2,0.1-2.9,0.2l-0.8,0.2h-0.1c-1.7,0.2-2.9,1.8-2.6,3.4
			c0.2,1.7,1.8,2.9,3.4,2.6c0.2,0,0.4-0.1,0.6-0.1l0,0h0.1l0.8-0.1c0.9-0.3,1.8-0.6,2.7-1c1.7-0.7,3.5-1.2,5.3-1.6
			c0.6,0,1.2,0.3,1.8,0.6l1.3-0.2c3,9.2,9.2,17.1,17.6,22l-0.6,1.2c0.3,0.5,0.4,1.1,0.3,1.7c-0.8,1.8-1.7,3.4-2.8,5
			c-0.6,0.8-1.1,1.6-1.6,2.4c-0.1,0.2-0.3,0.6-0.4,0.8c-0.9,1.5-0.4,3.3,1.1,4.2s3.3,0.4,4.2-1.1c0.1-0.2,0.2-0.3,0.2-0.5l0,0
			c0.1-0.2,0.3-0.6,0.4-0.8c0.3-0.9,0.6-1.9,0.9-2.8c0.8-2,1.2-4.2,2.4-5.5c0.4-0.3,0.8-0.6,1.3-0.6l0.7-1.2
			c9.1,3.5,19.1,3.5,28.2,0.1l0.6,1.2c0.6,0.1,1.2,0.4,1.6,0.9c0.9,1.6,1.6,3.4,2.1,5.1c0.2,0.9,0.5,1.9,0.9,2.8
			c0.1,0.2,0.3,0.5,0.4,0.8c0.6,1.6,2.3,2.4,3.9,1.8c1.6-0.6,2.4-2.3,1.8-3.9c-0.1-0.2-0.1-0.3-0.2-0.5c-0.1-0.2-0.3-0.6-0.4-0.8
			c-0.5-0.8-1-1.7-1.6-2.4c-1.1-1.5-2-3.1-2.7-4.8c-0.1-0.6,0-1.3,0.3-1.8c-0.2-0.4-0.4-0.8-0.5-1.2c8.3-5,14.6-12.8,17.5-22.1
			l1.3,0.2c0.5-0.4,1.1-0.7,1.7-0.6c1.8,0.3,3.6,0.9,5.3,1.6c0.9,0.4,1.8,0.8,2.7,1.1c0.2,0.1,0.5,0.1,0.8,0.2h0.1l0,0
			c1.6,0.5,3.3-0.3,3.9-2c0.5-1.6-0.3-3.3-2-3.9c-0.2-0.1-0.4-0.1-0.6-0.1c-0.3-0.1-0.6-0.2-0.9-0.2c-1-0.1-1.9-0.2-2.9-0.2
			c-1.8-0.1-3.7-0.4-5.5-0.9c-0.6-0.3-1-0.8-1.3-1.3l-1.2-0.4c1.3-9.6-0.9-19.4-6.3-27.5l1.1-1c0-0.6,0.2-1.3,0.6-1.7
			c1.4-1.2,2.9-2.3,4.5-3.2c0.9-0.4,1.7-0.9,2.5-1.5c0.2-0.2,0.5-0.4,0.7-0.5c1.4-0.9,1.9-2.8,1-4.2s-2.8-1.9-4.2-1
			c-0.2,0.1-0.4,0.3-0.6,0.4c-0.2,0.2-0.5,0.4-0.7,0.5c-0.7,0.7-1.4,1.4-2,2.1c-1.2,1.4-2.5,2.6-4,3.8c-0.6,0.2-1.2,0.3-1.8,0.2
			l-1.2,0.8c-6.7-7-15.7-11.4-25.3-12.2c0-0.4-0.1-1.1-0.1-1.4c-0.5-0.4-0.9-0.9-1-1.5c-0.1-1.9,0.1-3.7,0.3-5.5
			c0.2-1,0.3-1.9,0.4-2.9c0-0.2,0-0.6,0-0.9C76.4,20.3,75.1,18.8,73.3,18.6L73.3,18.6L73.3,18.6z M69.5,42.3l-0.9,16h-0.1
			c-0.1,1.5-1.3,2.6-2.8,2.6c-0.5,0-1-0.2-1.5-0.5l0,0L51.1,51c4.2-4.1,9.4-7,15.1-8.2C67.3,42.6,68.4,42.4,69.5,42.3z M77.1,42.3
			c6.9,0.9,13.3,4,18.3,8.8l-13,9.2l0,0c-1.2,0.9-2.9,0.7-3.8-0.4c-0.4-0.5-0.6-1-0.6-1.6l0,0L77.1,42.3z M46.3,57.1l12,10.7v0.1
			c1.1,1,1.2,2.7,0.3,3.8c-0.3,0.4-0.8,0.7-1.3,0.8v0.1l-15.4,4.4C41.1,70,42.7,63,46.3,57.1z M100.2,57.1
			c3.6,5.9,5.3,12.9,4.6,19.8l-15.4-4.4v-0.1c-1.4-0.4-2.3-1.9-1.9-3.3c0.1-0.5,0.4-1,0.8-1.3l0,0L100.2,57.1L100.2,57.1L100.2,57.1
			z M70.8,68.6h4.9l3,3.8l-1.1,4.8l-4.4,2.1l-4.4-2.1l-1-4.8L70.8,68.6z M86.6,81.6c0.2,0,0.4,0,0.6,0l0,0l15.9,2.7
			c-2.3,6.6-6.8,12.2-12.7,16l-6.1-14.9l0,0c-0.6-1.4,0.1-3,1.4-3.5C85.9,81.8,86.2,81.7,86.6,81.6L86.6,81.6L86.6,81.6z M59.9,81.7
			c1.5,0,2.7,1.2,2.6,2.7c0,0.4-0.1,0.7-0.2,1v0.1l-6.1,14.7c-5.8-3.7-10.3-9.3-12.6-15.8l15.7-2.7l0,0
			C59.5,81.7,59.7,81.7,59.9,81.7L59.9,81.7L59.9,81.7z M73.2,88.1c1,0,2,0.5,2.5,1.4h0.1l7.8,14c-1,0.3-2.1,0.6-3.1,0.9
			c-5.7,1.3-11.7,1-17.2-0.9l7.7-14l0,0C71.4,88.7,72.2,88.2,73.2,88.1L73.2,88.1z"/>
	</g>
</g>
<path d="M188.5,56.8l2.9-3.2c1-1.1,2-2.2,2.9-3.3l2.7-3.1c0.8-1,1.6-1.8,2.2-2.6h11.5c-2.3,2.6-4.5,5.1-6.7,7.5s-4.6,4.9-7.2,7.4
	c1.4,1.3,2.8,2.7,4,4.2c1.4,1.6,2.7,3.3,4,5c1.3,1.7,2.5,3.4,3.6,5.2c1.1,1.7,2,3.3,2.7,4.7h-11.1c-0.7-1.1-1.5-2.4-2.4-3.7
	c-0.9-1.4-1.8-2.7-2.8-4c-1-1.3-2-2.6-3.1-3.9c-1-1.2-2.1-2.2-3.3-3.2v14.9h-9.7V29.9l9.7-1.6L188.5,56.8L188.5,56.8z"/>
<path d="M244.8,77.5c-2.1,0.6-4.2,1-6.4,1.3c-2.7,0.4-5.4,0.6-8.2,0.6c-2.5,0.1-4.9-0.3-7.2-1.2c-1.8-0.7-3.4-1.8-4.6-3.3
	c-1.2-1.5-2-3.2-2.4-5c-0.5-2.1-0.7-4.3-0.7-6.4v-19h9.7v17.8c0,3.1,0.4,5.4,1.2,6.7c0.8,1.4,2.4,2.1,4.6,2.1c0.7,0,1.4,0,2.2-0.1
	c0.8-0.1,1.5-0.1,2.1-0.2V44.5h9.7V77.5z"/>
<path d="M285.6,61.6c0,2.5-0.4,5-1.2,7.4c-0.7,2.1-1.9,4-3.5,5.6c-1.6,1.6-3.5,2.8-5.6,3.6c-2.4,0.9-5,1.3-7.5,1.3
	c-1.2,0-2.4-0.1-3.7-0.2c-1.3-0.1-2.5-0.2-3.8-0.4s-2.4-0.4-3.5-0.6c-1.1-0.2-2.1-0.5-3-0.8V29.9l9.7-1.6v17
	c1.1-0.5,2.2-0.8,3.4-1.1c1.2-0.3,2.5-0.4,3.8-0.4c2.2,0,4.4,0.4,6.4,1.3c1.8,0.8,3.4,2,4.7,3.6c1.3,1.7,2.3,3.6,2.9,5.6
	C285.3,56.7,285.6,59.1,285.6,61.6z M275.7,61.3c0-6.2-2.3-9.3-6.9-9.3c-1,0-2,0.1-3,0.4c-0.8,0.2-1.6,0.5-2.4,1v17.5
	c0.5,0.1,1.1,0.2,1.8,0.2s1.5,0.1,2.4,0.1c2.3,0.2,4.6-0.9,6-2.7C275.2,66.4,275.9,63.9,275.7,61.3z"/>
<path d="M291.4,61.8c-0.1-2.7,0.4-5.4,1.4-7.9c0.8-2.1,2.1-4,3.7-5.7c1.5-1.5,3.3-2.6,5.2-3.4c1.9-0.8,4-1.2,6.1-1.2
	c4.8,0,8.7,1.5,11.5,4.4c2.8,3,4.2,7.3,4.2,13.1c0,0.6,0,1.2-0.1,1.8c0,0.7-0.1,1.3-0.1,1.8h-21.9c0.2,1.9,1.2,3.7,2.8,4.7
	c2,1.3,4.3,1.9,6.6,1.8c1.8,0,3.5-0.2,5.2-0.5c1.4-0.2,2.8-0.6,4.2-1.2l1.3,7.8c-0.7,0.3-1.4,0.6-2.1,0.8c-0.9,0.3-1.9,0.5-2.9,0.7
	c-1.1,0.2-2.2,0.4-3.4,0.5c-1.2,0.1-2.4,0.2-3.6,0.2c-2.7,0.1-5.4-0.4-8-1.4c-2.1-0.8-4.1-2.1-5.6-3.7c-1.5-1.6-2.6-3.5-3.3-5.6
	C291.8,66.6,291.4,64.2,291.4,61.8z M314.1,58.1c0-0.8-0.2-1.6-0.4-2.4c-0.2-0.8-0.6-1.5-1.1-2.1c-0.5-0.6-1.2-1.1-1.9-1.5
	c-0.9-0.4-1.8-0.6-2.8-0.6c-1,0-1.9,0.2-2.8,0.6c-0.7,0.3-1.4,0.8-1.9,1.5c-0.5,0.6-0.9,1.3-1.2,2.1c-0.3,0.8-0.5,1.6-0.6,2.4
	L314.1,58.1L314.1,58.1z"/>
<path d="M351.4,53.1c-0.9-0.2-1.9-0.4-3-0.7c-1.2-0.2-2.5-0.4-3.8-0.4c-0.7,0-1.5,0.1-2.2,0.2c-0.6,0.1-1.3,0.2-1.9,0.4v26h-9.7
	V46.3c2-0.7,4-1.3,6.1-1.7c2.6-0.6,5.2-0.8,7.9-0.8c0.5,0,1.1,0,1.9,0.1s1.5,0.2,2.2,0.3s1.5,0.2,2.2,0.4c0.6,0.1,1.3,0.3,1.9,0.6
	L351.4,53.1z"/>
<path d="M358.2,45.7c2.1-0.6,4.2-1,6.4-1.3c2.7-0.4,5.4-0.6,8.2-0.6c2.5-0.1,4.9,0.3,7.2,1.1c1.8,0.7,3.4,1.8,4.6,3.2
	c1.2,1.4,2,3.1,2.4,4.9c0.5,2.1,0.7,4.2,0.7,6.3v19.3H378V60.5c0-3.1-0.4-5.3-1.2-6.6s-2.4-1.9-4.6-1.9c-0.7,0-1.4,0-2.2,0.1
	s-1.5,0.1-2.1,0.2v26.3h-9.7L358.2,45.7L358.2,45.7z"/>
<path d="M394.8,61.8c-0.1-2.7,0.4-5.4,1.4-7.9c0.8-2.1,2.1-4,3.7-5.7c1.5-1.5,3.2-2.6,5.2-3.4c1.9-0.8,4-1.2,6.1-1.2
	c4.8,0,8.7,1.5,11.5,4.4c2.8,3,4.2,7.3,4.2,13.1c0,0.6,0,1.2-0.1,1.8c0,0.7-0.1,1.3-0.1,1.8h-21.9c0.2,1.9,1.2,3.7,2.8,4.7
	c2,1.3,4.3,1.9,6.6,1.8c1.8,0,3.5-0.2,5.2-0.5c1.4-0.2,2.8-0.6,4.2-1.2l1.3,7.8c-0.7,0.3-1.4,0.6-2.1,0.8c-0.9,0.3-1.9,0.5-2.9,0.7
	c-1.1,0.2-2.2,0.4-3.4,0.5c-1.2,0.1-2.4,0.2-3.6,0.2c-2.7,0.1-5.4-0.4-8-1.4c-2.1-0.8-4.1-2.1-5.6-3.7c-1.5-1.6-2.6-3.5-3.3-5.6
	C395.1,66.6,394.8,64.2,394.8,61.8z M417.4,58.1c0-0.8-0.2-1.6-0.4-2.4c-0.2-0.8-0.6-1.5-1.1-2.1c-0.5-0.6-1.2-1.1-1.9-1.5
	c-0.9-0.4-1.8-0.6-2.8-0.6c-1,0-1.9,0.2-2.8,0.6c-0.7,0.3-1.4,0.8-1.9,1.5c-0.5,0.6-0.9,1.3-1.2,2.1c-0.3,0.8-0.5,1.6-0.6,2.4
	L417.4,58.1L417.4,58.1z"/>
<path d="M433.9,36l9.7-1.6v10h11.6v8h-11.6v12c-0.1,1.7,0.3,3.4,1.1,4.9c0.7,1.2,2.2,1.8,4.3,1.8c1.1,0,2.2-0.1,3.2-0.3
	c1-0.2,2-0.4,3-0.8l1.4,7.5c-1.3,0.5-2.6,0.9-3.9,1.2c-1.7,0.4-3.5,0.6-5.2,0.5c-2.2,0.1-4.4-0.3-6.5-1.1c-1.6-0.6-3-1.7-4.1-3
	c-1.1-1.4-1.8-2.9-2.2-4.6c-0.4-2-0.6-4-0.6-6L433.9,36L433.9,36z"/>
<path d="M460.3,61.8c-0.1-2.7,0.4-5.4,1.4-7.9c0.8-2.1,2.1-4,3.7-5.7c1.5-1.5,3.3-2.6,5.2-3.4c1.9-0.8,4-1.2,6.1-1.2
	c4.8,0,8.7,1.5,11.5,4.4c2.8,3,4.2,7.3,4.2,13c0,0.6,0,1.2-0.1,1.8c0,0.7-0.1,1.3-0.1,1.8h-21.9c0.2,1.9,1.2,3.7,2.8,4.7
	c2,1.3,4.3,1.9,6.6,1.8c1.8,0,3.5-0.2,5.2-0.5c1.4-0.2,2.8-0.6,4.2-1.2l1.3,7.8c-0.7,0.3-1.4,0.6-2.1,0.8c-0.9,0.3-1.9,0.5-2.9,0.7
	c-1.1,0.2-2.2,0.4-3.4,0.5c-1.2,0.1-2.4,0.2-3.6,0.2c-2.7,0.1-5.4-0.4-8-1.4c-2.1-0.8-4.1-2.1-5.6-3.7c-1.5-1.6-2.7-3.5-3.3-5.6
	C460.6,66.6,460.3,64.2,460.3,61.8z M483,58.1c0-0.8-0.2-1.6-0.4-2.4c-0.2-0.8-0.6-1.5-1.1-2.1c-0.5-0.6-1.2-1.1-1.9-1.5
	c-0.9-0.4-1.8-0.6-2.8-0.6c-1,0-1.9,0.2-2.8,0.6c-0.8,0.3-1.4,0.8-2,1.4c-0.5,0.6-0.9,1.3-1.2,2.1c-0.3,0.8-0.5,1.6-0.6,2.4H483z"/>
<path d="M509.5,71.7c1.3,0.1,2.6-0.1,3.8-0.5c0.7-0.4,1.2-1.2,1.1-2c-0.1-0.9-0.6-1.6-1.4-2c-1.4-0.8-2.8-1.5-4.3-2
	c-1.4-0.5-2.8-1.1-4.1-1.8c-1.2-0.6-2.2-1.3-3.1-2.2c-0.9-0.9-1.5-1.9-2-3c-0.5-1.3-0.7-2.8-0.7-4.2c-0.1-3,1.2-5.8,3.6-7.6
	c2.4-1.9,5.6-2.8,9.8-2.8c2,0,4,0.2,6,0.6c1.5,0.3,3.1,0.7,4.5,1.2l-1.7,7.5c-1.2-0.4-2.4-0.7-3.7-1c-1.5-0.3-2.9-0.5-4.4-0.4
	c-3,0-4.5,0.8-4.5,2.5c0,0.3,0.1,0.7,0.2,1c0.2,0.4,0.4,0.7,0.8,0.9c0.5,0.3,1,0.7,1.6,0.9c0.7,0.3,1.5,0.7,2.6,1.1
	c1.8,0.6,3.6,1.4,5.2,2.3c1.2,0.6,2.3,1.5,3.3,2.5c0.8,0.8,1.3,1.8,1.7,2.9c0.3,1.2,0.5,2.5,0.5,3.8c0.2,3-1.3,5.9-3.8,7.6
	c-2.5,1.7-6.1,2.6-10.7,2.6c-2.5,0.1-5.1-0.2-7.5-0.8c-1.4-0.3-2.8-0.8-4.2-1.3l1.6-7.8c1.6,0.6,3.3,1.2,5,1.5
	C506.1,71.5,507.8,71.7,509.5,71.7z"/>
</svg>
