<?xml version="1.0" encoding="utf-8"?>
<!-- Generator: Adobe Illustrator 21.1.0, SVG Export Plug-In . SVG Version: 6.00 Build 0)  -->
<svg version="1.1" id="svg2" xmlns="http://www.w3.org/2000/svg" xmlns:xlink="http://www.w3.org/1999/xlink" x="0px" y="0px"
	 viewBox="0 0 524 142.2" style="enable-background:new 0 0 524 142.2;" xml:space="preserve">
<style type="text/css">
	.st0{fill:#326CE5;}
	.st1{fill:#FFFFFF;stroke:#FFFFFF;stroke-width:0.25;}
</style>
<title>logo</title>
<g id="layer1">
	<g id="g3052">
		<path id="path3055" class="st0" d="M72.8,0c-1.3,0.1-2.6,0.4-3.8,1L18,25.3c-2.7,1.3-4.6,3.7-5.3,6.6L0.2,86.6
			c-0.6,2.6-0.1,5.3,1.3,7.4c0.2,0.3,0.4,0.5,0.6,0.8l35.3,43.8c1.9,2.3,4.7,3.6,7.6,3.6h56.6c3,0,5.8-1.3,7.6-3.6l35.2-43.9
			c1.8-2.3,2.5-5.3,1.9-8.2l-12.6-54.7c-0.7-2.9-2.6-5.3-5.3-6.6L77.5,1C76,0.3,74.4-0.1,72.8,0z"/>
		<path id="path3059" class="st1" d="M73.3,18.6c-1.8,0.1-3.1,1.6-3,3.4c0,0,0,0.1,0,0.1c0,0.2,0,0.6,0,0.8c0.1,1,0.2,1.9,0.4,2.9
			c0.3,1.8,0.4,3.7,0.3,5.5c-0.2,0.6-0.5,1.2-1,1.6l-0.1,1.3c-1.9,0.2-3.7,0.4-5.5,0.8c-7.6,1.7-14.6,5.7-19.9,11.4l-1.1-0.8
			c-0.6,0.2-1.3,0.1-1.8-0.2c-1.5-1.1-2.9-2.3-4.1-3.7c-0.6-0.7-1.3-1.5-2-2.1c-0.2-0.2-0.5-0.4-0.7-0.5c-0.6-0.5-1.3-0.8-2.1-0.8
			c-0.9,0-1.8,0.4-2.4,1.1c-1,1.5-0.7,3.5,0.8,4.5l0,0c0.2,0.2,0.5,0.4,0.6,0.5c0.8,0.5,1.7,1,2.5,1.5c1.6,0.9,3.2,2,4.6,3.2
			c0.4,0.5,0.6,1.1,0.6,1.8l1,0.9c-5.4,8.1-7.6,17.9-6.2,27.5l-1.3,0.4c-0.3,0.5-0.8,1-1.3,1.3c-1.8,0.5-3.6,0.8-5.5,0.9
			c-1,0-2,0.1-2.9,0.2l-0.8,0.2h-0.1c-1.7,0.2-2.9,1.8-2.6,3.4c0.2,1.7,1.8,2.9,3.4,2.6c0.2,0,0.4-0.1,0.6-0.1l0,0h0.1l0.8-0.1
			c0.9-0.3,1.8-0.6,2.7-1c1.7-0.7,3.5-1.2,5.3-1.6c0.6,0,1.2,0.3,1.8,0.6l1.3-0.2c3,9.2,9.2,17.1,17.6,22l-0.6,1.2
			c0.3,0.5,0.4,1.1,0.3,1.7c-0.8,1.8-1.7,3.4-2.8,5c-0.6,0.8-1.1,1.6-1.6,2.4c-0.1,0.2-0.3,0.6-0.4,0.8c-0.9,1.5-0.4,3.3,1.1,4.2
			s3.3,0.4,4.2-1.1c0.1-0.2,0.2-0.3,0.2-0.5l0,0c0.1-0.2,0.3-0.6,0.4-0.8c0.3-0.9,0.6-1.9,0.9-2.8c0.8-2,1.2-4.2,2.4-5.5
			c0.4-0.3,0.8-0.6,1.3-0.6l0.7-1.2c9.1,3.5,19.1,3.5,28.2,0.1l0.6,1.2c0.6,0.1,1.2,0.4,1.6,0.9c0.9,1.6,1.6,3.4,2.1,5.1
			c0.2,0.9,0.5,1.9,0.9,2.8c0.1,0.2,0.3,0.5,0.4,0.8c0.6,1.6,2.3,2.4,3.9,1.8c1.6-0.6,2.4-2.3,1.8-3.9c-0.1-0.2-0.1-0.3-0.2-0.5
			c-0.1-0.2-0.3-0.6-0.4-0.8c-0.5-0.8-1-1.7-1.6-2.4c-1.1-1.5-2-3.1-2.7-4.8c-0.1-0.6,0-1.3,0.3-1.8c-0.2-0.4-0.4-0.8-0.5-1.2
			c8.3-5,14.6-12.8,17.5-22.1l1.3,0.2c0.5-0.4,1.1-0.7,1.7-0.6c1.8,0.3,3.6,0.9,5.3,1.6c0.9,0.4,1.8,0.8,2.7,1.1
			c0.2,0.1,0.5,0.1,0.8,0.2h0.1l0,0c1.6,0.5,3.3-0.3,3.9-2c0.5-1.6-0.3-3.3-2-3.9c-0.2-0.1-0.4-0.1-0.6-0.1
			c-0.3-0.1-0.6-0.2-0.9-0.2c-1-0.1-1.9-0.2-2.9-0.2c-1.8-0.1-3.7-0.4-5.5-0.9c-0.6-0.3-1-0.8-1.3-1.3l-1.2-0.4
			c1.3-9.6-0.9-19.4-6.3-27.5l1.1-1c0-0.6,0.2-1.3,0.6-1.7c1.4-1.2,2.9-2.3,4.5-3.2c0.9-0.4,1.7-0.9,2.5-1.5
			c0.2-0.2,0.5-0.4,0.7-0.5c1.4-0.9,1.9-2.8,1-4.2s-2.8-1.9-4.2-1c-0.2,0.1-0.4,0.3-0.6,0.4c-0.2,0.2-0.5,0.4-0.7,0.5
			c-0.7,0.7-1.4,1.4-2,2.1c-1.2,1.4-2.5,2.6-4,3.8c-0.6,0.2-1.2,0.3-1.8,0.2l-1.2,0.8c-6.7-7-15.7-11.4-25.3-12.2
			c0-0.4-0.1-1.1-0.1-1.4c-0.5-0.4-0.9-0.9-1-1.5c-0.1-1.9,0.1-3.7,0.3-5.5c0.2-1,0.3-1.9,0.4-2.9c0-0.2,0-0.6,0-0.9
			C76.4,20.3,75.1,18.8,73.3,18.6L73.3,18.6L73.3,18.6z M69.5,42.3l-0.9,16h-0.1c-0.1,1.5-1.3,2.6-2.8,2.6c-0.5,0-1-0.2-1.5-0.5l0,0
			L51.1,51c4.2-4.1,9.4-7,15.1-8.2C67.3,42.6,68.4,42.4,69.5,42.3z M77.1,42.3c6.9,0.9,13.3,4,18.3,8.8l-13,9.2l0,0
			c-1.2,0.9-2.9,0.7-3.8-0.4c-0.4-0.5-0.6-1-0.6-1.6l0,0L77.1,42.3z M46.3,57.1l12,10.7v0.1c1.1,1,1.2,2.7,0.3,3.8
			c-0.3,0.4-0.8,0.7-1.3,0.8v0.1l-15.4,4.4C41.1,70,42.7,63,46.3,57.1z M100.2,57.1c3.6,5.9,5.3,12.9,4.6,19.8l-15.4-4.4v-0.1
			c-1.4-0.4-2.3-1.9-1.9-3.3c0.1-0.5,0.4-1,0.8-1.3l0,0L100.2,57.1L100.2,57.1L100.2,57.1z M70.8,68.6h4.9l3,3.8l-1.1,4.8l-4.4,2.1
			l-4.4-2.1l-1-4.8L70.8,68.6z M86.6,81.6c0.2,0,0.4,0,0.6,0l0,0l15.9,2.7c-2.3,6.6-6.8,12.2-12.7,16l-6.1-14.9l0,0
			c-0.6-1.4,0.1-3,1.4-3.5C85.9,81.8,86.2,81.7,86.6,81.6L86.6,81.6L86.6,81.6z M59.9,81.7c1.5,0,2.7,1.2,2.6,2.7
			c0,0.4-0.1,0.7-0.2,1v0.1l-6.1,14.7c-5.8-3.7-10.3-9.3-12.6-15.8l15.7-2.7l0,0C59.5,81.7,59.7,81.7,59.9,81.7L59.9,81.7L59.9,81.7
			z M73.2,88.1c1,0,2,0.5,2.5,1.4h0.1l7.8,14c-1,0.3-2.1,0.6-3.1,0.9c-5.7,1.3-11.7,1-17.2-0.9l7.7-14l0,0
			C71.4,88.7,72.2,88.2,73.2,88.1L73.2,88.1z"/>
	</g>
</g>
<g>
	<path d="M188.5,58.6l2.9-3.2c1-1.1,2-2.2,2.9-3.3l2.7-3.1c0.8-1,1.6-1.8,2.2-2.6h11.5c-2.3,2.6-4.5,5.1-6.7,7.5s-4.6,4.9-7.2,7.4
		c1.4,1.3,2.8,2.7,4,4.2c1.4,1.6,2.7,3.3,4,5c1.3,1.7,2.5,3.4,3.6,5.2c1.1,1.7,2,3.3,2.7,4.7h-11.1c-0.7-1.1-1.5-2.4-2.4-3.7
		c-0.9-1.4-1.8-2.7-2.8-4c-1-1.3-2-2.6-3.1-3.9c-1-1.2-2.1-2.2-3.3-3.2v14.9h-9.7V31.7l9.7-1.6L188.5,58.6L188.5,58.6z"/>
	<g>
		<path d="M244.8,79.2c-2.1,0.6-4.2,1-6.4,1.3c-2.7,0.4-5.4,0.6-8.2,0.6c-2.5,0.1-4.9-0.3-7.2-1.2c-1.8-0.7-3.4-1.8-4.6-3.3
			c-1.2-1.5-2-3.2-2.4-5c-0.5-2.1-0.7-4.3-0.7-6.4v-19h9.7v17.8c0,3.1,0.4,5.4,1.2,6.7c0.8,1.4,2.4,2.1,4.6,2.1c0.7,0,1.4,0,2.2-0.1
			c0.8-0.1,1.5-0.1,2.1-0.2V46.3h9.7V79.2z"/>
		<path d="M285.6,63.4c0,2.5-0.4,5-1.2,7.4c-0.7,2.1-1.9,4-3.5,5.6c-1.6,1.6-3.5,2.8-5.6,3.6c-2.4,0.9-5,1.3-7.5,1.3
			c-1.2,0-2.4-0.1-3.7-0.2c-1.3-0.1-2.5-0.2-3.8-0.4c-1.2-0.2-2.4-0.4-3.5-0.6c-1.1-0.2-2.1-0.5-3-0.8V31.7l9.7-1.6v17
			c1.1-0.5,2.2-0.8,3.4-1.1c1.2-0.3,2.5-0.4,3.8-0.4c2.2,0,4.4,0.4,6.4,1.3c1.8,0.8,3.4,2,4.7,3.6c1.3,1.7,2.3,3.6,2.9,5.6
			C285.3,58.5,285.6,60.9,285.6,63.4z M275.7,63.1c0-6.2-2.3-9.3-6.9-9.3c-1,0-2,0.1-3,0.4c-0.8,0.2-1.6,0.5-2.4,1v17.5
			c0.5,0.1,1.1,0.2,1.8,0.2c0.7,0.1,1.5,0.1,2.4,0.1c2.3,0.2,4.6-0.9,6-2.7C275.2,68.2,275.9,65.7,275.7,63.1z"/>
		<path d="M291.4,63.6c-0.1-2.7,0.4-5.4,1.4-7.9c0.8-2.1,2.1-4,3.7-5.7c1.5-1.5,3.3-2.6,5.2-3.4c1.9-0.8,4-1.2,6.1-1.2
			c4.8,0,8.7,1.5,11.5,4.4c2.8,3,4.2,7.3,4.2,13.1c0,0.6,0,1.2-0.1,1.8c0,0.7-0.1,1.3-0.1,1.8h-21.9c0.2,1.9,1.2,3.7,2.8,4.7
			c2,1.3,4.3,1.9,6.6,1.8c1.8,0,3.5-0.2,5.2-0.5c1.4-0.2,2.8-0.6,4.2-1.2l1.3,7.8c-0.7,0.3-1.4,0.6-2.1,0.8
			c-0.9,0.3-1.9,0.5-2.9,0.7c-1.1,0.2-2.2,0.4-3.4,0.5c-1.2,0.1-2.4,0.2-3.6,0.2c-2.7,0.1-5.4-0.4-8-1.4c-2.1-0.8-4.1-2.1-5.6-3.7
			c-1.5-1.6-2.6-3.5-3.3-5.6C291.8,68.4,291.4,66,291.4,63.6z M314.1,59.9c0-0.8-0.2-1.6-0.4-2.4c-0.2-0.8-0.6-1.5-1.1-2.1
			c-0.5-0.6-1.2-1.1-1.9-1.5c-0.9-0.4-1.8-0.6-2.8-0.6c-1,0-1.9,0.2-2.8,0.6c-0.7,0.3-1.4,0.8-1.9,1.5c-0.5,0.6-0.9,1.3-1.2,2.1
			c-0.3,0.8-0.5,1.6-0.6,2.4L314.1,59.9L314.1,59.9z"/>
		<path d="M351.4,54.9c-0.9-0.2-1.9-0.4-3-0.7c-1.2-0.2-2.5-0.4-3.8-0.4c-0.7,0-1.5,0.1-2.2,0.2c-0.6,0.1-1.3,0.2-1.9,0.4v26h-9.7
			V48.1c2-0.7,4-1.3,6.1-1.7c2.6-0.6,5.2-0.8,7.9-0.8c0.5,0,1.1,0,1.9,0.1s1.5,0.2,2.2,0.3s1.5,0.2,2.2,0.4c0.6,0.1,1.3,0.3,1.9,0.6
			L351.4,54.9z"/>
		<path d="M358.2,47.5c2.1-0.6,4.2-1,6.4-1.3c2.7-0.4,5.4-0.6,8.2-0.6c2.5-0.1,4.9,0.3,7.2,1.1c1.8,0.7,3.4,1.8,4.6,3.2
			c1.2,1.4,2,3.1,2.4,4.9c0.5,2.1,0.7,4.2,0.7,6.3v19.2H378V62.3c0-3.1-0.4-5.3-1.2-6.6s-2.4-1.9-4.6-1.9c-0.7,0-1.4,0-2.2,0.1
			s-1.5,0.1-2.1,0.2v26.3h-9.7L358.2,47.5L358.2,47.5z"/>
		<path d="M394.8,63.6c-0.1-2.7,0.4-5.4,1.4-7.9c0.8-2.1,2.1-4,3.7-5.7c1.5-1.5,3.2-2.6,5.2-3.4c1.9-0.8,4-1.2,6.1-1.2
			c4.8,0,8.7,1.5,11.5,4.4c2.8,3,4.2,7.3,4.2,13.1c0,0.6,0,1.2-0.1,1.8c0,0.7-0.1,1.3-0.1,1.8h-21.9c0.2,1.9,1.2,3.7,2.8,4.7
			c2,1.3,4.3,1.9,6.6,1.8c1.8,0,3.5-0.2,5.2-0.5c1.4-0.2,2.8-0.6,4.2-1.2l1.3,7.8c-0.7,0.3-1.4,0.6-2.1,0.8
			c-0.9,0.3-1.9,0.5-2.9,0.7c-1.1,0.2-2.2,0.4-3.4,0.5c-1.2,0.1-2.4,0.2-3.6,0.2c-2.7,0.1-5.4-0.4-8-1.4c-2.1-0.8-4.1-2.1-5.6-3.7
			c-1.5-1.6-2.6-3.5-3.3-5.6C395.1,68.4,394.8,66,394.8,63.6z M417.4,59.9c0-0.8-0.2-1.6-0.4-2.4c-0.2-0.8-0.6-1.5-1.1-2.1
			c-0.5-0.6-1.2-1.1-1.9-1.5c-0.9-0.4-1.8-0.6-2.8-0.6c-1,0-1.9,0.2-2.8,0.6c-0.7,0.3-1.4,0.8-1.9,1.5c-0.5,0.6-0.9,1.3-1.2,2.1
			c-0.3,0.8-0.5,1.6-0.6,2.4L417.4,59.9L417.4,59.9z"/>
		<path d="M433.9,37.8l9.7-1.6v10h11.6v8h-11.6v12c-0.1,1.7,0.3,3.4,1.1,4.9c0.7,1.2,2.2,1.8,4.3,1.8c1.1,0,2.2-0.1,3.2-0.3
			c1-0.2,2-0.4,3-0.8l1.4,7.5c-1.3,0.5-2.6,0.9-3.9,1.2c-1.7,0.4-3.5,0.6-5.2,0.5c-2.2,0.1-4.4-0.3-6.5-1.1c-1.6-0.6-3-1.7-4.1-3
			c-1.1-1.4-1.8-2.9-2.2-4.6c-0.4-2-0.6-4-0.6-6L433.9,37.8L433.9,37.8z"/>
		<path d="M460.3,63.6c-0.1-2.7,0.4-5.4,1.4-7.9c0.8-2.1,2.1-4,3.7-5.7c1.5-1.5,3.3-2.6,5.2-3.4c1.9-0.8,4-1.2,6.1-1.2
			c4.8,0,8.7,1.5,11.5,4.4c2.8,3,4.2,7.3,4.2,13c0,0.6,0,1.2-0.1,1.8c0,0.7-0.1,1.3-0.1,1.8h-21.9c0.2,1.9,1.2,3.7,2.8,4.7
			c2,1.3,4.3,1.9,6.6,1.8c1.8,0,3.5-0.2,5.2-0.5c1.4-0.2,2.8-0.6,4.2-1.2l1.3,7.8c-0.7,0.3-1.4,0.6-2.1,0.8
			c-0.9,0.3-1.9,0.5-2.9,0.7c-1.1,0.2-2.2,0.4-3.4,0.5c-1.2,0.1-2.4,0.2-3.6,0.2c-2.7,0.1-5.4-0.4-8-1.4c-2.1-0.8-4.1-2.1-5.6-3.7
			c-1.5-1.6-2.7-3.5-3.3-5.6C460.6,68.4,460.3,66,460.3,63.6z M483,59.9c0-0.8-0.2-1.6-0.4-2.4c-0.2-0.8-0.6-1.5-1.1-2.1
			c-0.5-0.6-1.2-1.1-1.9-1.5c-0.9-0.4-1.8-0.6-2.8-0.6c-1,0-1.9,0.2-2.8,0.6c-0.8,0.3-1.4,0.8-2,1.4c-0.5,0.6-0.9,1.3-1.2,2.1
			c-0.3,0.8-0.5,1.6-0.6,2.4H483z"/>
		<path d="M509.5,73.5c1.3,0.1,2.6-0.1,3.8-0.5c0.7-0.4,1.2-1.2,1.1-2c-0.1-0.9-0.6-1.6-1.4-2c-1.4-0.8-2.8-1.5-4.3-2
			c-1.4-0.5-2.8-1.1-4.1-1.8c-1.2-0.6-2.2-1.3-3.1-2.2c-0.9-0.9-1.5-1.9-2-3c-0.5-1.3-0.7-2.8-0.7-4.2c-0.1-3,1.2-5.8,3.6-7.6
			c2.4-1.9,5.6-2.8,9.8-2.8c2,0,4,0.2,6,0.6c1.5,0.3,3.1,0.7,4.5,1.2l-1.7,7.5c-1.2-0.4-2.4-0.7-3.7-1c-1.5-0.3-2.9-0.5-4.4-0.4
			c-3,0-4.5,0.8-4.5,2.5c0,0.3,0.1,0.7,0.2,1c0.2,0.4,0.4,0.7,0.8,0.9c0.5,0.3,1,0.7,1.6,0.9c0.7,0.3,1.5,0.7,2.6,1.1
			c1.8,0.6,3.6,1.4,5.2,2.3c1.2,0.6,2.3,1.5,3.3,2.5c0.8,0.8,1.3,1.8,1.7,2.9c0.3,1.2,0.5,2.5,0.5,3.8c0.2,3-1.3,5.9-3.8,7.6
			c-2.5,1.7-6.1,2.6-10.7,2.6c-2.5,0.1-5.1-0.2-7.5-0.8c-1.4-0.3-2.8-0.8-4.2-1.3l1.6-7.8c1.6,0.6,3.3,1.2,5,1.5
			C506.1,73.3,507.8,73.5,509.5,73.5z"/>
		<g>
			<path class="st0" d="M187.7,94.6c2.6,0.1,4.6,0.8,5.9,2.2c1.3,1.4,2,3.5,2,6.4c0,2.8-0.7,5-2,6.4c-1.3,1.4-3.3,2.1-5.9,2.2h-5.9
				V94.6H187.7z M186.8,110.4c1.2,0,2.3-0.1,3.2-0.4s1.6-0.7,2.2-1.3c0.6-0.6,1-1.3,1.3-2.2s0.4-2,0.4-3.3c0-1.3-0.1-2.4-0.4-3.3
				c-0.3-0.9-0.7-1.7-1.3-2.2c-0.6-0.6-1.3-1-2.2-1.3c-0.9-0.3-1.9-0.4-3.2-0.4h-3.5v14.4H186.8z"/>
			<path class="st0" d="M207.4,94.6l6.7,17.1h-1.8l-2.1-5.3h-7.8l-2.1,5.3h-1.7l6.9-17.1H207.4z M209.7,105l-3.3-8.8L203,105H209.7z
				"/>
			<path class="st0" d="M219.3,108.3c0.3,0.6,0.7,1.1,1.2,1.4c0.5,0.4,1.1,0.6,1.8,0.8s1.4,0.2,2.2,0.2c0.4,0,0.9-0.1,1.5-0.2
				c0.5-0.1,1-0.3,1.5-0.6s0.8-0.6,1.1-1.1c0.3-0.4,0.5-1,0.5-1.6c0-0.5-0.1-0.9-0.3-1.2c-0.2-0.4-0.5-0.6-0.8-0.9
				c-0.3-0.2-0.7-0.4-1.1-0.6c-0.4-0.2-0.8-0.3-1.2-0.4l-3.8-0.9c-0.5-0.1-1-0.3-1.5-0.5c-0.5-0.2-0.9-0.4-1.2-0.8s-0.6-0.7-0.9-1.2
				c-0.2-0.5-0.3-1-0.3-1.7c0-0.4,0.1-0.9,0.2-1.5c0.2-0.6,0.5-1.1,0.9-1.6c0.4-0.5,1-0.9,1.8-1.3c0.8-0.3,1.8-0.5,3-0.5
				c0.8,0,1.7,0.1,2.4,0.3c0.8,0.2,1.4,0.6,2,1c0.6,0.4,1,1,1.4,1.7c0.3,0.7,0.5,1.4,0.5,2.3h-1.6c0-0.7-0.2-1.2-0.4-1.7
				s-0.6-0.9-1-1.2c-0.4-0.3-0.9-0.6-1.5-0.7c-0.6-0.2-1.1-0.3-1.7-0.3c-0.6,0-1.1,0.1-1.6,0.2c-0.5,0.1-1,0.3-1.4,0.6
				c-0.4,0.3-0.7,0.6-0.9,1c-0.2,0.4-0.4,1-0.4,1.6c0,0.4,0.1,0.7,0.2,1c0.1,0.3,0.3,0.5,0.6,0.8c0.2,0.2,0.5,0.4,0.8,0.5
				s0.6,0.2,1,0.3l4.2,1c0.6,0.2,1.2,0.4,1.7,0.6c0.5,0.2,1,0.5,1.4,0.9c0.4,0.3,0.7,0.8,1,1.3c0.2,0.5,0.3,1.1,0.3,1.8
				c0,0.2,0,0.4-0.1,0.8s-0.1,0.7-0.3,1c-0.2,0.4-0.4,0.7-0.6,1.1c-0.3,0.4-0.7,0.7-1.2,1c-0.5,0.3-1.1,0.5-1.8,0.7
				c-0.7,0.2-1.6,0.3-2.6,0.3c-1,0-1.9-0.1-2.8-0.3c-0.9-0.2-1.6-0.6-2.2-1.1c-0.6-0.5-1.1-1.1-1.4-1.8c-0.3-0.8-0.5-1.7-0.4-2.7
				h1.6C218.8,107,219,107.7,219.3,108.3z"/>
			<path class="st0" d="M237.2,94.6v7.4h10.2v-7.4h1.6v17.1h-1.6v-8.3h-10.2v8.3h-1.6V94.6H237.2z"/>
			<path class="st0" d="M262.2,94.6c0.7,0,1.4,0.1,2.1,0.2s1.2,0.4,1.8,0.7c0.5,0.3,0.9,0.8,1.2,1.3c0.3,0.5,0.5,1.2,0.5,2
				c0,0.4-0.1,0.9-0.2,1.3s-0.3,0.8-0.6,1.2c-0.3,0.3-0.6,0.6-0.9,0.9c-0.4,0.2-0.8,0.4-1.2,0.5v0c1.1,0.1,2,0.6,2.6,1.4
				c0.7,0.8,1,1.7,1,2.8c0,0.3,0,0.6-0.1,0.9c0,0.3-0.1,0.7-0.3,1.1c-0.1,0.4-0.4,0.7-0.6,1.1c-0.3,0.4-0.6,0.7-1.1,0.9
				c-0.5,0.3-1,0.5-1.7,0.6s-1.5,0.3-2.4,0.3h-7.2V94.6H262.2z M262.2,102.1c0.7,0,1.2-0.1,1.7-0.2c0.5-0.2,0.9-0.4,1.2-0.6
				c0.3-0.3,0.6-0.6,0.7-0.9c0.2-0.4,0.2-0.7,0.2-1.1c0-2.1-1.3-3.2-3.9-3.2h-5.6v6.1H262.2z M262.2,110.4c0.6,0,1.2-0.1,1.7-0.2
				c0.5-0.1,1-0.3,1.4-0.6c0.4-0.3,0.7-0.6,1-1.1s0.4-1,0.4-1.7c0-1.1-0.4-1.9-1.2-2.5c-0.8-0.6-1.9-0.8-3.3-0.8h-5.6v6.8H262.2z"/>
			<path class="st0" d="M272.9,99.8c0.3-1.1,0.8-2,1.5-2.8s1.5-1.5,2.5-2c1-0.5,2.2-0.7,3.5-0.7c1.3,0,2.5,0.2,3.5,0.7
				c1,0.5,1.8,1.1,2.5,2s1.2,1.8,1.5,2.8c0.3,1.1,0.5,2.2,0.5,3.4c0,1.2-0.2,2.3-0.5,3.4c-0.3,1.1-0.8,2-1.5,2.8
				c-0.7,0.8-1.5,1.5-2.5,2c-1,0.5-2.2,0.7-3.5,0.7c-1.3,0-2.5-0.2-3.5-0.7c-1-0.5-1.9-1.1-2.5-2c-0.7-0.8-1.2-1.8-1.5-2.8
				c-0.3-1.1-0.5-2.2-0.5-3.4C272.4,102,272.6,100.9,272.9,99.8z M274.4,105.9c0.2,0.9,0.6,1.7,1.2,2.4c0.5,0.7,1.2,1.3,2,1.7
				c0.8,0.4,1.8,0.6,2.9,0.6c1.1,0,2.1-0.2,2.9-0.6c0.8-0.4,1.5-1,2-1.7c0.5-0.7,0.9-1.5,1.2-2.4c0.2-0.9,0.4-1.8,0.4-2.7
				c0-0.9-0.1-1.9-0.4-2.8c-0.2-0.9-0.6-1.7-1.2-2.4c-0.5-0.7-1.2-1.3-2-1.7c-0.8-0.4-1.8-0.6-2.9-0.6c-1.1,0-2.1,0.2-2.9,0.6
				c-0.8,0.4-1.5,1-2,1.7c-0.5,0.7-0.9,1.5-1.2,2.4c-0.2,0.9-0.4,1.8-0.4,2.8C274,104.1,274.2,105,274.4,105.9z"/>
			<path class="st0" d="M300.3,94.6l6.7,17.1h-1.8l-2.1-5.3h-7.8l-2.1,5.3h-1.7l6.9-17.1H300.3z M302.7,105l-3.3-8.8l-3.4,8.8H302.7
				z"/>
			<path class="st0" d="M318.9,94.6c0.7,0,1.4,0.1,2,0.3c0.6,0.2,1.2,0.4,1.7,0.8c0.5,0.4,0.8,0.8,1.1,1.4c0.3,0.6,0.4,1.2,0.4,2
				c0,1.1-0.3,2-0.8,2.8c-0.6,0.8-1.4,1.3-2.5,1.5v0c0.6,0.1,1,0.2,1.4,0.4c0.4,0.2,0.7,0.5,0.9,0.8c0.2,0.3,0.4,0.7,0.5,1.2
				c0.1,0.4,0.2,0.9,0.2,1.4c0,0.3,0,0.6,0,1.1c0,0.4,0,0.8,0.1,1.3s0.1,0.8,0.2,1.2c0.1,0.4,0.2,0.7,0.4,0.9h-1.8
				c-0.1-0.2-0.2-0.4-0.2-0.6c-0.1-0.2-0.1-0.5-0.1-0.7c0-0.2,0-0.5-0.1-0.7c0-0.2,0-0.4,0-0.6c0-0.6-0.1-1.2-0.2-1.8
				c-0.1-0.6-0.2-1.1-0.5-1.6c-0.2-0.5-0.6-0.9-1-1.1c-0.4-0.3-1-0.4-1.8-0.4h-6.2v7.6H311V94.6H318.9z M318.7,102.8
				c0.5,0,1-0.1,1.4-0.2c0.4-0.2,0.8-0.4,1.2-0.7s0.6-0.6,0.8-1c0.2-0.4,0.3-0.9,0.3-1.4c0-1.1-0.3-1.9-0.9-2.5
				c-0.6-0.6-1.5-0.9-2.8-0.9h-6.1v6.7H318.7z"/>
			<path class="st0" d="M335.4,94.6c2.6,0.1,4.6,0.8,5.9,2.2c1.3,1.4,2,3.5,2,6.4c0,2.8-0.7,5-2,6.4c-1.3,1.4-3.3,2.1-5.9,2.2h-5.9
				V94.6H335.4z M334.5,110.4c1.2,0,2.3-0.1,3.2-0.4c0.9-0.3,1.6-0.7,2.2-1.3s1-1.3,1.3-2.2c0.3-0.9,0.4-2,0.4-3.3
				c0-1.3-0.1-2.4-0.4-3.3c-0.3-0.9-0.7-1.7-1.3-2.2s-1.3-1-2.2-1.3c-0.9-0.3-1.9-0.4-3.2-0.4h-3.5v14.4H334.5z"/>
		</g>
	</g>
</g>
</svg>
