<?xml version="1.0" encoding="utf-8"?>
<!-- Generator: Adobe Illustrator 19.2.1, SVG Export Plug-In . SVG Version: 6.00 Build 0)  -->
<svg version="1.1" id="Layer_1" xmlns="http://www.w3.org/2000/svg" xmlns:xlink="http://www.w3.org/1999/xlink" x="0px" y="0px"
	 viewBox="0 0 569.7 152.5" style="enable-background:new 0 0 569.7 152.5;" xml:space="preserve">
<style type="text/css">
	.st0{fill:#2B2B2B;}
	.st1{fill:#3D3D3D;}
	.st2{fill:#0075A8;}
</style>
<path class="st0" d="M135.8,99.1c0,0-0.5-15.4-20.8-25.6c3.9-2.3,7.2-4.6,10-6.8c6.3-4,10-8.2,10-11.5c0-6.5-14.5-12.2-35.8-15.1
	l-5.3-27C92.6,5.7,88.2,0,81,0c-7.2,0-10.8,7.1-13,7.1c-2.2,0-5.8-7.1-13-7.1s-11.3,5.8-13,13.1l-5.3,27C15.3,43,0.7,48.6,0.7,55.2
	c0,2.4,2,5.3,5.6,8.3c3.2,3.2,7.7,7,13.4,10.5C0.5,84.2,0,99.1,0,99.1l15.3,21.3L3,128.3l21.4,24.2h86.9l21.4-24.2l-12.3-7.9
	L135.8,99.1z M36.9,44.4c2.1,2.2,7.7,7.1,17.2,9.7c0.1,0,0.1,0.1,0.2,0.1c0.3,0.1,0.5,0.1,0.8,0.2c0.1,0,0.3,0.1,0.4,0.1
	c0.2,0.1,0.5,0.1,0.7,0.2c0.2,0,0.4,0.1,0.5,0.1c0.2,0.1,0.5,0.1,0.7,0.1c0.2,0,0.4,0.1,0.6,0.1c0.2,0,0.5,0.1,0.7,0.1
	c0.2,0,0.4,0.1,0.7,0.1c0.2,0,0.4,0.1,0.7,0.1c0.2,0,0.5,0.1,0.7,0.1c0.2,0,0.4,0.1,0.7,0.1c0.3,0,0.5,0.1,0.8,0.1
	c0.2,0,0.4,0,0.7,0.1c0.3,0,0.6,0,0.9,0.1c0.2,0,0.4,0,0.6,0c0.3,0,0.7,0,1,0.1c0.2,0,0.4,0,0.5,0c0.5,0,1.1,0,1.6,0s1.1,0,1.6,0
	c0.2,0,0.4,0,0.5,0c0.4,0,0.7,0,1-0.1c0.2,0,0.4,0,0.6,0c0.3,0,0.6,0,0.9-0.1c0.2,0,0.4,0,0.7-0.1c0.3,0,0.5-0.1,0.8-0.1
	c0.2,0,0.4-0.1,0.7-0.1s0.5-0.1,0.7-0.1c0.2,0,0.5-0.1,0.7-0.1c0.2,0,0.4-0.1,0.7-0.1c0.2,0,0.5-0.1,0.7-0.1c0.2,0,0.4-0.1,0.6-0.1
	c0.2-0.1,0.5-0.1,0.7-0.1c0.2,0,0.4-0.1,0.5-0.1c0.2-0.1,0.5-0.1,0.7-0.2c0.1,0,0.3-0.1,0.4-0.1c0.3-0.1,0.5-0.1,0.8-0.2
	c0.1,0,0.2-0.1,0.2-0.1c9.5-2.7,15.1-7.5,17.2-9.7l1,7c0,0-0.1,0.1-0.3,0.4c-0.1,0.1-0.1,0.1-0.2,0.2l0,0c-0.1,0.1-0.1,0.1-0.2,0.2
	l0,0c-0.1,0.1-0.2,0.2-0.3,0.3l0,0c-0.1,0.1-0.2,0.2-0.3,0.3l0,0c-0.1,0.1-0.2,0.2-0.4,0.3c0,0,0,0-0.1,0.1
	c-0.1,0.1-0.2,0.2-0.4,0.4c0,0-0.1,0.1-0.1,0.1c-0.1,0.1-0.3,0.2-0.4,0.4c0,0-0.1,0.1-0.1,0.1c-0.1,0.1-0.3,0.3-0.5,0.4
	c0,0-0.1,0-0.1,0.1c-0.1,0.1-0.3,0.3-0.5,0.4c0,0,0,0-0.1,0.1c-0.2,0.1-0.4,0.3-0.6,0.4c0,0-0.1,0.1-0.1,0.1
	c-0.2,0.1-0.4,0.3-0.6,0.4c0,0-0.1,0.1-0.1,0.1c-0.2,0.1-0.4,0.3-0.6,0.4c0,0-0.1,0.1-0.1,0.1c-0.2,0.1-0.4,0.3-0.7,0.4
	c0,0-0.1,0-0.1,0.1c-0.2,0.1-0.5,0.3-0.7,0.4c0,0-0.1,0.1-0.1,0.1c-0.2,0.1-0.5,0.3-0.8,0.4c-0.1,0-0.1,0.1-0.1,0.1
	c-0.3,0.1-0.5,0.3-0.8,0.4c-0.1,0-0.1,0.1-0.2,0.1c-0.3,0.1-0.6,0.3-0.9,0.4c-0.1,0-0.1,0.1-0.1,0.1c-0.3,0.1-0.6,0.3-0.9,0.4
	c0,0,0,0-0.1,0c-0.3,0.1-0.7,0.3-1,0.4c-0.1,0-0.1,0.1-0.1,0.1c-0.3,0.1-0.7,0.3-1,0.4c-0.1,0-0.1,0.1-0.2,0.1
	c-0.3,0.1-0.7,0.3-1,0.4c-0.1,0-0.1,0.1-0.2,0.1c-0.4,0.1-0.7,0.3-1.1,0.4c-0.1,0-0.1,0-0.1,0c-0.4,0.1-0.8,0.2-1.2,0.4
	c0,0-0.1,0-0.1,0c-0.4,0.1-0.8,0.2-1.2,0.3c-0.1,0-0.1,0-0.2,0.1c-0.4,0.1-0.8,0.2-1.3,0.3c-0.1,0-0.1,0-0.2,0.1
	c-0.4,0.1-0.9,0.2-1.3,0.3c-0.1,0-0.1,0-0.2,0c-0.4,0.1-0.9,0.2-1.4,0.2c0,0-0.1,0-0.1,0c-0.5,0.1-1,0.1-1.4,0.2c-0.1,0-0.1,0-0.1,0
	c-0.5,0.1-1,0.1-1.5,0.2c-0.1,0-0.2,0-0.2,0c-0.5,0.1-1,0.1-1.5,0.1c-0.1,0-0.2,0-0.3,0c-0.5,0-1,0.1-1.5,0.1c-0.1,0-0.1,0-0.2,0
	c-0.6,0-1.1,0-1.7,0s-1.1,0-1.7,0c-0.1,0-0.1,0-0.2,0c-0.5,0-1,0-1.5-0.1c-0.1,0-0.2,0-0.3,0c-0.5,0-1-0.1-1.5-0.1
	c-0.1,0-0.2,0-0.2,0c-0.5-0.1-1-0.1-1.5-0.2c-0.1,0-0.1,0-0.1,0c-0.5-0.1-1-0.1-1.4-0.2c0,0-0.1,0-0.1,0c-0.5-0.1-0.9-0.1-1.4-0.2
	c-0.1,0-0.1,0-0.2,0c-0.4-0.1-0.9-0.2-1.3-0.3c-0.1,0-0.1,0-0.2-0.1c-0.4-0.1-0.8-0.2-1.3-0.3c-0.1,0-0.1,0-0.2-0.1
	c-0.4-0.1-0.8-0.2-1.2-0.3c0,0-0.1,0-0.1,0c-0.4-0.1-0.8-0.2-1.2-0.4c-0.1,0-0.1,0-0.1,0c-0.4-0.1-0.7-0.2-1.1-0.4
	c-0.1,0-0.1-0.1-0.2-0.1c-0.4-0.1-0.7-0.3-1-0.4c-0.1,0-0.1-0.1-0.2-0.1c-0.3-0.1-0.7-0.3-1-0.4c-0.1,0-0.1-0.1-0.1-0.1
	c-0.3-0.1-0.7-0.3-1-0.4c0,0,0,0-0.1,0c-0.3-0.1-0.6-0.3-0.9-0.4c-0.1,0-0.1-0.1-0.1-0.1c-0.3-0.1-0.6-0.3-0.9-0.4
	c-0.1,0-0.1-0.1-0.2-0.1c-0.3-0.1-0.5-0.3-0.8-0.4c-0.1,0-0.1-0.1-0.1-0.1c-0.3-0.1-0.5-0.3-0.8-0.4c0,0-0.1-0.1-0.1-0.1
	c-0.2-0.1-0.5-0.3-0.7-0.4c0,0-0.1,0-0.1-0.1c-0.2-0.1-0.5-0.3-0.7-0.4c0,0-0.1-0.1-0.1-0.1c-0.2-0.1-0.4-0.3-0.6-0.4
	c0,0-0.1-0.1-0.1-0.1c-0.2-0.1-0.4-0.3-0.6-0.4c0,0-0.1-0.1-0.1-0.1c-0.2-0.1-0.4-0.3-0.6-0.4c0,0,0,0-0.1,0
	c-0.2-0.1-0.3-0.3-0.5-0.4c0,0,0,0-0.1-0.1c-0.1-0.1-0.3-0.3-0.5-0.4c0,0-0.1-0.1-0.1-0.1c-0.1-0.1-0.3-0.2-0.4-0.4
	c0,0-0.1-0.1-0.1-0.1c-0.1-0.1-0.3-0.2-0.4-0.4c0,0,0,0-0.1-0.1c-0.1-0.1-0.2-0.2-0.4-0.4l0,0c-0.1-0.1-0.2-0.2-0.3-0.3l0,0
	c-0.1-0.1-0.2-0.2-0.3-0.3l0,0c-0.1-0.1-0.1-0.2-0.2-0.2l0,0c-0.1-0.1-0.1-0.1-0.2-0.2C36,51.6,36,51.4,36,51.4L36.9,44.4z
	 M73.6,86.4c-1,0.6-1.6,1.3-1.9,2.1c-0.9-1-2.3-1.7-3.8-1.7c-1.5,0-2.8,0.7-3.8,1.7c-0.3-0.8-0.9-1.4-1.7-2c1.4,0.1,2.9,0.1,4.4,0.1
	C69.2,86.6,71.4,86.5,73.6,86.4z M116.7,84.6c-0.9,4.2-6.3,13.5-10.6,13.9c-3.5,17.8-12.9,37.7-38.2,37.7c-22.1,0-32.1-20.2-36.6-38
	c-0.2,0.1-0.5,0.2-0.7,0.3c-4.5,1-10.5-9.4-11.5-13.9c-0.8-3.5,0.9-7.1,3.8-8.8c6.6,3.6,14.6,6.9,23.9,8.8c-5.7,1.2-10,4.9-10,10.1
	c0,6.4,2.9,13.4,10.8,13.4c5.3,0,16.3-8.2,16.6-18.1c0.7-1.3,2-2.1,3.6-2.1s2.9,0.9,3.6,2.1c0.3,9.9,11.3,18.1,16.6,18.1
	c8,0,10.8-6.9,10.8-13.4c0-5.7-5.1-9.5-11.4-10.3c9.3-2.1,17.5-5.4,24.4-9.1C115.5,76.8,117.5,80.7,116.7,84.6z"/>
<g>
	<path class="st1" d="M223.4,64.8H210c-2.5,0-4.3-0.9-5.4-2.8l-10.6-18.6c-0.5-0.8-1.1-1.4-1.7-1.7c-0.6-0.4-1.5-0.5-2.6-0.5h-3.8
		v23.7H171V0.7h20.9c4.6,0,8.6,0.5,11.9,1.4s5.9,2.3,8,4c2.1,1.7,3.6,3.7,4.5,6c0.9,2.3,1.4,4.8,1.4,7.6c0,2.1-0.3,4-0.8,5.9
		s-1.4,3.6-2.5,5.1c-1.1,1.6-2.4,3-4,4.2c-1.6,1.2-3.4,2.2-5.5,3c1,0.5,1.9,1.1,2.7,1.9c0.8,0.7,1.6,1.6,2.3,2.7L223.4,64.8z
		 M191.8,30.8c2,0,3.7-0.3,5.2-0.8c1.4-0.5,2.6-1.2,3.5-2.1c0.9-0.9,1.6-2,2-3.2c0.4-1.2,0.6-2.5,0.6-3.9c0-2.8-0.9-5-2.8-6.6
		c-1.8-1.6-4.7-2.4-8.5-2.4h-6v19H191.8z"/>
	<path class="st1" d="M281.9,64.8h-11.5c-1.3,0-2.3-0.3-3.1-0.9c-0.8-0.6-1.4-1.4-1.8-2.3l-3.8-11.2h-24.4l-3.8,11.2
		c-0.3,0.8-0.9,1.6-1.7,2.2s-1.9,1-3.1,1h-11.6l24.8-64.1h15.2L281.9,64.8z M258.3,40.3l-5.9-17.6c-0.4-1.1-0.9-2.4-1.4-3.9
		c-0.5-1.5-1-3.1-1.5-4.9c-0.4,1.8-0.9,3.4-1.4,5s-1,2.8-1.4,4l-5.9,17.5H258.3z"/>
	<path class="st1" d="M341.2,0.7v64.1h-7.7c-1.1,0-2.1-0.2-2.9-0.5c-0.8-0.4-1.5-1-2.3-1.9L298,24.1c0.1,1.1,0.2,2.3,0.2,3.3
		c0,1.1,0.1,2.1,0.1,3v34.4h-13.1V0.7h7.8c0.6,0,1.2,0,1.6,0.1c0.4,0.1,0.8,0.2,1.2,0.3c0.4,0.2,0.7,0.4,1,0.7
		c0.3,0.3,0.7,0.7,1.1,1.2l30.5,38.5c-0.1-1.2-0.2-2.4-0.3-3.6c-0.1-1.2-0.1-2.3-0.1-3.3V0.7H341.2z"/>
	<path class="st1" d="M393.1,48.2c0.4,0,0.7,0.1,1.1,0.2c0.4,0.1,0.7,0.4,1,0.7l5.9,6.2c-2.6,3.4-5.8,5.9-9.7,7.6s-8.5,2.6-13.8,2.6
		c-4.9,0-9.2-0.8-13.1-2.5c-3.9-1.7-7.1-3.9-9.8-6.9c-2.7-2.9-4.7-6.4-6.2-10.4s-2.2-8.4-2.2-13c0-4.8,0.8-9.2,2.3-13.2
		c1.6-4,3.7-7.5,6.6-10.4c2.8-2.9,6.2-5.2,10.1-6.8c3.9-1.6,8.3-2.4,13-2.4c2.4,0,4.7,0.2,6.8,0.6c2.1,0.4,4.1,1,6,1.8
		c1.8,0.7,3.5,1.7,5.1,2.7c1.6,1.1,2.9,2.2,4.1,3.4l-5,6.7c-0.3,0.4-0.7,0.8-1.1,1.1c-0.4,0.3-1.1,0.5-1.8,0.5c-0.5,0-1-0.1-1.5-0.4
		c-0.5-0.2-1-0.5-1.5-0.9c-0.5-0.3-1.1-0.7-1.7-1.1c-0.6-0.4-1.4-0.8-2.2-1.1c-0.9-0.3-1.9-0.6-3-0.9c-1.2-0.2-2.5-0.4-4.1-0.4
		c-2.5,0-4.7,0.5-6.8,1.4c-2,0.9-3.8,2.2-5.3,4c-1.5,1.7-2.6,3.9-3.4,6.4c-0.8,2.5-1.2,5.4-1.2,8.7c0,3.3,0.4,6.2,1.3,8.8
		c0.9,2.6,2.1,4.7,3.7,6.4s3.3,3.1,5.4,4c2.1,0.9,4.3,1.4,6.6,1.4c1.3,0,2.6-0.1,3.7-0.2c1.1-0.1,2.2-0.4,3.1-0.7
		c1-0.3,1.9-0.7,2.7-1.2c0.8-0.5,1.7-1.2,2.6-2c0.4-0.3,0.7-0.5,1.1-0.7S392.7,48.2,393.1,48.2z"/>
	<path class="st1" d="M459.6,0.7v64.1h-15V37.7h-26v27.1h-15V0.7h15v26.8h26V0.7H459.6z"/>
	<path class="st1" d="M483.5,12.1v15h20.2v11h-20.2v15.3h26.3v11.4h-41.3V0.7h41.3v11.4H483.5z"/>
	<path class="st1" d="M567.6,64.8h-13.5c-2.5,0-4.3-0.9-5.4-2.8l-10.6-18.6c-0.5-0.8-1.1-1.4-1.7-1.7c-0.6-0.4-1.5-0.5-2.6-0.5H530
		v23.7h-14.9V0.7H536c4.6,0,8.6,0.5,11.9,1.4c3.3,1,5.9,2.3,8,4c2.1,1.7,3.6,3.7,4.5,6s1.4,4.8,1.4,7.6c0,2.1-0.3,4-0.8,5.9
		c-0.6,1.8-1.4,3.6-2.5,5.1c-1.1,1.6-2.4,3-4,4.2s-3.4,2.2-5.5,3c1,0.5,1.9,1.1,2.7,1.9s1.6,1.6,2.3,2.7L567.6,64.8z M536,30.8
		c2,0,3.7-0.3,5.2-0.8c1.4-0.5,2.6-1.2,3.5-2.1s1.6-2,2-3.2c0.4-1.2,0.6-2.5,0.6-3.9c0-2.8-0.9-5-2.8-6.6c-1.8-1.6-4.7-2.4-8.5-2.4
		h-6v19H536z"/>
	<path class="st2" d="M206.4,100.7c-0.4,0.7-0.9,1.2-1.4,1.6s-1.1,0.5-1.9,0.5c-0.7,0-1.4-0.2-2.2-0.6c-0.8-0.4-1.7-0.9-2.6-1.4
		s-2.1-1-3.4-1.4c-1.3-0.4-2.7-0.6-4.3-0.6c-2.8,0-4.9,0.6-6.2,1.8c-1.4,1.2-2,2.8-2,4.8c0,1.3,0.4,2.4,1.2,3.2s1.9,1.6,3.2,2.2
		c1.3,0.6,2.9,1.2,4.6,1.7c1.7,0.5,3.5,1.1,5.3,1.7c1.8,0.6,3.5,1.4,5.3,2.2s3.2,1.9,4.6,3.3c1.3,1.3,2.4,2.9,3.2,4.8
		c0.8,1.9,1.2,4.2,1.2,6.8c0,3-0.5,5.7-1.5,8.3c-1,2.6-2.5,4.8-4.5,6.8c-2,1.9-4.4,3.4-7.2,4.5c-2.9,1.1-6.1,1.7-9.7,1.7
		c-2,0-4-0.2-6.1-0.6c-2.1-0.4-4.1-1-6-1.7c-1.9-0.7-3.8-1.6-5.5-2.7c-1.7-1-3.2-2.2-4.4-3.4l4.4-7c0.4-0.5,0.8-0.9,1.4-1.3
		c0.6-0.3,1.2-0.5,1.9-0.5c0.9,0,1.8,0.3,2.7,0.8c0.9,0.6,1.9,1.2,3,1.8c1.1,0.7,2.4,1.3,3.9,1.8c1.5,0.6,3.2,0.8,5.2,0.8
		c2.7,0,4.8-0.6,6.3-1.8c1.5-1.2,2.2-3.1,2.2-5.7c0-1.5-0.4-2.7-1.2-3.7c-0.8-0.9-1.9-1.7-3.2-2.3s-2.9-1.2-4.6-1.6
		c-1.7-0.5-3.4-1-5.2-1.6c-1.8-0.6-3.5-1.3-5.2-2.1c-1.7-0.8-3.2-1.9-4.6-3.3c-1.3-1.4-2.4-3.1-3.2-5.1c-0.8-2-1.2-4.6-1.2-7.5
		c0-2.4,0.5-4.8,1.5-7s2.4-4.3,4.3-6.1c1.9-1.8,4.2-3.2,6.9-4.3c2.7-1.1,5.9-1.6,9.4-1.6c2,0,3.9,0.2,5.7,0.5
		c1.9,0.3,3.6,0.8,5.3,1.4c1.7,0.6,3.2,1.3,4.7,2.2c1.5,0.8,2.8,1.8,3.9,2.8L206.4,100.7z"/>
	<path class="st2" d="M230.3,99.1v15h20.2v11h-20.2v15.3h26.3v11.4h-41.3V87.7h41.3v11.4H230.3z"/>
	<path class="st2" d="M303.2,135.2c0.4,0,0.7,0.1,1.1,0.2c0.4,0.1,0.7,0.4,1,0.7l5.9,6.2c-2.6,3.4-5.8,5.9-9.7,7.6
		s-8.5,2.6-13.8,2.6c-4.9,0-9.2-0.8-13.1-2.5c-3.9-1.7-7.1-3.9-9.8-6.9c-2.7-2.9-4.7-6.4-6.2-10.4c-1.4-4-2.2-8.4-2.2-13
		c0-4.8,0.8-9.2,2.3-13.2s3.7-7.5,6.6-10.4c2.8-2.9,6.2-5.2,10.1-6.8s8.3-2.4,13-2.4c2.4,0,4.7,0.2,6.8,0.6c2.1,0.4,4.1,1,6,1.8
		s3.5,1.7,5.1,2.7c1.6,1.1,2.9,2.2,4.1,3.4l-5,6.7c-0.3,0.4-0.7,0.8-1.1,1.1c-0.4,0.3-1.1,0.5-1.8,0.5c-0.5,0-1-0.1-1.5-0.4
		c-0.5-0.2-1-0.5-1.5-0.9c-0.5-0.3-1.1-0.7-1.7-1.1c-0.6-0.4-1.4-0.8-2.2-1.1c-0.9-0.3-1.9-0.6-3-0.9s-2.5-0.4-4.1-0.4
		c-2.5,0-4.7,0.5-6.8,1.4c-2,0.9-3.8,2.2-5.3,4c-1.5,1.7-2.6,3.9-3.4,6.4c-0.8,2.5-1.2,5.4-1.2,8.7c0,3.3,0.4,6.2,1.3,8.8
		c0.9,2.6,2.1,4.7,3.7,6.4s3.3,3.1,5.4,4c2.1,0.9,4.3,1.4,6.6,1.4c1.3,0,2.6-0.1,3.7-0.2c1.1-0.1,2.2-0.4,3.1-0.7
		c1-0.3,1.9-0.7,2.7-1.2c0.9-0.5,1.7-1.2,2.6-2c0.4-0.3,0.7-0.5,1.1-0.7C302.4,135.3,302.8,135.2,303.2,135.2z"/>
	<path class="st2" d="M365.8,151.8h-13.5c-2.5,0-4.3-0.9-5.4-2.8l-10.6-18.6c-0.5-0.8-1.1-1.4-1.7-1.7c-0.6-0.4-1.5-0.5-2.6-0.5
		h-3.8v23.7h-14.9V87.7h20.9c4.6,0,8.6,0.5,11.9,1.4c3.3,1,5.9,2.3,8,4c2.1,1.7,3.6,3.7,4.5,6c0.9,2.3,1.4,4.8,1.4,7.6
		c0,2.1-0.3,4-0.8,5.9c-0.6,1.8-1.4,3.6-2.5,5.1c-1.1,1.6-2.4,3-4,4.2s-3.4,2.2-5.5,3c1,0.5,1.9,1.1,2.7,1.9s1.6,1.6,2.3,2.7
		L365.8,151.8z M334.2,117.8c2,0,3.7-0.3,5.2-0.8c1.4-0.5,2.6-1.2,3.5-2.1s1.6-2,2-3.2c0.4-1.2,0.6-2.5,0.6-3.9c0-2.8-0.9-5-2.8-6.6
		c-1.8-1.6-4.7-2.4-8.5-2.4h-6v19H334.2z"/>
	<path class="st2" d="M381.7,99.1v15h20.2v11h-20.2v15.3H408v11.4h-41.3V87.7H408v11.4H381.7z"/>
	<path class="st2" d="M458.9,99.5h-18v52.3h-14.9V99.5h-18V87.7h51V99.5z"/>
	<path class="st2" d="M497.4,100.7c-0.4,0.7-0.9,1.2-1.4,1.6c-0.5,0.4-1.1,0.5-1.9,0.5c-0.7,0-1.4-0.2-2.2-0.6
		c-0.8-0.4-1.7-0.9-2.6-1.4c-1-0.5-2.1-1-3.4-1.4c-1.3-0.4-2.7-0.6-4.3-0.6c-2.8,0-4.9,0.6-6.2,1.8c-1.4,1.2-2,2.8-2,4.8
		c0,1.3,0.4,2.4,1.2,3.2s1.9,1.6,3.2,2.2c1.3,0.6,2.9,1.2,4.6,1.7c1.7,0.5,3.5,1.1,5.3,1.7c1.8,0.6,3.5,1.4,5.3,2.2s3.2,1.9,4.6,3.3
		c1.3,1.3,2.4,2.9,3.2,4.8c0.8,1.9,1.2,4.2,1.2,6.8c0,3-0.5,5.7-1.5,8.3c-1,2.6-2.5,4.8-4.5,6.8c-2,1.9-4.4,3.4-7.2,4.5
		c-2.9,1.1-6.1,1.7-9.7,1.7c-2,0-4-0.2-6.1-0.6c-2.1-0.4-4.1-1-6-1.7c-1.9-0.7-3.8-1.6-5.5-2.7c-1.7-1-3.2-2.2-4.4-3.4l4.4-7
		c0.4-0.5,0.8-0.9,1.4-1.3c0.6-0.3,1.2-0.5,1.9-0.5c0.9,0,1.8,0.3,2.7,0.8c0.9,0.6,1.9,1.2,3,1.8c1.1,0.7,2.4,1.3,3.9,1.8
		c1.5,0.6,3.2,0.8,5.2,0.8c2.7,0,4.8-0.6,6.3-1.8c1.5-1.2,2.2-3.1,2.2-5.7c0-1.5-0.4-2.7-1.2-3.7s-1.9-1.7-3.2-2.3
		c-1.3-0.6-2.9-1.2-4.6-1.6c-1.7-0.5-3.4-1-5.2-1.6c-1.8-0.6-3.5-1.3-5.2-2.1c-1.7-0.8-3.2-1.9-4.6-3.3c-1.3-1.4-2.4-3.1-3.2-5.1
		c-0.8-2-1.2-4.6-1.2-7.5c0-2.4,0.5-4.8,1.5-7c1-2.3,2.4-4.3,4.3-6.1c1.9-1.8,4.2-3.2,6.9-4.3c2.7-1.1,5.9-1.6,9.4-1.6
		c2,0,3.9,0.2,5.7,0.5c1.9,0.3,3.6,0.8,5.3,1.4c1.7,0.6,3.2,1.3,4.7,2.2s2.8,1.8,3.9,2.8L497.4,100.7z"/>
</g>
</svg>
