<?xml version="1.0" encoding="utf-8"?>
<!-- Generator: Adobe Illustrator 19.2.1, SVG Export Plug-In . SVG Version: 6.00 Build 0)  -->
<svg version="1.1" id="Layer_1" xmlns="http://www.w3.org/2000/svg" xmlns:xlink="http://www.w3.org/1999/xlink" x="0px" y="0px"
	 viewBox="0 0 543.5 151.4" style="enable-background:new 0 0 543.5 151.4;" xml:space="preserve">
<style type="text/css">
	.st0{fill:#99A3A8;}
	.st1{fill:#CCD1D3;}
	.st2{fill:none;stroke:#A3ABAF;stroke-width:5;stroke-linecap:round;stroke-linejoin:round;stroke-miterlimit:10;}
	.st3{fill:#3D3D3D;}
	.st4{fill:#0075A8;}
	.st5{fill:#B3C78F;}
	.st6{fill:none;stroke:#CCD1D3;stroke-miterlimit:10;}
	.st7{fill:none;stroke:#CCD1D3;stroke-width:1.893;stroke-miterlimit:10;}
	.st8{fill:#F15354;}
	.st9{fill:#A3ABAF;}
	.st10{fill:#3498DB;}
	.st11{fill:#2980B9;}
	.st12{fill:#E67E22;}
	.st13{fill:#D35401;}
	.st14{fill:#F1C40F;}
	.st15{fill:#E49701;}
	.st16{fill:#EADF5A;}
	.st17{fill:#D7C320;}
	.st18{fill:#34495E;}
	.st19{fill:#2C3E50;}
	.st20{fill:#2B2B2B;}
	.st21{fill:#262626;}
	.st22{fill:#3A6F81;}
	.st23{fill:#356272;}
	.st24{fill:#00558B;}
	.st25{fill:#27AE60;}
	.st26{fill:#169242;}
	.st27{fill:#A5C63B;}
	.st28{fill:#8EB021;}
	.st29{fill:#ECF0F1;}
	.st30{fill:#BDC3C7;}
	.st31{fill:#95A5A6;}
	.st32{fill:#7F8C8D;}
	.st33{fill:#E74C3C;}
	.st34{fill:#C0392B;}
	.st35{fill:#EA3738;}
	.st36{fill:#78C9CF;}
	.st37{fill:#389EA8;}
	.st38{fill:#2D8490;}
	.st39{fill:#1A6470;}
	.st40{fill:#21364A;}
	.st41{fill:#040B15;}
	.st42{fill:#66767C;}
	.st43{fill:#334851;}
	.st44{fill:#5C686F;}
	.st45{fill:#29373C;}
	.st46{fill:#0A141A;}
	.st47{fill:#FFFFFF;}
	.st48{fill:#0D5E8C;}
	.st49{fill:#0071BC;}
	.st50{fill:#808080;stroke:#000000;stroke-width:0.5;stroke-miterlimit:10;}
	.st51{fill:#DFDFDF;stroke:#000000;stroke-width:0.5;stroke-miterlimit:10;}
	.st52{stroke:#000000;stroke-width:0.5;stroke-miterlimit:10;}
	.st53{fill:none;stroke:#A3ABAF;stroke-width:12;stroke-miterlimit:10;}
	.st54{fill:none;stroke:#F15354;stroke-width:0.4376;stroke-miterlimit:10;}
	.st55{fill:none;stroke:#F15354;stroke-miterlimit:10;}
	.st56{fill:none;stroke:#3498DB;stroke-width:15;stroke-linecap:square;stroke-miterlimit:10;}
	.st57{fill:none;stroke:#A3ABAF;stroke-width:9;stroke-miterlimit:10;}
	.st58{opacity:0.5;fill:url(#SVGID_1_);}
	.st59{clip-path:url(#SVGID_3_);enable-background:new    ;}
	.st60{fill:#D3AC0D;}
	.st61{fill:#B5930B;}
	.st62{opacity:0.5;fill:url(#SVGID_4_);}
	.st63{clip-path:url(#SVGID_6_);enable-background:new    ;}
	.st64{opacity:0.5;fill:url(#SVGID_7_);}
	.st65{clip-path:url(#SVGID_9_);enable-background:new    ;}
	.st66{opacity:0.5;fill:url(#SVGID_10_);}
	.st67{clip-path:url(#SVGID_12_);enable-background:new    ;}
	.st68{fill:#58D68D;}
	.st69{fill:#2ECC71;}
	.st70{fill:none;stroke:#2ECC71;stroke-width:1.1621;stroke-miterlimit:10;}
	.st71{fill:none;stroke:#F1C40F;stroke-width:1.1621;stroke-miterlimit:10;}
	.st72{fill:none;stroke:#0075A8;stroke-width:1.1621;stroke-miterlimit:10;}
	.st73{fill:none;stroke:#BDC3C7;stroke-width:10;stroke-miterlimit:10;}
	.st74{fill:none;stroke:#A3ABAF;stroke-width:10;stroke-miterlimit:10;}
	.st75{opacity:0.2;fill:#78C9CF;}
	.st76{fill:none;stroke:#0075A8;stroke-miterlimit:10;}
	.st77{fill:#5D5D5D;}
	.st78{fill:none;stroke:#99A3A8;stroke-miterlimit:10;}
	.st79{fill:none;stroke:#0075A8;stroke-width:1.8275;stroke-miterlimit:10;}
	.st80{opacity:0.7;}
</style>
<g>
	<path class="st3" d="M188.9,8.5h24.5c11.6,0,19.4,5.6,19.4,16.5c0,8.9-6.1,14.3-12,16.1c1.8,1.5,3.1,3.5,4.1,5.6
		c2.5,5,4.1,10.6,9.3,10.6c1.3,0,2.4-0.4,2.4-0.4l-1.1,10.5c0,0-3.2,0.8-5.9,0.8c-7,0-11.1-2.7-15.2-12.1
		c-1.8-4.2-4.2-11.6-7.5-11.6h-3.3v23.5h-14.7V8.5z M203.6,19.2v14.6h5.3c4.2,0,9.2-1.3,9.2-7.7c0-5.2-3.3-7-7.4-7H203.6z"/>
	<path class="st3" d="M253,8.5h14.9L288,67.9h-14.9l-3.7-11.3h-19.9l-3.6,11.3H233L253,8.5z M253,45.7h12.8l-4-12.5
		c-1.4-4.2-2-10.2-2-10.2h-0.4c0,0-0.9,6.1-2.2,10.1L253,45.7z"/>
	<path class="st3" d="M288.9,8.5h15.8L320.2,38c1.3,2.6,3.1,7,4.5,10.6h0.4c-0.2-3.3-0.6-8.1-0.6-11.5V8.5h12.1v59.4h-15.4
		l-16.2-29.4c-1.5-2.6-3.1-6.5-4.3-9.7h-0.4c0.3,3.3,0.7,7.3,0.7,10.6v28.5h-12.1V8.5z"/>
	<path class="st3" d="M340.1,37.8c0-21.5,10.6-30.4,27.1-30.4c17.3,0,24.3,9.5,22.4,22.4L375.8,31c1.5-9.4-2.2-13.2-8.9-13.2
		c-6.4,0-11.6,4.8-11.6,20.1c0,16.2,5.6,20.3,12.1,20.3c6.1,0,11-3.8,9.9-11.5l12.8,1.3c1,12.1-7.7,20.9-23.6,20.9
		C350.4,69,340.1,59.5,340.1,37.8z"/>
	<path class="st3" d="M393.5,8.5h14.7V31h18V8.5h14.7v59.4h-14.7V42.8h-18v25.2h-14.7V8.5z"/>
	<path class="st3" d="M447.1,8.5h39.3v10.9h-24.6v12.8h20.7v10.9h-20.7V57h25.5v10.9h-40.2V8.5z"/>
	<path class="st3" d="M490.5,8.5H515c11.6,0,19.4,5.6,19.4,16.5c0,8.9-6.1,14.3-12,16.1c1.8,1.5,3.1,3.5,4.1,5.6
		c2.5,5,4.1,10.6,9.3,10.6c1.3,0,2.4-0.4,2.4-0.4l-1.1,10.5c0,0-3.2,0.8-5.9,0.8c-7,0-11.1-2.7-15.2-12.1
		c-1.8-4.2-4.2-11.6-7.5-11.6h-3.3v23.5h-14.7V8.5z M505.2,19.2v14.6h5.3c4.2,0,9.2-1.3,9.2-7.7c0-5.2-3.3-7-7.4-7H505.2z"/>
	<path class="st4" d="M188.9,83.5h15.8l15.6,29.5c1.3,2.6,3.1,7,4.5,10.6h0.4c-0.2-3.3-0.6-8.1-0.6-11.5V83.5h12.1v59.4h-15.4
		l-16.2-29.4c-1.5-2.6-3.1-6.5-4.3-9.7h-0.4c0.3,3.3,0.7,7.3,0.7,10.6v28.5h-12.1V83.5z"/>
	<path class="st4" d="M242.7,83.5h38.5v10.9h-23.8v15.4h19.4v10.9h-19.4v22.2h-14.7V83.5z"/>
	<path class="st4" d="M293.6,123.4c-1.1,4.8,0.8,10.2,10.1,10.2c6.2,0,8.3-2.5,8.3-5.7c0-4.9-4.9-6.2-10.7-8.3
		c-8.7-3-19.4-7.2-19.4-19.6c0-11.1,8.5-17.9,23.1-17.5c17.8,0.4,22.8,10.8,20.9,19.9l-13.5,1.2c0.9-6.9-1.6-10.7-8.5-10.7
		c-4.7,0-7.3,1.8-7.3,5.5c0,4.9,4.8,6.4,10.6,8.4c9,3,19.6,6.6,19.6,18.9c0,10.6-7.9,18.3-23.4,18.3c-14.5,0-24.5-6.7-22.4-19.4
		L293.6,123.4z"/>
</g>
<path class="st68" d="M131,13.6l-48.9-8c-1.3-0.2-3.2,0.2-4.3,0.8L29.4,36c-1.1,0.7-1.9,2.3-1.9,3.5v36l23.2-5.3
	c1.3-0.3,3.3-0.5,4.6-0.4l75.7,3.9c1.3,0.1,2.5-0.9,2.5-2.2V16.3C133.5,15,132.3,13.8,131,13.6z"/>
<path class="st69" d="M56.3,69.8c-2.4,0-4.3-0.1-5.6,0.2l-23.3,5.5V39.5c0-1.3,0.8-2.9,1.9-3.5L78,6.4c0.6-0.4,0.5-0.6,2.5-0.8v65.3
	"/>
<g>
	<path class="st69" d="M86.5,13.5l39,6.4v46.7l-39-2V13.9 M85.5,12.2v53.5l41,2.1V18.9L85.5,12.2L85.5,12.2z"/>
</g>
<path class="st10" d="M111.6,72.8l43.6,1.9c1.3,0.1,2.3,1.2,2.3,2.4V137c0,1.3-1,2.4-2.3,2.5l-43.6,3.2c-1.3,0.1-2.3-0.9-2.3-2.2V75
	C109.3,73.7,110.3,72.7,111.6,72.8z"/>
<g>
	<path class="st4" d="M115.5,80l35,1.5v51.3l-35,2.5V80 M114.5,78.8v57.8l37-2.6V80.4L114.5,78.8L114.5,78.8z"/>
</g>
<path class="st16" d="M6.5,82.5v47.4c0,1.3,1.2,2.7,2.5,3.1l40.9,13.4c0.9,0.3,1.6,0.5,3.6,0.6v0.1l0.4-0.1c0.2,0,0.3,0,0.3,0
	c0,0,52.3-3.8,52.3-3.8c1.3-0.1,1.9-1.2,1.9-2.5V74.8c0-1.3-0.7-2.4-1.9-2.4L55,69.8c-1.3-0.1-3.2,0.1-4.5,0.4L9,79.7
	C7.7,80,6.5,81.2,6.5,82.5z"/>
<path class="st14" d="M53.1,69.9c-1.3-0.1-2.2,0.1-3.5,0.3L9.1,79.7c-1.3,0.3-2.6,1.6-2.6,2.9v47.4c0,1.3,1.2,2.7,2.5,3.1l40.9,13.4
	c0.9,0.3,1.6,0.5,3.6,0.6v0"/>
<g>
	<path class="st14" d="M59.3,77l42.2,2.1v57.3l-21.9,1.6c-5.4,0.4-16.4,1.2-20.1,1.5L59.3,77 M58.1,75.8l0.2,64.9
		c0,0,14.7-1.1,21.3-1.5l22.9-1.7V78L58.1,75.8L58.1,75.8z"/>
</g>
<line class="st70" x1="108.3" y1="73" x2="108.3" y2="10.5"/>
<line class="st71" x1="82.5" y1="144.9" x2="82.5" y2="71.3"/>
<line class="st72" x1="134.1" y1="140.8" x2="134.1" y2="74.2"/>
</svg>
