<?xml version="1.0" encoding="utf-8"?>
<!-- Generator: Adobe Illustrator 19.2.1, SVG Export Plug-In . SVG Version: 6.00 Build 0)  -->
<svg version="1.1" id="Layer_1" xmlns="http://www.w3.org/2000/svg" xmlns:xlink="http://www.w3.org/1999/xlink" x="0px" y="0px"
	 viewBox="0 0 609.1 151.4" style="enable-background:new 0 0 609.1 151.4;" xml:space="preserve">
<style type="text/css">
	.st0{fill:#3D3D3D;}
	.st1{fill:#0075A8;}
	.st2{fill:#CCD1D3;}
	.st3{fill:#0D5E8C;}
	.st4{fill:#0071BC;}
	.st5{fill:#FFFFFF;}
	.st6{fill:#BDC3C7;}
	.st7{fill:#F15354;}
	.st8{fill:#A3ABAF;}
	.st9{fill:#58D68D;}
	.st10{fill:#2ECC71;}
	.st11{fill:#3498DB;}
	.st12{fill:#EADF5A;}
	.st13{fill:#F1C40F;}
	.st14{fill:#2D8490;}
	.st15{fill:#3A6F81;}
	.st16{fill:#ECF0F1;}
	.st17{opacity:0.2;fill:#78C9CF;}
</style>
<g>
	<path class="st0" d="M235.7,65h-13.5c-2.5,0-4.3-0.9-5.4-2.8l-10.6-18.6c-0.5-0.8-1.1-1.4-1.7-1.7c-0.6-0.4-1.5-0.5-2.6-0.5h-3.8
		V65h-14.9V0.8h20.9c4.6,0,8.6,0.5,11.9,1.4c3.3,1,5.9,2.3,8,4c2.1,1.7,3.6,3.7,4.5,6c0.9,2.3,1.4,4.8,1.4,7.6c0,2.1-0.3,4-0.8,5.9
		c-0.6,1.8-1.4,3.6-2.5,5.1c-1.1,1.6-2.4,3-4,4.2c-1.6,1.2-3.4,2.2-5.5,3c1,0.5,1.9,1.1,2.7,1.9c0.9,0.7,1.6,1.6,2.3,2.7L235.7,65z
		 M204.1,31c2,0,3.7-0.3,5.2-0.8c1.4-0.5,2.6-1.2,3.5-2.1c0.9-0.9,1.6-2,2-3.2c0.4-1.2,0.6-2.5,0.6-3.9c0-2.8-0.9-5-2.8-6.6
		c-1.8-1.6-4.7-2.4-8.5-2.4h-6v19H204.1z"/>
	<path class="st0" d="M298.6,65H287c-1.3,0-2.3-0.3-3.1-0.9c-0.8-0.6-1.4-1.4-1.8-2.3l-3.8-11.2H254l-3.8,11.2
		c-0.3,0.8-0.9,1.6-1.7,2.2c-0.8,0.7-1.9,1-3.1,1h-11.6l24.8-64.1h15.2L298.6,65z M274.9,40.4L269,22.9c-0.4-1.1-0.9-2.4-1.4-3.9
		c-0.5-1.5-1-3.1-1.5-4.9c-0.4,1.8-0.9,3.4-1.4,5c-0.5,1.5-1,2.8-1.4,4l-5.9,17.5H274.9z"/>
	<path class="st0" d="M362.2,0.8V65h-7.7c-1.1,0-2.1-0.2-2.9-0.5c-0.8-0.4-1.5-1-2.3-1.9l-30.2-38.2c0.1,1.1,0.2,2.3,0.2,3.3
		c0,1.1,0.1,2.1,0.1,3V65h-13.1V0.8h7.8c0.6,0,1.2,0,1.6,0.1s0.8,0.2,1.2,0.3c0.4,0.2,0.7,0.4,1,0.7s0.7,0.7,1.1,1.2l30.5,38.5
		c-0.1-1.2-0.2-2.4-0.3-3.6c-0.1-1.2-0.1-2.3-0.1-3.3V0.8H362.2z"/>
	<path class="st0" d="M418.6,48.4c0.4,0,0.7,0.1,1.1,0.2c0.4,0.1,0.7,0.4,1,0.7l5.9,6.2c-2.6,3.4-5.8,5.9-9.7,7.6s-8.5,2.6-13.8,2.6
		c-4.9,0-9.2-0.8-13.1-2.5c-3.9-1.7-7.1-3.9-9.8-6.9c-2.7-2.9-4.7-6.4-6.2-10.4c-1.4-4-2.2-8.4-2.2-13c0-4.8,0.8-9.2,2.3-13.2
		s3.7-7.5,6.6-10.4c2.8-2.9,6.2-5.2,10.1-6.8c3.9-1.6,8.3-2.4,13-2.4c2.4,0,4.7,0.2,6.8,0.6c2.1,0.4,4.1,1,6,1.8
		c1.8,0.7,3.5,1.7,5.1,2.7c1.6,1.1,2.9,2.2,4.1,3.4l-5,6.7c-0.3,0.4-0.7,0.8-1.1,1.1c-0.4,0.3-1.1,0.5-1.8,0.5c-0.5,0-1-0.1-1.5-0.4
		c-0.5-0.2-1-0.5-1.5-0.9c-0.5-0.3-1.1-0.7-1.7-1.1c-0.6-0.4-1.4-0.8-2.2-1.1c-0.9-0.3-1.9-0.6-3-0.9c-1.2-0.2-2.5-0.4-4.1-0.4
		c-2.5,0-4.7,0.5-6.8,1.4c-2,0.9-3.8,2.2-5.3,4c-1.5,1.7-2.6,3.9-3.4,6.4c-0.8,2.5-1.2,5.4-1.2,8.7c0,3.3,0.4,6.2,1.3,8.8
		c0.9,2.6,2.1,4.7,3.7,6.4s3.3,3.1,5.4,4c2.1,0.9,4.3,1.4,6.6,1.4c1.3,0,2.6-0.1,3.7-0.2c1.1-0.1,2.2-0.4,3.1-0.7
		c1-0.3,1.9-0.7,2.7-1.2c0.8-0.5,1.7-1.2,2.6-2c0.4-0.3,0.7-0.5,1.1-0.7S418.1,48.4,418.6,48.4z"/>
	<path class="st0" d="M489.4,0.8V65h-15V37.9h-26V65h-15V0.8h15v26.8h26V0.8H489.4z"/>
	<path class="st0" d="M517.7,12.3v15h20.2v11h-20.2v15.3H544V65h-41.3V0.8H544v11.4H517.7z"/>
	<path class="st0" d="M606.2,65h-13.5c-2.5,0-4.3-0.9-5.4-2.8l-10.6-18.6c-0.5-0.8-1.1-1.4-1.7-1.7c-0.6-0.4-1.5-0.5-2.6-0.5h-3.8
		V65h-14.9V0.8h20.9c4.6,0,8.6,0.5,11.9,1.4c3.3,1,5.9,2.3,8,4c2.1,1.7,3.6,3.7,4.5,6s1.4,4.8,1.4,7.6c0,2.1-0.3,4-0.8,5.9
		c-0.6,1.8-1.4,3.6-2.5,5.1c-1.1,1.6-2.4,3-4,4.2s-3.4,2.2-5.5,3c1,0.5,1.9,1.1,2.7,1.9s1.6,1.6,2.3,2.7L606.2,65z M574.6,31
		c2,0,3.7-0.3,5.2-0.8c1.4-0.5,2.6-1.2,3.5-2.1s1.6-2,2-3.2c0.4-1.2,0.6-2.5,0.6-3.9c0-2.8-0.9-5-2.8-6.6c-1.8-1.6-4.7-2.4-8.5-2.4
		h-6v19H574.6z"/>
	<path class="st1" d="M241.4,119.9c0,4.6-0.8,8.9-2.4,12.8c-1.6,3.9-3.9,7.3-6.8,10.2c-2.9,2.9-6.4,5.1-10.5,6.7
		c-4.1,1.6-8.6,2.4-13.6,2.4h-24.9V87.8h24.9c5,0,9.5,0.8,13.6,2.4c4.1,1.6,7.6,3.8,10.5,6.7c2.9,2.8,5.2,6.2,6.8,10.1
		C240.6,111,241.4,115.3,241.4,119.9z M226.1,119.9c0-3.2-0.4-6-1.2-8.6c-0.8-2.6-2-4.7-3.5-6.5c-1.5-1.8-3.4-3.1-5.7-4.1
		c-2.2-1-4.8-1.4-7.6-1.4h-9.9v41.2h9.9c2.8,0,5.4-0.5,7.6-1.4c2.2-1,4.1-2.3,5.7-4.1c1.5-1.8,2.7-3.9,3.5-6.5
		C225.7,126,226.1,123.1,226.1,119.9z"/>
	<path class="st1" d="M306.1,87.8V152h-7.7c-1.1,0-2.1-0.2-2.9-0.5c-0.8-0.4-1.5-1-2.3-1.9L263,111.3c0.1,1.1,0.2,2.3,0.2,3.3
		c0,1.1,0.1,2.1,0.1,3V152h-13.1V87.8h7.8c0.6,0,1.2,0,1.6,0.1s0.8,0.2,1.2,0.3c0.4,0.2,0.7,0.4,1,0.7s0.7,0.7,1.1,1.2l30.5,38.5
		c-0.1-1.2-0.2-2.4-0.3-3.6c-0.1-1.2-0.1-2.3-0.1-3.3V87.8H306.1z"/>
	<path class="st1" d="M354,100.9c-0.4,0.7-0.9,1.2-1.4,1.6s-1.1,0.5-1.9,0.5c-0.7,0-1.4-0.2-2.2-0.6c-0.8-0.4-1.7-0.9-2.6-1.4
		c-1-0.5-2.1-1-3.4-1.4c-1.3-0.4-2.7-0.6-4.3-0.6c-2.8,0-4.9,0.6-6.2,1.8c-1.4,1.2-2,2.8-2,4.8c0,1.3,0.4,2.4,1.2,3.2
		c0.8,0.9,1.9,1.6,3.2,2.2c1.3,0.6,2.9,1.2,4.6,1.7c1.7,0.5,3.5,1.1,5.3,1.7c1.8,0.6,3.5,1.4,5.3,2.2c1.7,0.9,3.2,1.9,4.6,3.3
		c1.3,1.3,2.4,2.9,3.2,4.8c0.8,1.9,1.2,4.2,1.2,6.8c0,3-0.5,5.7-1.5,8.3c-1,2.6-2.5,4.8-4.5,6.8c-2,1.9-4.4,3.4-7.2,4.5
		c-2.9,1.1-6.1,1.7-9.7,1.7c-2,0-4-0.2-6.1-0.6c-2.1-0.4-4.1-1-6-1.7s-3.8-1.6-5.5-2.7c-1.7-1-3.2-2.2-4.4-3.4l4.4-7
		c0.4-0.5,0.8-0.9,1.4-1.3c0.6-0.3,1.2-0.5,1.9-0.5c0.9,0,1.8,0.3,2.7,0.8c0.9,0.6,1.9,1.2,3,1.8c1.1,0.7,2.4,1.3,3.9,1.8
		c1.5,0.6,3.2,0.8,5.2,0.8c2.7,0,4.8-0.6,6.3-1.8c1.5-1.2,2.2-3.1,2.2-5.7c0-1.5-0.4-2.7-1.2-3.7c-0.8-0.9-1.9-1.7-3.2-2.3
		c-1.3-0.6-2.9-1.2-4.6-1.6c-1.7-0.5-3.4-1-5.2-1.6c-1.8-0.6-3.5-1.3-5.2-2.1c-1.7-0.8-3.2-1.9-4.6-3.3c-1.3-1.4-2.4-3.1-3.2-5.1
		c-0.8-2-1.2-4.6-1.2-7.5c0-2.4,0.5-4.8,1.5-7c1-2.3,2.4-4.3,4.3-6.1c1.9-1.8,4.2-3.2,6.9-4.3c2.7-1.1,5.9-1.6,9.4-1.6
		c2,0,3.9,0.2,5.7,0.5c1.9,0.3,3.6,0.8,5.3,1.4c1.7,0.6,3.2,1.3,4.7,2.2c1.5,0.8,2.8,1.8,3.9,2.8L354,100.9z"/>
</g>
<path class="st8" d="M77.4,133.9c-18.4,0-35.5-8.2-47-22.6l7-5.6c9.8,12.2,24.4,19.2,40,19.2c15.6,0,30.2-7,40-19.2l7,5.6
	C112.9,125.7,95.8,133.9,77.4,133.9z"/>
<path class="st8" d="M133.2,96.3l-8.3-3.4c2.5-6.1,3.7-12.6,3.7-19.2c0-25.5-19-47.3-44.2-50.8l1.2-8.9c29.7,4,52,29.7,52,59.7
	C137.6,81.5,136.1,89.1,133.2,96.3z"/>
<path class="st8" d="M21.4,95.9c-2.8-7.1-4.2-14.6-4.2-22.2c0-29.7,22.1-55.3,51.4-59.6l1.3,8.9c-24.9,3.7-43.7,25.5-43.7,50.7
	c0,6.5,1.2,12.9,3.6,18.9L21.4,95.9z"/>
<polygon class="st8" points="27.7,103.7 9.3,92.2 14.1,84.6 24.8,91.3 31.5,80.5 39.2,85.3 "/>
<polygon class="st8" points="123.7,126.1 114.8,125.3 116,112.7 103.4,111.4 104.3,102.4 125.8,104.6 "/>
<polygon class="st8" points="86.5,35.2 77.6,15.5 97.3,6.5 101,14.7 89.5,19.9 94.7,31.5 "/>
</svg>
