<?xml version="1.0" encoding="utf-8"?>
<!-- Generator: Adobe Illustrator 18.0.0, SVG Export Plug-In . SVG Version: 6.00 Build 0)  -->
<!DOCTYPE svg PUBLIC "-//W3C//DTD SVG 1.1//EN" "http://www.w3.org/Graphics/SVG/1.1/DTD/svg11.dtd">
<svg version="1.1" id="layer_1" xmlns:sketch="http://www.bohemiancoding.com/sketch/ns"
	 xmlns="http://www.w3.org/2000/svg" xmlns:xlink="http://www.w3.org/1999/xlink" x="0px" y="0px" viewBox="0 0 546 158"
	 enable-background="new 0 0 546 158" xml:space="preserve">
<title>catalogIcon-l2-flat</title>
<desc>Created with Sketch.</desc>
<g id="Page-1" sketch:type="MSPage">
	<g id="catalogIcon-l2-flat" transform="translate(-2.000000, -1.000000)" sketch:type="MSLayerGroup">
		<g id="Group" transform="translate(172.000000, 9.000000)">
			<path id="Shape" sketch:type="MSShapeGroup" fill="#3D3D3D" d="M14.7,1h24.5c11.6,0,19.4,5.6,19.4,16.5c0,8.9-6.1,14.3-12,16.1
				c1.8,1.5,3.1,3.5,4.1,5.6c2.5,5,4.1,10.6,9.3,10.6c1.3,0,2.4-0.4,2.4-0.4l-1.1,10.5c0,0-3.2,0.8-5.9,0.8c-7,0-11.1-2.7-15.2-12.1
				C38.4,44.4,36,37,32.7,37h-3.3v23.5H14.7V1L14.7,1z M29.4,11.7v14.6h5.3c4.2,0,9.2-1.3,9.2-7.7c0-5.2-3.3-7-7.4-7L29.4,11.7
				L29.4,11.7z"/>
			<path id="Shape_1_" sketch:type="MSShapeGroup" fill="#3D3D3D" d="M78.9,1h14.9l20.1,59.4H99l-3.7-11.3H75.4l-3.6,11.3H59L78.9,1
				L78.9,1z M78.9,38.3h12.8l-4-12.5c-1.4-4.2-2-10.2-2-10.2h-0.4c0,0-0.9,6.1-2.2,10.1L78.9,38.3L78.9,38.3z"/>
			<path id="Shape_2_" sketch:type="MSShapeGroup" fill="#3D3D3D" d="M114.8,1h15.8l15.6,29.5c1.3,2.6,3.1,7,4.5,10.6h0.4
				c-0.2-3.3-0.6-8.1-0.6-11.5V1h12.1v59.4H147L130.8,31c-1.5-2.6-3.1-6.5-4.3-9.7h-0.4c0.3,3.3,0.7,7.3,0.7,10.6v28.5h-12.1V1
				H114.8z"/>
			<path id="Shape_3_" sketch:type="MSShapeGroup" fill="#3D3D3D" d="M165.9,30.3C165.9,8.9,176.5,0,193,0
				c17.3,0,24.3,9.5,22.4,22.4l-13.7,1.2c1.5-9.4-2.2-13.2-8.9-13.2c-6.4,0-11.6,4.8-11.6,20.1c0,16.2,5.6,20.3,12.1,20.3
				c6.1,0,11-3.8,9.9-11.5l12.8,1.3c1,12.1-7.7,20.9-23.6,20.9C176.3,61.5,165.9,52,165.9,30.3L165.9,30.3z"/>
			<path id="Shape_4_" sketch:type="MSShapeGroup" fill="#3D3D3D" d="M219.3,1H234v22.4h18V1h14.7v59.4H252V35.3h-18v25.2h-14.7V1
				L219.3,1z"/>
			<path id="Shape_5_" sketch:type="MSShapeGroup" fill="#3D3D3D" d="M273,1h39.3v10.9h-24.6v12.8h20.7v10.9h-20.7v13.9h25.5v10.9
				H273V1L273,1z"/>
			<path id="Shape_6_" sketch:type="MSShapeGroup" fill="#3D3D3D" d="M316.4,1h24.5c11.6,0,19.4,5.6,19.4,16.5
				c0,8.9-6.1,14.3-12,16.1c1.8,1.5,3.1,3.5,4.1,5.6c2.5,5,4.1,10.6,9.3,10.6c1.3,0,2.4-0.4,2.4-0.4L363,59.9c0,0-3.2,0.8-5.9,0.8
				c-7,0-11.1-2.7-15.2-12.1c-1.8-4.2-4.2-11.6-7.5-11.6h-3.3v23.5h-14.7V1L316.4,1z M331.1,11.7v14.6h5.3c4.2,0,9.2-1.3,9.2-7.7
				c0-5.2-3.3-7-7.4-7L331.1,11.7L331.1,11.7z"/>
			<text transform="matrix(1 0 0 1 0 139)" fill="#0075A8" font-family="'AbadiMT-CondensedExtraBold'" font-size="48">Layer2 FLAT</text>
		</g>
		<g id="Group_1_" transform="translate(18.000000, 15.000000)" sketch:type="MSShapeGroup">
			<circle id="Oval" fill="#99A3A8" cx="61.4" cy="3.8" r="3.1"/>
			<circle id="Oval_1_" fill="#99A3A8" cx="61.4" cy="119.9" r="3.1"/>
			<circle id="Oval_2_" fill="#99A3A8" cx="3.4" cy="62.2" r="3.1"/>
			<circle id="Oval_3_" fill="#99A3A8" cx="119.5" cy="62.2" r="3.1"/>
			<circle id="Oval_4_" fill="#99A3A8" cx="20.4" cy="20.8" r="3.1"/>
			<circle id="Oval_5_" fill="#99A3A8" cx="102.5" cy="102.9" r="3.1"/>
			<circle id="Oval_6_" fill="#99A3A8" cx="20.6" cy="103.1" r="3.1"/>
			<circle id="Oval_7_" fill="#99A3A8" cx="102.7" cy="21" r="3.1"/>
			<path id="Shape_7_" fill="none" stroke="#99A3A8" d="M22.8,101L61.4,6.8l38.9,94L3.4,62.2l97.2-39l-39.2,93.6L22.5,23l94,39.2
				L22.8,101z"/>
		</g>
		<g id="Group_2_" sketch:type="MSShapeGroup">
			<circle id="Oval_8_" fill="#0075A8" cx="57" cy="147.1" r="5.6"/>
			<circle id="Oval_9_" fill="#0075A8" cx="13.3" cy="110.4" r="5.6"/>
			<circle id="Oval_10_" fill="#0075A8" cx="106.7" cy="6.6" r="5.6"/>
			<circle id="Oval_11_" fill="#0075A8" cx="113" cy="143.8" r="5.6"/>
			<circle id="Oval_12_" fill="#0075A8" cx="150.5" cy="102.6" r="5.6"/>
			<circle id="Oval_13_" fill="#0075A8" cx="148.9" cy="45.8" r="5.6"/>
			<circle id="Oval_14_" fill="#0075A8" cx="8.4" cy="52.3" r="5.6"/>
			<circle id="Oval_15_" fill="#0075A8" cx="47.6" cy="8.3" r="5.6"/>
			<path id="Shape_8_" fill="none" stroke="#0075A8" d="M58.6,141.9L50,13.2l95,86.8l-126.7,8l86.2-97.1l5.8,127.4L13.9,54.2
				l129.4-6.5L58.6,141.9z"/>
		</g>
	</g>
</g>
</svg>
