<?xml version="1.0" encoding="utf-8"?>
<!-- Generator: Adobe Illustrator 19.2.1, SVG Export Plug-In . SVG Version: 6.00 Build 0)  -->
<svg version="1.1" id="Layer_1" xmlns="http://www.w3.org/2000/svg" xmlns:xlink="http://www.w3.org/1999/xlink" x="0px" y="0px"
	 viewBox="0 0 920 151.4" style="enable-background:new 0 0 920 151.4;" xml:space="preserve">
<style type="text/css">
	.st0{fill:#99A3A8;}
	.st1{fill:#CCD1D3;}
	.st2{fill:none;stroke:#A3ABAF;stroke-width:5;stroke-linecap:round;stroke-linejoin:round;stroke-miterlimit:10;}
	.st3{fill:#3D3D3D;}
	.st4{fill:#0075A8;}
	.st5{fill:#B3C78F;}
	.st6{fill:none;stroke:#CCD1D3;stroke-miterlimit:10;}
	.st7{fill:none;stroke:#CCD1D3;stroke-width:1.893;stroke-miterlimit:10;}
	.st8{fill:#F15354;}
	.st9{fill:#A3ABAF;}
	.st10{fill:#3498DB;}
	.st11{fill:#2980B9;}
	.st12{fill:#E67E22;}
	.st13{fill:#D35401;}
	.st14{fill:#F1C40F;}
	.st15{fill:#E49701;}
	.st16{fill:#EADF5A;}
	.st17{fill:#D7C320;}
	.st18{fill:#34495E;}
	.st19{fill:#2C3E50;}
	.st20{fill:#2B2B2B;}
	.st21{fill:#262626;}
	.st22{fill:#3A6F81;}
	.st23{fill:#356272;}
	.st24{fill:#00558B;}
	.st25{fill:#27AE60;}
	.st26{fill:#169242;}
	.st27{fill:#A5C63B;}
	.st28{fill:#8EB021;}
	.st29{fill:#ECF0F1;}
	.st30{fill:#BDC3C7;}
	.st31{fill:#95A5A6;}
	.st32{fill:#7F8C8D;}
	.st33{fill:#E74C3C;}
	.st34{fill:#C0392B;}
	.st35{fill:#EA3738;}
	.st36{fill:#78C9CF;}
	.st37{fill:#389EA8;}
	.st38{fill:#2D8490;}
	.st39{fill:#1A6470;}
	.st40{fill:#21364A;}
	.st41{fill:#040B15;}
	.st42{fill:#66767C;}
	.st43{fill:#334851;}
	.st44{fill:#5C686F;}
	.st45{fill:#29373C;}
	.st46{fill:#0A141A;}
	.st47{fill:#FFFFFF;}
	.st48{fill:#0D5E8C;}
	.st49{fill:#0071BC;}
	.st50{fill:#808080;stroke:#000000;stroke-width:0.5;stroke-miterlimit:10;}
	.st51{fill:#DFDFDF;stroke:#000000;stroke-width:0.5;stroke-miterlimit:10;}
	.st52{stroke:#000000;stroke-width:0.5;stroke-miterlimit:10;}
	.st53{fill:none;stroke:#A3ABAF;stroke-width:12;stroke-miterlimit:10;}
	.st54{fill:none;stroke:#F15354;stroke-width:0.4376;stroke-miterlimit:10;}
	.st55{fill:none;stroke:#F15354;stroke-miterlimit:10;}
	.st56{fill:none;stroke:#3498DB;stroke-width:15;stroke-linecap:square;stroke-miterlimit:10;}
	.st57{fill:none;stroke:#A3ABAF;stroke-width:9;stroke-miterlimit:10;}
	.st58{opacity:0.5;fill:url(#SVGID_1_);}
	.st59{clip-path:url(#SVGID_3_);enable-background:new    ;}
	.st60{fill:#D3AC0D;}
	.st61{fill:#B5930B;}
	.st62{opacity:0.5;fill:url(#SVGID_4_);}
	.st63{clip-path:url(#SVGID_6_);enable-background:new    ;}
	.st64{opacity:0.5;fill:url(#SVGID_7_);}
	.st65{clip-path:url(#SVGID_9_);enable-background:new    ;}
	.st66{opacity:0.5;fill:url(#SVGID_10_);}
	.st67{clip-path:url(#SVGID_12_);enable-background:new    ;}
	.st68{fill:#58D68D;}
	.st69{fill:#2ECC71;}
	.st70{fill:none;stroke:#2ECC71;stroke-width:1.1621;stroke-miterlimit:10;}
	.st71{fill:none;stroke:#F1C40F;stroke-width:1.1621;stroke-miterlimit:10;}
	.st72{fill:none;stroke:#0075A8;stroke-width:1.1621;stroke-miterlimit:10;}
	.st73{fill:none;stroke:#BDC3C7;stroke-width:10;stroke-miterlimit:10;}
	.st74{fill:none;stroke:#A3ABAF;stroke-width:10;stroke-miterlimit:10;}
	.st75{opacity:0.2;fill:#78C9CF;}
	.st76{fill:none;stroke:#0075A8;stroke-miterlimit:10;}
	.st77{fill:#5D5D5D;}
	.st78{fill:none;stroke:#99A3A8;stroke-miterlimit:10;}
	.st79{fill:none;stroke:#0075A8;stroke-width:1.8275;stroke-miterlimit:10;}
	.st80{opacity:0.7;}
</style>
<g>
	<path class="st3" d="M179.4,8.5h24.5c11.6,0,19.4,5.6,19.4,16.5c0,8.9-6.1,14.3-12,16.1c1.8,1.5,3.1,3.5,4.1,5.6
		c2.5,5,4.1,10.6,9.3,10.6c1.3,0,2.4-0.4,2.4-0.4L226,67.4c0,0-3.2,0.8-5.9,0.8c-7,0-11.1-2.7-15.2-12.1c-1.8-4.2-4.2-11.6-7.5-11.6
		h-3.3v23.5h-14.7V8.5z M194.1,19.1v14.6h5.3c4.2,0,9.2-1.3,9.2-7.7c0-5.2-3.3-7-7.4-7H194.1z"/>
	<path class="st3" d="M243.5,8.5h14.9l20.1,59.4h-14.9l-3.7-11.3H240l-3.6,11.3h-12.8L243.5,8.5z M243.5,45.7h12.8l-4-12.5
		c-1.4-4.2-2-10.2-2-10.2h-0.4c0,0-0.9,6.1-2.2,10.1L243.5,45.7z"/>
	<path class="st3" d="M279.4,8.5h15.8L310.8,38c1.3,2.6,3.1,7,4.5,10.6h0.4c-0.2-3.3-0.6-8.1-0.6-11.5V8.5H327v59.4h-15.4
		l-16.2-29.4c-1.5-2.6-3.1-6.5-4.3-9.7h-0.4c0.3,3.3,0.7,7.3,0.7,10.6v28.5h-12.1V8.5z"/>
	<path class="st3" d="M330.6,37.8c0-21.5,10.6-30.4,27.1-30.4c17.3,0,24.3,9.5,22.4,22.4L366.3,31c1.5-9.4-2.2-13.2-8.9-13.2
		c-6.4,0-11.6,4.8-11.6,20.1c0,16.2,5.6,20.3,12.1,20.3c6.1,0,11-3.8,9.9-11.5l12.8,1.3c1,12.1-7.7,20.9-23.6,20.9
		C340.9,69,330.6,59.5,330.6,37.8z"/>
	<path class="st3" d="M384,8.5h14.7v22.4h18V8.5h14.7v59.4h-14.7V42.7h-18v25.2H384V8.5z"/>
	<path class="st3" d="M437.6,8.5H477v10.9h-24.6v12.8H473v10.9h-20.7V57h25.5v10.9h-40.2V8.5z"/>
	<path class="st3" d="M481,8.5h24.5c11.6,0,19.4,5.6,19.4,16.5c0,8.9-6.1,14.3-12,16.1c1.8,1.5,3.1,3.5,4.1,5.6
		c2.5,5,4.1,10.6,9.3,10.6c1.3,0,2.4-0.4,2.4-0.4l-1.1,10.5c0,0-3.2,0.8-5.9,0.8c-7,0-11.1-2.7-15.2-12.1
		c-1.8-4.2-4.2-11.6-7.5-11.6h-3.3v23.5H481V8.5z M495.7,19.1v14.6h5.3c4.2,0,9.2-1.3,9.2-7.7c0-5.2-3.3-7-7.4-7H495.7z"/>
	<path class="st4" d="M179.4,83.5h15.8l15.6,29.5c1.3,2.6,3.1,7,4.5,10.6h0.4c-0.2-3.3-0.6-8.1-0.6-11.5V83.5H227v59.4h-15.4
		l-16.2-29.4c-1.5-2.6-3.1-6.5-4.3-9.7h-0.4c0.3,3.3,0.7,7.3,0.7,10.6v28.5h-12.1V83.5z"/>
	<path class="st4" d="M233.2,83.5h39.3v10.9h-24.6v12.8h20.7v10.9h-20.7V132h25.5v10.9h-40.2V83.5z"/>
	<path class="st4" d="M272.1,83.5h47.4v10.9H303v48.5h-14.7V94.4h-16.2V83.5z"/>
	<path class="st4" d="M316.6,83.5H331l8.5,33.6c1.1,4.1,1.3,11.3,1.3,11.3h0.4c0,0,0.3-7.3,1.1-11.1l7.6-33.8h13.5L371,117
		c1,4.2,1.3,12.1,1.3,12.1h0.4c0,0,0.4-8.1,1.4-12l8.2-33.7h12.5l-15.5,59.4h-15.6l-6.1-25.5c-1.1-4.7-1.8-12.8-1.8-12.8h-0.4
		c0,0-0.5,8.2-1.7,12.8l-6.1,25.5H332L316.6,83.5z"/>
	<path class="st4" d="M393.6,112.4c0-21.4,11.4-29.9,27.3-29.9c15.7,0,27,8.5,27,29.9c0,23.8-11.7,31.6-27,31.6
		C404.9,144,393.6,135.4,393.6,112.4z M432.8,112.4c0-14.8-5.8-19.5-12.1-19.5s-12.1,4.8-12.1,19.5c0,16.5,5.7,21.2,12.1,21.2
		S432.8,128.8,432.8,112.4z"/>
	<path class="st4" d="M451.4,83.5h24.5c11.6,0,19.4,5.6,19.4,16.5c0,8.9-6.1,14.3-12,16.1c1.8,1.5,3.1,3.5,4.1,5.6
		c2.5,5,4.1,10.6,9.3,10.6c1.3,0,2.4-0.4,2.4-0.4l-1.1,10.5c0,0-3.2,0.8-5.9,0.8c-7,0-11.1-2.7-15.2-12.1
		c-1.8-4.2-4.2-11.6-7.5-11.6h-3.3v23.5h-14.7V83.5z M466.1,94.1v14.6h5.3c4.2,0,9.2-1.3,9.2-7.7c0-5.2-3.3-7-7.4-7H466.1z"/>
	<path class="st4" d="M500.8,83.5h14.7v16.6c0,1.8-0.3,4.6-0.4,6.6h0.4c1-1.5,2.2-3.8,3.7-5.5l14.5-17.7h15.8l-19.4,23.3l20.4,36.1
		h-16.9L519.9,118l-4.4,5.4v19.5h-14.7V83.5z"/>
	<path class="st4" d="M572.5,123.4c-1.1,4.8,0.8,10.2,10.1,10.2c6.2,0,8.3-2.5,8.3-5.7c0-4.9-4.9-6.2-10.7-8.3
		c-8.7-3-19.4-7.2-19.4-19.6c0-11.1,8.5-17.9,23.1-17.5c17.8,0.4,22.8,10.8,20.9,19.9l-13.5,1.2c0.9-6.9-1.6-10.7-8.5-10.7
		c-4.7,0-7.3,1.8-7.3,5.5c0,4.9,4.8,6.4,10.6,8.4c9,3,19.6,6.6,19.6,18.9c0,10.6-7.9,18.3-23.4,18.3c-14.5,0-24.5-6.7-22.4-19.4
		L572.5,123.4z"/>
	<path class="st4" d="M609.2,83.5h39.3v10.9h-24.6v12.8h20.7v10.9h-20.7V132h25.5v10.9h-40.2V83.5z"/>
	<path class="st4" d="M652.5,83.5H677c11.6,0,19.4,5.6,19.4,16.5c0,8.9-6.1,14.3-12,16.1c1.8,1.5,3.1,3.5,4.1,5.6
		c2.5,5,4.1,10.6,9.3,10.6c1.3,0,2.4-0.4,2.4-0.4l-1.1,10.5c0,0-3.2,0.8-5.9,0.8c-7,0-11.1-2.7-15.2-12.1
		c-1.8-4.2-4.2-11.6-7.5-11.6h-3.3v23.5h-14.7V83.5z M667.2,94.1v14.6h5.3c4.2,0,9.2-1.3,9.2-7.7c0-5.2-3.3-7-7.4-7H667.2z"/>
	<path class="st4" d="M692.1,83.5h15.2l11.2,33.5c1.4,4.3,1.9,10.7,1.9,10.7h0.4c0,0,0.6-6.4,2-10.6l11-33.6h13.3l-20.3,59.4h-14.3
		L692.1,83.5z"/>
	<path class="st4" d="M745.4,83.5H776v10.4h-8v38.6h8v10.4h-30.6v-10.4h7.9V93.9h-7.9V83.5z"/>
	<path class="st4" d="M776.8,112.8c0-21.5,10.6-30.4,27.1-30.4c17.3,0,24.3,9.5,22.4,22.4l-13.7,1.2c1.5-9.4-2.2-13.2-8.9-13.2
		c-6.4,0-11.6,4.8-11.6,20.1c0,16.2,5.6,20.3,12.1,20.3c6.1,0,11-3.8,9.9-11.5l12.8,1.3c1,12.1-7.7,20.9-23.6,20.9
		C787.2,144,776.8,134.5,776.8,112.8z"/>
	<path class="st4" d="M830.2,83.5h39.3v10.9h-24.6v12.8h20.7v10.9h-20.7V132h25.5v10.9h-40.2V83.5z"/>
	<path class="st4" d="M883.4,123.4c-1.1,4.8,0.8,10.2,10.1,10.2c6.2,0,8.3-2.5,8.3-5.7c0-4.9-4.9-6.2-10.7-8.3
		c-8.7-3-19.4-7.2-19.4-19.6c0-11.1,8.5-17.9,23.1-17.5c17.8,0.4,22.8,10.8,20.9,19.9l-13.5,1.2c0.9-6.9-1.6-10.7-8.5-10.7
		c-4.7,0-7.3,1.8-7.3,5.5c0,4.9,4.8,6.4,10.6,8.4c9,3,19.6,6.6,19.6,18.9c0,10.6-7.9,18.3-23.4,18.3c-14.5,0-24.5-6.7-22.4-19.4
		L883.4,123.4z"/>
</g>
<g>
	<path class="st1" d="M23.3,138.5c-10.3,0-18.6-8.3-18.6-18.6V35.5c0-10.3,8.3-18.6,18.6-18.6h101.3c10.3,0,18.6,8.3,18.6,18.6v84.4
		c0,10.3-8.3,18.6-18.6,18.6H23.3z"/>
	<path class="st0" d="M124.7,20c8.6,0,15.5,6.9,15.5,15.5v84.4c0,8.6-6.9,15.5-15.5,15.5H23.3c-8.6,0-15.5-6.9-15.5-15.5V35.5
		c0-8.6,6.9-15.5,15.5-15.5H124.7 M124.7,13.8H23.3c-12,0-21.7,9.7-21.7,21.7v84.4c0,12,9.7,21.7,21.7,21.7h101.3
		c12,0,21.7-9.7,21.7-21.7V35.5C146.4,23.5,136.6,13.8,124.7,13.8L124.7,13.8z"/>
</g>
<rect x="23.3" y="35.5" class="st1" width="101.3" height="84.4"/>
<path class="st20" d="M121.1,35.6H26.8c-1.7,0-3.1,1.4-3.1,3.1V93c0,1.7,1.4,3.1,3.1,3.1h17.4v9c0,1.7,1.4,3.1,3.1,3.1h6.2v8.7
	c0,1.7,1.4,3.1,3.1,3.1h34.7c1.7,0,3.1-1.4,3.1-3.1v-8.7h5.3c1.7,0,3.1-1.4,3.1-3.1v-9h18.3c1.7,0,3.1-1.4,3.1-3.1V38.7
	C124.2,37,122.8,35.6,121.1,35.6z"/>
<g>
	<path class="st14" d="M43.4,35.6v17.1c0,1-0.8,1.9-1.9,1.9h-2.2c-1,0-1.9-0.8-1.9-1.9V35.6"/>
	<path class="st14" d="M52.9,35.6v17.1c0,1-0.8,1.9-1.9,1.9h-2.2c-1,0-1.9-0.8-1.9-1.9V35.6"/>
	<path class="st14" d="M62.5,35.6v17.1c0,1-0.8,1.9-1.9,1.9h-2.2c-1,0-1.9-0.8-1.9-1.9V35.6"/>
	<path class="st14" d="M72.1,35.6v17.1c0,1-0.8,1.9-1.9,1.9H68c-1,0-1.9-0.8-1.9-1.9V35.6"/>
	<path class="st14" d="M81.6,35.6v17.1c0,1-0.8,1.9-1.9,1.9h-2.2c-1,0-1.9-0.8-1.9-1.9V35.6"/>
	<path class="st14" d="M91.2,35.6v17.1c0,1-0.8,1.9-1.9,1.9h-2.2c-1,0-1.9-0.8-1.9-1.9V35.6"/>
	<path class="st14" d="M100.8,35.6v17.1c0,1-0.8,1.9-1.9,1.9h-2.2c-1,0-1.9-0.8-1.9-1.9V35.6"/>
	<path class="st14" d="M110.4,35.6v17.1c0,1-0.8,1.9-1.9,1.9h-2.2c-1,0-1.9-0.8-1.9-1.9V35.6"/>
</g>
</svg>
