<?xml version="1.0" encoding="utf-8"?>
<!-- Generator: Adobe Illustrator 19.2.1, SVG Export Plug-In . SVG Version: 6.00 Build 0)  -->
<svg version="1.1" id="Layer_1" xmlns="http://www.w3.org/2000/svg" xmlns:xlink="http://www.w3.org/1999/xlink" x="0px" y="0px"
	 viewBox="0 0 1098.9 151.4" style="enable-background:new 0 0 1098.9 151.4;" xml:space="preserve">
<style type="text/css">
	.st0{fill:#3D3D3D;}
	.st1{fill:#0075A8;}
	.st2{fill:#CCD1D3;}
	.st3{fill:#0D5E8C;}
	.st4{fill:#0071BC;}
	.st5{fill:#FFFFFF;}
	.st6{fill:#BDC3C7;}
	.st7{fill:#F15354;}
	.st8{fill:#A3ABAF;}
	.st9{fill:#58D68D;}
	.st10{fill:#2ECC71;}
	.st11{fill:#3498DB;}
	.st12{fill:#EADF5A;}
	.st13{fill:#F1C40F;}
	.st14{fill:#2D8490;}
	.st15{fill:#3A6F81;}
	.st16{fill:#ECF0F1;}
	.st17{opacity:0.2;fill:#78C9CF;}
</style>
<g>
	<path class="st0" d="M232.7,65h-13.5c-2.5,0-4.3-0.9-5.4-2.8l-10.6-18.6c-0.5-0.8-1.1-1.4-1.7-1.7c-0.6-0.4-1.5-0.5-2.6-0.5h-3.8
		V65h-14.9V0.8h20.9c4.6,0,8.6,0.5,11.9,1.4c3.3,1,5.9,2.3,8,4c2.1,1.7,3.6,3.7,4.5,6c0.9,2.3,1.4,4.8,1.4,7.6c0,2.1-0.3,4-0.8,5.9
		c-0.6,1.8-1.4,3.6-2.5,5.1c-1.1,1.6-2.4,3-4,4.2c-1.6,1.2-3.4,2.2-5.5,3c1,0.5,1.9,1.1,2.7,1.9c0.9,0.7,1.6,1.6,2.3,2.7L232.7,65z
		 M201.1,31c2,0,3.7-0.3,5.2-0.8c1.4-0.5,2.6-1.2,3.5-2.1c0.9-0.9,1.6-2,2-3.2c0.4-1.2,0.6-2.5,0.6-3.9c0-2.8-0.9-5-2.8-6.6
		c-1.8-1.6-4.7-2.4-8.5-2.4h-6v19H201.1z"/>
	<path class="st0" d="M295.6,65H284c-1.3,0-2.3-0.3-3.1-0.9c-0.8-0.6-1.4-1.4-1.8-2.3l-3.8-11.2H251l-3.8,11.2
		c-0.3,0.8-0.9,1.6-1.7,2.2c-0.8,0.7-1.9,1-3.1,1h-11.6l24.8-64.1h15.2L295.6,65z M271.9,40.4L266,22.9c-0.4-1.1-0.9-2.4-1.4-3.9
		c-0.5-1.5-1-3.1-1.5-4.9c-0.4,1.8-0.9,3.4-1.4,5c-0.5,1.5-1,2.8-1.4,4l-5.9,17.5H271.9z"/>
	<path class="st0" d="M359.2,0.8V65h-7.7c-1.1,0-2.1-0.2-2.9-0.5c-0.8-0.4-1.5-1-2.3-1.9l-30.2-38.2c0.1,1.1,0.2,2.3,0.2,3.3
		c0,1.1,0.1,2.1,0.1,3V65h-13.1V0.8h7.8c0.6,0,1.2,0,1.6,0.1s0.8,0.2,1.2,0.3c0.4,0.2,0.7,0.4,1,0.7s0.7,0.7,1.1,1.2l30.5,38.5
		c-0.1-1.2-0.2-2.4-0.3-3.6c-0.1-1.2-0.1-2.3-0.1-3.3V0.8H359.2z"/>
	<path class="st0" d="M415.6,48.4c0.4,0,0.7,0.1,1.1,0.2c0.4,0.1,0.7,0.4,1,0.7l5.9,6.2c-2.6,3.4-5.8,5.9-9.7,7.6s-8.5,2.6-13.8,2.6
		c-4.9,0-9.2-0.8-13.1-2.5c-3.9-1.7-7.1-3.9-9.8-6.9c-2.7-2.9-4.7-6.4-6.2-10.4c-1.4-4-2.2-8.4-2.2-13c0-4.8,0.8-9.2,2.3-13.2
		s3.7-7.5,6.6-10.4c2.8-2.9,6.2-5.2,10.1-6.8c3.9-1.6,8.3-2.4,13-2.4c2.4,0,4.7,0.2,6.8,0.6c2.1,0.4,4.1,1,6,1.8
		c1.8,0.7,3.5,1.7,5.1,2.7c1.6,1.1,2.9,2.2,4.1,3.4l-5,6.7c-0.3,0.4-0.7,0.8-1.1,1.1c-0.4,0.3-1.1,0.5-1.8,0.5c-0.5,0-1-0.1-1.5-0.4
		c-0.5-0.2-1-0.5-1.5-0.9c-0.5-0.3-1.1-0.7-1.7-1.1c-0.6-0.4-1.4-0.8-2.2-1.1c-0.9-0.3-1.9-0.6-3-0.9c-1.2-0.2-2.5-0.4-4.1-0.4
		c-2.5,0-4.7,0.5-6.8,1.4c-2,0.9-3.8,2.2-5.3,4c-1.5,1.7-2.6,3.9-3.4,6.4c-0.8,2.5-1.2,5.4-1.2,8.7c0,3.3,0.4,6.2,1.3,8.8
		c0.9,2.6,2.1,4.7,3.7,6.4s3.3,3.1,5.4,4c2.1,0.9,4.3,1.4,6.6,1.4c1.3,0,2.6-0.1,3.7-0.2c1.1-0.1,2.2-0.4,3.1-0.7
		c1-0.3,1.9-0.7,2.7-1.2c0.8-0.5,1.7-1.2,2.6-2c0.4-0.3,0.7-0.5,1.1-0.7S415.1,48.4,415.6,48.4z"/>
	<path class="st0" d="M486.4,0.8V65h-15V37.9h-26V65h-15V0.8h15v26.8h26V0.8H486.4z"/>
	<path class="st0" d="M514.7,12.3v15h20.2v11h-20.2v15.3H541V65h-41.3V0.8H541v11.4H514.7z"/>
	<path class="st0" d="M603.2,65h-13.5c-2.5,0-4.3-0.9-5.4-2.8l-10.6-18.6c-0.5-0.8-1.1-1.4-1.7-1.7c-0.6-0.4-1.5-0.5-2.6-0.5h-3.8
		V65h-14.9V0.8h20.9c4.6,0,8.6,0.5,11.9,1.4c3.3,1,5.9,2.3,8,4c2.1,1.7,3.6,3.7,4.5,6s1.4,4.8,1.4,7.6c0,2.1-0.3,4-0.8,5.9
		c-0.6,1.8-1.4,3.6-2.5,5.1c-1.1,1.6-2.4,3-4,4.2s-3.4,2.2-5.5,3c1,0.5,1.9,1.1,2.7,1.9s1.6,1.6,2.3,2.7L603.2,65z M571.6,31
		c2,0,3.7-0.3,5.2-0.8c1.4-0.5,2.6-1.2,3.5-2.1s1.6-2,2-3.2c0.4-1.2,0.6-2.5,0.6-3.9c0-2.8-0.9-5-2.8-6.6c-1.8-1.6-4.7-2.4-8.5-2.4
		h-6v19H571.6z"/>
	<path class="st1" d="M236.2,87.8V152h-7.7c-1.1,0-2.1-0.2-2.9-0.5c-0.8-0.4-1.5-1-2.3-1.9L193,111.3c0.1,1.1,0.2,2.3,0.2,3.3
		c0,1.1,0.1,2.1,0.1,3V152h-13.1V87.8h7.8c0.6,0,1.2,0,1.6,0.1s0.8,0.2,1.2,0.3c0.4,0.2,0.7,0.4,1,0.7s0.7,0.7,1.1,1.2l30.5,38.5
		c-0.1-1.2-0.2-2.4-0.3-3.6c-0.1-1.2-0.1-2.3-0.1-3.3V87.8H236.2z"/>
	<path class="st1" d="M263.5,99.3v15h20.2v11h-20.2v15.3h26.3V152h-41.3V87.8h41.3v11.4H263.5z"/>
	<path class="st1" d="M345.1,99.6h-18V152h-14.9V99.6h-18V87.8h51V99.6z"/>
	<path class="st1" d="M439.9,87.8L420.1,152h-13.5l-12.1-39.7c-0.2-0.6-0.5-1.3-0.7-2c-0.2-0.7-0.4-1.5-0.6-2.4
		c-0.2,0.8-0.4,1.6-0.6,2.4c-0.2,0.7-0.4,1.4-0.7,2L379.8,152h-13.5l-19.8-64.1h12.5c1.3,0,2.4,0.3,3.2,0.9s1.4,1.4,1.7,2.3
		l8.8,33.4c0.3,1.1,0.5,2.2,0.8,3.5c0.3,1.2,0.5,2.5,0.8,3.9c0.5-2.8,1.2-5.2,1.9-7.3l10.4-33.4c0.3-0.8,0.8-1.6,1.7-2.2
		s1.9-1,3.1-1h4.4c1.3,0,2.3,0.3,3.1,0.9c0.8,0.6,1.4,1.4,1.8,2.3l10.3,33.4c0.8,2.1,1.4,4.4,1.9,7c0.2-1.3,0.5-2.6,0.7-3.7
		s0.5-2.3,0.8-3.3l8.8-33.4c0.2-0.8,0.8-1.6,1.7-2.2s1.9-1,3.2-1H439.9z"/>
	<path class="st1" d="M507.6,119.9c0,4.6-0.8,8.9-2.4,12.9s-3.8,7.5-6.8,10.4c-2.9,2.9-6.4,5.3-10.5,6.9c-4.1,1.7-8.6,2.5-13.6,2.5
		c-5,0-9.5-0.8-13.6-2.5s-7.6-4-10.5-6.9c-2.9-2.9-5.2-6.4-6.8-10.4c-1.6-4-2.4-8.3-2.4-12.9c0-4.6,0.8-8.9,2.4-12.9
		c1.6-4,3.9-7.5,6.8-10.4c2.9-2.9,6.4-5.2,10.5-6.9s8.7-2.5,13.6-2.5c5,0,9.5,0.8,13.6,2.5c4.1,1.7,7.6,4,10.5,6.9
		c2.9,2.9,5.2,6.4,6.8,10.4S507.6,115.3,507.6,119.9z M492.4,119.9c0-3.2-0.4-6-1.2-8.6s-2-4.7-3.5-6.4s-3.4-3.1-5.7-4
		c-2.2-0.9-4.8-1.4-7.6-1.4c-2.9,0-5.4,0.5-7.7,1.4c-2.2,0.9-4.1,2.3-5.7,4s-2.7,3.9-3.5,6.4s-1.2,5.4-1.2,8.6
		c0,3.2,0.4,6.1,1.2,8.6s2,4.7,3.5,6.4c1.5,1.8,3.4,3.1,5.7,4c2.2,0.9,4.8,1.4,7.7,1.4c2.8,0,5.4-0.5,7.6-1.4s4.1-2.3,5.7-4
		c1.5-1.8,2.7-3.9,3.5-6.4S492.4,123.1,492.4,119.9z"/>
	<path class="st1" d="M568.8,152h-13.5c-2.5,0-4.3-0.9-5.4-2.8l-10.6-18.6c-0.5-0.8-1.1-1.4-1.7-1.7c-0.6-0.4-1.5-0.5-2.6-0.5h-3.8
		V152h-14.9V87.8h20.9c4.6,0,8.6,0.5,11.9,1.4c3.3,1,5.9,2.3,8,4c2.1,1.7,3.6,3.7,4.5,6s1.4,4.8,1.4,7.6c0,2.1-0.3,4-0.8,5.9
		c-0.6,1.8-1.4,3.6-2.5,5.1c-1.1,1.6-2.4,3-4,4.2s-3.4,2.2-5.5,3c1,0.5,1.9,1.1,2.7,1.9s1.6,1.6,2.3,2.7L568.8,152z M537.2,118
		c2,0,3.7-0.3,5.2-0.8c1.4-0.5,2.6-1.2,3.5-2.1s1.6-2,2-3.2c0.4-1.2,0.6-2.5,0.6-3.9c0-2.8-0.9-5-2.8-6.6c-1.8-1.6-4.7-2.4-8.5-2.4
		h-6v19H537.2z"/>
	<path class="st1" d="M589.1,113.8h2.4c2.2,0,3.8-0.7,4.8-2.1l14.4-20.9c0.9-1.1,1.8-1.9,2.8-2.3s2.2-0.6,3.7-0.6H630l-19,25.9
		c-1.3,1.8-2.8,3.1-4.4,3.9c1.1,0.4,2.1,1,3,1.7s1.8,1.7,2.6,2.9l19.4,29.7h-13.3c-0.9,0-1.6-0.1-2.2-0.2c-0.6-0.1-1.1-0.3-1.6-0.5
		c-0.4-0.2-0.8-0.5-1.1-0.9c-0.3-0.3-0.6-0.7-0.9-1.2L598,126.9c-0.5-0.8-1.2-1.4-2-1.7c-0.8-0.3-1.9-0.5-3.3-0.5h-3.6V152h-14.9
		V87.8h14.9V113.8z"/>
	<path class="st1" d="M728.8,87.8V152h-13.1v-36.9c0-0.9,0-1.8,0.1-2.8c0-1,0.1-2,0.2-3l-17,33c-0.5,1-1.2,1.8-2.1,2.3
		c-0.9,0.5-1.9,0.8-3.1,0.8h-2c-1.1,0-2.2-0.3-3.1-0.8c-0.9-0.5-1.6-1.3-2.1-2.3l-17-33c0.1,1.1,0.2,2.1,0.2,3.1s0.1,1.9,0.1,2.8
		V152h-13.1V87.8h11.4c0.6,0,1.2,0,1.7,0c0.5,0,0.9,0.1,1.3,0.3c0.4,0.1,0.7,0.4,1,0.7c0.3,0.3,0.6,0.7,0.9,1.3l16.5,32.5
		c0.6,1.1,1.2,2.3,1.7,3.5c0.5,1.2,1.1,2.4,1.6,3.7c0.5-1.3,1-2.6,1.6-3.8s1.1-2.4,1.7-3.5l16.5-32.4c0.3-0.6,0.6-1,0.9-1.3
		c0.3-0.3,0.7-0.5,1-0.7s0.8-0.2,1.3-0.3c0.5,0,1,0,1.7,0H728.8z"/>
	<path class="st1" d="M798.7,152h-11.5c-1.3,0-2.3-0.3-3.1-0.9c-0.8-0.6-1.4-1.4-1.8-2.3l-3.8-11.2h-24.4l-3.8,11.2
		c-0.3,0.8-0.9,1.6-1.7,2.2s-1.9,1-3.1,1h-11.6l24.8-64.1h15.2L798.7,152z M775.1,127.4l-5.9-17.6c-0.4-1.1-0.9-2.4-1.4-3.9
		c-0.5-1.5-1-3.1-1.5-4.9c-0.4,1.8-0.9,3.4-1.4,5c-0.5,1.5-1,2.8-1.4,4l-5.9,17.5H775.1z"/>
	<path class="st1" d="M859.7,87.8V152H852c-1.1,0-2.1-0.2-2.9-0.5c-0.8-0.4-1.5-1-2.3-1.9l-30.2-38.2c0.1,1.1,0.2,2.3,0.2,3.3
		c0,1.1,0.1,2.1,0.1,3V152h-13.1V87.8h7.8c0.6,0,1.2,0,1.6,0.1c0.4,0.1,0.8,0.2,1.2,0.3c0.4,0.2,0.7,0.4,1,0.7
		c0.3,0.3,0.7,0.7,1.1,1.2l30.5,38.5c-0.1-1.2-0.2-2.4-0.3-3.6c-0.1-1.2-0.1-2.3-0.1-3.3V87.8H859.7z"/>
	<path class="st1" d="M929.6,152h-11.5c-1.3,0-2.3-0.3-3.1-0.9c-0.8-0.6-1.4-1.4-1.8-2.3l-3.8-11.2H885l-3.8,11.2
		c-0.3,0.8-0.9,1.6-1.7,2.2s-1.9,1-3.1,1h-11.6l24.8-64.1h15.2L929.6,152z M906,127.4l-5.9-17.6c-0.4-1.1-0.9-2.4-1.4-3.9
		c-0.5-1.5-1-3.1-1.5-4.9c-0.4,1.8-0.9,3.4-1.4,5c-0.5,1.5-1,2.8-1.4,4l-5.9,17.5H906z"/>
	<path class="st1" d="M963.4,118.7h22.8v27.1c-3.3,2.4-6.8,4.2-10.5,5.2s-7.6,1.6-11.6,1.6c-5.3,0-10.1-0.8-14.4-2.5
		c-4.3-1.7-8-3.9-11.1-6.9c-3.1-2.9-5.5-6.4-7.1-10.4c-1.7-4-2.5-8.4-2.5-13c0-4.8,0.8-9.2,2.4-13.2s3.9-7.5,6.8-10.4
		c2.9-2.9,6.5-5.2,10.7-6.8s8.9-2.4,14-2.4c2.7,0,5.2,0.2,7.5,0.7c2.3,0.4,4.5,1,6.5,1.8c2,0.8,3.8,1.7,5.4,2.7s3.1,2.2,4.4,3.4
		l-4.3,6.6c-0.7,1-1.5,1.7-2.6,1.9c-1.1,0.2-2.2,0-3.5-0.8c-1.2-0.7-2.3-1.3-3.3-1.8c-1-0.5-2.1-0.9-3.2-1.3
		c-1.1-0.3-2.2-0.6-3.4-0.7c-1.2-0.1-2.6-0.2-4-0.2c-2.8,0-5.3,0.5-7.5,1.5c-2.2,1-4.1,2.4-5.7,4.2c-1.6,1.8-2.8,3.9-3.6,6.4
		s-1.3,5.3-1.3,8.4c0,3.4,0.5,6.4,1.4,9.1c0.9,2.6,2.3,4.9,4,6.7c1.7,1.8,3.8,3.2,6.2,4.2c2.4,1,5,1.4,7.9,1.4
		c1.8,0,3.4-0.2,4.9-0.5c1.5-0.4,2.9-0.8,4.2-1.4v-9.7h-6.3c-0.9,0-1.7-0.2-2.2-0.7s-0.8-1.1-0.8-1.9V118.7z"/>
	<path class="st1" d="M1011.1,99.3v15h20.2v11h-20.2v15.3h26.3V152h-41.3V87.8h41.3v11.4H1011.1z"/>
	<path class="st1" d="M1099,152h-13.5c-2.5,0-4.3-0.9-5.4-2.8l-10.6-18.6c-0.5-0.8-1.1-1.4-1.7-1.7c-0.6-0.4-1.5-0.5-2.6-0.5h-3.8
		V152h-14.9V87.8h20.9c4.6,0,8.6,0.5,11.9,1.4c3.3,1,5.9,2.3,8,4c2.1,1.7,3.6,3.7,4.5,6s1.4,4.8,1.4,7.6c0,2.1-0.3,4-0.8,5.9
		c-0.6,1.8-1.4,3.6-2.5,5.1c-1.1,1.6-2.4,3-4,4.2s-3.4,2.2-5.5,3c1,0.5,1.9,1.1,2.7,1.9s1.6,1.6,2.3,2.7L1099,152z M1067.5,118
		c2,0,3.7-0.3,5.2-0.8c1.4-0.5,2.6-1.2,3.5-2.1s1.6-2,2-3.2c0.4-1.2,0.6-2.5,0.6-3.9c0-2.8-0.9-5-2.8-6.6c-1.8-1.6-4.7-2.4-8.5-2.4
		h-6v19H1067.5z"/>
</g>
<path class="st14" d="M76.7,46.9c7.1,0,14.2,2.7,19.6,8.1c10.8,10.8,10.8,28.4,0,39.3c-5.4,5.4-12.5,8.1-19.6,8.1
	s-14.2-2.7-19.6-8.1c-10.8-10.8-10.8-28.4,0-39.3C62.5,49.7,69.6,46.9,76.7,46.9 M76.7,38.8c-9.6,0-18.6,3.7-25.4,10.5
	c-14,14-14,36.8,0,50.8c6.8,6.8,15.8,10.5,25.4,10.5c9.6,0,18.6-3.7,25.4-10.5c14-14,14-36.8,0-50.8C95.3,42.5,86.3,38.8,76.7,38.8
	L76.7,38.8z"/>
<path class="st2" d="M123.2,38.4L111.6,50c-0.5,0.5-1.4,0.5-1.9,0l-8.4-8.4c-0.5-0.5-0.5-1.4,0-1.9l11.5-11.5"/>
<path class="st2" d="M109.5,24.6c-0.6-0.6-0.4-1.2,0.5-1.2h16.1c0.9,0,1.6,0.7,1.6,1.6v16.1c0,0.9-0.5,1.1-1.2,0.5L109.5,24.6z"/>
<path class="st2" d="M83.3,16v16.3c0,0.8-0.6,1.4-1.4,1.4H70c-0.8,0-1.4-0.6-1.4-1.4V16"/>
<path class="st2" d="M63.9,15.9c-0.9,0-1.1-0.5-0.5-1.2L74.8,3.3c0.6-0.6,1.7-0.6,2.3,0l11.4,11.4c0.6,0.6,0.4,1.2-0.5,1.2H63.9z"/>
<path class="st2" d="M38.5,27.6l12.2,12.2c0.5,0.5,0.5,1.4,0,1.9l-8.4,8.4c-0.5,0.5-1.4,0.5-1.9,0L28.1,38"/>
<path class="st2" d="M25.4,41.9c-0.6,0.6-1.2,0.4-1.2-0.5V25.3c0-0.9,0.7-1.6,1.6-1.6H42c0.9,0,1.1,0.5,0.5,1.2L25.4,41.9z"/>
<path class="st2" d="M13.7,68.1h19.3c0.8,0,1.4,0.6,1.4,1.4v11.9c0,0.8-0.6,1.4-1.4,1.4H13.7"/>
<path class="st2" d="M16.6,87.6c0,0.9-0.5,1.1-1.2,0.5L4.1,76.7c-0.6-0.6-0.6-1.7,0-2.3L15.5,63c0.6-0.6,1.2-0.4,1.2,0.5V87.6z"/>
<path class="st2" d="M29,112.2l11.5-11.5c0.5-0.5,1.4-0.5,1.9,0l8.4,8.4c0.5,0.5,0.5,1.4,0,1.9l-11.5,11.5"/>
<path class="st2" d="M42.7,126c0.6,0.6,0.4,1.2-0.5,1.2H26.1c-0.9,0-1.6-0.7-1.6-1.6v-16.1c0-0.9,0.5-1.1,1.2-0.5L42.7,126z"/>
<path class="st2" d="M68.9,135.7v-17.3c0-0.8,0.6-1.4,1.4-1.4h11.9c0.8,0,1.4,0.6,1.4,1.4v17.3"/>
<path class="st2" d="M88.4,134.8c0.9,0,1.1,0.5,0.5,1.2l-11.4,11.4c-0.6,0.6-1.7,0.6-2.3,0L63.7,136c-0.6-0.6-0.4-1.2,0.5-1.2H88.4z
	"/>
<path class="st2" d="M113.7,123.1l-12.2-12.2c-0.5-0.5-0.5-1.4,0-1.9l8.4-8.4c0.5-0.5,1.4-0.5,1.9,0l12.2,12.2"/>
<path class="st2" d="M126.8,108.7c0.6-0.6,1.2-0.4,1.2,0.5v16.1c0,0.9-0.7,1.6-1.6,1.6h-16.1c-0.9,0-1.1-0.5-0.5-1.2L126.8,108.7z"
	/>
<path class="st2" d="M138.5,82.5h-19.3c-0.8,0-1.4-0.6-1.4-1.4V69.2c0-0.8,0.6-1.4,1.4-1.4h19.3"/>
<path class="st2" d="M135.6,63.1c0-0.9,0.5-1.1,1.2-0.5L148.1,74c0.6,0.6,0.6,1.7,0,2.3l-11.4,11.4c-0.6,0.6-1.2,0.4-1.2-0.5V63.1z"
	/>
<g>
	<path class="st15" d="M63.2,66.5c0,0-0.1-0.1-0.1-0.2c-1.2,1.8-2,3.7-2.4,5.8c1.7-0.1,3.1,1.3,3.1,3c0,1.7-1.4,3.1-3.1,3
		c0.4,2,1.2,3.9,2.3,5.7c1.2-1.2,3.2-1.2,4.4,0.1c1.1,1.2,1.1,3.1-0.1,4.3c1.7,1.2,3.6,2,5.6,2.4c0-1.7,1.5-3.1,3.2-3
		c1.6,0.1,2.9,1.5,2.9,3.1c2-0.4,3.9-1.1,5.7-2.3c-1.2-1.2-1.2-3.1,0-4.3c1.2-1.2,3.2-1.2,4.4,0.1c1.2-1.7,2-3.7,2.5-5.7
		c-1.7,0.1-3.2-1.4-3.2-3.1c0-1.7,1.6-3.1,3.3-3c-0.4-2.1-1.1-4.1-2.3-5.9c-1.1,1.3-3.2,1.4-4.5,0.2c-1.3-1.3-1.2-3.4,0.2-4.5
		c-1.8-1.2-3.8-2.1-5.8-2.5c0.1,1.8-1.2,3.3-3,3.3c-1.8,0-3.2-1.6-3-3.4c-2.1,0.4-4.1,1.2-5.9,2.4c1.3,1.1,1.4,3.2,0.2,4.4
		C66.4,67.7,64.4,67.7,63.2,66.5z"/>
</g>
<ellipse transform="matrix(0.7071 -0.7071 0.7071 0.7071 -30.8364 75.8318)" class="st5" cx="76.1" cy="75.1" rx="6.1" ry="6.1"/>
</svg>
