<?xml version="1.0" encoding="utf-8"?>
<!-- Generator: Adobe Illustrator 19.2.1, SVG Export Plug-In . SVG Version: 6.00 Build 0)  -->
<svg version="1.1" id="Layer_1" xmlns="http://www.w3.org/2000/svg" xmlns:xlink="http://www.w3.org/1999/xlink" x="0px" y="0px"
	 viewBox="0 0 1098.9 151.4" style="enable-background:new 0 0 1098.9 151.4;" xml:space="preserve">
<style type="text/css">
	.st0{fill:#99A3A8;}
	.st1{fill:#CCD1D3;}
	.st2{fill:none;stroke:#A3ABAF;stroke-width:5;stroke-linecap:round;stroke-linejoin:round;stroke-miterlimit:10;}
	.st3{fill:#3D3D3D;}
	.st4{fill:#0075A8;}
	.st5{fill:#B3C78F;}
	.st6{fill:none;stroke:#CCD1D3;stroke-miterlimit:10;}
	.st7{fill:none;stroke:#CCD1D3;stroke-width:1.893;stroke-miterlimit:10;}
	.st8{fill:#F15354;}
	.st9{fill:#A3ABAF;}
	.st10{fill:#3498DB;}
	.st11{fill:#2980B9;}
	.st12{fill:#E67E22;}
	.st13{fill:#D35401;}
	.st14{fill:#F1C40F;}
	.st15{fill:#E49701;}
	.st16{fill:#EADF5A;}
	.st17{fill:#D7C320;}
	.st18{fill:#34495E;}
	.st19{fill:#2C3E50;}
	.st20{fill:#2B2B2B;}
	.st21{fill:#262626;}
	.st22{fill:#3A6F81;}
	.st23{fill:#356272;}
	.st24{fill:#00558B;}
	.st25{fill:#27AE60;}
	.st26{fill:#169242;}
	.st27{fill:#A5C63B;}
	.st28{fill:#8EB021;}
	.st29{fill:#ECF0F1;}
	.st30{fill:#BDC3C7;}
	.st31{fill:#95A5A6;}
	.st32{fill:#7F8C8D;}
	.st33{fill:#E74C3C;}
	.st34{fill:#C0392B;}
	.st35{fill:#EA3738;}
	.st36{fill:#78C9CF;}
	.st37{fill:#389EA8;}
	.st38{fill:#2D8490;}
	.st39{fill:#1A6470;}
	.st40{fill:#21364A;}
	.st41{fill:#040B15;}
	.st42{fill:#66767C;}
	.st43{fill:#334851;}
	.st44{fill:#5C686F;}
	.st45{fill:#29373C;}
	.st46{fill:#0A141A;}
	.st47{fill:#FFFFFF;}
	.st48{fill:#0D5E8C;}
	.st49{fill:#0071BC;}
	.st50{fill:#808080;stroke:#000000;stroke-width:0.5;stroke-miterlimit:10;}
	.st51{fill:#DFDFDF;stroke:#000000;stroke-width:0.5;stroke-miterlimit:10;}
	.st52{stroke:#000000;stroke-width:0.5;stroke-miterlimit:10;}
	.st53{fill:none;stroke:#A3ABAF;stroke-width:12;stroke-miterlimit:10;}
	.st54{fill:none;stroke:#F15354;stroke-width:0.4376;stroke-miterlimit:10;}
	.st55{fill:none;stroke:#F15354;stroke-miterlimit:10;}
	.st56{fill:none;stroke:#3498DB;stroke-width:15;stroke-linecap:square;stroke-miterlimit:10;}
	.st57{fill:none;stroke:#A3ABAF;stroke-width:9;stroke-miterlimit:10;}
	.st58{opacity:0.5;fill:url(#SVGID_1_);}
	.st59{clip-path:url(#SVGID_3_);enable-background:new    ;}
	.st60{fill:#D3AC0D;}
	.st61{fill:#B5930B;}
	.st62{opacity:0.5;fill:url(#SVGID_4_);}
	.st63{clip-path:url(#SVGID_6_);enable-background:new    ;}
	.st64{opacity:0.5;fill:url(#SVGID_7_);}
	.st65{clip-path:url(#SVGID_9_);enable-background:new    ;}
	.st66{opacity:0.5;fill:url(#SVGID_10_);}
	.st67{clip-path:url(#SVGID_12_);enable-background:new    ;}
	.st68{fill:#58D68D;}
	.st69{fill:#2ECC71;}
	.st70{fill:none;stroke:#2ECC71;stroke-width:1.1621;stroke-miterlimit:10;}
	.st71{fill:none;stroke:#F1C40F;stroke-width:1.1621;stroke-miterlimit:10;}
	.st72{fill:none;stroke:#0075A8;stroke-width:1.1621;stroke-miterlimit:10;}
	.st73{fill:none;stroke:#BDC3C7;stroke-width:10;stroke-miterlimit:10;}
	.st74{fill:none;stroke:#A3ABAF;stroke-width:10;stroke-miterlimit:10;}
	.st75{opacity:0.2;fill:#78C9CF;}
	.st76{fill:none;stroke:#0075A8;stroke-miterlimit:10;}
	.st77{fill:#5D5D5D;}
	.st78{fill:none;stroke:#99A3A8;stroke-miterlimit:10;}
	.st79{fill:none;stroke:#0075A8;stroke-width:1.8275;stroke-miterlimit:10;}
	.st80{opacity:0.7;}
</style>
<g>
	<path class="st3" d="M232.7,65h-13.5c-2.5,0-4.3-0.9-5.4-2.8l-10.6-18.6c-0.5-0.8-1.1-1.4-1.7-1.7c-0.6-0.4-1.5-0.5-2.6-0.5h-3.8
		V65h-14.9V0.8h20.9c4.6,0,8.6,0.5,11.9,1.4c3.3,1,5.9,2.3,8,4c2.1,1.7,3.6,3.7,4.5,6c0.9,2.3,1.4,4.8,1.4,7.6c0,2.1-0.3,4-0.8,5.9
		c-0.6,1.8-1.4,3.6-2.5,5.1c-1.1,1.6-2.4,3-4,4.2s-3.4,2.2-5.5,3c1,0.5,1.9,1.1,2.7,1.9c0.8,0.7,1.6,1.6,2.3,2.7L232.7,65z
		 M201.1,31c2,0,3.7-0.3,5.2-0.8c1.4-0.5,2.6-1.2,3.5-2.1c0.9-0.9,1.6-2,2-3.2c0.4-1.2,0.6-2.5,0.6-3.9c0-2.8-0.9-5-2.8-6.6
		c-1.8-1.6-4.7-2.4-8.5-2.4h-6v19H201.1z"/>
	<path class="st3" d="M295.6,65H284c-1.3,0-2.3-0.3-3.1-0.9c-0.8-0.6-1.4-1.4-1.8-2.3l-3.8-11.2H251l-3.8,11.2
		c-0.3,0.8-0.9,1.6-1.7,2.2c-0.8,0.7-1.9,1-3.1,1h-11.6l24.8-64.1h15.2L295.6,65z M271.9,40.4L266,22.9c-0.4-1.1-0.9-2.4-1.4-3.9
		s-1-3.1-1.5-4.9c-0.4,1.8-0.9,3.4-1.4,5c-0.5,1.5-1,2.8-1.4,4l-5.9,17.5H271.9z"/>
	<path class="st3" d="M359.2,0.8V65h-7.7c-1.1,0-2.1-0.2-2.9-0.5c-0.8-0.4-1.5-1-2.3-1.9l-30.2-38.2c0.1,1.1,0.2,2.3,0.2,3.3
		c0,1.1,0.1,2.1,0.1,3V65h-13.1V0.8h7.8c0.6,0,1.2,0,1.6,0.1c0.4,0.1,0.8,0.2,1.2,0.3c0.4,0.2,0.7,0.4,1,0.7s0.7,0.7,1.1,1.2
		l30.5,38.5c-0.1-1.2-0.2-2.4-0.3-3.6c-0.1-1.2-0.1-2.3-0.1-3.3V0.8H359.2z"/>
	<path class="st3" d="M415.6,48.4c0.4,0,0.7,0.1,1.1,0.2c0.4,0.1,0.7,0.4,1,0.7l5.9,6.2c-2.6,3.4-5.8,5.9-9.7,7.6s-8.5,2.6-13.8,2.6
		c-4.9,0-9.2-0.8-13.1-2.5c-3.9-1.7-7.1-3.9-9.8-6.9c-2.7-2.9-4.7-6.4-6.2-10.4c-1.4-4-2.2-8.4-2.2-13c0-4.8,0.8-9.2,2.3-13.2
		s3.7-7.5,6.6-10.4c2.8-2.9,6.2-5.2,10.1-6.8c3.9-1.6,8.3-2.4,13-2.4c2.4,0,4.7,0.2,6.8,0.6c2.1,0.4,4.1,1,6,1.8
		c1.8,0.7,3.5,1.7,5.1,2.7c1.6,1.1,2.9,2.2,4.1,3.4l-5,6.7c-0.3,0.4-0.7,0.8-1.1,1.1c-0.4,0.3-1.1,0.5-1.8,0.5c-0.5,0-1-0.1-1.5-0.4
		c-0.5-0.2-1-0.5-1.5-0.9c-0.5-0.3-1.1-0.7-1.7-1.1c-0.6-0.4-1.4-0.8-2.2-1.1c-0.9-0.3-1.9-0.6-3-0.9c-1.2-0.2-2.5-0.4-4.1-0.4
		c-2.5,0-4.7,0.5-6.8,1.4c-2,0.9-3.8,2.2-5.3,4c-1.5,1.7-2.6,3.9-3.4,6.4c-0.8,2.5-1.2,5.4-1.2,8.7c0,3.3,0.4,6.2,1.3,8.8
		c0.9,2.6,2.1,4.7,3.7,6.4s3.3,3.1,5.4,4c2.1,0.9,4.3,1.4,6.6,1.4c1.3,0,2.6-0.1,3.7-0.2c1.1-0.1,2.2-0.4,3.1-0.7
		c1-0.3,1.9-0.7,2.7-1.2c0.8-0.5,1.7-1.2,2.6-2c0.4-0.3,0.7-0.5,1.1-0.7S415.1,48.4,415.6,48.4z"/>
	<path class="st3" d="M486.4,0.8V65h-15V37.9h-26V65h-15V0.8h15v26.8h26V0.8H486.4z"/>
	<path class="st3" d="M514.7,12.3v15h20.2v11h-20.2v15.3H541V65h-41.3V0.8H541v11.4H514.7z"/>
	<path class="st3" d="M603.2,65h-13.5c-2.5,0-4.3-0.9-5.4-2.8l-10.6-18.6c-0.5-0.8-1.1-1.4-1.7-1.7c-0.6-0.4-1.5-0.5-2.6-0.5h-3.8
		V65h-14.9V0.8h20.9c4.6,0,8.6,0.5,11.9,1.4c3.3,1,5.9,2.3,8,4c2.1,1.7,3.6,3.7,4.5,6s1.4,4.8,1.4,7.6c0,2.1-0.3,4-0.8,5.9
		c-0.6,1.8-1.4,3.6-2.5,5.1c-1.1,1.6-2.4,3-4,4.2s-3.4,2.2-5.5,3c1,0.5,1.9,1.1,2.7,1.9s1.6,1.6,2.3,2.7L603.2,65z M571.6,31
		c2,0,3.7-0.3,5.2-0.8c1.4-0.5,2.6-1.2,3.5-2.1s1.6-2,2-3.2c0.4-1.2,0.6-2.5,0.6-3.9c0-2.8-0.9-5-2.8-6.6c-1.8-1.6-4.7-2.4-8.5-2.4
		h-6v19H571.6z"/>
	<path class="st4" d="M236.2,87.8V152h-7.7c-1.1,0-2.1-0.2-2.9-0.5c-0.8-0.4-1.5-1-2.3-1.9L193,111.3c0.1,1.1,0.2,2.3,0.2,3.3
		c0,1.1,0.1,2.1,0.1,3V152h-13.1V87.8h7.8c0.6,0,1.2,0,1.6,0.1s0.8,0.2,1.2,0.3c0.4,0.2,0.7,0.4,1,0.7c0.3,0.3,0.7,0.7,1.1,1.2
		l30.5,38.5c-0.1-1.2-0.2-2.4-0.3-3.6c-0.1-1.2-0.1-2.3-0.1-3.3V87.8H236.2z"/>
	<path class="st4" d="M263.5,99.3v15h20.2v11h-20.2v15.3h26.3V152h-41.3V87.8h41.3v11.4H263.5z"/>
	<path class="st4" d="M345.1,99.6h-18V152h-14.9V99.6h-18V87.8h51V99.6z"/>
	<path class="st4" d="M439.9,87.8L420.1,152h-13.5l-12.1-39.7c-0.2-0.6-0.5-1.3-0.7-2c-0.2-0.7-0.4-1.5-0.6-2.4
		c-0.2,0.8-0.4,1.6-0.6,2.4c-0.2,0.7-0.4,1.4-0.7,2L379.8,152h-13.5l-19.8-64.1h12.5c1.3,0,2.4,0.3,3.2,0.9s1.4,1.4,1.7,2.3
		l8.8,33.4c0.3,1.1,0.5,2.2,0.8,3.5c0.3,1.2,0.5,2.5,0.8,3.9c0.5-2.8,1.2-5.2,1.9-7.3l10.4-33.4c0.3-0.8,0.8-1.6,1.7-2.2
		s1.9-1,3.1-1h4.4c1.3,0,2.3,0.3,3.1,0.9c0.8,0.6,1.4,1.4,1.8,2.3l10.3,33.4c0.8,2.1,1.4,4.4,1.9,7c0.2-1.3,0.5-2.6,0.7-3.7
		s0.5-2.3,0.8-3.3l8.8-33.4c0.2-0.8,0.8-1.6,1.7-2.2s1.9-1,3.2-1H439.9z"/>
	<path class="st4" d="M507.6,119.9c0,4.6-0.8,8.9-2.4,12.9s-3.8,7.5-6.8,10.4c-2.9,2.9-6.4,5.3-10.5,6.9c-4.1,1.7-8.6,2.5-13.6,2.5
		c-5,0-9.5-0.8-13.6-2.5s-7.6-4-10.5-6.9c-2.9-2.9-5.2-6.4-6.8-10.4c-1.6-4-2.4-8.3-2.4-12.9c0-4.6,0.8-8.9,2.4-12.9
		c1.6-4,3.9-7.5,6.8-10.4c2.9-2.9,6.4-5.2,10.5-6.9s8.7-2.5,13.6-2.5c5,0,9.5,0.8,13.6,2.5c4.1,1.7,7.6,4,10.5,6.9
		c2.9,2.9,5.2,6.4,6.8,10.4S507.6,115.3,507.6,119.9z M492.4,119.9c0-3.2-0.4-6-1.2-8.6s-2-4.7-3.5-6.4s-3.4-3.1-5.7-4
		c-2.2-0.9-4.8-1.4-7.6-1.4c-2.9,0-5.4,0.5-7.7,1.4c-2.2,0.9-4.1,2.3-5.7,4s-2.7,3.9-3.5,6.4s-1.2,5.4-1.2,8.6
		c0,3.2,0.4,6.1,1.2,8.6s2,4.7,3.5,6.4c1.5,1.8,3.4,3.1,5.7,4c2.2,0.9,4.8,1.4,7.7,1.4c2.8,0,5.4-0.5,7.6-1.4s4.1-2.3,5.7-4
		c1.5-1.8,2.7-3.9,3.5-6.4S492.4,123.1,492.4,119.9z"/>
	<path class="st4" d="M568.8,152h-13.5c-2.5,0-4.3-0.9-5.4-2.8l-10.6-18.6c-0.5-0.8-1.1-1.4-1.7-1.7c-0.6-0.4-1.5-0.5-2.6-0.5h-3.8
		V152h-14.9V87.8h20.9c4.6,0,8.6,0.5,11.9,1.4c3.3,1,5.9,2.3,8,4c2.1,1.7,3.6,3.7,4.5,6s1.4,4.8,1.4,7.6c0,2.1-0.3,4-0.8,5.9
		c-0.6,1.8-1.4,3.6-2.5,5.1c-1.1,1.6-2.4,3-4,4.2s-3.4,2.2-5.5,3c1,0.5,1.9,1.1,2.7,1.9s1.6,1.6,2.3,2.7L568.8,152z M537.2,118
		c2,0,3.7-0.3,5.2-0.8c1.4-0.5,2.6-1.2,3.5-2.1s1.6-2,2-3.2c0.4-1.2,0.6-2.5,0.6-3.9c0-2.8-0.9-5-2.8-6.6c-1.8-1.6-4.7-2.4-8.5-2.4
		h-6v19H537.2z"/>
	<path class="st4" d="M589.1,113.8h2.4c2.2,0,3.8-0.7,4.8-2.1l14.4-20.9c0.9-1.1,1.8-1.9,2.8-2.3s2.2-0.6,3.7-0.6H630l-19,25.9
		c-1.3,1.8-2.8,3.1-4.4,3.9c1.1,0.4,2.1,1,3,1.7s1.8,1.7,2.6,2.9l19.4,29.7h-13.3c-0.9,0-1.6-0.1-2.2-0.2c-0.6-0.1-1.1-0.3-1.6-0.5
		c-0.4-0.2-0.8-0.5-1.1-0.9c-0.3-0.3-0.6-0.7-0.9-1.2L598,126.9c-0.5-0.8-1.2-1.4-2-1.7c-0.8-0.3-1.9-0.5-3.3-0.5h-3.6V152h-14.9
		V87.8h14.9V113.8z"/>
	<path class="st4" d="M692.1,100.9c-0.4,0.7-0.9,1.2-1.4,1.6c-0.5,0.4-1.1,0.5-1.9,0.5c-0.7,0-1.4-0.2-2.2-0.6
		c-0.8-0.4-1.7-0.9-2.6-1.4c-1-0.5-2.1-1-3.4-1.4c-1.3-0.4-2.7-0.6-4.3-0.6c-2.8,0-4.9,0.6-6.2,1.8c-1.4,1.2-2,2.8-2,4.8
		c0,1.3,0.4,2.4,1.2,3.2s1.9,1.6,3.2,2.2c1.3,0.6,2.9,1.2,4.6,1.7c1.7,0.5,3.5,1.1,5.3,1.7c1.8,0.6,3.5,1.4,5.3,2.2s3.2,1.9,4.6,3.3
		c1.3,1.3,2.4,2.9,3.2,4.8c0.8,1.9,1.2,4.2,1.2,6.8c0,3-0.5,5.7-1.5,8.3c-1,2.6-2.5,4.8-4.5,6.8c-2,1.9-4.4,3.4-7.2,4.5
		c-2.9,1.1-6.1,1.7-9.7,1.7c-2,0-4-0.2-6.1-0.6c-2.1-0.4-4.1-1-6-1.7c-1.9-0.7-3.8-1.6-5.5-2.7c-1.7-1-3.2-2.2-4.4-3.4l4.4-7
		c0.4-0.5,0.8-0.9,1.4-1.3c0.6-0.3,1.2-0.5,1.9-0.5c0.9,0,1.8,0.3,2.7,0.8c0.9,0.6,1.9,1.2,3,1.8c1.1,0.7,2.4,1.3,3.9,1.8
		c1.5,0.6,3.2,0.8,5.2,0.8c2.7,0,4.8-0.6,6.3-1.8c1.5-1.2,2.2-3.1,2.2-5.7c0-1.5-0.4-2.7-1.2-3.7s-1.9-1.7-3.2-2.3
		c-1.3-0.6-2.9-1.2-4.6-1.6c-1.7-0.5-3.4-1-5.2-1.6c-1.8-0.6-3.5-1.3-5.2-2.1c-1.7-0.8-3.2-1.9-4.6-3.3c-1.3-1.4-2.4-3.1-3.2-5.1
		c-0.8-2-1.2-4.6-1.2-7.5c0-2.4,0.5-4.8,1.5-7c1-2.3,2.4-4.3,4.3-6.1c1.9-1.8,4.2-3.2,6.9-4.3c2.7-1.1,5.9-1.6,9.4-1.6
		c2,0,3.9,0.2,5.7,0.5c1.9,0.3,3.6,0.8,5.3,1.4c1.7,0.6,3.2,1.3,4.7,2.2s2.8,1.8,3.9,2.8L692.1,100.9z"/>
	<path class="st4" d="M720.4,99.3v15h20.2v11h-20.2v15.3h26.3V152h-41.3V87.8h41.3v11.4H720.4z"/>
	<path class="st4" d="M808.3,152h-13.5c-2.5,0-4.3-0.9-5.4-2.8l-10.6-18.6c-0.5-0.8-1.1-1.4-1.7-1.7c-0.6-0.4-1.5-0.5-2.6-0.5h-3.8
		V152h-14.9V87.8h20.9c4.6,0,8.6,0.5,11.9,1.4c3.3,1,5.9,2.3,8,4c2.1,1.7,3.6,3.7,4.5,6s1.4,4.8,1.4,7.6c0,2.1-0.3,4-0.8,5.9
		c-0.6,1.8-1.4,3.6-2.5,5.1c-1.1,1.6-2.4,3-4,4.2s-3.4,2.2-5.5,3c1,0.5,1.9,1.1,2.7,1.9s1.6,1.6,2.3,2.7L808.3,152z M776.7,118
		c2,0,3.7-0.3,5.2-0.8c1.4-0.5,2.6-1.2,3.5-2.1s1.6-2,2-3.2c0.4-1.2,0.6-2.5,0.6-3.9c0-2.8-0.9-5-2.8-6.6c-1.8-1.6-4.7-2.4-8.5-2.4
		h-6v19H776.7z"/>
	<path class="st4" d="M869,87.8L843.3,152h-13.5l-25.7-64.1h12c1.3,0,2.3,0.3,3.1,0.9c0.8,0.6,1.4,1.4,1.8,2.3l12.4,34.3
		c0.6,1.5,1.2,3.1,1.7,4.9c0.6,1.8,1.1,3.6,1.6,5.6c0.4-1.9,0.9-3.8,1.4-5.6c0.5-1.8,1.1-3.4,1.7-4.9l12.3-34.3
		c0.3-0.8,0.9-1.6,1.7-2.2s1.9-1,3.1-1H869z"/>
	<path class="st4" d="M889,152h-15V87.8h15V152z"/>
	<path class="st4" d="M944.6,135.4c0.4,0,0.7,0.1,1.1,0.2c0.4,0.1,0.7,0.4,1,0.7l5.9,6.2c-2.6,3.4-5.8,5.9-9.7,7.6
		s-8.5,2.6-13.8,2.6c-4.9,0-9.2-0.8-13.1-2.5c-3.9-1.7-7.1-3.9-9.8-6.9c-2.7-2.9-4.7-6.4-6.2-10.4c-1.4-4-2.2-8.4-2.2-13
		c0-4.8,0.8-9.2,2.3-13.2s3.7-7.5,6.6-10.4c2.8-2.9,6.2-5.2,10.1-6.8c3.9-1.6,8.3-2.4,13-2.4c2.4,0,4.7,0.2,6.8,0.6
		c2.1,0.4,4.1,1,6,1.8c1.8,0.7,3.5,1.7,5.1,2.7c1.6,1.1,2.9,2.2,4.1,3.4l-5,6.7c-0.3,0.4-0.7,0.8-1.1,1.1c-0.4,0.3-1.1,0.5-1.8,0.5
		c-0.5,0-1-0.1-1.5-0.4c-0.5-0.2-1-0.5-1.5-0.9c-0.5-0.3-1.1-0.7-1.7-1.1c-0.6-0.4-1.4-0.8-2.2-1.1c-0.9-0.3-1.9-0.6-3-0.9
		c-1.2-0.2-2.5-0.4-4.1-0.4c-2.5,0-4.7,0.5-6.8,1.4c-2,0.9-3.8,2.2-5.3,4c-1.5,1.7-2.6,3.9-3.4,6.4c-0.8,2.5-1.2,5.4-1.2,8.7
		c0,3.3,0.4,6.2,1.3,8.8c0.9,2.6,2.1,4.7,3.7,6.4s3.3,3.1,5.4,4c2.1,0.9,4.3,1.4,6.6,1.4c1.3,0,2.6-0.1,3.7-0.2
		c1.1-0.1,2.2-0.4,3.1-0.7c1-0.3,1.9-0.7,2.7-1.2c0.8-0.5,1.7-1.2,2.6-2c0.4-0.3,0.7-0.5,1.1-0.7S944.2,135.4,944.6,135.4z"/>
	<path class="st4" d="M974,99.3v15h20.2v11H974v15.3h26.3V152h-41.3V87.8h41.3v11.4H974z"/>
	<path class="st4" d="M1044.9,100.9c-0.4,0.7-0.9,1.2-1.4,1.6c-0.5,0.4-1.1,0.5-1.9,0.5c-0.7,0-1.4-0.2-2.2-0.6
		c-0.8-0.4-1.7-0.9-2.6-1.4c-1-0.5-2.1-1-3.4-1.4c-1.3-0.4-2.7-0.6-4.3-0.6c-2.8,0-4.9,0.6-6.2,1.8c-1.4,1.2-2,2.8-2,4.8
		c0,1.3,0.4,2.4,1.2,3.2s1.9,1.6,3.2,2.2c1.3,0.6,2.9,1.2,4.6,1.7c1.7,0.5,3.5,1.1,5.3,1.7c1.8,0.6,3.5,1.4,5.3,2.2s3.2,1.9,4.6,3.3
		c1.3,1.3,2.4,2.9,3.2,4.8c0.8,1.9,1.2,4.2,1.2,6.8c0,3-0.5,5.7-1.5,8.3c-1,2.6-2.5,4.8-4.5,6.8c-2,1.9-4.4,3.4-7.2,4.5
		c-2.9,1.1-6.1,1.7-9.7,1.7c-2,0-4-0.2-6.1-0.6c-2.1-0.4-4.1-1-6-1.7c-1.9-0.7-3.8-1.6-5.5-2.7c-1.7-1-3.2-2.2-4.4-3.4l4.4-7
		c0.4-0.5,0.8-0.9,1.4-1.3c0.6-0.3,1.2-0.5,1.9-0.5c0.9,0,1.8,0.3,2.7,0.8c0.9,0.6,1.9,1.2,3,1.8c1.1,0.7,2.4,1.3,3.9,1.8
		c1.5,0.6,3.2,0.8,5.2,0.8c2.7,0,4.8-0.6,6.3-1.8c1.5-1.2,2.2-3.1,2.2-5.7c0-1.5-0.4-2.7-1.2-3.7s-1.9-1.7-3.2-2.3
		c-1.3-0.6-2.9-1.2-4.6-1.6c-1.7-0.5-3.4-1-5.2-1.6c-1.8-0.6-3.5-1.3-5.2-2.1c-1.7-0.8-3.2-1.9-4.6-3.3c-1.3-1.4-2.4-3.1-3.2-5.1
		c-0.8-2-1.2-4.6-1.2-7.5c0-2.4,0.5-4.8,1.5-7c1-2.3,2.4-4.3,4.3-6.1c1.9-1.8,4.2-3.2,6.9-4.3c2.7-1.1,5.9-1.6,9.4-1.6
		c2,0,3.9,0.2,5.7,0.5c1.9,0.3,3.6,0.8,5.3,1.4c1.7,0.6,3.2,1.3,4.7,2.2s2.8,1.8,3.9,2.8L1044.9,100.9z"/>
</g>
<g>
	<path class="st1" d="M23.3,138.5c-10.3,0-18.6-8.3-18.6-18.6V35.5c0-10.3,8.3-18.6,18.6-18.6h101.3c10.3,0,18.6,8.3,18.6,18.6v84.4
		c0,10.3-8.3,18.6-18.6,18.6H23.3z"/>
	<path class="st0" d="M124.7,20c8.6,0,15.5,6.9,15.5,15.5v84.4c0,8.6-6.9,15.5-15.5,15.5H23.3c-8.6,0-15.5-6.9-15.5-15.5V35.5
		c0-8.6,6.9-15.5,15.5-15.5H124.7 M124.7,13.8H23.3c-12,0-21.7,9.7-21.7,21.7v84.4c0,12,9.7,21.7,21.7,21.7h101.3
		c12,0,21.7-9.7,21.7-21.7V35.5C146.4,23.5,136.6,13.8,124.7,13.8L124.7,13.8z"/>
</g>
<rect x="23.3" y="35.5" class="st1" width="101.3" height="84.4"/>
<path class="st20" d="M121.1,35.6H26.8c-1.7,0-3.1,1.4-3.1,3.1V93c0,1.7,1.4,3.1,3.1,3.1h17.4v9c0,1.7,1.4,3.1,3.1,3.1h6.2v8.7
	c0,1.7,1.4,3.1,3.1,3.1h34.7c1.7,0,3.1-1.4,3.1-3.1v-8.7h5.3c1.7,0,3.1-1.4,3.1-3.1v-9h18.3c1.7,0,3.1-1.4,3.1-3.1V38.7
	C124.2,37,122.8,35.6,121.1,35.6z"/>
<g>
	<path class="st14" d="M43.4,35.6v17.1c0,1-0.8,1.9-1.9,1.9h-2.2c-1,0-1.9-0.8-1.9-1.9V35.6"/>
	<path class="st14" d="M52.9,35.6v17.1c0,1-0.8,1.9-1.9,1.9h-2.2c-1,0-1.9-0.8-1.9-1.9V35.6"/>
	<path class="st14" d="M62.5,35.6v17.1c0,1-0.8,1.9-1.9,1.9h-2.2c-1,0-1.9-0.8-1.9-1.9V35.6"/>
	<path class="st14" d="M72.1,35.6v17.1c0,1-0.8,1.9-1.9,1.9H68c-1,0-1.9-0.8-1.9-1.9V35.6"/>
	<path class="st14" d="M81.6,35.6v17.1c0,1-0.8,1.9-1.9,1.9h-2.2c-1,0-1.9-0.8-1.9-1.9V35.6"/>
	<path class="st14" d="M91.2,35.6v17.1c0,1-0.8,1.9-1.9,1.9h-2.2c-1,0-1.9-0.8-1.9-1.9V35.6"/>
	<path class="st14" d="M100.8,35.6v17.1c0,1-0.8,1.9-1.9,1.9h-2.2c-1,0-1.9-0.8-1.9-1.9V35.6"/>
	<path class="st14" d="M110.4,35.6v17.1c0,1-0.8,1.9-1.9,1.9h-2.2c-1,0-1.9-0.8-1.9-1.9V35.6"/>
</g>
</svg>
