<?xml version="1.0" encoding="utf-8"?>
<!-- Generator: Adobe Illustrator 19.1.0, SVG Export Plug-In . SVG Version: 6.00 Build 0)  -->
<svg version="1.1" id="Layer_1" xmlns="http://www.w3.org/2000/svg" xmlns:xlink="http://www.w3.org/1999/xlink" x="0px" y="0px"
	 viewBox="0 0 415 415" style="enable-background:new 0 0 415 415;" xml:space="preserve">
<style type="text/css">
	.st0{fill:#ECF0F1;stroke:#99A3A8;stroke-width:5;stroke-miterlimit:10;}
	.st1{fill:#ECF0F1;}
	.st2{fill:#99A3A8;}
	.st3{fill:none;stroke:#000000;stroke-width:5;stroke-miterlimit:10;}
	.st4{fill:none;stroke:#000000;stroke-width:3;stroke-miterlimit:10;}
	.st5{fill:none;stroke:#99A3A8;stroke-width:5;stroke-miterlimit:10;}
	.st6{fill:#EAF2F8;}
	.st7{fill:#2980B9;}
	.st8{fill:#D6EFF1;stroke:#78C9CF;stroke-width:5;stroke-miterlimit:10;}
	.st9{fill:#F9F5CD;stroke:#EADF5A;stroke-width:5;stroke-miterlimit:10;}
	.st10{fill:#F9F5CD;}
	.st11{fill:#EADF5A;}
	.st12{fill:none;stroke:#2980B9;stroke-width:5;stroke-miterlimit:10;}
	.st13{fill:none;stroke:#2980B9;stroke-width:3;stroke-miterlimit:10;}
	.st14{fill:none;stroke:#334851;stroke-width:5;stroke-miterlimit:10;}
	.st15{fill:#D6EFF1;}
	.st16{fill:#78C9CF;}
	.st17{fill:#CCD1D3;}
	.st18{fill:#A3ABAF;}
	.st19{fill:#3498DB;}
	.st20{fill:#E67E22;}
	.st21{fill:#D35401;}
	.st22{fill:#F1C40F;}
	.st23{fill:#E49701;}
	.st24{fill:#D7C320;}
	.st25{fill:#34495E;}
	.st26{fill:#2C3E50;}
	.st27{fill:#2B2B2B;}
	.st28{fill:#262626;}
	.st29{fill:#3A6F81;}
	.st30{fill:#356272;}
	.st31{fill:#0075A8;}
	.st32{fill:#00558B;}
	.st33{fill:#2ECC71;}
	.st34{fill:#27AE60;}
	.st35{fill:#A5C63B;}
	.st36{fill:#8EB021;}
	.st37{fill:#BDC3C7;}
	.st38{fill:#95A5A6;}
	.st39{fill:#7F8C8D;}
	.st40{fill:#E74C3C;}
	.st41{fill:#C0392B;}
	.st42{fill:#F15354;}
	.st43{fill:#EA3738;}
	.st44{fill:#389EA8;}
	.st45{fill:#2D8490;}
	.st46{fill:#1A6470;}
	.st47{fill:#21364A;}
	.st48{fill:#040B15;}
	.st49{fill:#66767C;}
	.st50{fill:#334851;}
	.st51{fill:#5C686F;}
	.st52{fill:#29373C;}
	.st53{fill:#0A141A;}
	.st54{fill:#E95E50;}
	.st55{fill:#EC7063;}
	.st56{fill:#EE8277;}
	.st57{fill:#F1948A;}
	.st58{fill:#F3A69E;}
	.st59{fill:#F5B7B1;}
	.st60{fill:#F8C9C4;}
	.st61{fill:#FADBD8;}
	.st62{fill:#FDEDEB;}
	.st63{fill:#F26465;}
	.st64{fill:#F47576;}
	.st65{fill:#F58787;}
	.st66{fill:#F79898;}
	.st67{fill:#F8A9A9;}
	.st68{fill:#F9BABB;}
	.st69{fill:#FBCBCC;}
	.st70{fill:#FCDDDD;}
	.st71{fill:#FEEEEE;}
	.st72{fill:#E98B38;}
	.st73{fill:#EB984E;}
	.st74{fill:#EEA564;}
	.st75{fill:#F0B27A;}
	.st76{fill:#F3BE90;}
	.st77{fill:#F5CBA7;}
	.st78{fill:#F7D8BD;}
	.st79{fill:#FAE5D3;}
	.st80{fill:#FCF2E9;}
	.st81{fill:#F2CA27;}
	.st82{fill:#F4D03F;}
	.st83{fill:#F5D657;}
	.st84{fill:#F7DC6F;}
	.st85{fill:#F8E187;}
	.st86{fill:#F9E79F;}
	.st87{fill:#FBEDB7;}
	.st88{fill:#FCF3CF;}
	.st89{fill:#FEF9E7;}
	.st90{fill:#ECE26B;}
	.st91{fill:#EEE57B;}
	.st92{fill:#F0E98B;}
	.st93{fill:#F2EC9C;}
	.st94{fill:#F5EFAC;}
	.st95{fill:#F7F2BD;}
	.st96{fill:#FBF9DE;}
	.st97{fill:#FDFCEE;}
	.st98{fill:#43D17F;}
	.st99{fill:#58D68D;}
	.st100{fill:#6DDB9C;}
	.st101{fill:#82E0AA;}
	.st102{fill:#96E5B8;}
	.st103{fill:#ABEBC6;}
	.st104{fill:#C0F0D4;}
	.st105{fill:#D5F5E3;}
	.st106{fill:#EAFAF1;}
	.st107{fill:#AECC4F;}
	.st108{fill:#B7D162;}
	.st109{fill:#C0D776;}
	.st110{fill:#C9DD89;}
	.st111{fill:#D2E39D;}
	.st112{fill:#DBE8B1;}
	.st113{fill:#E4EEC4;}
	.st114{fill:#EDF4D8;}
	.st115{fill:#F6F9EB;}
	.st116{fill:#374A5C;}
	.st117{fill:#4D5E6E;}
	.st118{fill:#647280;}
	.st119{fill:#7A8692;}
	.st120{fill:#909AA4;}
	.st121{fill:#A6AFB7;}
	.st122{fill:#BCC3C9;}
	.st123{fill:#D3D7DB;}
	.st124{fill:#E9EBED;}
	.st125{fill:#485B6E;}
	.st126{fill:#5D6D7E;}
	.st127{fill:#71808E;}
	.st128{fill:#85929E;}
	.st129{fill:#99A4AE;}
	.st130{fill:#AEB6BF;}
	.st131{fill:#C2C8CF;}
	.st132{fill:#D6DBDF;}
	.st133{fill:#EBEDEF;}
	.st134{fill:#1A83B1;}
	.st135{fill:#3391B9;}
	.st136{fill:#4D9EC2;}
	.st137{fill:#66ACCB;}
	.st138{fill:#80BAD3;}
	.st139{fill:#99C8DC;}
	.st140{fill:#B2D6E5;}
	.st141{fill:#CCE3EE;}
	.st142{fill:#E5F1F6;}
	.st143{fill:#4E7D8E;}
	.st144{fill:#618C9A;}
	.st145{fill:#759AA7;}
	.st146{fill:#89A9B3;}
	.st147{fill:#9CB7C0;}
	.st148{fill:#B0C5CD;}
	.st149{fill:#C4D4D9;}
	.st150{fill:#D8E2E6;}
	.st151{fill:#EBF1F2;}
	.st152{fill:#42909B;}
	.st153{fill:#579DA6;}
	.st154{fill:#6CA9B1;}
	.st155{fill:#81B5BC;}
	.st156{fill:#96C1C7;}
	.st157{fill:#ABCED3;}
	.st158{fill:#C0DADE;}
	.st159{fill:#D5E6E9;}
	.st160{fill:#EAF3F4;}
	.st161{fill:#48A2DF;}
	.st162{fill:#5DADE2;}
	.st163{fill:#71B7E6;}
	.st164{fill:#85C1E9;}
	.st165{fill:#99CBED;}
	.st166{fill:#AED6F1;}
	.st167{fill:#C2E0F4;}
	.st168{fill:#D6EAF8;}
	.st169{fill:#EBF5FB;}
	.st170{fill:#85CED4;}
	.st171{fill:#93D4D9;}
	.st172{fill:#A0D9DD;}
	.st173{fill:#AEDFE2;}
	.st174{fill:#BBE4E7;}
	.st175{fill:#C9E9EC;}
	.st176{fill:#E4F4F5;}
	.st177{fill:#F1FAFA;}
	.st178{fill:#404040;}
	.st179{fill:#555555;}
	.st180{fill:#6B6B6B;}
	.st181{fill:#808080;}
	.st182{fill:#959595;}
	.st183{fill:#AAAAAA;}
	.st184{fill:#BFBFBF;}
	.st185{fill:#D5D5D5;}
	.st186{fill:#EAEAEA;}
	.st187{fill:#475A62;}
	.st188{fill:#5C6D74;}
	.st189{fill:#707F85;}
	.st190{fill:#859197;}
	.st191{fill:#ADB6B9;}
	.st192{fill:#C2C8CB;}
	.st193{fill:#D6DADC;}
	.st194{fill:#EBEDEE;}
	.st195{fill:#758489;}
	.st196{fill:#859196;}
	.st197{fill:#949FA3;}
	.st198{fill:#A3ADB0;}
	.st199{fill:#B2BABD;}
	.st200{fill:#D1D6D8;}
	.st201{fill:#E0E4E5;}
	.st202{fill:#F0F1F2;}
	.st203{fill:#A3ACB1;}
	.st204{fill:#ADB5B9;}
	.st205{fill:#B8BFC2;}
	.st206{fill:#E0E3E5;}
	.st207{fill:#F5F6F6;}
	.st208{fill:#D1D6D7;}
	.st209{fill:#DBDFE0;}
	.st210{fill:#E5E8E9;}
	.st211{fill:#EBEDED;}
	.st212{fill:#FAFAFB;}
	.st213{fill:#A0AEAF;}
	.st214{fill:#AAB7B8;}
	.st215{fill:#B5C0C1;}
	.st216{fill:#BFC9CA;}
	.st217{fill:#CAD2D3;}
	.st218{fill:#D5DBDB;}
	.st219{fill:#DFE4E4;}
	.st220{fill:#EAEDED;}
	.st221{fill:#F4F6F6;}
	.st222{fill:#EEF2F2;}
	.st223{fill:#F0F3F4;}
	.st224{fill:#F2F5F5;}
	.st225{fill:#F4F6F7;}
	.st226{fill:#F5F7F8;}
	.st227{fill:#F7F9F9;}
	.st228{fill:#F9FAFB;}
	.st229{fill:#FBFCFC;}
	.st230{fill:#FDFDFE;}
	.st231{fill:#212020;}
	.st232{fill:#95D2ED;}
	.st233{fill:#9CD9EF;}
	.st234{fill:#232222;}
	.st235{fill:#7CB9E5;}
	.st236{fill:#9BD3E7;}
	.st237{fill:#030303;}
	.st238{fill:#F3C9B0;}
	.st239{fill:#C29A85;}
	.st240{fill:#9BD8EE;}
	.st241{fill:#96D1E6;}
	.st242{fill:#FDFCFC;}
	.st243{fill:#AC5E53;}
	.st244{fill-rule:evenodd;clip-rule:evenodd;fill:#C2E0F4;}
	.st245{fill-rule:evenodd;clip-rule:evenodd;fill:#DFEFF9;stroke:#3498DB;stroke-width:2;stroke-miterlimit:10;}
	.st246{fill:#414042;}
	.st247{fill:#DDEBF4;}
	.st248{fill:#D6EFF1;stroke:#78C9CF;stroke-width:2;stroke-miterlimit:10;}
	.st249{fill:#F9F5CD;stroke:#EADF5A;stroke-width:2;stroke-miterlimit:10;}
	.st250{fill:none;stroke:#2980B9;stroke-width:2;stroke-miterlimit:10;}
	.st251{fill:none;stroke:#2980B9;stroke-miterlimit:10;}
	.st252{fill:none;stroke:#334851;stroke-width:2;stroke-miterlimit:10;}
	.st253{fill:#EBEDEF;stroke:#66767C;stroke-width:5;stroke-miterlimit:10;}
	.st254{fill:none;stroke:#66767C;stroke-width:5;stroke-miterlimit:10;}
	.st255{fill:#FFFFFF;}
	.st256{fill:#DDEBF4;stroke:#2980B9;stroke-width:5;stroke-miterlimit:10;}
	.st257{fill:none;}
	.st258{fill:#DDEBF4;stroke:#2980B9;stroke-width:1.25;stroke-miterlimit:10;}
	.st259{fill:#DDEBF4;stroke:#2980B9;stroke-width:4;stroke-miterlimit:10;}
</style>
<g>
	<path class="st132" d="M204.3,401.6c-20.4-19.4-45.4-22.5-71.8-25.7c-27.4-3.3-55.8-6.8-81.7-28.3c-27.5-22.7-40.6-47.8-39.9-76.7
		c0.6-24.6,11-47.6,20.3-68c7-15.4,13.6-29.9,13.6-41c0-15.8-24.5-52.9-33.9-65.9l-2.4-3.4l77.5-82.3l3.6,3.2
		c0.2,0.2,23.8,21.3,57.3,21.3c0,0,0,0,0,0c19.8,0,39.3-7.2,57.9-21.7l3.1-2.3l3.1,2.4c18.6,14.5,38.1,21.8,57.9,21.8
		c33.5,0,57.1-21.2,57.4-21.4l3.6-3.3l3.4,3.6l74.1,78.7l-2.4,3.4c-9.4,13-33.9,50-33.9,65.9c0,11.1,6.6,25.6,13.6,41
		c9.2,20.3,19.7,43.3,20.3,68c0.7,28.8-12.4,53.9-39.9,76.7c-25.9,21.5-54.3,24.9-81.7,28.3c-26.5,3.2-51.5,6.3-71.9,25.7l-3.5,3.3
		L204.3,401.6z"/>
	<g>
		<path class="st49" d="M207.8,17.4c22,17.1,42.9,22.9,60.9,22.9c36,0,60.7-22.8,60.7-22.8l71.3,75.7c0,0-34.9,47.9-34.9,68.8
			c0,42,79,113-4.3,181.8C311.8,385,250.8,357,207.8,398c-43-41-104-13-153.8-54.2C-29.2,275,49.8,204,49.8,162
			c0-20.9-34.9-68.8-34.9-68.8l71.2-75.7c0,0,24.7,22.8,60.7,22.8C164.9,40.2,185.7,34.5,207.8,17.4 M85.6,3.4l-6.8,7.2L7.6,86.3
			l-5.7,6l4.9,6.7c13.7,18.8,32.9,50.7,32.9,62.9c0,10-6.4,24.1-13.1,38.9c-9.4,20.8-20.1,44.3-20.7,69.9
			c-0.3,14.3,2.6,27.9,8.8,40.6c6.8,14.1,17.9,27.6,33,40c27,22.4,57.4,26.1,84.2,29.4c26.7,3.3,49.8,6.1,69,24.4l6.9,6.6l6.9-6.6
			c19.2-18.3,42.3-21.1,69-24.4c26.8-3.3,57.2-7,84.3-29.4c15-12.4,26.1-25.9,33-40c6.1-12.7,9.1-26.4,8.8-40.6
			c-0.6-25.6-11.3-49.1-20.7-69.9c-6.8-14.9-13.1-28.9-13.1-38.9c0-12.2,19.3-44.1,33-62.9l4.9-6.7l-5.7-6l-71.3-75.7L330,3.4
			l-7.3,6.7c-0.2,0.2-22.5,20.1-54,20.1c-18.7,0-37.1-7-54.8-20.7l-6.1-4.8l-6.1,4.8c-17.7,13.8-36.1,20.7-54.8,20.7
			c-31.4,0-53.7-19.9-53.9-20.1L85.6,3.4L85.6,3.4z"/>
	</g>
</g>
<path class="st253" d="M207.8,372.5c-23.2-15.4-49-18.6-72.3-21.4c-24.9-3-48.5-5.9-68.7-22.7c-21.6-17.8-31.4-35.9-30.9-56.8
	c0.5-19.5,9.4-39.2,18-58.2c8.1-17.9,15.8-34.8,15.8-51.4c0-8-2.1-22.1-20.3-52.5c-3.1-5.2-6.2-10.1-9-14.3l48.3-49.2
	c13.1,7.7,33.3,18.6,58,18.6c0,0,0,0,0,0c21,0,41.5-8.3,60.9-20.6c19.5,12.2,39.9,17.4,60.9,17.4c24.7,0,44.9-9.3,58-17l48.4,51.1
	c-2.8,4.2-5.9,8.9-9,14.2c-18.2,30.4-20.3,44.5-20.3,52.5c0,16.5,7.7,33.4,15.8,51.3c8.6,19,17.6,38.7,18,58.2
	c0.5,21-9.3,39-30.9,56.8c-20.3,16.8-43.8,19.7-68.8,22.7C256.8,353.9,231,357.1,207.8,372.5z"/>
<line class="st254" x1="69" y1="174.5" x2="136" y2="174.5"/>
<line class="st254" x1="278" y1="174.5" x2="345" y2="174.5"/>
<g>
	<path class="st19" d="M157.9,259.3c1.9-0.4,3.8-0.6,5.6-0.8c1.8-0.1,3.5-0.2,5.2-0.2c5.4,0,10.2,0.8,14.3,2.5s7.6,3.9,10.4,6.7
		c2.8,2.8,4.9,6.2,6.4,10c1.4,3.8,2.1,7.9,2.1,12.3c0,5.5-1,10.5-2.9,15c-1.9,4.5-4.7,8.4-8.1,11.7c-3.5,3.3-7.6,5.8-12.4,7.6
		c-4.8,1.8-10.1,2.7-15.8,2.7c-3.3,0-6.5-0.4-9.5-1.1c-3-0.7-5.9-1.7-8.5-2.9c-2.7-1.2-5.1-2.6-7.4-4.2c-2.3-1.6-4.3-3.3-6.1-5
		l6.8-9c0.7-0.9,1.5-1.7,2.5-2.1c0.9-0.5,1.9-0.7,3-0.7c1.4,0,2.7,0.4,4,1.2c1.2,0.8,2.6,1.6,4.1,2.5c1.5,0.9,3.2,1.8,5.2,2.5
		c2,0.8,4.4,1.1,7.3,1.1s5.4-0.5,7.5-1.4c2.1-1,3.7-2.3,5-3.9c1.3-1.7,2.2-3.6,2.8-5.8c0.6-2.2,0.9-4.6,0.9-7.1
		c0-5-1.4-8.8-4.2-11.4c-2.8-2.6-6.8-3.9-12-3.9c-4.6,0-9.1,0.9-13.5,2.6l-13.5-3.7l8.7-51.3h52.5v9c0,1.5-0.2,2.9-0.7,4.1
		c-0.5,1.2-1.2,2.3-2.2,3.2c-1,0.9-2.3,1.6-4,2.1c-1.6,0.5-3.6,0.7-5.9,0.7h-24.5L157.9,259.3z"/>
	<path class="st19" d="M214.6,252.4c0.8-5.1,2.2-9.6,4.3-13.4c2.1-3.8,4.8-7,8-9.5c3.2-2.5,6.8-4.4,10.9-5.7
		c4.1-1.2,8.5-1.9,13.2-1.9c5.1,0,9.6,0.7,13.5,2.1c3.9,1.4,7.3,3.4,10,5.8c2.7,2.4,4.8,5.3,6.2,8.5c1.4,3.2,2.1,6.6,2.1,10.2
		c0,3.2-0.3,6.1-1,8.6s-1.6,4.6-2.9,6.4c-1.3,1.8-2.9,3.3-4.8,4.6c-1.9,1.2-4.1,2.3-6.5,3.1c11.4,4,17,11.7,17,23.2
		c0,5.4-1,10.2-3,14.2c-2,4-4.6,7.4-7.9,10.1c-3.3,2.7-7.1,4.7-11.5,6c-4.4,1.3-8.9,2-13.7,2c-4.9,0-9.2-0.5-13-1.6
		c-3.8-1.1-7.2-2.7-10.1-4.9c-3-2.2-5.6-5.1-7.8-8.6c-2.2-3.5-4.2-7.6-5.8-12.4l9.7-3.9c2.5-1,4.9-1.2,7-0.8
		c2.2,0.5,3.7,1.5,4.6,3.2c2.1,3.9,4.4,6.7,6.7,8.5c2.4,1.8,5.2,2.6,8.3,2.6c2.4,0,4.6-0.4,6.4-1.2s3.3-1.9,4.5-3.2
		c1.2-1.3,2.1-2.8,2.7-4.4c0.6-1.6,0.9-3.3,0.9-5c0-2.2-0.2-4.2-0.5-6c-0.3-1.8-1.2-3.3-2.6-4.5c-1.4-1.3-3.5-2.2-6.4-2.9
		c-2.8-0.7-6.8-1-11.9-1v-15.1c4.3,0,7.7-0.3,10.4-1c2.6-0.7,4.7-1.6,6.1-2.7c1.4-1.2,2.4-2.5,2.9-4.2c0.5-1.6,0.7-3.5,0.7-5.4
		c0-4-1-7.1-2.9-9.3c-1.9-2.2-4.9-3.3-8.9-3.3c-3.2,0-6,0.9-8.2,2.6c-2.2,1.7-3.8,3.8-4.6,6.4c-1,2.6-2.3,4.3-3.9,5.1
		c-1.6,0.8-3.9,1-6.8,0.6L214.6,252.4z"/>
</g>
<path class="st7" d="M280.2,156.8c0.5,2.8-1.5,5.1-4.3,5.1h-8.6c-0.2,0-0.3,0-0.5,0v-6.3c0.2,0,0.3,0,0.5,0h2.3
	c2.9,0,5.2-2.3,5.2-5.2v-2.3c0-2.9,0.7-5.2,1.6-5.2s2,2.3,2.4,5.1L280.2,156.8L280.2,156.8z M264.7,156c-1.6,0.5-2.7,1.6-2.7,2.8
	c0,1.2,1.1,2.2,2.7,2.8V156L264.7,156z M259.5,149.3h-14c-0.1,0-0.2,0-0.3,0h-14.4c-0.2,0-0.3,0-0.5,0v-1.3c0-2.9-0.7-5.2-1.6-5.2
	c-0.9,0-2,2.3-2.4,5.1l-1.5,8.8c-0.5,2.8,1.5,5.1,4.3,5.1h8.6c0.9,0,1.7-0.1,2.5-0.4c-0.3,1.5-1.6,2.6-3.1,2.6H225
	c-2,0-3.4-1.8-3.1-3.7l1.2-7.4c0.3-1.9-1.2-3.7-3.1-3.7h-60.2c-1.3,0-2.4,0.8-2.9,1.9l-11.3,17.3c-0.2,0.3-0.2,0.7,0.1,0.9l2.2,2.6
	c0.3,0.3,0.8,0.4,1.1,0.1l7.7-6.1V203c0,1.7,1.4,3.2,3.2,3.2h17.1c1.7,0,3.2-1.4,3.2-3.2v-12.8c0-1.7,1.4-3.2,3.2-3.2h42.7
	c1.8,0,3.2,1.4,3.2,3.2V203c0,1.7,1.4,3.2,3.2,3.2h17.1c1.7,0,3.2-1.4,3.2-3.2v-13.8h-9.1c-2.9,0-5.2-2.3-5.2-5.2v-8.9
	c0-1.7,0.8-3.2,2.1-4.1v10.6c0,2.9,2.3,5.2,5.2,5.2h14c2.9,0,5.2-2.3,5.2-5.2v-27C264.7,151.7,262.4,149.3,259.5,149.3L259.5,149.3z
	"/>
<path class="st19" d="M137.1,124.2h-8.2c-1.5,0-2.6-0.6-3.3-1.7l-6.5-11.4c-0.3-0.5-0.6-0.8-1-1.1c-0.4-0.2-0.9-0.3-1.6-0.3h-2.3
	v14.5h-9.1V85h12.7c2.8,0,5.2,0.3,7.2,0.9c2,0.6,3.6,1.4,4.9,2.4c1.3,1,2.2,2.3,2.8,3.7c0.6,1.4,0.9,3,0.9,4.6
	c0,1.3-0.2,2.5-0.5,3.6c-0.3,1.1-0.8,2.2-1.5,3.1c-0.7,1-1.5,1.8-2.5,2.6c-1,0.8-2.1,1.4-3.4,1.9c0.6,0.3,1.1,0.7,1.7,1.1
	c0.5,0.5,1,1,1.4,1.6L137.1,124.2z M117.8,103.4c1.2,0,2.3-0.2,3.2-0.5c0.9-0.3,1.6-0.7,2.1-1.3c0.6-0.6,1-1.2,1.2-1.9
	c0.3-0.7,0.4-1.5,0.4-2.4c0-1.7-0.6-3.1-1.7-4c-1.1-1-2.9-1.5-5.2-1.5h-3.7v11.6H117.8z M185.8,104.6c0,2.8-0.5,5.5-1.5,7.9
	c-1,2.4-2.4,4.6-4.1,6.4c-1.8,1.8-3.9,3.2-6.4,4.2c-2.5,1-5.3,1.5-8.3,1.5c-3,0-5.8-0.5-8.3-1.5c-2.5-1-4.7-2.4-6.4-4.2
	c-1.8-1.8-3.2-3.9-4.1-6.4c-1-2.4-1.5-5.1-1.5-7.9c0-2.8,0.5-5.5,1.5-7.9c1-2.4,2.4-4.5,4.1-6.3c1.8-1.8,3.9-3.2,6.4-4.2
	c2.5-1,5.3-1.5,8.3-1.5c3,0,5.8,0.5,8.3,1.5c2.5,1,4.6,2.4,6.4,4.2c1.8,1.8,3.1,3.9,4.1,6.3C185.3,99.1,185.8,101.8,185.8,104.6z
	 M176.5,104.6c0-1.9-0.3-3.7-0.8-5.2c-0.5-1.5-1.2-2.9-2.2-3.9c-0.9-1.1-2.1-1.9-3.5-2.5c-1.4-0.6-2.9-0.9-4.6-0.9
	c-1.8,0-3.3,0.3-4.7,0.9c-1.4,0.6-2.5,1.4-3.5,2.5c-0.9,1.1-1.7,2.4-2.2,3.9c-0.5,1.5-0.8,3.3-0.8,5.2c0,2,0.3,3.7,0.8,5.3
	c0.5,1.5,1.2,2.9,2.2,3.9c0.9,1.1,2.1,1.9,3.5,2.5c1.4,0.6,2.9,0.8,4.7,0.8c1.7,0,3.3-0.3,4.6-0.8c1.4-0.6,2.5-1.4,3.5-2.5
	c0.9-1.1,1.7-2.4,2.2-3.9C176.2,108.3,176.5,106.5,176.5,104.6z M212.6,117c1.2,0,2.3-0.2,3.3-0.6c1-0.4,1.8-1,2.4-1.7
	c0.7-0.8,1.2-1.7,1.5-2.8c0.3-1.1,0.5-2.3,0.5-3.7V85h9.1v23.2c0,2.4-0.4,4.6-1.2,6.6c-0.8,2-1.9,3.7-3.3,5.2
	c-1.5,1.5-3.2,2.6-5.3,3.4c-2.1,0.8-4.4,1.2-7,1.2c-2.6,0-5-0.4-7-1.2c-2.1-0.8-3.8-1.9-5.3-3.4c-1.5-1.4-2.6-3.2-3.3-5.2
	c-0.8-2-1.2-4.2-1.2-6.6V85h9.1v23.2c0,1.4,0.2,2.6,0.5,3.7c0.3,1.1,0.9,2,1.5,2.8c0.7,0.8,1.5,1.3,2.4,1.7
	C210.3,116.8,211.4,117,212.6,117z M270.5,92.2h-11v31.9h-9.1V92.2h-11V85h31.1V92.2z M291.7,92v9.1H304v6.7h-12.3v9.3h16.1v7h-25.2
	V85h25.2v7H291.7z"/>
</svg>
