<svg id="Layer_1" data-name="Layer 1" xmlns="http://www.w3.org/2000/svg" viewBox="0 0 702.48 227.95"><defs><style>.cls-1{fill:#3d3d3d;}.cls-2{fill:#0075a8;}.cls-3{fill:#3498db;}.cls-4{fill:#eadf5a;}</style></defs><title>rancher-diagnostics</title><path class="cls-1" d="M179.37,8.52h24.46c11.62,0,19.45,5.63,19.45,16.54a16.62,16.62,0,0,1-12,16.1,17.64,17.64,0,0,1,4.14,5.63c2.46,5,4.14,10.56,9.33,10.56a6.84,6.84,0,0,0,2.38-.44L226,67.39a28.79,28.79,0,0,1-5.9.79c-7,0-11.09-2.73-15.22-12.14-1.76-4.22-4.22-11.62-7.48-11.62h-3.34v23.5h-14.7V8.52Zm14.7,10.65V33.78h5.28c4.22,0,9.15-1.32,9.15-7.66,0-5.19-3.34-7-7.39-7h-7Z"/><path class="cls-1" d="M243.61,8.52h14.87l20.06,59.4H263.67L260,56.66H240.09l-3.61,11.26H223.63Zm0,37.22h12.76l-4-12.5a58.09,58.09,0,0,1-2-10.21h-0.35a75.55,75.55,0,0,1-2.2,10.12Z"/><path class="cls-1" d="M279.6,8.52h15.75L310.93,38c1.32,2.55,3.08,7,4.49,10.56h0.35c-0.18-3.34-.62-8.1-0.62-11.53V8.52h12.06v59.4h-15.4L295.61,38.53a82,82,0,0,1-4.31-9.68H291c0.26,3.34.7,7.3,0.7,10.56V67.92H279.6V8.52Z"/><path class="cls-1" d="M330.81,37.83c0-21.47,10.65-30.36,27.1-30.36,17.34,0,24.29,9.5,22.35,22.35L366.54,31c1.5-9.42-2.2-13.2-8.89-13.2-6.42,0-11.62,4.75-11.62,20.06,0,16.19,5.63,20.33,12.06,20.33,6.07,0,11-3.78,9.94-11.53L380.88,48c1,12.06-7.74,20.94-23.58,20.94C341.2,69,330.81,59.47,330.81,37.83Z"/><path class="cls-1" d="M384.32,8.52H399V31h18V8.52h14.7v59.4h-14.7V42.75H399V67.92h-14.7V8.52Z"/><path class="cls-1" d="M438.09,8.52h39.33V19.43H452.78V32.19h20.68V43.1H452.78V57H478.3V67.92H438.09V8.52Z"/><path class="cls-1" d="M481.56,8.52H506c11.62,0,19.45,5.63,19.45,16.54a16.62,16.62,0,0,1-12,16.1,17.63,17.63,0,0,1,4.14,5.63c2.46,5,4.14,10.56,9.33,10.56a6.84,6.84,0,0,0,2.38-.44L528.2,67.39a28.79,28.79,0,0,1-5.9.79c-7,0-11.09-2.73-15.22-12.14-1.76-4.22-4.22-11.62-7.48-11.62h-3.34v23.5h-14.7V8.52Zm14.7,10.65V33.78h5.28c4.22,0,9.15-1.32,9.15-7.66,0-5.19-3.34-7-7.39-7h-7Z"/><path class="cls-2" d="M179.37,83.52h15.75L210.7,113c1.32,2.55,3.08,7,4.49,10.56h0.35c-0.18-3.34-.62-8.1-0.62-11.53V83.52H227v59.4h-15.4l-16.19-29.39a82.14,82.14,0,0,1-4.31-9.68h-0.35c0.26,3.34.7,7.3,0.7,10.56v28.51H179.37V83.52Z"/><path class="cls-2" d="M233.31,83.52h39.33V94.43H248v12.76h20.68V118.1H248V132h25.52v10.91H233.31V83.52Z"/><path class="cls-2" d="M272.29,83.52h47.43V94.43H303.18v48.49h-14.7V94.43H272.29V83.52Z"/><path class="cls-2" d="M316.82,83.52h14.43l8.54,33.62a69.77,69.77,0,0,1,1.32,11.26h0.35a79.43,79.43,0,0,1,1.14-11.09l7.57-33.79h13.46L371.29,117a91.44,91.44,0,0,1,1.32,12.14H373s0.44-8.1,1.41-12l8.18-33.7h12.5l-15.49,59.4H364l-6.07-25.52a103.65,103.65,0,0,1-1.76-12.85H355.8a97.06,97.06,0,0,1-1.67,12.85l-6.07,25.52H332.31Z"/><path class="cls-2" d="M393.91,112.38c0-21.38,11.35-29.92,27.28-29.92,15.66,0,27,8.54,27,29.92,0,23.76-11.7,31.59-27,31.59C405.26,144,393.91,135.44,393.91,112.38Zm39.25,0c0-14.78-5.81-19.54-12.14-19.54S409,97.6,409,112.38c0,16.46,5.72,21.21,12.06,21.21S433.16,128.84,433.16,112.38Z"/><path class="cls-2" d="M451.81,83.52h24.46c11.62,0,19.45,5.63,19.45,16.54a16.62,16.62,0,0,1-12,16.1,17.63,17.63,0,0,1,4.14,5.63c2.46,5,4.14,10.56,9.33,10.56a6.84,6.84,0,0,0,2.38-.44l-1.14,10.47a28.79,28.79,0,0,1-5.9.79c-7,0-11.09-2.73-15.22-12.14-1.76-4.22-4.22-11.62-7.48-11.62h-3.34v23.5h-14.7V83.52Zm14.7,10.65v14.61h5.28c4.22,0,9.15-1.32,9.15-7.66,0-5.19-3.34-7-7.39-7h-7Z"/><path class="cls-2" d="M501.36,83.52h14.7v16.63c0,1.85-.26,4.58-0.44,6.6H516a50.46,50.46,0,0,1,3.7-5.54l14.52-17.69H550l-19.36,23.32,20.42,36.08h-16.9L520.45,118l-4.4,5.37v19.54h-14.7V83.52Z"/><path class="cls-2" d="M179.37,158.52h22.7c14.78,0,26.22,8.62,26.22,29.39,0,20.33-10.91,30-26.22,30h-22.7v-59.4Zm21.29,48.75c6.51,0,12.76-4,12.76-19.36s-6.25-18.74-12.76-18.74h-6.6v38.1h6.6Z"/><path class="cls-2" d="M229.35,158.52H260v10.38h-8v38.63h8v10.38H229.35V207.54h7.92V168.91h-7.92V158.52Z"/><path class="cls-2" d="M278.28,158.52h14.87l20.06,59.4H298.34l-3.7-11.26H274.76l-3.61,11.26H258.3Zm0,37.22H291l-4-12.5A58.09,58.09,0,0,1,285,173h-0.35a75.55,75.55,0,0,1-2.2,10.12Z"/><path class="cls-2" d="M338.21,187.91h24.46v30h-9.94v-10c-2.11,6.6-6.86,11.09-17.07,11.09-13.73,0-24-9.5-24-31.06s10.38-30.45,26.58-30.45c18.21,0,25.34,10.3,23.32,20.77l-13.82,1.5c1.06-8.18-3-11.88-8.8-11.88-6.42,0-12.06,4.66-12.06,20.33s4.84,20.06,12,20.06c6.6,0,10.3-4,10.47-8.1v-1.67H338.21V187.91Z"/><path class="cls-2" d="M367.07,158.52h15.75L398.4,188c1.32,2.55,3.08,7,4.49,10.56h0.35c-0.18-3.34-.62-8.1-0.62-11.53V158.52h12.06v59.4h-15.4l-16.19-29.39a82,82,0,0,1-4.31-9.68h-0.35c0.26,3.34.7,7.3,0.7,10.56v28.51H367.07v-59.4Z"/><path class="cls-2" d="M418.28,187.38c0-21.38,11.35-29.92,27.28-29.92,15.66,0,27,8.54,27,29.92,0,23.76-11.7,31.59-27,31.59C429.64,219,418.28,210.44,418.28,187.38Zm39.25,0c0-14.78-5.81-19.54-12.14-19.54s-12.06,4.75-12.06,19.54c0,16.46,5.72,21.21,12.06,21.21S457.53,203.84,457.53,187.38Z"/><path class="cls-2" d="M486,198.38c-1.06,4.75.79,10.21,10.12,10.21,6.16,0,8.27-2.46,8.27-5.72,0-4.93-4.93-6.16-10.74-8.27-8.71-3-19.45-7.22-19.45-19.62,0-11.09,8.54-17.86,23.06-17.51,17.78,0.35,22.79,10.82,20.86,19.89l-13.46,1.23c0.88-6.86-1.58-10.74-8.54-10.74-4.66,0-7.3,1.76-7.3,5.46,0,4.93,4.75,6.42,10.56,8.45,9,3,19.62,6.6,19.62,18.92,0,10.65-7.92,18.3-23.41,18.3-14.52,0-24.46-6.69-22.44-19.36Z"/><path class="cls-2" d="M518.25,158.52h47.43v10.91H549.14v48.49h-14.7V169.43H518.25V158.52Z"/><path class="cls-2" d="M564.89,158.52h30.62v10.38h-8v38.63h8v10.38H564.89V207.54h7.92V168.91h-7.92V158.52Z"/><path class="cls-2" d="M596.4,187.83c0-21.47,10.65-30.36,27.1-30.36,17.34,0,24.29,9.5,22.35,22.35L632.12,181c1.5-9.42-2.2-13.2-8.89-13.2-6.42,0-11.62,4.75-11.62,20.06,0,16.19,5.63,20.33,12.06,20.33,6.07,0,11-3.78,9.94-11.53L646.47,198c1,12.06-7.74,20.94-23.58,20.94C606.78,219,596.4,209.47,596.4,187.83Z"/><path class="cls-2" d="M659.75,198.38c-1.06,4.75.79,10.21,10.12,10.21,6.16,0,8.27-2.46,8.27-5.72,0-4.93-4.93-6.16-10.74-8.27-8.71-3-19.45-7.22-19.45-19.62,0-11.09,8.54-17.86,23.06-17.51,17.78,0.35,22.79,10.82,20.86,19.89l-13.46,1.23c0.88-6.86-1.58-10.74-8.54-10.74-4.66,0-7.3,1.76-7.3,5.46,0,4.93,4.75,6.42,10.56,8.45,9,3,19.62,6.6,19.62,18.92,0,10.65-7.92,18.3-23.41,18.3-14.52,0-24.46-6.69-22.44-19.36Z"/><path class="cls-3" d="M70.95,125.4A19.25,19.25,0,0,1,98.13,98.21Z"/><path class="cls-3" d="M50,112.51a35.08,35.08,0,0,1,7.89-22.2l-7.36-6.79a45.14,45.14,0,0,0,1.07,59.21l7.45-6.67A35.11,35.11,0,0,1,50,112.51Z"/><path class="cls-4" d="M120.5,112.51A35.12,35.12,0,0,1,110.62,137l7.52,6.59a45.12,45.12,0,0,0,1.1-60.85l-7.41,6.7A35.09,35.09,0,0,1,120.5,112.51Z"/><path class="cls-4" d="M140.5,112.51a55,55,0,0,1-14.84,37.62l7.52,6.59a65.09,65.09,0,0,0,.89-87.44L126.65,76A55,55,0,0,1,140.5,112.51Z"/><path class="cls-3" d="M30,112.51A55,55,0,0,1,43.19,76.75L35.84,70a65.08,65.08,0,0,0,.87,86.1l7.45-6.67A55,55,0,0,1,30,112.51Z"/><path class="cls-3" d="M10,112.51A74.91,74.91,0,0,1,28.5,63.18L21.15,56.4a85,85,0,0,0,.67,113l7.45-6.67A74.94,74.94,0,0,1,10,112.51Z"/><path class="cls-4" d="M160.5,112.51a75,75,0,0,1-19.8,50.81l7.52,6.59a85.06,85.06,0,0,0,.67-114l-7.41,6.7A74.93,74.93,0,0,1,160.5,112.51Z"/><path class="cls-4" d="M85.25,131.76a19.11,19.11,0,0,1-12.89-4.95L99.55,99.63A19.25,19.25,0,0,1,85.25,131.76Z"/></svg>