<?xml version="1.0" encoding="utf-8"?>
<!-- Generator: Adobe Illustrator 19.2.1, SVG Export Plug-In . SVG Version: 6.00 Build 0)  -->
<svg version="1.1" id="Layer_1" xmlns="http://www.w3.org/2000/svg" xmlns:xlink="http://www.w3.org/1999/xlink" x="0px" y="0px"
	 viewBox="0 0 615 151.4" style="enable-background:new 0 0 615 151.4;" xml:space="preserve">
<style type="text/css">
	.st0{fill:#3D3D3D;}
	.st1{fill:#0075A8;}
	.st2{fill:#CCD1D3;}
	.st3{fill:#0D5E8C;}
	.st4{fill:#0071BC;}
	.st5{fill:#FFFFFF;}
	.st6{fill:#BDC3C7;}
	.st7{fill:#F15354;}
	.st8{fill:#A3ABAF;}
	.st9{fill:#58D68D;}
	.st10{fill:#2ECC71;}
	.st11{fill:#3498DB;}
	.st12{fill:#EADF5A;}
	.st13{fill:#F1C40F;}
	.st14{fill:#2D8490;}
	.st15{fill:#3A6F81;}
	.st16{fill:#ECF0F1;}
	.st17{opacity:0.2;fill:#78C9CF;}
</style>
<g>
	<path class="st0" d="M241.7,65h-13.5c-2.5,0-4.3-0.9-5.4-2.8l-10.6-18.6c-0.5-0.8-1.1-1.4-1.7-1.7c-0.6-0.4-1.5-0.5-2.6-0.5h-3.8
		V65h-14.9V0.8h20.9c4.6,0,8.6,0.5,11.9,1.4c3.3,1,5.9,2.3,8,4c2.1,1.7,3.6,3.7,4.5,6c0.9,2.3,1.4,4.8,1.4,7.6c0,2.1-0.3,4-0.8,5.9
		c-0.6,1.8-1.4,3.6-2.5,5.1c-1.1,1.6-2.4,3-4,4.2c-1.6,1.2-3.4,2.2-5.5,3c1,0.5,1.9,1.1,2.7,1.9c0.9,0.7,1.6,1.6,2.3,2.7L241.7,65z
		 M210.1,31c2,0,3.7-0.3,5.2-0.8c1.4-0.5,2.6-1.2,3.5-2.1c0.9-0.9,1.6-2,2-3.2c0.4-1.2,0.6-2.5,0.6-3.9c0-2.8-0.9-5-2.8-6.6
		c-1.8-1.6-4.7-2.4-8.5-2.4h-6v19H210.1z"/>
	<path class="st0" d="M304.6,65H293c-1.3,0-2.3-0.3-3.1-0.9c-0.8-0.6-1.4-1.4-1.8-2.3l-3.8-11.2H260l-3.8,11.2
		c-0.3,0.8-0.9,1.6-1.7,2.2c-0.8,0.7-1.9,1-3.1,1h-11.6l24.8-64.1h15.2L304.6,65z M280.9,40.4L275,22.9c-0.4-1.1-0.9-2.4-1.4-3.9
		c-0.5-1.5-1-3.1-1.5-4.9c-0.4,1.8-0.9,3.4-1.4,5c-0.5,1.5-1,2.8-1.4,4l-5.9,17.5H280.9z"/>
	<path class="st0" d="M368.2,0.8V65h-7.7c-1.1,0-2.1-0.2-2.9-0.5c-0.8-0.4-1.5-1-2.3-1.9l-30.2-38.2c0.1,1.1,0.2,2.3,0.2,3.3
		c0,1.1,0.1,2.1,0.1,3V65h-13.1V0.8h7.8c0.6,0,1.2,0,1.6,0.1s0.8,0.2,1.2,0.3c0.4,0.2,0.7,0.4,1,0.7s0.7,0.7,1.1,1.2l30.5,38.5
		c-0.1-1.2-0.2-2.4-0.3-3.6c-0.1-1.2-0.1-2.3-0.1-3.3V0.8H368.2z"/>
	<path class="st0" d="M424.6,48.4c0.4,0,0.7,0.1,1.1,0.2c0.4,0.1,0.7,0.4,1,0.7l5.9,6.2c-2.6,3.4-5.8,5.9-9.7,7.6s-8.5,2.6-13.8,2.6
		c-4.9,0-9.2-0.8-13.1-2.5c-3.9-1.7-7.1-3.9-9.8-6.9c-2.7-2.9-4.7-6.4-6.2-10.4c-1.4-4-2.2-8.4-2.2-13c0-4.8,0.8-9.2,2.3-13.2
		s3.7-7.5,6.6-10.4c2.8-2.9,6.2-5.2,10.1-6.8c3.9-1.6,8.3-2.4,13-2.4c2.4,0,4.7,0.2,6.8,0.6c2.1,0.4,4.1,1,6,1.8
		c1.8,0.7,3.5,1.7,5.1,2.7c1.6,1.1,2.9,2.2,4.1,3.4l-5,6.7c-0.3,0.4-0.7,0.8-1.1,1.1c-0.4,0.3-1.1,0.5-1.8,0.5c-0.5,0-1-0.1-1.5-0.4
		c-0.5-0.2-1-0.5-1.5-0.9c-0.5-0.3-1.1-0.7-1.7-1.1c-0.6-0.4-1.4-0.8-2.2-1.1c-0.9-0.3-1.9-0.6-3-0.9c-1.2-0.2-2.5-0.4-4.1-0.4
		c-2.5,0-4.7,0.5-6.8,1.4c-2,0.9-3.8,2.2-5.3,4c-1.5,1.7-2.6,3.9-3.4,6.4c-0.8,2.5-1.2,5.4-1.2,8.7c0,3.3,0.4,6.2,1.3,8.8
		c0.9,2.6,2.1,4.7,3.7,6.4s3.3,3.1,5.4,4c2.1,0.9,4.3,1.4,6.6,1.4c1.3,0,2.6-0.1,3.7-0.2c1.1-0.1,2.2-0.4,3.1-0.7
		c1-0.3,1.9-0.7,2.7-1.2c0.8-0.5,1.7-1.2,2.6-2c0.4-0.3,0.7-0.5,1.1-0.7S424.1,48.4,424.6,48.4z"/>
	<path class="st0" d="M495.4,0.8V65h-15V37.9h-26V65h-15V0.8h15v26.8h26V0.8H495.4z"/>
	<path class="st0" d="M523.7,12.3v15h20.2v11h-20.2v15.3H550V65h-41.3V0.8H550v11.4H523.7z"/>
	<path class="st0" d="M612.2,65h-13.5c-2.5,0-4.3-0.9-5.4-2.8l-10.6-18.6c-0.5-0.8-1.1-1.4-1.7-1.7c-0.6-0.4-1.5-0.5-2.6-0.5h-3.8
		V65h-14.9V0.8h20.9c4.6,0,8.6,0.5,11.9,1.4c3.3,1,5.9,2.3,8,4c2.1,1.7,3.6,3.7,4.5,6s1.4,4.8,1.4,7.6c0,2.1-0.3,4-0.8,5.9
		c-0.6,1.8-1.4,3.6-2.5,5.1c-1.1,1.6-2.4,3-4,4.2s-3.4,2.2-5.5,3c1,0.5,1.9,1.1,2.7,1.9s1.6,1.6,2.3,2.7L612.2,65z M580.6,31
		c2,0,3.7-0.3,5.2-0.8c1.4-0.5,2.6-1.2,3.5-2.1s1.6-2,2-3.2c0.4-1.2,0.6-2.5,0.6-3.9c0-2.8-0.9-5-2.8-6.6c-1.8-1.6-4.7-2.4-8.5-2.4
		h-6v19H580.6z"/>
	<path class="st1" d="M204.2,99.3v15h20.2v11h-20.2v15.3h26.3V152h-41.3V87.8h41.3v11.4H204.2z"/>
	<path class="st1" d="M263.2,87.8c4.4,0,8.2,0.4,11.3,1.2c3.1,0.8,5.6,2,7.6,3.5c2,1.5,3.4,3.3,4.3,5.5c0.9,2.1,1.3,4.5,1.3,7.2
		c0,1.4-0.2,2.8-0.6,4.2c-0.4,1.3-1.1,2.6-1.9,3.7c-0.9,1.2-2,2.2-3.4,3.2c-1.4,1-3,1.8-5,2.5c4.2,1,7.3,2.7,9.4,5
		c2,2.3,3,5.3,3,8.9c0,2.7-0.5,5.3-1.6,7.6c-1.1,2.3-2.6,4.4-4.6,6.1c-2,1.7-4.6,3.1-7.5,4.1s-6.4,1.5-10.3,1.5h-25.6V87.8H263.2z
		 M254.5,99v15.8h7.7c1.6,0,3.1-0.1,4.4-0.4c1.3-0.2,2.4-0.6,3.4-1.2c0.9-0.6,1.6-1.4,2.1-2.4c0.5-1,0.7-2.3,0.7-3.9
		c0-1.5-0.2-2.8-0.6-3.8c-0.4-1-1-1.8-1.8-2.4s-1.8-1.1-3-1.3c-1.2-0.3-2.7-0.4-4.3-0.4H254.5z M265,140.7c2,0,3.6-0.2,4.8-0.7
		c1.2-0.5,2.2-1.1,2.9-1.9s1.2-1.7,1.5-2.7c0.3-1,0.4-2,0.4-3c0-1.2-0.2-2.2-0.5-3.2c-0.3-0.9-0.8-1.7-1.6-2.4
		c-0.7-0.6-1.7-1.1-3-1.5c-1.2-0.4-2.8-0.5-4.7-0.5h-10.4v16H265z"/>
	<path class="st1" d="M334,100.9c-0.4,0.7-0.9,1.2-1.4,1.6c-0.5,0.4-1.1,0.5-1.9,0.5c-0.7,0-1.4-0.2-2.2-0.6
		c-0.8-0.4-1.7-0.9-2.6-1.4c-1-0.5-2.1-1-3.4-1.4c-1.3-0.4-2.7-0.6-4.3-0.6c-2.8,0-4.9,0.6-6.2,1.8c-1.4,1.2-2,2.8-2,4.8
		c0,1.3,0.4,2.4,1.2,3.2c0.8,0.9,1.9,1.6,3.2,2.2c1.3,0.6,2.9,1.2,4.6,1.7c1.7,0.5,3.5,1.1,5.3,1.7c1.8,0.6,3.5,1.4,5.3,2.2
		c1.7,0.9,3.2,1.9,4.6,3.3c1.3,1.3,2.4,2.9,3.2,4.8c0.8,1.9,1.2,4.2,1.2,6.8c0,3-0.5,5.7-1.5,8.3c-1,2.6-2.5,4.8-4.5,6.8
		c-2,1.9-4.4,3.4-7.2,4.5c-2.9,1.1-6.1,1.7-9.7,1.7c-2,0-4-0.2-6.1-0.6c-2.1-0.4-4.1-1-6-1.7s-3.8-1.6-5.5-2.7
		c-1.7-1-3.2-2.2-4.4-3.4l4.4-7c0.4-0.5,0.8-0.9,1.4-1.3c0.6-0.3,1.2-0.5,1.9-0.5c0.9,0,1.8,0.3,2.7,0.8c0.9,0.6,1.9,1.2,3,1.8
		c1.1,0.7,2.4,1.3,3.9,1.8c1.5,0.6,3.2,0.8,5.2,0.8c2.7,0,4.8-0.6,6.3-1.8c1.5-1.2,2.2-3.1,2.2-5.7c0-1.5-0.4-2.7-1.2-3.7
		c-0.8-0.9-1.9-1.7-3.2-2.3c-1.3-0.6-2.9-1.2-4.6-1.6c-1.7-0.5-3.4-1-5.2-1.6c-1.8-0.6-3.5-1.3-5.2-2.1c-1.7-0.8-3.2-1.9-4.6-3.3
		c-1.3-1.4-2.4-3.1-3.2-5.1c-0.8-2-1.2-4.6-1.2-7.5c0-2.4,0.5-4.8,1.5-7c1-2.3,2.4-4.3,4.3-6.1c1.9-1.8,4.2-3.2,6.9-4.3
		c2.7-1.1,5.9-1.6,9.4-1.6c2,0,3.9,0.2,5.7,0.5c1.9,0.3,3.6,0.8,5.3,1.4c1.7,0.6,3.2,1.3,4.7,2.2c1.5,0.8,2.8,1.8,3.9,2.8L334,100.9
		z"/>
</g>
<path class="st9" d="M130.5,13.6l-48.9-8c-1.3-0.2-3.2,0.2-4.3,0.8L28.9,36c-1.1,0.7-1.9,2.3-1.9,3.5v36l23.2-5.3
	c1.3-0.3,3.3-0.5,4.6-0.4l75.7,3.9c1.3,0.1,2.5-0.9,2.5-2.2V16.3C133,15,131.8,13.8,130.5,13.6z"/>
<path class="st10" d="M55.8,69.7c-2.4,0-4.3-0.1-5.6,0.2L27,75.4V39.5c0-1.3,0.8-2.9,1.9-3.5L77.5,6.4C78.1,6.1,78,5.8,80,5.7v65.3"
	/>
<path class="st10" d="M86,13.5l39,6.4v46.7l-39-2V13.9 M85,12.1v53.5l41,2.1V18.9L85,12.1L85,12.1z"/>
<path class="st11" d="M111.1,72.8l43.6,1.9c1.3,0.1,2.3,1.2,2.3,2.4V137c0,1.3-1,2.4-2.3,2.5l-43.6,3.2c-1.3,0.1-2.3-0.9-2.3-2.2V75
	C108.8,73.7,109.8,72.7,111.1,72.8z"/>
<path class="st1" d="M115,80l35,1.5v51.3l-35,2.5V80 M114,78.7v57.8l37-2.6V80.4L114,78.7L114,78.7z"/>
<path class="st12" d="M6,82.5v47.4c0,1.3,1.2,2.7,2.5,3.1l40.9,13.4c0.9,0.3,1.6,0.5,3.6,0.6v0.1l0.4-0.1c0.2,0,0.3,0,0.3,0
	c0,0,52.3-3.8,52.3-3.8c1.3-0.1,1.9-1.2,1.9-2.5V74.8c0-1.3-0.7-2.4-1.9-2.4l-51.5-2.5c-1.3-0.1-3.2,0.1-4.5,0.4L8.5,79.7
	C7.2,80,6,81.2,6,82.5z"/>
<path class="st13" d="M52.6,69.9c-1.3-0.1-2.2,0.1-3.5,0.3L8.6,79.7C7.3,79.9,6,81.2,6,82.5v47.4c0,1.3,1.2,2.7,2.5,3.1l40.9,13.4
	c0.9,0.3,1.6,0.5,3.6,0.6v0"/>
<path class="st13" d="M58.8,77l42.2,2.1v57.3l-21.9,1.6c-5.4,0.4-16.4,1.2-20.1,1.5L58.8,77 M57.6,75.8l0.2,64.9
	c0,0,14.7-1.1,21.3-1.5l22.9-1.7V78L57.6,75.8L57.6,75.8z"/>
<rect x="107.2" y="10.5" class="st10" width="1.2" height="62.6"/>
<rect x="81.5" y="71.3" class="st13" width="1.2" height="73.6"/>
<rect x="133" y="74.2" class="st1" width="1.2" height="66.6"/>
</svg>
