<?xml version="1.0" standalone="no"?>
<!DOCTYPE svg PUBLIC "-//W3C//DTD SVG 1.1//EN" "http://www.w3.org/Graphics/SVG/1.1/DTD/svg11.dtd">
<svg width="100%" height="100%" viewBox="0 0 1442 267" version="1.1" xmlns="http://www.w3.org/2000/svg" xmlns:xlink="http://www.w3.org/1999/xlink" xml:space="preserve" style="fill-rule:evenodd;clip-rule:evenodd;stroke-linejoin:round;stroke-miterlimit:1.41421;">
    <g transform="matrix(4.16667,0,0,4.16667,0,0)">
        <path d="M334.026,32.852L334.026,32.708C334.026,26.218 329.646,21.913 324.467,21.913C319.296,21.913 314.986,26.218 314.986,32.708L314.986,32.852C314.986,39.347 319.296,43.655 324.467,43.655C329.646,43.655 334.026,39.418 334.026,32.852ZM304.044,13.228L315.135,13.228L315.135,18.844C317.832,15.198 321.556,12.503 327.314,12.503C336.435,12.503 345.11,19.65 345.11,32.708L345.11,32.852C345.11,45.913 336.579,53.061 327.314,53.061C321.403,53.061 317.754,50.362 315.135,47.226L315.135,64L304.044,64L304.044,13.228Z" style="fill:rgb(3,4,4);fill-rule:nonzero;"/>
        <path d="M83.896,0.904L94.264,0.904L118.187,32.708L118.187,0.904L129.274,0.904L129.274,52.336L119.721,52.336L94.993,19.864L94.993,52.336L83.896,52.336L83.896,0.904Z" style="fill:rgb(3,4,4);fill-rule:nonzero;"/>
        <path d="M162.238,29.717C161.585,24.751 158.666,21.397 154.003,21.397C149.4,21.397 146.407,24.693 145.535,29.717L162.238,29.717ZM134.666,33.001L134.666,32.852C134.666,21.692 142.619,12.503 154.003,12.503C167.055,12.503 173.034,22.642 173.034,33.731C173.034,34.604 172.969,35.63 172.887,36.649L145.678,36.649C146.78,41.681 150.275,44.312 155.239,44.312C158.961,44.312 161.655,43.144 164.721,40.295L171.061,45.913C167.42,50.438 162.165,53.207 155.095,53.207C143.347,53.207 134.666,44.966 134.666,33.001Z" style="fill:rgb(3,4,4);fill-rule:nonzero;"/>
        <path d="M179.959,41.238L179.959,22.71L175.292,22.71L175.292,13.228L179.959,13.228L179.959,3.241L191.04,3.241L191.04,13.228L200.24,13.228L200.24,22.71L191.04,22.71L191.04,39.418C191.04,41.971 192.141,43.215 194.617,43.215C196.658,43.215 198.481,42.705 200.092,41.821L200.092,50.725C197.756,52.114 195.049,52.988 191.327,52.988C184.55,52.988 179.959,50.287 179.959,41.238Z" style="fill:rgb(3,4,4);fill-rule:nonzero;"/>
        <path d="M288.438,32.852L288.438,32.708C288.438,26.218 284.06,21.913 278.887,21.913C273.711,21.913 269.408,26.218 269.408,32.708L269.408,32.852C269.408,39.347 273.711,43.655 278.887,43.655C284.06,43.655 288.438,39.418 288.438,32.852ZM258.467,13.228L269.553,13.228L269.553,18.844C272.25,15.198 275.967,12.503 281.734,12.503C290.855,12.503 299.53,19.65 299.53,32.708L299.53,32.852C299.53,45.913 290.999,53.061 281.734,53.061C275.826,53.061 272.174,50.362 269.553,47.226L269.553,64L258.467,64L258.467,13.228Z" style="fill:rgb(3,4,4);fill-rule:nonzero;"/>
        <path d="M235.953,30.966L229.172,14.392L222.384,30.966L235.953,30.966ZM224.265,0.9L234.359,0.9L255.696,52.336L243.992,52.336L239.29,40.875L219.046,40.875L214.376,52.336L202.929,52.336L224.265,0.9Z" style="fill:rgb(3,4,4);fill-rule:nonzero;"/>
        <path d="M0,0.907L0,52.336L23.999,52.336L23.999,21.478L37.714,21.478L37.714,52.336L61.714,52.336L61.714,0.907L0,0.907Z" style="fill:rgb(38,104,178);fill-rule:nonzero;"/>
    </g>
</svg>
