<?xml version="1.0" encoding="utf-8"?>
<!-- Generator: Adobe Illustrator 19.2.1, SVG Export Plug-In . SVG Version: 6.00 Build 0)  -->
<svg version="1.1" id="Layer_1" xmlns="http://www.w3.org/2000/svg" xmlns:xlink="http://www.w3.org/1999/xlink" x="0px" y="0px"
	 viewBox="0 0 609.3 151.4" style="enable-background:new 0 0 609.3 151.4;" xml:space="preserve">
<style type="text/css">
	.st0{fill:#99A3A8;}
	.st1{fill:#CCD1D3;}
	.st2{fill:none;stroke:#A3ABAF;stroke-width:5;stroke-linecap:round;stroke-linejoin:round;stroke-miterlimit:10;}
	.st3{fill:#3D3D3D;}
	.st4{fill:#0075A8;}
	.st5{fill:#B3C78F;}
	.st6{fill:none;stroke:#CCD1D3;stroke-miterlimit:10;}
	.st7{fill:none;stroke:#CCD1D3;stroke-width:1.893;stroke-miterlimit:10;}
	.st8{fill:#F15354;}
	.st9{fill:#A3ABAF;}
	.st10{fill:#3498DB;}
	.st11{fill:#2980B9;}
	.st12{fill:#E67E22;}
	.st13{fill:#D35401;}
	.st14{fill:#F1C40F;}
	.st15{fill:#E49701;}
	.st16{fill:#EADF5A;}
	.st17{fill:#D7C320;}
	.st18{fill:#34495E;}
	.st19{fill:#2C3E50;}
	.st20{fill:#2B2B2B;}
	.st21{fill:#262626;}
	.st22{fill:#3A6F81;}
	.st23{fill:#356272;}
	.st24{fill:#00558B;}
	.st25{fill:#27AE60;}
	.st26{fill:#169242;}
	.st27{fill:#A5C63B;}
	.st28{fill:#8EB021;}
	.st29{fill:#ECF0F1;}
	.st30{fill:#BDC3C7;}
	.st31{fill:#95A5A6;}
	.st32{fill:#7F8C8D;}
	.st33{fill:#E74C3C;}
	.st34{fill:#C0392B;}
	.st35{fill:#EA3738;}
	.st36{fill:#78C9CF;}
	.st37{fill:#389EA8;}
	.st38{fill:#2D8490;}
	.st39{fill:#1A6470;}
	.st40{fill:#21364A;}
	.st41{fill:#040B15;}
	.st42{fill:#66767C;}
	.st43{fill:#334851;}
	.st44{fill:#5C686F;}
	.st45{fill:#29373C;}
	.st46{fill:#0A141A;}
	.st47{fill:#FFFFFF;}
	.st48{fill:#0D5E8C;}
	.st49{fill:#0071BC;}
	.st50{fill:#808080;stroke:#000000;stroke-width:0.5;stroke-miterlimit:10;}
	.st51{fill:#DFDFDF;stroke:#000000;stroke-width:0.5;stroke-miterlimit:10;}
	.st52{stroke:#000000;stroke-width:0.5;stroke-miterlimit:10;}
	.st53{fill:none;stroke:#A3ABAF;stroke-width:12;stroke-miterlimit:10;}
	.st54{fill:none;stroke:#F15354;stroke-width:0.4376;stroke-miterlimit:10;}
	.st55{fill:none;stroke:#F15354;stroke-miterlimit:10;}
	.st56{fill:none;stroke:#3498DB;stroke-width:15;stroke-linecap:square;stroke-miterlimit:10;}
	.st57{fill:none;stroke:#A3ABAF;stroke-width:9;stroke-miterlimit:10;}
	.st58{opacity:0.5;fill:url(#SVGID_1_);}
	.st59{clip-path:url(#SVGID_3_);enable-background:new    ;}
	.st60{fill:#D3AC0D;}
	.st61{fill:#B5930B;}
	.st62{opacity:0.5;fill:url(#SVGID_4_);}
	.st63{clip-path:url(#SVGID_6_);enable-background:new    ;}
	.st64{opacity:0.5;fill:url(#SVGID_7_);}
	.st65{clip-path:url(#SVGID_9_);enable-background:new    ;}
	.st66{opacity:0.5;fill:url(#SVGID_10_);}
	.st67{clip-path:url(#SVGID_12_);enable-background:new    ;}
	.st68{fill:#58D68D;}
	.st69{fill:#2ECC71;}
	.st70{fill:none;stroke:#2ECC71;stroke-width:1.1621;stroke-miterlimit:10;}
	.st71{fill:none;stroke:#F1C40F;stroke-width:1.1621;stroke-miterlimit:10;}
	.st72{fill:none;stroke:#0075A8;stroke-width:1.1621;stroke-miterlimit:10;}
	.st73{fill:none;stroke:#BDC3C7;stroke-width:10;stroke-miterlimit:10;}
	.st74{fill:none;stroke:#A3ABAF;stroke-width:10;stroke-miterlimit:10;}
	.st75{opacity:0.2;fill:#78C9CF;}
	.st76{fill:none;stroke:#0075A8;stroke-miterlimit:10;}
	.st77{fill:#5D5D5D;}
	.st78{fill:none;stroke:#99A3A8;stroke-miterlimit:10;}
	.st79{fill:none;stroke:#0075A8;stroke-width:1.8275;stroke-miterlimit:10;}
	.st80{opacity:0.7;}
</style>
<g>
	<path class="st3" d="M238,65h-13.5c-2.5,0-4.3-0.9-5.4-2.8l-10.6-18.6c-0.5-0.8-1.1-1.4-1.7-1.7c-0.6-0.4-1.5-0.5-2.6-0.5h-3.8V65
		h-14.9V0.8h20.9c4.6,0,8.6,0.5,11.9,1.4c3.3,1,5.9,2.3,8,4c2.1,1.7,3.6,3.7,4.5,6c0.9,2.3,1.4,4.8,1.4,7.6c0,2.1-0.3,4-0.8,5.9
		c-0.6,1.8-1.4,3.6-2.5,5.1c-1.1,1.6-2.4,3-4,4.2s-3.4,2.2-5.5,3c1,0.5,1.9,1.1,2.7,1.9c0.8,0.7,1.6,1.6,2.3,2.7L238,65z M206.4,31
		c2,0,3.7-0.3,5.2-0.8c1.4-0.5,2.6-1.2,3.5-2.1c0.9-0.9,1.6-2,2-3.2c0.4-1.2,0.6-2.5,0.6-3.9c0-2.8-0.9-5-2.8-6.6
		c-1.8-1.6-4.7-2.4-8.5-2.4h-6v19H206.4z"/>
	<path class="st3" d="M300.9,65h-11.5c-1.3,0-2.3-0.3-3.1-0.9c-0.8-0.6-1.4-1.4-1.8-2.3l-3.8-11.2h-24.4l-3.8,11.2
		c-0.3,0.8-0.9,1.6-1.7,2.2c-0.8,0.7-1.9,1-3.1,1H236l24.8-64.1h15.2L300.9,65z M277.3,40.4l-5.9-17.6c-0.4-1.1-0.9-2.4-1.4-3.9
		s-1-3.1-1.5-4.9c-0.4,1.8-0.9,3.4-1.4,5c-0.5,1.5-1,2.8-1.4,4l-5.9,17.5H277.3z"/>
	<path class="st3" d="M364.6,0.8V65h-7.7c-1.1,0-2.1-0.2-2.9-0.5c-0.8-0.4-1.5-1-2.3-1.9l-30.2-38.2c0.1,1.1,0.2,2.3,0.2,3.3
		c0,1.1,0.1,2.1,0.1,3V65h-13.1V0.8h7.8c0.6,0,1.2,0,1.6,0.1c0.4,0.1,0.8,0.2,1.2,0.3c0.4,0.2,0.7,0.4,1,0.7s0.7,0.7,1.1,1.2
		l30.5,38.5c-0.1-1.2-0.2-2.4-0.3-3.6c-0.1-1.2-0.1-2.3-0.1-3.3V0.8H364.6z"/>
	<path class="st3" d="M420.9,48.4c0.4,0,0.7,0.1,1.1,0.2c0.4,0.1,0.7,0.4,1,0.7l5.9,6.2c-2.6,3.4-5.8,5.9-9.7,7.6s-8.5,2.6-13.8,2.6
		c-4.9,0-9.2-0.8-13.1-2.5c-3.9-1.7-7.1-3.9-9.8-6.9c-2.7-2.9-4.7-6.4-6.2-10.4c-1.4-4-2.2-8.4-2.2-13c0-4.8,0.8-9.2,2.3-13.2
		s3.7-7.5,6.6-10.4c2.8-2.9,6.2-5.2,10.1-6.8c3.9-1.6,8.3-2.4,13-2.4c2.4,0,4.7,0.2,6.8,0.6c2.1,0.4,4.1,1,6,1.8
		c1.8,0.7,3.5,1.7,5.1,2.7c1.6,1.1,2.9,2.2,4.1,3.4l-5,6.7c-0.3,0.4-0.7,0.8-1.1,1.1c-0.4,0.3-1.1,0.5-1.8,0.5c-0.5,0-1-0.1-1.5-0.4
		c-0.5-0.2-1-0.5-1.5-0.9c-0.5-0.3-1.1-0.7-1.7-1.1c-0.6-0.4-1.4-0.8-2.2-1.1c-0.9-0.3-1.9-0.6-3-0.9c-1.2-0.2-2.5-0.4-4.1-0.4
		c-2.5,0-4.7,0.5-6.8,1.4c-2,0.9-3.8,2.2-5.3,4c-1.5,1.7-2.6,3.9-3.4,6.4c-0.8,2.5-1.2,5.4-1.2,8.7c0,3.3,0.4,6.2,1.3,8.8
		c0.9,2.6,2.1,4.7,3.7,6.4s3.3,3.1,5.4,4c2.1,0.9,4.3,1.4,6.6,1.4c1.3,0,2.6-0.1,3.7-0.2c1.1-0.1,2.2-0.4,3.1-0.7
		c1-0.3,1.9-0.7,2.7-1.2c0.8-0.5,1.7-1.2,2.6-2c0.4-0.3,0.7-0.5,1.1-0.7S420.5,48.4,420.9,48.4z"/>
	<path class="st3" d="M491.8,0.8V65h-15V37.9h-26V65h-15V0.8h15v26.8h26V0.8H491.8z"/>
	<path class="st3" d="M520,12.3v15h20.2v11H520v15.3h26.3V65h-41.3V0.8h41.3v11.4H520z"/>
	<path class="st3" d="M608.6,65h-13.5c-2.5,0-4.3-0.9-5.4-2.8l-10.6-18.6c-0.5-0.8-1.1-1.4-1.7-1.7c-0.6-0.4-1.5-0.5-2.6-0.5H571V65
		h-14.9V0.8H577c4.6,0,8.6,0.5,11.9,1.4c3.3,1,5.9,2.3,8,4c2.1,1.7,3.6,3.7,4.5,6s1.4,4.8,1.4,7.6c0,2.1-0.3,4-0.8,5.9
		c-0.6,1.8-1.4,3.6-2.5,5.1c-1.1,1.6-2.4,3-4,4.2s-3.4,2.2-5.5,3c1,0.5,1.9,1.1,2.7,1.9s1.6,1.6,2.3,2.7L608.6,65z M577,31
		c2,0,3.7-0.3,5.2-0.8c1.4-0.5,2.6-1.2,3.5-2.1s1.6-2,2-3.2c0.4-1.2,0.6-2.5,0.6-3.9c0-2.8-0.9-5-2.8-6.6c-1.8-1.6-4.7-2.4-8.5-2.4
		h-6v19H577z"/>
	<path class="st4" d="M243,87.8L217.3,152h-13.5l-25.7-64.1h12c1.3,0,2.3,0.3,3.1,0.9c0.8,0.6,1.4,1.4,1.8,2.3l12.4,34.3
		c0.6,1.5,1.2,3.1,1.7,4.9c0.6,1.8,1.1,3.6,1.6,5.6c0.4-1.9,0.9-3.8,1.4-5.6c0.5-1.8,1.1-3.4,1.7-4.9l12.3-34.3
		c0.3-0.8,0.9-1.6,1.7-2.2c0.8-0.7,1.9-1,3.1-1H243z"/>
	<path class="st4" d="M303.1,152h-14.9c-1,0-1.8-0.2-2.4-0.7c-0.6-0.5-1.1-1-1.4-1.7l-12.8-22.4c-0.2,0.6-0.5,1.2-0.8,1.7l-12,20.8
		c-0.4,0.6-0.9,1.1-1.5,1.6c-0.6,0.5-1.3,0.7-2.2,0.7h-13.9l20.6-33l-19.8-31.1H257c1,0,1.7,0.1,2.1,0.4c0.5,0.2,0.9,0.7,1.2,1.3
		l12.8,21.6c0.1-0.4,0.3-0.7,0.5-1.1c0.2-0.4,0.4-0.7,0.6-1.1l11.2-19.2c0.4-0.6,0.8-1.1,1.3-1.4c0.5-0.3,1-0.4,1.7-0.4h14.3
		l-20.1,30.5L303.1,152z"/>
	<path class="st4" d="M347.5,140.1V152h-38.6V87.8h14.9v52.2H347.5z"/>
	<path class="st4" d="M412.5,152H401c-1.3,0-2.3-0.3-3.1-0.9c-0.8-0.6-1.4-1.4-1.8-2.3l-3.8-11.2h-24.4l-3.8,11.2
		c-0.3,0.8-0.9,1.6-1.7,2.2s-1.9,1-3.1,1h-11.6l24.8-64.1h15.2L412.5,152z M388.9,127.4l-5.9-17.6c-0.4-1.1-0.9-2.4-1.4-3.9
		c-0.5-1.5-1-3.1-1.5-4.9c-0.4,1.8-0.9,3.4-1.4,5c-0.5,1.5-1,2.8-1.4,4l-5.9,17.5H388.9z"/>
	<path class="st4" d="M473.6,87.8V152h-7.7c-1.1,0-2.1-0.2-2.9-0.5c-0.8-0.4-1.5-1-2.3-1.9l-30.2-38.2c0.1,1.1,0.2,2.3,0.2,3.3
		c0,1.1,0.1,2.1,0.1,3V152h-13.1V87.8h7.8c0.6,0,1.2,0,1.6,0.1c0.4,0.1,0.8,0.2,1.2,0.3c0.4,0.2,0.7,0.4,1,0.7
		c0.3,0.3,0.7,0.7,1.1,1.2l30.5,38.5c-0.1-1.2-0.2-2.4-0.3-3.6c-0.1-1.2-0.1-2.3-0.1-3.3V87.8H473.6z"/>
</g>
<g class="st80">
	<circle class="st0" cx="77.4" cy="17.8" r="3.1"/>
	<circle class="st0" cx="77.4" cy="133.9" r="3.1"/>
	<circle class="st0" cx="19.4" cy="76.2" r="3.1"/>
	<circle class="st0" cx="135.5" cy="76.2" r="3.1"/>
	<ellipse transform="matrix(0.7071 -0.7071 0.7071 0.7071 -13.9669 35.9128)" class="st0" cx="36.4" cy="34.8" rx="3.1" ry="3.1"/>
	
		<ellipse transform="matrix(0.7071 -0.7071 0.7071 0.7071 -47.9745 118.0144)" class="st0" cx="118.5" cy="116.9" rx="3.1" ry="3.1"/>
	<ellipse transform="matrix(0.7071 -0.7071 0.7071 0.7071 -72.0833 60.215)" class="st0" cx="36.6" cy="117.1" rx="3.1" ry="3.1"/>
	<ellipse transform="matrix(0.7071 -0.7071 0.7071 0.7071 10.0183 94.2226)" class="st0" cx="118.7" cy="35" rx="3.1" ry="3.1"/>
	<polygon class="st78" points="38.8,115 77.4,20.8 116.3,114.8 19.4,76.2 116.6,37.2 77.4,130.8 38.5,37 132.5,76.2 	"/>
</g>
<g>
	<circle class="st4" cx="55" cy="146.1" r="5.6"/>
	<circle class="st4" cx="11.3" cy="109.4" r="5.6"/>
	<circle class="st4" cx="104.7" cy="5.6" r="5.6"/>
	<ellipse transform="matrix(0.7048 -0.7094 0.7094 0.7048 -68.4895 120.9228)" class="st4" cx="111" cy="142.8" rx="5.6" ry="5.6"/>
	
		<ellipse transform="matrix(0.7048 -0.7094 0.7094 0.7048 -28.2269 135.3131)" class="st4" cx="148.5" cy="101.6" rx="5.6" ry="5.6"/>
	<ellipse transform="matrix(0.7048 -0.7094 0.7094 0.7048 11.5636 117.4138)" class="st4" cx="146.9" cy="44.8" rx="5.6" ry="5.6"/>
	<ellipse transform="matrix(0.7048 -0.7094 0.7094 0.7048 -34.527 19.7255)" class="st4" cx="6.4" cy="51.3" rx="5.6" ry="5.6"/>
	<ellipse transform="matrix(0.7048 -0.7094 0.7094 0.7048 8.2966 34.5403)" class="st4" cx="45.6" cy="7.3" rx="5.6" ry="5.6"/>
	<polygon class="st76" points="56.6,140.9 48,12.2 143,99 16.3,107 102.5,9.9 108.3,137.3 11.9,53.2 141.3,46.7 	"/>
</g>
</svg>
