<?xml version="1.0" encoding="utf-8"?>
<!-- Generator: Adobe Illustrator 19.2.1, SVG Export Plug-In . SVG Version: 6.00 Build 0)  -->
<svg version="1.1" id="Layer_1" xmlns="http://www.w3.org/2000/svg" xmlns:xlink="http://www.w3.org/1999/xlink" x="0px" y="0px"
	 viewBox="0 0 537.3 151.4" style="enable-background:new 0 0 537.3 151.4;" xml:space="preserve">
<style type="text/css">
	.st0{fill:#99A3A8;}
	.st1{fill:#CCD1D3;}
	.st2{fill:none;stroke:#A3ABAF;stroke-width:5;stroke-linecap:round;stroke-linejoin:round;stroke-miterlimit:10;}
	.st3{fill:#3D3D3D;}
	.st4{fill:#0075A8;}
	.st5{fill:#B3C78F;}
	.st6{fill:none;stroke:#CCD1D3;stroke-miterlimit:10;}
	.st7{fill:none;stroke:#CCD1D3;stroke-width:1.893;stroke-miterlimit:10;}
	.st8{fill:#F15354;}
	.st9{fill:#A3ABAF;}
	.st10{fill:#3498DB;}
	.st11{fill:#2980B9;}
	.st12{fill:#E67E22;}
	.st13{fill:#D35401;}
	.st14{fill:#F1C40F;}
	.st15{fill:#E49701;}
	.st16{fill:#EADF5A;}
	.st17{fill:#D7C320;}
	.st18{fill:#34495E;}
	.st19{fill:#2C3E50;}
	.st20{fill:#2B2B2B;}
	.st21{fill:#262626;}
	.st22{fill:#3A6F81;}
	.st23{fill:#356272;}
	.st24{fill:#00558B;}
	.st25{fill:#27AE60;}
	.st26{fill:#169242;}
	.st27{fill:#A5C63B;}
	.st28{fill:#8EB021;}
	.st29{fill:#ECF0F1;}
	.st30{fill:#BDC3C7;}
	.st31{fill:#95A5A6;}
	.st32{fill:#7F8C8D;}
	.st33{fill:#E74C3C;}
	.st34{fill:#C0392B;}
	.st35{fill:#EA3738;}
	.st36{fill:#78C9CF;}
	.st37{fill:#389EA8;}
	.st38{fill:#2D8490;}
	.st39{fill:#1A6470;}
	.st40{fill:#21364A;}
	.st41{fill:#040B15;}
	.st42{fill:#66767C;}
	.st43{fill:#334851;}
	.st44{fill:#5C686F;}
	.st45{fill:#29373C;}
	.st46{fill:#0A141A;}
	.st47{fill:#FFFFFF;}
	.st48{fill:#0D5E8C;}
	.st49{fill:#0071BC;}
	.st50{fill:#808080;stroke:#000000;stroke-width:0.5;stroke-miterlimit:10;}
	.st51{fill:#DFDFDF;stroke:#000000;stroke-width:0.5;stroke-miterlimit:10;}
	.st52{stroke:#000000;stroke-width:0.5;stroke-miterlimit:10;}
	.st53{fill:none;stroke:#A3ABAF;stroke-width:12;stroke-miterlimit:10;}
	.st54{fill:none;stroke:#F15354;stroke-width:0.4376;stroke-miterlimit:10;}
	.st55{fill:none;stroke:#F15354;stroke-miterlimit:10;}
	.st56{fill:none;stroke:#3498DB;stroke-width:15;stroke-linecap:square;stroke-miterlimit:10;}
	.st57{fill:none;stroke:#A3ABAF;stroke-width:9;stroke-miterlimit:10;}
	.st58{opacity:0.5;fill:url(#SVGID_1_);}
	.st59{clip-path:url(#SVGID_3_);enable-background:new    ;}
	.st60{fill:#D3AC0D;}
	.st61{fill:#B5930B;}
	.st62{opacity:0.5;fill:url(#SVGID_4_);}
	.st63{clip-path:url(#SVGID_6_);enable-background:new    ;}
	.st64{opacity:0.5;fill:url(#SVGID_7_);}
	.st65{clip-path:url(#SVGID_9_);enable-background:new    ;}
	.st66{opacity:0.5;fill:url(#SVGID_10_);}
	.st67{clip-path:url(#SVGID_12_);enable-background:new    ;}
	.st68{fill:#58D68D;}
	.st69{fill:#2ECC71;}
	.st70{fill:none;stroke:#2ECC71;stroke-width:1.1621;stroke-miterlimit:10;}
	.st71{fill:none;stroke:#F1C40F;stroke-width:1.1621;stroke-miterlimit:10;}
	.st72{fill:none;stroke:#0075A8;stroke-width:1.1621;stroke-miterlimit:10;}
	.st73{fill:none;stroke:#BDC3C7;stroke-width:10;stroke-miterlimit:10;}
	.st74{fill:none;stroke:#A3ABAF;stroke-width:10;stroke-miterlimit:10;}
	.st75{opacity:0.2;fill:#78C9CF;}
	.st76{fill:none;stroke:#0075A8;stroke-miterlimit:10;}
	.st77{fill:#5D5D5D;}
	.st78{fill:none;stroke:#99A3A8;stroke-miterlimit:10;}
	.st79{fill:none;stroke:#0075A8;stroke-width:1.8275;stroke-miterlimit:10;}
	.st80{opacity:0.7;}
</style>
<g>
	<path class="st3" d="M184.7,9h24.5c11.6,0,19.4,5.6,19.4,16.5c0,8.9-6.1,14.3-12,16.1c1.8,1.5,3.1,3.5,4.1,5.6
		c2.5,5,4.1,10.6,9.3,10.6c1.3,0,2.4-0.4,2.4-0.4l-1.1,10.5c0,0-3.2,0.8-5.9,0.8c-7,0-11.1-2.7-15.2-12.1
		c-1.8-4.2-4.2-11.6-7.5-11.6h-3.3v23.5h-14.7V9z M199.4,19.7v14.6h5.3c4.2,0,9.2-1.3,9.2-7.7c0-5.2-3.3-7-7.4-7H199.4z"/>
	<path class="st3" d="M248.9,9h14.9l20.1,59.4h-14.9l-3.7-11.3h-19.9l-3.6,11.3h-12.8L248.9,9z M248.9,46.3h12.8l-4-12.5
		c-1.4-4.2-2-10.2-2-10.2h-0.4c0,0-0.9,6.1-2.2,10.1L248.9,46.3z"/>
	<path class="st3" d="M284.8,9h15.8l15.6,29.5c1.3,2.6,3.1,7,4.5,10.6h0.4c-0.2-3.3-0.6-8.1-0.6-11.5V9h12.1v59.4H317L300.8,39
		c-1.5-2.6-3.1-6.5-4.3-9.7h-0.4c0.3,3.3,0.7,7.3,0.7,10.6v28.5h-12.1V9z"/>
	<path class="st3" d="M335.9,38.3C335.9,16.9,346.5,8,363,8c17.3,0,24.3,9.5,22.4,22.4l-13.7,1.2c1.5-9.4-2.2-13.2-8.9-13.2
		c-6.4,0-11.6,4.8-11.6,20.1c0,16.2,5.6,20.3,12.1,20.3c6.1,0,11-3.8,9.9-11.5l12.8,1.3c1,12.1-7.7,20.9-23.6,20.9
		C346.3,69.5,335.9,60,335.9,38.3z"/>
	<path class="st3" d="M389.3,9H404v22.4h18V9h14.7v59.4H422V43.3h-18v25.2h-14.7V9z"/>
	<path class="st3" d="M443,9h39.3v10.9h-24.6v12.8h20.7v10.9h-20.7v13.9h25.5v10.9H443V9z"/>
	<path class="st3" d="M486.4,9h24.5c11.6,0,19.4,5.6,19.4,16.5c0,8.9-6.1,14.3-12,16.1c1.8,1.5,3.1,3.5,4.1,5.6
		c2.5,5,4.1,10.6,9.3,10.6c1.3,0,2.4-0.4,2.4-0.4L533,67.9c0,0-3.2,0.8-5.9,0.8c-7,0-11.1-2.7-15.2-12.1c-1.8-4.2-4.2-11.6-7.5-11.6
		h-3.3v23.5h-14.7V9z M501.1,19.7v14.6h5.3c4.2,0,9.2-1.3,9.2-7.7c0-5.2-3.3-7-7.4-7H501.1z"/>
	<path class="st4" d="M179.2,84h15.2l11.2,33.5c1.4,4.3,1.9,10.7,1.9,10.7h0.4c0,0,0.6-6.4,2-10.6L221,84h13.3l-20.3,59.4h-14.3
		L179.2,84z"/>
	<path class="st4" d="M247.2,112.8L230.6,84h17l5.8,10.4c1.7,3.1,3.1,6.4,3.1,6.4h0.4c0,0,1.4-3.3,3.3-6.5L266,84h14.1l-16.2,27.5
		l18.4,31.9h-17l-7.7-13.7c-1.8-3.1-3.1-6.2-3.1-6.2h-0.4c0,0-1.3,3.1-3.2,6.3l-7.8,13.6h-14.1L247.2,112.8z"/>
	<path class="st4" d="M282.2,84h14.7v48.5h24.7v10.9h-39.4V84z"/>
	<path class="st4" d="M337.9,84h14.9l20.1,59.4H358l-3.7-11.3h-19.9l-3.6,11.3h-12.8L337.9,84z M337.9,121.3h12.8l-4-12.5
		c-1.4-4.2-2-10.2-2-10.2h-0.4c0,0-0.9,6.1-2.2,10.1L337.9,121.3z"/>
	<path class="st4" d="M373.8,84h15.8l15.6,29.5c1.3,2.6,3.1,7,4.5,10.6h0.4c-0.2-3.3-0.6-8.1-0.6-11.5V84h12.1v59.4H406L389.8,114
		c-1.5-2.6-3.1-6.5-4.3-9.7h-0.4c0.3,3.3,0.7,7.3,0.7,10.6v28.5h-12.1V84z"/>
</g>
<g class="st80">
	<circle class="st0" cx="77.4" cy="17.8" r="3.1"/>
	<circle class="st0" cx="77.4" cy="133.9" r="3.1"/>
	<circle class="st0" cx="19.4" cy="76.2" r="3.1"/>
	<circle class="st0" cx="135.5" cy="76.2" r="3.1"/>
	<ellipse transform="matrix(0.7071 -0.7071 0.7071 0.7071 -13.9669 35.9128)" class="st0" cx="36.4" cy="34.8" rx="3.1" ry="3.1"/>
	
		<ellipse transform="matrix(0.7071 -0.7071 0.7071 0.7071 -47.9745 118.0144)" class="st0" cx="118.5" cy="116.9" rx="3.1" ry="3.1"/>
	<ellipse transform="matrix(0.7071 -0.7071 0.7071 0.7071 -72.0833 60.215)" class="st0" cx="36.6" cy="117.1" rx="3.1" ry="3.1"/>
	<ellipse transform="matrix(0.7071 -0.7071 0.7071 0.7071 10.0183 94.2226)" class="st0" cx="118.7" cy="35" rx="3.1" ry="3.1"/>
	<polygon class="st78" points="38.8,115 77.4,20.8 116.3,114.8 19.4,76.2 116.6,37.2 77.4,130.8 38.5,37 132.5,76.2 	"/>
</g>
<g>
	<circle class="st4" cx="55" cy="146.1" r="5.6"/>
	<circle class="st4" cx="11.3" cy="109.4" r="5.6"/>
	<circle class="st4" cx="104.7" cy="5.6" r="5.6"/>
	<ellipse transform="matrix(0.7048 -0.7094 0.7094 0.7048 -68.4895 120.9228)" class="st4" cx="111" cy="142.8" rx="5.6" ry="5.6"/>
	
		<ellipse transform="matrix(0.7048 -0.7094 0.7094 0.7048 -28.2269 135.3131)" class="st4" cx="148.5" cy="101.6" rx="5.6" ry="5.6"/>
	<ellipse transform="matrix(0.7048 -0.7094 0.7094 0.7048 11.5636 117.4138)" class="st4" cx="146.9" cy="44.8" rx="5.6" ry="5.6"/>
	<ellipse transform="matrix(0.7048 -0.7094 0.7094 0.7048 -34.527 19.7255)" class="st4" cx="6.4" cy="51.3" rx="5.6" ry="5.6"/>
	<ellipse transform="matrix(0.7048 -0.7094 0.7094 0.7048 8.2966 34.5403)" class="st4" cx="45.6" cy="7.3" rx="5.6" ry="5.6"/>
	<polygon class="st76" points="56.6,140.9 48,12.2 143,99 16.3,107 102.5,9.9 108.3,137.3 11.9,53.2 141.3,46.7 	"/>
</g>
</svg>
