<?xml version="1.0" encoding="utf-8"?>
<!-- Generator: Adobe Illustrator 19.2.1, SVG Export Plug-In . SVG Version: 6.00 Build 0)  -->
<svg version="1.1" id="Layer_1" xmlns="http://www.w3.org/2000/svg" xmlns:xlink="http://www.w3.org/1999/xlink" x="0px" y="0px"
	 viewBox="0 0 556.5 151.4" style="enable-background:new 0 0 556.5 151.4;" xml:space="preserve">
<style type="text/css">
	.st0{fill:#3D3D3D;}
	.st1{fill:#0075A8;}
	.st2{fill:#CCD1D3;}
	.st3{fill:#0D5E8C;}
	.st4{fill:#0071BC;}
	.st5{fill:#FFFFFF;}
	.st6{fill:#BDC3C7;}
	.st7{fill:#F15354;}
	.st8{fill:#A3ABAF;}
	.st9{fill:#58D68D;}
	.st10{fill:#2ECC71;}
	.st11{fill:#3498DB;}
	.st12{fill:#EADF5A;}
	.st13{fill:#F1C40F;}
	.st14{fill:#2D8490;}
	.st15{fill:#3A6F81;}
	.st16{fill:#ECF0F1;}
	.st17{opacity:0.2;fill:#78C9CF;}
</style>
<g>
	<path class="st0" d="M183,65h-13.5c-2.5,0-4.3-0.9-5.4-2.8l-10.6-18.6c-0.5-0.8-1.1-1.4-1.7-1.7c-0.6-0.4-1.5-0.5-2.6-0.5h-3.8V65
		h-14.9V0.8h20.9c4.6,0,8.6,0.5,11.9,1.4c3.3,1,5.9,2.3,8,4c2.1,1.7,3.6,3.7,4.5,6c0.9,2.3,1.4,4.8,1.4,7.6c0,2.1-0.3,4-0.8,5.9
		c-0.6,1.8-1.4,3.6-2.5,5.1c-1.1,1.6-2.4,3-4,4.2s-3.4,2.2-5.5,3c1,0.5,1.9,1.1,2.7,1.9c0.8,0.7,1.6,1.6,2.3,2.7L183,65z M151.5,31
		c2,0,3.7-0.3,5.2-0.8c1.4-0.5,2.6-1.2,3.5-2.1c0.9-0.9,1.6-2,2-3.2c0.4-1.2,0.6-2.5,0.6-3.9c0-2.8-0.9-5-2.8-6.6
		c-1.8-1.6-4.7-2.4-8.5-2.4h-6v19H151.5z"/>
	<path class="st0" d="M246,65h-11.5c-1.3,0-2.3-0.3-3.1-0.9c-0.8-0.6-1.4-1.4-1.8-2.3l-3.8-11.2h-24.4l-3.8,11.2
		c-0.3,0.8-0.9,1.6-1.7,2.2c-0.8,0.7-1.9,1-3.1,1h-11.6l24.8-64.1h15.2L246,65z M222.3,40.4l-5.9-17.6c-0.4-1.1-0.9-2.4-1.4-3.9
		s-1-3.1-1.5-4.9c-0.4,1.8-0.9,3.4-1.4,5c-0.5,1.5-1,2.8-1.4,4l-5.9,17.5H222.3z"/>
	<path class="st0" d="M309.6,0.8V65h-7.7c-1.1,0-2.1-0.2-2.9-0.5c-0.8-0.4-1.5-1-2.3-1.9l-30.2-38.2c0.1,1.1,0.2,2.3,0.2,3.3
		c0,1.1,0.1,2.1,0.1,3V65h-13.1V0.8h7.8c0.6,0,1.2,0,1.6,0.1c0.4,0.1,0.8,0.2,1.2,0.3c0.4,0.2,0.7,0.4,1,0.7s0.7,0.7,1.1,1.2
		l30.5,38.5c-0.1-1.2-0.2-2.4-0.3-3.6c-0.1-1.2-0.1-2.3-0.1-3.3V0.8H309.6z"/>
	<path class="st0" d="M366,48.4c0.4,0,0.7,0.1,1.1,0.2c0.4,0.1,0.7,0.4,1,0.7l5.9,6.2c-2.6,3.4-5.8,5.9-9.7,7.6s-8.5,2.6-13.8,2.6
		c-4.9,0-9.2-0.8-13.1-2.5c-3.9-1.7-7.1-3.9-9.8-6.9c-2.7-2.9-4.7-6.4-6.2-10.4c-1.4-4-2.2-8.4-2.2-13c0-4.8,0.8-9.2,2.3-13.2
		s3.7-7.5,6.6-10.4c2.8-2.9,6.2-5.2,10.1-6.8c3.9-1.6,8.3-2.4,13-2.4c2.4,0,4.7,0.2,6.8,0.6c2.1,0.4,4.1,1,6,1.8
		c1.8,0.7,3.5,1.7,5.1,2.7c1.6,1.1,2.9,2.2,4.1,3.4l-5,6.7c-0.3,0.4-0.7,0.8-1.1,1.1c-0.4,0.3-1.1,0.5-1.8,0.5c-0.5,0-1-0.1-1.5-0.4
		c-0.5-0.2-1-0.5-1.5-0.9c-0.5-0.3-1.1-0.7-1.7-1.1c-0.6-0.4-1.4-0.8-2.2-1.1c-0.9-0.3-1.9-0.6-3-0.9c-1.2-0.2-2.5-0.4-4.1-0.4
		c-2.5,0-4.7,0.5-6.8,1.4c-2,0.9-3.8,2.2-5.3,4c-1.5,1.7-2.6,3.9-3.4,6.4c-0.8,2.5-1.2,5.4-1.2,8.7c0,3.3,0.4,6.2,1.3,8.8
		c0.9,2.6,2.1,4.7,3.7,6.4s3.3,3.1,5.4,4c2.1,0.9,4.3,1.4,6.6,1.4c1.3,0,2.6-0.1,3.7-0.2c1.1-0.1,2.2-0.4,3.1-0.7
		c1-0.3,1.9-0.7,2.7-1.2c0.8-0.5,1.7-1.2,2.6-2c0.4-0.3,0.7-0.5,1.1-0.7S365.5,48.4,366,48.4z"/>
	<path class="st0" d="M436.8,0.8V65h-15V37.9h-26V65h-15V0.8h15v26.8h26V0.8H436.8z"/>
	<path class="st0" d="M465.1,12.3v15h20.2v11h-20.2v15.3h26.3V65h-41.3V0.8h41.3v11.4H465.1z"/>
	<path class="st0" d="M553.6,65h-13.5c-2.5,0-4.3-0.9-5.4-2.8l-10.6-18.6c-0.5-0.8-1.1-1.4-1.7-1.7c-0.6-0.4-1.5-0.5-2.6-0.5H516V65
		h-14.9V0.8H522c4.6,0,8.6,0.5,11.9,1.4c3.3,1,5.9,2.3,8,4c2.1,1.7,3.6,3.7,4.5,6s1.4,4.8,1.4,7.6c0,2.1-0.3,4-0.8,5.9
		c-0.6,1.8-1.4,3.6-2.5,5.1c-1.1,1.6-2.4,3-4,4.2s-3.4,2.2-5.5,3c1,0.5,1.9,1.1,2.7,1.9s1.6,1.6,2.3,2.7L553.6,65z M522,31
		c2,0,3.7-0.3,5.2-0.8c1.4-0.5,2.6-1.2,3.5-2.1s1.6-2,2-3.2c0.4-1.2,0.6-2.5,0.6-3.9c0-2.8-0.9-5-2.8-6.6c-1.8-1.6-4.7-2.4-8.5-2.4
		h-6v19H522z"/>
	<path class="st1" d="M188.1,87.8L162.4,152h-13.5l-25.7-64.1h12c1.3,0,2.3,0.3,3.1,0.9c0.8,0.6,1.4,1.4,1.8,2.3l12.4,34.3
		c0.6,1.5,1.2,3.1,1.7,4.9c0.6,1.8,1.1,3.6,1.6,5.6c0.4-1.9,0.9-3.8,1.4-5.6c0.5-1.8,1.1-3.4,1.7-4.9l12.3-34.3
		c0.3-0.8,0.9-1.6,1.7-2.2c0.8-0.7,1.9-1,3.1-1H188.1z"/>
	<path class="st1" d="M248.2,152h-14.9c-1,0-1.8-0.2-2.4-0.7c-0.6-0.5-1.1-1-1.4-1.7l-12.8-22.4c-0.2,0.6-0.5,1.2-0.8,1.7l-12,20.8
		c-0.4,0.6-0.9,1.1-1.5,1.6c-0.6,0.5-1.3,0.7-2.2,0.7h-13.9l20.6-33l-19.8-31.1h14.9c1,0,1.7,0.1,2.1,0.4c0.5,0.2,0.9,0.7,1.2,1.3
		l12.8,21.6c0.1-0.4,0.3-0.7,0.5-1.1c0.2-0.4,0.4-0.7,0.6-1.1l11.2-19.2c0.4-0.6,0.8-1.1,1.3-1.4c0.5-0.3,1-0.4,1.7-0.4h14.3
		l-20.1,30.5L248.2,152z"/>
	<path class="st1" d="M292.5,140.1V152h-38.6V87.8h14.9v52.2H292.5z"/>
	<path class="st1" d="M357.6,152h-11.5c-1.3,0-2.3-0.3-3.1-0.9c-0.8-0.6-1.4-1.4-1.8-2.3l-3.8-11.2H313l-3.8,11.2
		c-0.3,0.8-0.9,1.6-1.7,2.2s-1.9,1-3.1,1h-11.6l24.8-64.1h15.2L357.6,152z M334,127.4l-5.9-17.6c-0.4-1.1-0.9-2.4-1.4-3.9
		c-0.5-1.5-1-3.1-1.5-4.9c-0.4,1.8-0.9,3.4-1.4,5c-0.5,1.5-1,2.8-1.4,4l-5.9,17.5H334z"/>
	<path class="st1" d="M418.6,87.8V152h-7.7c-1.1,0-2.1-0.2-2.9-0.5c-0.8-0.4-1.5-1-2.3-1.9l-30.2-38.2c0.1,1.1,0.2,2.3,0.2,3.3
		c0,1.1,0.1,2.1,0.1,3V152h-13.1V87.8h7.8c0.6,0,1.2,0,1.6,0.1c0.4,0.1,0.8,0.2,1.2,0.3c0.4,0.2,0.7,0.4,1,0.7
		c0.3,0.3,0.7,0.7,1.1,1.2l30.5,38.5c-0.1-1.2-0.2-2.4-0.3-3.6c-0.1-1.2-0.1-2.3-0.1-3.3V87.8H418.6z"/>
</g>
<path class="st8" d="M84.3,75.8h-12V35.4c0-11.5-9.4-20.9-20.9-20.9s-20.9,9.4-20.9,20.9v40.5h-12V35.4c0-18.2,14.8-32.9,32.9-32.9
	s32.9,14.8,32.9,32.9V75.8z"/>
<g>
	<circle class="st2" cx="51.4" cy="101.2" r="47.8"/>
	<g>
		<circle class="st8" cx="51.4" cy="93.3" r="14"/>
		<polygon class="st8" points="63.1,123.1 39.7,123.1 45.5,99.6 57.3,99.6 		"/>
	</g>
</g>
</svg>
