<?xml version="1.0" encoding="utf-8"?>
<!-- Generator: Adobe Illustrator 21.1.0, SVG Export Plug-In . SVG Version: 6.00 Build 0)  -->
<svg version="1.1" id="Layer_1" xmlns="http://www.w3.org/2000/svg" xmlns:xlink="http://www.w3.org/1999/xlink" x="0px" y="0px"
	 viewBox="0 0 934.9 152" style="enable-background:new 0 0 934.9 152;" xml:space="preserve">
<style type="text/css">
	.st0{fill:none;stroke:#334851;stroke-width:7.6974;stroke-miterlimit:10;}
	.st1{fill:none;stroke:#BDC3C7;stroke-width:5;stroke-miterlimit:10;}
	.st2{fill:#CCD1D3;}
	.st3{fill:#99A3A8;}
	.st4{fill:none;stroke:#A3ABAF;stroke-width:5;stroke-linecap:round;stroke-linejoin:round;stroke-miterlimit:10;}
	.st5{fill:#3D3D3D;}
	.st6{fill:#0075A8;}
	.st7{fill:#B3C78F;}
	.st8{fill:none;stroke:#CCD1D3;stroke-miterlimit:10;}
	.st9{fill:none;stroke:#CCD1D3;stroke-width:1.893;stroke-miterlimit:10;}
	.st10{fill:#F15354;}
	.st11{fill:#A3ABAF;}
	.st12{fill:#3498DB;}
	.st13{fill:#2980B9;}
	.st14{fill:#E67E22;}
	.st15{fill:#D35401;}
	.st16{fill:#F1C40F;}
	.st17{fill:#E49701;}
	.st18{fill:#EADF5A;}
	.st19{fill:#D7C320;}
	.st20{fill:#34495E;}
	.st21{fill:#2C3E50;}
	.st22{fill:#2B2B2B;}
	.st23{fill:#262626;}
	.st24{fill:#3A6F81;}
	.st25{fill:#356272;}
	.st26{fill:#00558B;}
	.st27{fill:#27AE60;}
	.st28{fill:#169242;}
	.st29{fill:#A5C63B;}
	.st30{fill:#8EB021;}
	.st31{fill:#ECF0F1;}
	.st32{fill:#BDC3C7;}
	.st33{fill:#95A5A6;}
	.st34{fill:#7F8C8D;}
	.st35{fill:#E74C3C;}
	.st36{fill:#C0392B;}
	.st37{fill:#EA3738;}
	.st38{fill:#78C9CF;}
	.st39{fill:#389EA8;}
	.st40{fill:#2D8490;}
	.st41{fill:#1A6470;}
	.st42{fill:#21364A;}
	.st43{fill:#040B15;}
	.st44{fill:#66767C;}
	.st45{fill:#334851;}
	.st46{fill:#5C686F;}
	.st47{fill:#29373C;}
	.st48{fill:#0A141A;}
	.st49{fill:#FFFFFF;}
	.st50{fill:#0D5E8C;}
	.st51{fill:#0071BC;}
	.st52{fill:#808080;stroke:#000000;stroke-width:0.5;stroke-miterlimit:10;}
	.st53{fill:#DFDFDF;stroke:#000000;stroke-width:0.5;stroke-miterlimit:10;}
	.st54{stroke:#000000;stroke-width:0.5;stroke-miterlimit:10;}
	.st55{fill:none;stroke:#A3ABAF;stroke-width:12;stroke-miterlimit:10;}
	.st56{fill:none;stroke:#F15354;stroke-width:0.4376;stroke-miterlimit:10;}
	.st57{fill:none;stroke:#F15354;stroke-miterlimit:10;}
	.st58{fill:none;stroke:#3498DB;stroke-width:15;stroke-linecap:square;stroke-miterlimit:10;}
	.st59{fill:none;stroke:#A3ABAF;stroke-width:9;stroke-miterlimit:10;}
	.st60{opacity:0.5;fill:url(#SVGID_1_);}
	.st61{clip-path:url(#SVGID_3_);enable-background:new    ;}
	.st62{fill:#D3AC0D;}
	.st63{fill:#B5930B;}
	.st64{opacity:0.5;fill:url(#SVGID_4_);}
	.st65{clip-path:url(#SVGID_6_);enable-background:new    ;}
	.st66{opacity:0.5;fill:url(#SVGID_7_);}
	.st67{clip-path:url(#SVGID_9_);enable-background:new    ;}
	.st68{opacity:0.5;fill:url(#SVGID_10_);}
	.st69{clip-path:url(#SVGID_12_);enable-background:new    ;}
	.st70{fill:#58D68D;}
	.st71{fill:#2ECC71;}
	.st72{fill:none;stroke:#2ECC71;stroke-width:1.1621;stroke-miterlimit:10;}
	.st73{fill:none;stroke:#F1C40F;stroke-width:1.1621;stroke-miterlimit:10;}
	.st74{fill:none;stroke:#0075A8;stroke-width:1.1621;stroke-miterlimit:10;}
	.st75{fill:none;stroke:#BDC3C7;stroke-width:10;stroke-miterlimit:10;}
	.st76{fill:none;stroke:#A3ABAF;stroke-width:10;stroke-miterlimit:10;}
	.st77{opacity:0.2;fill:#78C9CF;}
	.st78{fill:none;stroke:#0075A8;stroke-miterlimit:10;}
	.st79{fill:#5D5D5D;}
	.st80{fill:none;stroke:#99A3A8;stroke-miterlimit:10;}
	.st81{fill:none;stroke:#0075A8;stroke-width:1.8275;stroke-miterlimit:10;}
	.st82{opacity:0.7;}
	.st83{fill:none;stroke:#3A6F81;stroke-width:10;stroke-miterlimit:10;}
	.st84{fill:none;stroke:#EADF5A;stroke-width:8;stroke-miterlimit:10;}
	.st85{fill:none;stroke:#EADF5A;stroke-width:5;stroke-miterlimit:10;}
	.st86{fill:none;stroke:#2980B9;stroke-width:4.5153;stroke-miterlimit:10;}
	.st87{fill:none;stroke:#EADF5A;stroke-width:3.6413;stroke-miterlimit:10;}
	.st88{fill:none;stroke:#78C9CF;stroke-width:4.5153;stroke-miterlimit:10;}
	.st89{fill:none;stroke:#A5C63B;stroke-width:10;stroke-linecap:round;stroke-linejoin:round;stroke-miterlimit:10;}
	.st90{fill:#D6EAF8;}
	.st91{fill:#85C1E9;}
	.st92{fill:#CCCCCC;}
	.st93{fill:#B3B3B3;}
	.st94{opacity:0.2;}
	.st95{fill:url(#SVGID_13_);}
	.st96{fill:url(#SVGID_14_);}
	.st97{fill:#4D4D4D;}
	.st98{fill:#333333;}
	.st99{fill:#1A1A1A;}
	.st100{fill:none;}
	.st101{opacity:0.5;fill:url(#SVGID_15_);}
	.st102{fill:#E6E6E6;}
	.st103{fill:url(#SVGID_16_);}
	.st104{fill:url(#SVGID_17_);}
	.st105{fill:#666666;}
	.st106{fill:#F2F2F2;}
	.st107{fill:none;stroke:#2980B9;stroke-width:3.0329;stroke-miterlimit:10;}
	.st108{fill:none;stroke:#2980B9;stroke-width:4;stroke-miterlimit:10;stroke-dasharray:1,6;}
	.st109{fill:none;stroke:#78C9CF;stroke-width:3.0329;stroke-miterlimit:10;}
	.st110{fill:none;stroke:#78C9CF;stroke-width:3;stroke-miterlimit:10;}
	.st111{fill:none;stroke:#34495E;stroke-miterlimit:10;}
</style>
<g>
	<path class="st5" d="M239.7,65h-13.5c-2.5,0-4.3-0.9-5.4-2.8l-10.6-18.6c-0.5-0.8-1.1-1.4-1.7-1.7c-0.6-0.4-1.5-0.5-2.6-0.5h-3.8
		V65h-14.9V0.8h20.9c4.6,0,8.6,0.5,11.9,1.4s5.9,2.3,8,4c2.1,1.7,3.6,3.7,4.5,6c0.9,2.3,1.4,4.8,1.4,7.6c0,2.1-0.3,4-0.8,5.9
		s-1.4,3.6-2.5,5.1c-1.1,1.6-2.4,3-4,4.2c-1.6,1.2-3.4,2.2-5.5,3c1,0.5,1.9,1.1,2.7,1.9c0.8,0.7,1.6,1.6,2.3,2.7L239.7,65z
		 M208.1,31c2,0,3.7-0.3,5.2-0.8c1.4-0.5,2.6-1.2,3.5-2.1c0.9-0.9,1.6-2,2-3.2c0.4-1.2,0.6-2.5,0.6-3.9c0-2.8-0.9-5-2.8-6.6
		c-1.8-1.6-4.7-2.4-8.5-2.4h-6v19H208.1z"/>
	<path class="st5" d="M298.2,65h-11.5c-1.3,0-2.3-0.3-3.1-0.9c-0.8-0.6-1.4-1.4-1.8-2.3l-3.8-11.2h-24.4l-3.8,11.2
		c-0.3,0.8-0.9,1.6-1.7,2.2c-0.8,0.7-1.9,1-3.1,1h-11.6l24.8-64.1h15.2L298.2,65z M274.5,40.4l-5.9-17.6c-0.4-1.1-0.9-2.4-1.4-3.9
		c-0.5-1.5-1-3.1-1.5-4.9c-0.4,1.8-0.9,3.4-1.4,5s-1,2.8-1.4,4L257,40.4H274.5z"/>
	<path class="st5" d="M357.4,0.8V65h-7.7c-1.1,0-2.1-0.2-2.9-0.5c-0.8-0.4-1.5-1-2.3-1.9l-30.2-38.2c0.1,1.1,0.2,2.3,0.2,3.3
		c0,1.1,0.1,2.1,0.1,3V65h-13.1V0.8h7.8c0.6,0,1.2,0,1.6,0.1c0.4,0.1,0.8,0.2,1.2,0.3c0.4,0.2,0.7,0.4,1,0.7
		c0.3,0.3,0.7,0.7,1.1,1.2l30.5,38.5c-0.1-1.2-0.2-2.4-0.3-3.6c-0.1-1.2-0.1-2.3-0.1-3.3V0.8H357.4z"/>
	<path class="st5" d="M409.4,48.4c0.4,0,0.7,0.1,1.1,0.2c0.4,0.1,0.7,0.4,1,0.7l5.9,6.2c-2.6,3.4-5.8,5.9-9.7,7.6
		c-3.9,1.7-8.5,2.6-13.8,2.6c-4.9,0-9.2-0.8-13.1-2.5c-3.9-1.7-7.1-3.9-9.8-6.9c-2.7-2.9-4.7-6.4-6.2-10.4s-2.2-8.4-2.2-13
		c0-4.8,0.8-9.2,2.3-13.2c1.6-4,3.7-7.5,6.6-10.4c2.8-2.9,6.2-5.2,10.1-6.8c3.9-1.6,8.3-2.4,13-2.4c2.4,0,4.7,0.2,6.8,0.6
		c2.1,0.4,4.1,1,6,1.8c1.8,0.7,3.5,1.7,5.1,2.7c1.6,1.1,2.9,2.2,4.1,3.4l-5,6.7c-0.3,0.4-0.7,0.8-1.1,1.1c-0.4,0.3-1.1,0.5-1.8,0.5
		c-0.5,0-1-0.1-1.5-0.4c-0.5-0.2-1-0.5-1.5-0.9c-0.5-0.3-1.1-0.7-1.7-1.1c-0.6-0.4-1.4-0.8-2.2-1.1c-0.9-0.3-1.9-0.6-3-0.9
		c-1.2-0.2-2.5-0.4-4.1-0.4c-2.5,0-4.7,0.5-6.8,1.4c-2,0.9-3.8,2.2-5.3,4c-1.5,1.7-2.6,3.9-3.4,6.4c-0.8,2.5-1.2,5.4-1.2,8.7
		c0,3.3,0.4,6.2,1.3,8.8c0.9,2.6,2.1,4.7,3.7,6.4s3.3,3.1,5.4,4c2.1,0.9,4.3,1.4,6.6,1.4c1.3,0,2.6-0.1,3.7-0.2
		c1.1-0.1,2.2-0.4,3.1-0.7c1-0.3,1.9-0.7,2.7-1.2c0.8-0.5,1.7-1.2,2.6-2c0.4-0.3,0.7-0.5,1.1-0.7S408.9,48.4,409.4,48.4z"/>
	<path class="st5" d="M475.8,0.8V65h-15V37.9h-26V65h-15V0.8h15v26.8h26V0.8H475.8z"/>
	<path class="st5" d="M499.7,12.3v15h20.2v11h-20.2v15.3H526V65h-41.3V0.8H526v11.4H499.7z"/>
	<path class="st5" d="M583.8,65h-13.5c-2.5,0-4.3-0.9-5.4-2.8l-10.6-18.6c-0.5-0.8-1.1-1.4-1.7-1.7c-0.6-0.4-1.5-0.5-2.6-0.5h-3.8
		V65h-14.9V0.8h20.9c4.6,0,8.6,0.5,11.9,1.4c3.3,1,5.9,2.3,8,4c2.1,1.7,3.6,3.7,4.5,6s1.4,4.8,1.4,7.6c0,2.1-0.3,4-0.8,5.9
		c-0.6,1.8-1.4,3.6-2.5,5.1c-1.1,1.6-2.4,3-4,4.2s-3.4,2.2-5.5,3c1,0.5,1.9,1.1,2.7,1.9s1.6,1.6,2.3,2.7L583.8,65z M552.2,31
		c2,0,3.7-0.3,5.2-0.8c1.4-0.5,2.6-1.2,3.5-2.1s1.6-2,2-3.2c0.4-1.2,0.6-2.5,0.6-3.9c0-2.8-0.9-5-2.8-6.6c-1.8-1.6-4.7-2.4-8.5-2.4
		h-6v19H552.2z"/>
	<path class="st6" d="M222.6,100.9c-0.4,0.7-0.9,1.2-1.4,1.6s-1.1,0.5-1.9,0.5c-0.7,0-1.4-0.2-2.2-0.6c-0.8-0.4-1.7-0.9-2.6-1.4
		s-2.1-1-3.4-1.4c-1.3-0.4-2.7-0.6-4.3-0.6c-2.8,0-4.9,0.6-6.2,1.8c-1.4,1.2-2,2.8-2,4.8c0,1.3,0.4,2.4,1.2,3.2s1.9,1.6,3.2,2.2
		c1.3,0.6,2.9,1.2,4.6,1.7c1.7,0.5,3.5,1.1,5.3,1.7c1.8,0.6,3.5,1.4,5.3,2.2s3.2,1.9,4.6,3.3c1.3,1.3,2.4,2.9,3.2,4.8
		c0.8,1.9,1.2,4.2,1.2,6.8c0,3-0.5,5.7-1.5,8.3c-1,2.6-2.5,4.8-4.5,6.8c-2,1.9-4.4,3.4-7.2,4.5c-2.9,1.1-6.1,1.7-9.7,1.7
		c-2,0-4-0.2-6.1-0.6c-2.1-0.4-4.1-1-6-1.7c-1.9-0.7-3.8-1.6-5.5-2.7c-1.7-1-3.2-2.2-4.4-3.4l4.4-7c0.4-0.5,0.8-0.9,1.4-1.3
		c0.6-0.3,1.2-0.5,1.9-0.5c0.9,0,1.8,0.3,2.7,0.8c0.9,0.6,1.9,1.2,3,1.8c1.1,0.7,2.4,1.3,3.9,1.8c1.5,0.6,3.2,0.8,5.2,0.8
		c2.7,0,4.8-0.6,6.3-1.8c1.5-1.2,2.2-3.1,2.2-5.7c0-1.5-0.4-2.7-1.2-3.7c-0.8-0.9-1.9-1.7-3.2-2.3s-2.9-1.2-4.6-1.6
		c-1.7-0.5-3.4-1-5.2-1.6c-1.8-0.6-3.5-1.3-5.2-2.1c-1.7-0.8-3.2-1.9-4.6-3.3c-1.3-1.4-2.4-3.1-3.2-5.1c-0.8-2-1.2-4.6-1.2-7.5
		c0-2.4,0.5-4.8,1.5-7s2.4-4.3,4.3-6.1c1.9-1.8,4.2-3.2,6.9-4.3c2.7-1.1,5.9-1.6,9.4-1.6c2,0,3.9,0.2,5.7,0.5
		c1.9,0.3,3.6,0.8,5.3,1.4c1.7,0.6,3.2,1.3,4.7,2.2c1.5,0.8,2.8,1.8,3.9,2.8L222.6,100.9z"/>
	<path class="st6" d="M248.7,99.3v15h20.2v11h-20.2v15.3H275V152h-41.3V87.8H275v11.4H248.7z"/>
	<path class="st6" d="M323.9,135.4c0.4,0,0.7,0.1,1.1,0.2c0.4,0.1,0.7,0.4,1,0.7l5.9,6.2c-2.6,3.4-5.8,5.9-9.7,7.6
		s-8.5,2.6-13.8,2.6c-4.9,0-9.2-0.8-13.1-2.5c-3.9-1.7-7.1-3.9-9.8-6.9c-2.7-2.9-4.7-6.4-6.2-10.4s-2.2-8.4-2.2-13
		c0-4.8,0.8-9.2,2.3-13.2c1.6-4,3.7-7.5,6.6-10.4c2.8-2.9,6.2-5.2,10.1-6.8c3.9-1.6,8.3-2.4,13-2.4c2.4,0,4.7,0.2,6.8,0.6
		c2.1,0.4,4.1,1,6,1.8c1.8,0.7,3.5,1.7,5.1,2.7s2.9,2.2,4.1,3.4l-5,6.7c-0.3,0.4-0.7,0.8-1.1,1.1c-0.4,0.3-1.1,0.5-1.8,0.5
		c-0.5,0-1-0.1-1.5-0.4c-0.5-0.2-1-0.5-1.5-0.9c-0.5-0.3-1.1-0.7-1.7-1.1c-0.6-0.4-1.4-0.8-2.2-1.1c-0.9-0.3-1.9-0.6-3-0.9
		c-1.2-0.2-2.5-0.4-4.1-0.4c-2.5,0-4.7,0.5-6.8,1.4c-2,0.9-3.8,2.2-5.3,4c-1.5,1.7-2.6,3.9-3.4,6.4s-1.2,5.4-1.2,8.7
		c0,3.3,0.4,6.2,1.3,8.8c0.9,2.6,2.1,4.7,3.7,6.4s3.3,3.1,5.4,4c2.1,0.9,4.3,1.4,6.6,1.4c1.3,0,2.6-0.1,3.7-0.2
		c1.1-0.1,2.2-0.4,3.1-0.7c1-0.3,1.9-0.7,2.7-1.2c0.9-0.5,1.7-1.2,2.6-2c0.4-0.3,0.7-0.5,1.1-0.7C323,135.5,323.4,135.4,323.9,135.4
		z"/>
	<path class="st6" d="M388.6,152h-13.5c-2.5,0-4.3-0.9-5.4-2.8l-10.6-18.6c-0.5-0.8-1.1-1.4-1.7-1.7c-0.6-0.4-1.5-0.5-2.6-0.5H351
		V152h-14.9V87.8H357c4.6,0,8.6,0.5,11.9,1.4s5.9,2.3,8,4c2.1,1.7,3.6,3.7,4.5,6s1.4,4.8,1.4,7.6c0,2.1-0.3,4-0.8,5.9
		c-0.6,1.8-1.4,3.6-2.5,5.1c-1.1,1.6-2.4,3-4,4.2s-3.4,2.2-5.5,3c1,0.5,1.9,1.1,2.7,1.9s1.6,1.6,2.3,2.7L388.6,152z M357,118
		c2,0,3.7-0.3,5.2-0.8c1.4-0.5,2.6-1.2,3.5-2.1c0.9-0.9,1.6-2,2-3.2c0.4-1.2,0.6-2.5,0.6-3.9c0-2.8-0.9-5-2.8-6.6
		c-1.8-1.6-4.7-2.4-8.5-2.4h-6v19H357z"/>
	<path class="st6" d="M406.8,99.3v15h20.2v11h-20.2v15.3h26.3V152h-41.3V87.8h41.3v11.4H406.8z"/>
	<path class="st6" d="M486.1,99.6h-18V152h-14.9V99.6h-18V87.8h51V99.6z"/>
	<path class="st6" d="M530.4,87.8c4.4,0,8.2,0.4,11.3,1.2s5.6,2,7.6,3.5c2,1.5,3.4,3.3,4.3,5.5c0.9,2.1,1.3,4.5,1.3,7.2
		c0,1.4-0.2,2.8-0.6,4.2c-0.4,1.3-1.1,2.6-1.9,3.7c-0.9,1.2-2,2.2-3.4,3.2c-1.4,1-3,1.8-5,2.5c4.2,1,7.3,2.7,9.4,5
		c2,2.3,3,5.3,3,8.9c0,2.7-0.5,5.3-1.6,7.6c-1.1,2.3-2.6,4.4-4.6,6.1c-2,1.7-4.6,3.1-7.5,4.1c-3,1-6.4,1.5-10.3,1.5h-25.6V87.8
		H530.4z M521.7,99v15.8h7.7c1.6,0,3.1-0.1,4.4-0.4c1.3-0.2,2.4-0.6,3.4-1.2s1.6-1.4,2.1-2.4c0.5-1,0.7-2.3,0.7-3.9
		c0-1.5-0.2-2.8-0.6-3.8c-0.4-1-1-1.8-1.8-2.4s-1.8-1.1-3-1.3c-1.2-0.3-2.7-0.4-4.3-0.4H521.7z M532.2,140.7c2,0,3.6-0.2,4.8-0.7
		c1.2-0.5,2.2-1.1,2.9-1.9s1.2-1.7,1.5-2.7s0.4-2,0.4-3c0-1.2-0.2-2.2-0.5-3.2c-0.3-0.9-0.8-1.7-1.6-2.4c-0.7-0.6-1.7-1.1-3-1.5
		c-1.2-0.4-2.8-0.5-4.7-0.5h-10.4v16H532.2z"/>
	<path class="st6" d="M616,152h-13.5c-2.5,0-4.3-0.9-5.4-2.8l-10.6-18.6c-0.5-0.8-1.1-1.4-1.7-1.7c-0.6-0.4-1.5-0.5-2.6-0.5h-3.8
		V152h-14.9V87.8h20.9c4.6,0,8.6,0.5,11.9,1.4c3.3,1,5.9,2.3,8,4c2.1,1.7,3.6,3.7,4.5,6s1.4,4.8,1.4,7.6c0,2.1-0.3,4-0.8,5.9
		c-0.6,1.8-1.4,3.6-2.5,5.1c-1.1,1.6-2.4,3-4,4.2s-3.4,2.2-5.5,3c1,0.5,1.9,1.1,2.7,1.9s1.6,1.6,2.3,2.7L616,152z M584.4,118
		c2,0,3.7-0.3,5.2-0.8c1.4-0.5,2.6-1.2,3.5-2.1s1.6-2,2-3.2c0.4-1.2,0.6-2.5,0.6-3.9c0-2.8-0.9-5-2.8-6.6c-1.8-1.6-4.7-2.4-8.5-2.4
		h-6v19H584.4z"/>
	<path class="st6" d="M634.2,152h-15V87.8h15V152z"/>
	<path class="st6" d="M702.6,119.9c0,4.6-0.8,8.9-2.4,12.8s-3.8,7.3-6.8,10.2c-2.9,2.9-6.4,5.1-10.5,6.7c-4.1,1.6-8.6,2.4-13.6,2.4
		h-24.9V87.8h24.9c5,0,9.5,0.8,13.6,2.4c4.1,1.6,7.6,3.8,10.5,6.7c2.9,2.8,5.2,6.2,6.8,10.1S702.6,115.3,702.6,119.9z M687.3,119.9
		c0-3.2-0.4-6-1.2-8.6c-0.8-2.6-2-4.7-3.5-6.5c-1.5-1.8-3.4-3.1-5.7-4.1c-2.2-1-4.8-1.4-7.6-1.4h-9.9v41.2h9.9
		c2.8,0,5.4-0.5,7.6-1.4c2.2-1,4.1-2.3,5.7-4.1c1.5-1.8,2.7-3.9,3.5-6.5S687.3,123.1,687.3,119.9z"/>
	<path class="st6" d="M740,118.7h22.8v27.1c-3.3,2.4-6.8,4.2-10.5,5.2s-7.6,1.6-11.6,1.6c-5.3,0-10.1-0.8-14.4-2.5
		c-4.3-1.7-8-3.9-11.1-6.9c-3.1-2.9-5.5-6.4-7.1-10.4c-1.7-4-2.5-8.4-2.5-13c0-4.8,0.8-9.2,2.4-13.2s3.9-7.5,6.8-10.4
		c2.9-2.9,6.5-5.2,10.7-6.8s8.9-2.4,14-2.4c2.7,0,5.2,0.2,7.5,0.7c2.3,0.4,4.5,1,6.5,1.8c2,0.8,3.8,1.7,5.4,2.7s3.1,2.2,4.4,3.4
		l-4.3,6.6c-0.7,1-1.5,1.7-2.6,1.9c-1.1,0.2-2.2,0-3.5-0.8c-1.2-0.7-2.3-1.3-3.3-1.8c-1-0.5-2.1-0.9-3.2-1.3
		c-1.1-0.3-2.2-0.6-3.4-0.7c-1.2-0.1-2.6-0.2-4-0.2c-2.8,0-5.3,0.5-7.5,1.5c-2.2,1-4.1,2.4-5.7,4.2c-1.6,1.8-2.8,3.9-3.6,6.4
		s-1.3,5.3-1.3,8.4c0,3.4,0.5,6.4,1.4,9.1c0.9,2.6,2.3,4.9,4,6.7c1.7,1.8,3.8,3.2,6.2,4.2c2.4,1,5,1.4,7.9,1.4
		c1.8,0,3.4-0.2,4.9-0.5c1.5-0.4,2.9-0.8,4.2-1.4v-9.7H743c-0.9,0-1.7-0.2-2.2-0.7s-0.8-1.1-0.8-1.9V118.7z"/>
	<path class="st6" d="M785.5,99.3v15h20.2v11h-20.2v15.3h26.3V152h-41.3V87.8h41.3v11.4H785.5z"/>
	<path class="st6" d="M891,87.8L865.3,152h-13.5l-25.7-64.1h12c1.3,0,2.3,0.3,3.1,0.9c0.8,0.6,1.4,1.4,1.8,2.3l12.4,34.3
		c0.6,1.5,1.2,3.1,1.7,4.9c0.6,1.8,1.1,3.6,1.6,5.6c0.4-1.9,0.9-3.8,1.4-5.6c0.5-1.8,1.1-3.4,1.7-4.9l12.3-34.3
		c0.3-0.8,0.9-1.6,1.7-2.2s1.9-1,3.1-1H891z"/>
	<path class="st6" d="M930.6,139.6c1.5,0,2.6,0.4,3.5,1.2c0.9,0.8,1.3,1.9,1.3,3.2v7.9h-45.1v-4.4c0-0.8,0.2-1.8,0.5-2.7
		s1-1.8,1.8-2.6l18.5-18.6c1.6-1.6,3-3.1,4.1-4.5c1.2-1.4,2.1-2.9,2.9-4.2c0.8-1.4,1.3-2.8,1.7-4.2c0.4-1.4,0.6-2.9,0.6-4.4
		c0-2.6-0.6-4.5-1.8-5.9c-1.2-1.4-3.1-2-5.6-2c-2,0-3.7,0.5-5.1,1.6c-1.4,1.1-2.4,2.4-2.9,4c-0.6,1.6-1.4,2.7-2.4,3.2
		s-2.4,0.6-4.3,0.4l-7.2-1.3c0.5-3.2,1.4-6,2.7-8.4s3-4.4,5-5.9c2-1.6,4.2-2.8,6.8-3.5c2.6-0.8,5.3-1.2,8.2-1.2c3.2,0,6,0.5,8.6,1.4
		c2.5,0.9,4.7,2.2,6.5,3.8c1.8,1.6,3.2,3.6,4.1,5.9c1,2.3,1.4,4.8,1.4,7.5c0,2.3-0.3,4.5-1,6.5c-0.7,2-1.6,3.9-2.7,5.7
		c-1.1,1.8-2.5,3.5-4,5.2c-1.5,1.7-3.1,3.4-4.8,5.1l-12.5,12.8c1.6-0.5,3.2-0.9,4.8-1.1c1.6-0.3,3-0.4,4.4-0.4H930.6z"/>
</g>
<g>
	<g>
		<path class="st2" d="M135.6,28.9h-0.4h-3.6h-0.4c0,22.1-18,40.1-40.1,40.1S50.9,51,50.9,28.9h-4C47,51,28.9,69,6.8,69v0.4V73v0.4
			H47v10.2h4V73.4h80.5v10.2h4V73.4h40.4V73v-3.6V69C153.6,69,135.6,51,135.6,28.9z M24.2,69.4C34.3,65.1,42.4,57.1,47,47.2v22.3
			H24.2z M50.9,47.2c4.5,9.9,12.7,18,22.7,22.3H50.9V47.2z M108.5,69.4c10.3-4.4,18.4-12.6,23-22.7v22.7H108.5z M135.3,69.4V46.7
			c4.5,10.2,12.7,18.3,23,22.7H135.3z"/>
	</g>
</g>
<path class="st110" d="M172.5,78.4c0,5.7-4.6,10.4-10.4,10.4c-5.7,0-10.4-4.6-10.4-10.4c0,5.7-4.6,10.4-10.4,10.4
	c-5.7,0-10.4-4.6-10.4-10.4c0,5.7-4.6,10.4-10.4,10.4s-10.4-4.6-10.4-10.4c0,5.7-4.6,10.4-10.4,10.4s-10.4-4.6-10.4-10.4
	c0,5.7-4.6,10.4-10.4,10.4S69,84.1,69,78.4c0,5.7-4.6,10.4-10.4,10.4s-10.4-4.6-10.4-10.4c0,5.7-4.6,10.4-10.4,10.4
	s-10.4-4.6-10.4-10.4c0,5.7-4.6,10.4-10.4,10.4S6.8,84.1,6.8,78.4"/>
<path class="st110" d="M121.5,122.5c-5.7,0-10.4-4.6-10.4-10.4c0,5.7-4.6,10.4-10.4,10.4s-10.4-4.6-10.4-10.4
	c0,5.7-4.6,10.4-10.4,10.4"/>
<path class="st111" d="M105.6,22.5c2,0,4.7,1.7,4.7,3.8c0-2,2.8-3.6,4.8-3.6"/>
<path class="st111" d="M97.3,26.4c2,0,4.7,1.7,4.7,3.8c0-2,2.8-3.6,4.8-3.6"/>
<path class="st111" d="M113.9,26.4c2,0,4.7,1.7,4.7,3.8c0-2,2.8-3.6,4.8-3.6"/>
<path class="st110" d="M48.2,105.6c-5.7,0-10.4-4.6-10.4-10.4c0,5.7-4.6,10.4-10.4,10.4S17.2,101,17.2,95.3
	c0,5.7-4.6,10.4-10.4,10.4"/>
</svg>
