<?xml version="1.0" encoding="utf-8"?>
<!-- Generator: Adobe Illustrator 19.2.1, SVG Export Plug-In . SVG Version: 6.00 Build 0)  -->
<svg version="1.1" id="Layer_1" xmlns="http://www.w3.org/2000/svg" xmlns:xlink="http://www.w3.org/1999/xlink" x="0px" y="0px"
	 viewBox="0 0 816 151.4" style="enable-background:new 0 0 816 151.4;" xml:space="preserve">
<style type="text/css">
	.st0{fill:#3D3D3D;}
	.st1{fill:#0075A8;}
	.st2{fill:#CCD1D3;}
	.st3{fill:#0D5E8C;}
	.st4{fill:#0071BC;}
	.st5{fill:#FFFFFF;}
	.st6{fill:#BDC3C7;}
	.st7{fill:#F15354;}
	.st8{fill:#A3ABAF;}
	.st9{fill:#58D68D;}
	.st10{fill:#2ECC71;}
	.st11{fill:#3498DB;}
	.st12{fill:#EADF5A;}
	.st13{fill:#F1C40F;}
	.st14{fill:#2D8490;}
	.st15{fill:#3A6F81;}
	.st16{fill:#ECF0F1;}
	.st17{opacity:0.2;fill:#78C9CF;}
</style>
<g>
	<path class="st0" d="M235.7,65h-13.5c-2.5,0-4.3-0.9-5.4-2.8l-10.6-18.6c-0.5-0.8-1.1-1.4-1.7-1.7c-0.6-0.4-1.5-0.5-2.6-0.5h-3.8
		V65h-14.9V0.8h20.9c4.6,0,8.6,0.5,11.9,1.4c3.3,1,5.9,2.3,8,4c2.1,1.7,3.6,3.7,4.5,6c0.9,2.3,1.4,4.8,1.4,7.6c0,2.1-0.3,4-0.8,5.9
		c-0.6,1.8-1.4,3.6-2.5,5.1c-1.1,1.6-2.4,3-4,4.2c-1.6,1.2-3.4,2.2-5.5,3c1,0.5,1.9,1.1,2.7,1.9c0.9,0.7,1.6,1.6,2.3,2.7L235.7,65z
		 M204.1,31c2,0,3.7-0.3,5.2-0.8c1.4-0.5,2.6-1.2,3.5-2.1c0.9-0.9,1.6-2,2-3.2c0.4-1.2,0.6-2.5,0.6-3.9c0-2.8-0.9-5-2.8-6.6
		c-1.8-1.6-4.7-2.4-8.5-2.4h-6v19H204.1z"/>
	<path class="st0" d="M298.6,65H287c-1.3,0-2.3-0.3-3.1-0.9c-0.8-0.6-1.4-1.4-1.8-2.3l-3.8-11.2H254l-3.8,11.2
		c-0.3,0.8-0.9,1.6-1.7,2.2c-0.8,0.7-1.9,1-3.1,1h-11.6l24.8-64.1h15.2L298.6,65z M274.9,40.4L269,22.9c-0.4-1.1-0.9-2.4-1.4-3.9
		c-0.5-1.5-1-3.1-1.5-4.9c-0.4,1.8-0.9,3.4-1.4,5c-0.5,1.5-1,2.8-1.4,4l-5.9,17.5H274.9z"/>
	<path class="st0" d="M362.2,0.8V65h-7.7c-1.1,0-2.1-0.2-2.9-0.5c-0.8-0.4-1.5-1-2.3-1.9l-30.2-38.2c0.1,1.1,0.2,2.3,0.2,3.3
		c0,1.1,0.1,2.1,0.1,3V65h-13.1V0.8h7.8c0.6,0,1.2,0,1.6,0.1s0.8,0.2,1.2,0.3c0.4,0.2,0.7,0.4,1,0.7s0.7,0.7,1.1,1.2l30.5,38.5
		c-0.1-1.2-0.2-2.4-0.3-3.6c-0.1-1.2-0.1-2.3-0.1-3.3V0.8H362.2z"/>
	<path class="st0" d="M418.6,48.4c0.4,0,0.7,0.1,1.1,0.2c0.4,0.1,0.7,0.4,1,0.7l5.9,6.2c-2.6,3.4-5.8,5.9-9.7,7.6s-8.5,2.6-13.8,2.6
		c-4.9,0-9.2-0.8-13.1-2.5c-3.9-1.7-7.1-3.9-9.8-6.9c-2.7-2.9-4.7-6.4-6.2-10.4c-1.4-4-2.2-8.4-2.2-13c0-4.8,0.8-9.2,2.3-13.2
		s3.7-7.5,6.6-10.4c2.8-2.9,6.2-5.2,10.1-6.8c3.9-1.6,8.3-2.4,13-2.4c2.4,0,4.7,0.2,6.8,0.6c2.1,0.4,4.1,1,6,1.8
		c1.8,0.7,3.5,1.7,5.1,2.7c1.6,1.1,2.9,2.2,4.1,3.4l-5,6.7c-0.3,0.4-0.7,0.8-1.1,1.1c-0.4,0.3-1.1,0.5-1.8,0.5c-0.5,0-1-0.1-1.5-0.4
		c-0.5-0.2-1-0.5-1.5-0.9c-0.5-0.3-1.1-0.7-1.7-1.1c-0.6-0.4-1.4-0.8-2.2-1.1c-0.9-0.3-1.9-0.6-3-0.9c-1.2-0.2-2.5-0.4-4.1-0.4
		c-2.5,0-4.7,0.5-6.8,1.4c-2,0.9-3.8,2.2-5.3,4c-1.5,1.7-2.6,3.9-3.4,6.4c-0.8,2.5-1.2,5.4-1.2,8.7c0,3.3,0.4,6.2,1.3,8.8
		c0.9,2.6,2.1,4.7,3.7,6.4s3.3,3.1,5.4,4c2.1,0.9,4.3,1.4,6.6,1.4c1.3,0,2.6-0.1,3.7-0.2c1.1-0.1,2.2-0.4,3.1-0.7
		c1-0.3,1.9-0.7,2.7-1.2c0.8-0.5,1.7-1.2,2.6-2c0.4-0.3,0.7-0.5,1.1-0.7S418.1,48.4,418.6,48.4z"/>
	<path class="st0" d="M489.4,0.8V65h-15V37.9h-26V65h-15V0.8h15v26.8h26V0.8H489.4z"/>
	<path class="st0" d="M517.7,12.3v15h20.2v11h-20.2v15.3H544V65h-41.3V0.8H544v11.4H517.7z"/>
	<path class="st0" d="M606.2,65h-13.5c-2.5,0-4.3-0.9-5.4-2.8l-10.6-18.6c-0.5-0.8-1.1-1.4-1.7-1.7c-0.6-0.4-1.5-0.5-2.6-0.5h-3.8
		V65h-14.9V0.8h20.9c4.6,0,8.6,0.5,11.9,1.4c3.3,1,5.9,2.3,8,4c2.1,1.7,3.6,3.7,4.5,6s1.4,4.8,1.4,7.6c0,2.1-0.3,4-0.8,5.9
		c-0.6,1.8-1.4,3.6-2.5,5.1c-1.1,1.6-2.4,3-4,4.2s-3.4,2.2-5.5,3c1,0.5,1.9,1.1,2.7,1.9s1.6,1.6,2.3,2.7L606.2,65z M574.6,31
		c2,0,3.7-0.3,5.2-0.8c1.4-0.5,2.6-1.2,3.5-2.1s1.6-2,2-3.2c0.4-1.2,0.6-2.5,0.6-3.9c0-2.8-0.9-5-2.8-6.6c-1.8-1.6-4.7-2.4-8.5-2.4
		h-6v19H574.6z"/>
	<path class="st1" d="M239.2,87.8V152h-15v-27.1h-26V152h-15V87.8h15v26.8h26V87.8H239.2z"/>
	<path class="st1" d="M266.5,99.3v15h20.2v11h-20.2v15.3h26.3V152h-41.3V87.8h41.3v11.4H266.5z"/>
	<path class="st1" d="M359.5,152H348c-1.3,0-2.3-0.3-3.1-0.9c-0.8-0.6-1.4-1.4-1.8-2.3l-3.8-11.2h-24.4l-3.8,11.2
		c-0.3,0.8-0.9,1.6-1.7,2.2c-0.8,0.7-1.9,1-3.1,1h-11.6l24.8-64.1h15.2L359.5,152z M335.9,127.4l-5.9-17.6c-0.4-1.1-0.9-2.4-1.4-3.9
		c-0.5-1.5-1-3.1-1.5-4.9c-0.4,1.8-0.9,3.4-1.4,5c-0.5,1.5-1,2.8-1.4,4l-5.9,17.5H335.9z"/>
	<path class="st1" d="M403.2,140.1V152h-38.6V87.8h14.9v52.2H403.2z"/>
	<path class="st1" d="M449.4,99.6h-18V152h-14.9V99.6h-18V87.8h51V99.6z"/>
	<path class="st1" d="M512.9,87.8V152h-15v-27.1h-26V152h-15V87.8h15v26.8h26V87.8H512.9z"/>
	<path class="st1" d="M568.5,135.4c0.4,0,0.7,0.1,1.1,0.2c0.4,0.1,0.7,0.4,1,0.7l5.9,6.2c-2.6,3.4-5.8,5.9-9.7,7.6
		s-8.5,2.6-13.8,2.6c-4.9,0-9.2-0.8-13.1-2.5c-3.9-1.7-7.1-3.9-9.8-6.9c-2.7-2.9-4.7-6.4-6.2-10.4c-1.4-4-2.2-8.4-2.2-13
		c0-4.8,0.8-9.2,2.3-13.2s3.7-7.5,6.6-10.4c2.8-2.9,6.2-5.2,10.1-6.8c3.9-1.6,8.3-2.4,13-2.4c2.4,0,4.7,0.2,6.8,0.6
		c2.1,0.4,4.1,1,6,1.8c1.8,0.7,3.5,1.7,5.1,2.7c1.6,1.1,2.9,2.2,4.1,3.4l-5,6.7c-0.3,0.4-0.7,0.8-1.1,1.1c-0.4,0.3-1.1,0.5-1.8,0.5
		c-0.5,0-1-0.1-1.5-0.4c-0.5-0.2-1-0.5-1.5-0.9c-0.5-0.3-1.1-0.7-1.7-1.1c-0.6-0.4-1.4-0.8-2.2-1.1c-0.9-0.3-1.9-0.6-3-0.9
		c-1.2-0.2-2.5-0.4-4.1-0.4c-2.5,0-4.7,0.5-6.8,1.4c-2,0.9-3.8,2.2-5.3,4c-1.5,1.7-2.6,3.9-3.4,6.4c-0.8,2.5-1.2,5.4-1.2,8.7
		c0,3.3,0.4,6.2,1.3,8.8c0.9,2.6,2.1,4.7,3.7,6.4s3.3,3.1,5.4,4c2.1,0.9,4.3,1.4,6.6,1.4c1.3,0,2.6-0.1,3.7-0.2
		c1.1-0.1,2.2-0.4,3.1-0.7c1-0.3,1.9-0.7,2.7-1.2c0.8-0.5,1.7-1.2,2.6-2c0.4-0.3,0.7-0.5,1.1-0.7S568,135.4,568.5,135.4z"/>
	<path class="st1" d="M638.9,87.8V152h-15v-27.1h-26V152h-15V87.8h15v26.8h26V87.8H638.9z"/>
	<path class="st1" d="M666.3,99.3v15h20.2v11h-20.2v15.3h26.3V152h-41.3V87.8h41.3v11.4H666.3z"/>
	<path class="st1" d="M743.6,135.4c0.4,0,0.7,0.1,1.1,0.2c0.4,0.1,0.7,0.4,1,0.7l5.9,6.2c-2.6,3.4-5.8,5.9-9.7,7.6
		s-8.5,2.6-13.8,2.6c-4.9,0-9.2-0.8-13.1-2.5c-3.9-1.7-7.1-3.9-9.8-6.9c-2.7-2.9-4.7-6.4-6.2-10.4c-1.4-4-2.2-8.4-2.2-13
		c0-4.8,0.8-9.2,2.3-13.2s3.7-7.5,6.6-10.4c2.8-2.9,6.2-5.2,10.1-6.8c3.9-1.6,8.3-2.4,13-2.4c2.4,0,4.7,0.2,6.8,0.6
		c2.1,0.4,4.1,1,6,1.8c1.8,0.7,3.5,1.7,5.1,2.7c1.6,1.1,2.9,2.2,4.1,3.4l-5,6.7c-0.3,0.4-0.7,0.8-1.1,1.1c-0.4,0.3-1.1,0.5-1.8,0.5
		c-0.5,0-1-0.1-1.5-0.4c-0.5-0.2-1-0.5-1.5-0.9c-0.5-0.3-1.1-0.7-1.7-1.1c-0.6-0.4-1.4-0.8-2.2-1.1c-0.9-0.3-1.9-0.6-3-0.9
		c-1.2-0.2-2.5-0.4-4.1-0.4c-2.5,0-4.7,0.5-6.8,1.4c-2,0.9-3.8,2.2-5.3,4c-1.5,1.7-2.6,3.9-3.4,6.4c-0.8,2.5-1.2,5.4-1.2,8.7
		c0,3.3,0.4,6.2,1.3,8.8c0.9,2.6,2.1,4.7,3.7,6.4s3.3,3.1,5.4,4c2.1,0.9,4.3,1.4,6.6,1.4c1.3,0,2.6-0.1,3.7-0.2
		c1.1-0.1,2.2-0.4,3.1-0.7c1-0.3,1.9-0.7,2.7-1.2c0.8-0.5,1.7-1.2,2.6-2c0.4-0.3,0.7-0.5,1.1-0.7S743.2,135.4,743.6,135.4z"/>
	<path class="st1" d="M773,113.8h2.4c2.2,0,3.8-0.7,4.8-2.1l14.4-20.9c0.9-1.1,1.8-1.9,2.8-2.3s2.2-0.6,3.7-0.6h12.9l-19,25.9
		c-1.3,1.8-2.8,3.1-4.4,3.9c1.1,0.4,2.1,1,3,1.7s1.8,1.7,2.6,2.9l19.4,29.7h-13.3c-0.9,0-1.6-0.1-2.2-0.2c-0.6-0.1-1.1-0.3-1.6-0.5
		c-0.4-0.2-0.8-0.5-1.1-0.9c-0.3-0.3-0.6-0.7-0.9-1.2l-14.5-22.3c-0.5-0.8-1.2-1.4-2-1.7c-0.8-0.3-1.9-0.5-3.3-0.5H773V152h-14.9
		V87.8H773V113.8z"/>
</g>
<g>
	<g>
		<g>
			<g>
				<path class="st3" d="M152.2,52l-4.4-26.1c-1.4-8.4-4.9-15.3-7.4-15.3c-2.6,0-4.9,6.9-4.9,15.4v6.8c0,8.5-6.5,14.5-15,14.5h-6.8
					c-0.5,0-1.1,1-2.5,1v18.7c1.4,0,1.9,0.4,2.5,0.4h25.7C147.8,67.3,153.6,60.3,152.2,52z"/>
			</g>
		</g>
		<g>
			<path class="st3" d="M1.1,52l4.4-26.1c1.4-8.4,4.8-15.3,7.3-15.3s4.9,6.9,4.9,15.4v6.8c-0.1,8.5,6.6,14.5,15.1,14.5h6.8
				c0.5,0,0.9,1,1.6,1v18.7c-0.7,0-1.1,0.4-1.6,0.4H13.9C5.5,67.3-0.4,60.3,1.1,52z"/>
		</g>
		<path class="st4" d="M112.6,133.2c0,4.2-3.4,7.6-7.6,7.6H47.4c-4.2,0-7.6-3.4-7.6-7.6V36.8c0-4.2,3.4-7.6,7.6-7.6H105
			c4.2,0,7.6,3.4,7.6,7.6V133.2z"/>
	</g>
	<g>
		<path class="st5" d="M120.7,128.6L97.1,105c-1.3-1.3-3.4-1.3-4.6,0c-1.3,1.3-1.3,3.4,0,4.6l23.6,23.6c-0.5,2,0.1,4.2,1.7,5.8
			c2.4,2.4,6.3,2.4,8.8,0s2.4-6.3,0-8.8C125,128.7,122.7,128.1,120.7,128.6z"/>
		<path class="st6" d="M94.8,104c0.8,0,1.7,0.3,2.3,1l23.6,23.6c0.5-0.1,0.9-0.2,1.4-0.2c1.6,0,3.2,0.6,4.4,1.8
			c2.4,2.4,2.4,6.3,0,8.8c-1.2,1.2-2.8,1.8-4.4,1.8s-3.2-0.6-4.4-1.8c-1.6-1.6-2.1-3.8-1.7-5.8l-23.6-23.6c-1.3-1.3-1.3-3.4,0-4.6
			C93.1,104.4,94,104,94.8,104 M94.8,102c-1.4,0-2.7,0.5-3.7,1.5c-2.1,2.1-2.1,5.4,0,7.5l22.9,22.9c-0.2,2.4,0.6,4.8,2.4,6.5
			c1.5,1.5,3.6,2.4,5.8,2.4c2.2,0,4.2-0.9,5.8-2.4c1.5-1.5,2.4-3.6,2.4-5.8c0-2.2-0.9-4.2-2.4-5.8c-1.5-1.5-3.6-2.4-5.8-2.4
			c-0.2,0-0.5,0-0.7,0l-22.9-22.9C97.6,102.6,96.2,102,94.8,102L94.8,102z"/>
	</g>
	<g>
		<path class="st7" d="M122.1,139c-1.2,0-2.3-0.5-3.1-1.3c-1.1-1.1-1.5-2.6-1.2-4.1l0.2-1l-11.5-11.5l2-2l11.5,11.5l1-0.2
			c0.3-0.1,0.7-0.1,1-0.1c1.2,0,2.2,0.5,3.1,1.3c1.7,1.7,1.7,4.5,0,6.2C124.4,138.5,123.3,139,122.1,139z"/>
	</g>
</g>
</svg>
