<?xml version="1.0" encoding="utf-8"?>
<!-- Generator: Adobe Illustrator 19.2.1, SVG Export Plug-In . SVG Version: 6.00 Build 0)  -->
<svg version="1.1" id="Layer_1" xmlns="http://www.w3.org/2000/svg" xmlns:xlink="http://www.w3.org/1999/xlink" x="0px" y="0px"
	 viewBox="0 0 620 151.4" style="enable-background:new 0 0 620 151.4;" xml:space="preserve">
<style type="text/css">
	.st0{fill:#99A3A8;}
	.st1{fill:#CCD1D3;}
	.st2{fill:none;stroke:#A3ABAF;stroke-width:5;stroke-linecap:round;stroke-linejoin:round;stroke-miterlimit:10;}
	.st3{fill:#3D3D3D;}
	.st4{fill:#0075A8;}
	.st5{fill:#B3C78F;}
	.st6{fill:none;stroke:#CCD1D3;stroke-miterlimit:10;}
	.st7{fill:none;stroke:#CCD1D3;stroke-width:1.893;stroke-miterlimit:10;}
	.st8{fill:#F15354;}
	.st9{fill:#A3ABAF;}
	.st10{fill:#3498DB;}
	.st11{fill:#2980B9;}
	.st12{fill:#E67E22;}
	.st13{fill:#D35401;}
	.st14{fill:#F1C40F;}
	.st15{fill:#E49701;}
	.st16{fill:#EADF5A;}
	.st17{fill:#D7C320;}
	.st18{fill:#34495E;}
	.st19{fill:#2C3E50;}
	.st20{fill:#2B2B2B;}
	.st21{fill:#262626;}
	.st22{fill:#3A6F81;}
	.st23{fill:#356272;}
	.st24{fill:#00558B;}
	.st25{fill:#27AE60;}
	.st26{fill:#169242;}
	.st27{fill:#A5C63B;}
	.st28{fill:#8EB021;}
	.st29{fill:#ECF0F1;}
	.st30{fill:#BDC3C7;}
	.st31{fill:#95A5A6;}
	.st32{fill:#7F8C8D;}
	.st33{fill:#E74C3C;}
	.st34{fill:#C0392B;}
	.st35{fill:#EA3738;}
	.st36{fill:#78C9CF;}
	.st37{fill:#389EA8;}
	.st38{fill:#2D8490;}
	.st39{fill:#1A6470;}
	.st40{fill:#21364A;}
	.st41{fill:#040B15;}
	.st42{fill:#66767C;}
	.st43{fill:#334851;}
	.st44{fill:#5C686F;}
	.st45{fill:#29373C;}
	.st46{fill:#0A141A;}
	.st47{fill:#FFFFFF;}
	.st48{fill:#0D5E8C;}
	.st49{fill:#0071BC;}
	.st50{fill:#808080;stroke:#000000;stroke-width:0.5;stroke-miterlimit:10;}
	.st51{fill:#DFDFDF;stroke:#000000;stroke-width:0.5;stroke-miterlimit:10;}
	.st52{stroke:#000000;stroke-width:0.5;stroke-miterlimit:10;}
	.st53{fill:none;stroke:#A3ABAF;stroke-width:12;stroke-miterlimit:10;}
	.st54{fill:none;stroke:#F15354;stroke-width:0.4376;stroke-miterlimit:10;}
	.st55{fill:none;stroke:#F15354;stroke-miterlimit:10;}
	.st56{fill:none;stroke:#3498DB;stroke-width:15;stroke-linecap:square;stroke-miterlimit:10;}
	.st57{fill:none;stroke:#A3ABAF;stroke-width:9;stroke-miterlimit:10;}
	.st58{opacity:0.5;fill:url(#SVGID_1_);}
	.st59{clip-path:url(#SVGID_3_);enable-background:new    ;}
	.st60{fill:#D3AC0D;}
	.st61{fill:#B5930B;}
	.st62{opacity:0.5;fill:url(#SVGID_4_);}
	.st63{clip-path:url(#SVGID_6_);enable-background:new    ;}
	.st64{opacity:0.5;fill:url(#SVGID_7_);}
	.st65{clip-path:url(#SVGID_9_);enable-background:new    ;}
	.st66{opacity:0.5;fill:url(#SVGID_10_);}
	.st67{clip-path:url(#SVGID_12_);enable-background:new    ;}
	.st68{fill:#58D68D;}
	.st69{fill:#2ECC71;}
	.st70{fill:none;stroke:#2ECC71;stroke-width:1.1621;stroke-miterlimit:10;}
	.st71{fill:none;stroke:#F1C40F;stroke-width:1.1621;stroke-miterlimit:10;}
	.st72{fill:none;stroke:#0075A8;stroke-width:1.1621;stroke-miterlimit:10;}
	.st73{fill:none;stroke:#BDC3C7;stroke-width:10;stroke-miterlimit:10;}
	.st74{fill:none;stroke:#A3ABAF;stroke-width:10;stroke-miterlimit:10;}
	.st75{opacity:0.2;fill:#78C9CF;}
	.st76{fill:none;stroke:#0075A8;stroke-miterlimit:10;}
	.st77{fill:#5D5D5D;}
	.st78{fill:none;stroke:#99A3A8;stroke-miterlimit:10;}
	.st79{fill:none;stroke:#0075A8;stroke-width:1.8275;stroke-miterlimit:10;}
	.st80{opacity:0.7;}
</style>
<g>
	<path class="st3" d="M81.4,8.5h24.5c11.6,0,19.4,5.6,19.4,16.5c0,8.9-6.1,14.3-12,16.1c1.8,1.5,3.1,3.5,4.1,5.6
		c2.5,5,4.1,10.6,9.3,10.6c1.3,0,2.4-0.4,2.4-0.4L128,67.4c0,0-3.2,0.8-5.9,0.8c-7,0-11.1-2.7-15.2-12.1c-1.8-4.2-4.2-11.6-7.5-11.6
		h-3.3v23.5H81.4V8.5z M96.1,19.1v14.6h5.3c4.2,0,9.2-1.3,9.2-7.7c0-5.2-3.3-7-7.4-7H96.1z"/>
	<path class="st3" d="M145.5,8.5h14.9l20.1,59.4h-14.9l-3.7-11.3H142l-3.6,11.3h-12.8L145.5,8.5z M145.5,45.7h12.8l-4-12.5
		c-1.4-4.2-2-10.2-2-10.2h-0.4c0,0-0.9,6.1-2.2,10.1L145.5,45.7z"/>
	<path class="st3" d="M181.4,8.5h15.8L212.7,38c1.3,2.6,3.1,7,4.5,10.6h0.4c-0.2-3.3-0.6-8.1-0.6-11.5V8.5H229v59.4h-15.4
		l-16.2-29.4c-1.5-2.6-3.1-6.5-4.3-9.7h-0.4c0.3,3.3,0.7,7.3,0.7,10.6v28.5h-12.1V8.5z"/>
	<path class="st3" d="M232.6,37.8c0-21.5,10.6-30.4,27.1-30.4c17.3,0,24.3,9.5,22.4,22.4L268.3,31c1.5-9.4-2.2-13.2-8.9-13.2
		c-6.4,0-11.6,4.8-11.6,20.1c0,16.2,5.6,20.3,12.1,20.3c6.1,0,11-3.8,9.9-11.5l12.8,1.3c1,12.1-7.7,20.9-23.6,20.9
		C242.9,69,232.6,59.5,232.6,37.8z"/>
	<path class="st3" d="M286,8.5h14.7v22.4h18V8.5h14.7v59.4h-14.7V42.7h-18v25.2H286V8.5z"/>
	<path class="st3" d="M339.6,8.5H379v10.9h-24.6v12.8H375v10.9h-20.7V57h25.5v10.9h-40.2V8.5z"/>
	<path class="st3" d="M383,8.5h24.5c11.6,0,19.4,5.6,19.4,16.5c0,8.9-6.1,14.3-12,16.1c1.8,1.5,3.1,3.5,4.1,5.6
		c2.5,5,4.1,10.6,9.3,10.6c1.3,0,2.4-0.4,2.4-0.4l-1.1,10.5c0,0-3.2,0.8-5.9,0.8c-7,0-11.1-2.7-15.2-12.1
		c-1.8-4.2-4.2-11.6-7.5-11.6h-3.3v23.5H383V8.5z M397.7,19.1v14.6h5.3c4.2,0,9.2-1.3,9.2-7.7c0-5.2-3.3-7-7.4-7H397.7z"/>
	<path class="st4" d="M81.4,83.5h14.7v22.4h18V83.5h14.7v59.4h-14.7v-25.2h-18v25.2H81.4V83.5z"/>
	<path class="st4" d="M135,83.5h39.3v10.9h-24.6v12.8h20.7v10.9h-20.7V132h25.5v10.9H135V83.5z"/>
	<path class="st4" d="M193.1,83.5H208l20.1,59.4h-14.9l-3.7-11.3h-19.9l-3.6,11.3h-12.8L193.1,83.5z M193.1,120.7h12.8l-4-12.5
		c-1.4-4.2-2-10.2-2-10.2h-0.4c0,0-0.9,6.1-2.2,10.1L193.1,120.7z"/>
	<path class="st4" d="M229,83.5h14.7V132h24.7v10.9H229V83.5z"/>
	<path class="st4" d="M265.5,83.5H313v10.9h-16.5v48.5h-14.7V94.4h-16.2V83.5z"/>
	<path class="st4" d="M314.7,83.5h14.7v22.4h18V83.5h14.7v59.4h-14.7v-25.2h-18v25.2h-14.7V83.5z"/>
	<path class="st4" d="M365.7,112.8c0-21.5,10.6-30.4,27.1-30.4c17.3,0,24.3,9.5,22.4,22.4l-13.7,1.2c1.5-9.4-2.2-13.2-8.9-13.2
		c-6.4,0-11.6,4.8-11.6,20.1c0,16.2,5.6,20.3,12.1,20.3c6.1,0,11-3.8,9.9-11.5l12.8,1.3c1,12.1-7.7,20.9-23.6,20.9
		C376.1,144,365.7,134.5,365.7,112.8z"/>
	<path class="st4" d="M419.1,83.5h14.7v22.4h18V83.5h14.7v59.4h-14.7v-25.2h-18v25.2h-14.7V83.5z"/>
	<path class="st4" d="M472.8,83.5h39.3v10.9h-24.6v12.8h20.7v10.9h-20.7V132H513v10.9h-40.2V83.5z"/>
	<path class="st4" d="M513.4,112.8c0-21.5,10.6-30.4,27.1-30.4c17.3,0,24.3,9.5,22.4,22.4l-13.7,1.2c1.5-9.4-2.2-13.2-8.9-13.2
		c-6.4,0-11.6,4.8-11.6,20.1c0,16.2,5.6,20.3,12.1,20.3c6.1,0,11-3.8,9.9-11.5l12.8,1.3c1,12.1-7.7,20.9-23.6,20.9
		C523.8,144,513.4,134.5,513.4,112.8z"/>
	<path class="st4" d="M566.9,83.5h14.7v16.6c0,1.8-0.3,4.6-0.4,6.6h0.4c1-1.5,2.2-3.8,3.7-5.5l14.5-17.7h15.8l-19.4,23.3l20.4,36.1
		h-16.9L586,118l-4.4,5.4v19.5h-14.7V83.5z"/>
</g>
<g>
	<path class="st47" d="M27.9,147.1c-11.3,0-20.4-9.2-20.4-20.4c0-6.5,3.1-12.6,8.3-16.4V17.2c0-6.7,5.4-12.1,12.1-12.1
		s12.1,5.4,12.1,12.1v93.1c5.2,3.8,8.3,9.9,8.3,16.4C48.4,138,39.2,147.1,27.9,147.1z"/>
	<path class="st30" d="M27.9,8c5.1,0,9.3,4.2,9.3,9.3v94.6c5,3.1,8.3,8.6,8.3,14.9c0,9.7-7.9,17.6-17.6,17.6
		c-9.7,0-17.6-7.9-17.6-17.6c0-6.3,3.3-11.8,8.3-14.9V17.2C18.7,12.1,22.8,8,27.9,8 M27.9,2.3c-8.2,0-15,6.7-15,15v91.7
		c-5.2,4.4-8.3,10.8-8.3,17.8c0,12.8,10.4,23.2,23.2,23.2s23.2-10.4,23.2-23.2c0-7-3-13.4-8.3-17.8V17.2C42.9,9,36.2,2.3,27.9,2.3
		L27.9,2.3z"/>
</g>
<g>
	<path class="st8" d="M19.2,135.4c-2.3-2.3-3.6-5.4-3.6-8.7c0-4.3,2.2-8.2,5.8-10.5l2.5-1.5l0-46.1l8.1,0l0,46.1l2.4,1.5
		c0.8,0.5,1.6,1.1,2.2,1.8c2.3,2.3,3.6,5.4,3.6,8.7c0,6.8-5.5,12.4-12.4,12.4C24.6,139.1,21.5,137.8,19.2,135.4z"/>
</g>
</svg>
