<?xml version="1.0" encoding="utf-8"?>
<!-- Generator: Adobe Illustrator 19.2.1, SVG Export Plug-In . SVG Version: 6.00 Build 0)  -->
<svg version="1.1" id="Layer_1" xmlns="http://www.w3.org/2000/svg" xmlns:xlink="http://www.w3.org/1999/xlink" x="0px" y="0px"
	 viewBox="0 0 100 100" style="enable-background:new 0 0 100 100;" xml:space="preserve">
<style type="text/css">
	.st0{fill:#326CE5;}
	.st1{fill:#FFFFFF;stroke:#FFFFFF;stroke-width:0.25;}
</style>
<g id="Layer_2">
</g>
<g>
	<g id="Layer_1_1_">
		<g id="layer1">
			<g id="g3052">
				<path id="path3055" class="st0" d="M50.5,15.3c-0.6,0-1.2,0.2-1.7,0.4L25.3,27c-1.2,0.6-2.1,1.7-2.4,3l-5.8,25.2
					c-0.3,1.2-0.1,2.4,0.6,3.4c0.1,0.1,0.2,0.2,0.3,0.4l16.3,20.2c0.9,1.1,2.1,1.7,3.5,1.7h26.1c1.4,0,2.7-0.6,3.5-1.7L83.7,59
					c0.9-1.1,1.2-2.5,0.9-3.8L78.8,30c-0.3-1.3-1.2-2.4-2.4-3L52.7,15.7C52,15.4,51.3,15.3,50.5,15.3z"/>
				<path id="path3059" class="st1" d="M50.7,23.9c-0.8,0-1.4,0.7-1.4,1.6l0,0c0,0.1,0,0.3,0,0.4c0,0.5,0.1,0.9,0.2,1.3
					c0.1,1,0.2,1.8,0.2,2.6c-0.1,0.3-0.3,0.5-0.5,0.7v0.6c-0.8,0.1-1.7,0.2-2.5,0.4c-3.7,0.8-6.8,2.7-9.2,5.3
					c-0.2-0.1-0.4-0.3-0.5-0.4c-0.3,0-0.5,0.1-0.8-0.1c-0.6-0.4-1.2-1-1.9-1.7c-0.3-0.3-0.5-0.7-0.9-1c-0.1-0.1-0.2-0.2-0.3-0.2
					c-0.3-0.2-0.6-0.4-1-0.4s-0.8,0.2-1.1,0.5c-0.5,0.6-0.3,1.5,0.3,2.1l0,0c0.1,0.1,0.2,0.2,0.3,0.2c0.4,0.3,0.8,0.4,1.2,0.7
					c0.8,0.5,1.5,1,2.1,1.5c0.2,0.2,0.3,0.6,0.3,0.8l0.5,0.4c-2.4,3.6-3.5,8.1-2.9,12.7l-0.6,0.2c-0.2,0.2-0.4,0.5-0.6,0.6
					c-0.7,0.2-1.5,0.3-2.5,0.4c-0.5,0-0.9,0-1.4,0.1c-0.1,0-0.3,0.1-0.4,0.1l0,0l0,0c-0.8,0.2-1.4,1-1.2,1.7c0.2,0.8,1,1.2,1.8,1
					l0,0l0,0c0.1,0,0.3-0.1,0.4-0.1c0.5-0.1,0.8-0.3,1.3-0.5c0.9-0.3,1.7-0.6,2.5-0.7c0.3,0,0.6,0.2,0.8,0.3l0.6-0.1
					c1.4,4.4,4.4,7.9,8.1,10.1l-0.3,0.6c0.1,0.2,0.2,0.6,0.1,0.8c-0.3,0.7-0.7,1.5-1.3,2.3c-0.3,0.4-0.5,0.7-0.8,1.1
					c-0.1,0.1-0.1,0.3-0.2,0.4c-0.4,0.8-0.1,1.7,0.6,2c0.7,0.3,1.6,0,1.9-0.8l0,0l0,0c0.1-0.1,0.1-0.3,0.2-0.4
					c0.2-0.5,0.3-0.8,0.4-1.3c0.4-0.9,0.6-1.9,1.1-2.5c0.1-0.2,0.4-0.2,0.6-0.3l0.3-0.6c3.3,1.3,6.9,1.6,10.6,0.8
					c0.8-0.2,1.6-0.4,2.4-0.7c0.1,0.2,0.3,0.5,0.3,0.5c0.2,0.1,0.5,0.1,0.7,0.4c0.4,0.7,0.6,1.4,1,2.4c0.1,0.4,0.2,0.8,0.4,1.3
					c0,0.1,0.1,0.3,0.2,0.4c0.4,0.8,1.2,1.1,1.9,0.8c0.7-0.3,1-1.2,0.6-2c-0.1-0.1-0.1-0.3-0.2-0.4c-0.2-0.4-0.5-0.7-0.8-1.1
					c-0.5-0.8-1-1.5-1.2-2.2c-0.1-0.4,0-0.6,0.1-0.8c-0.1-0.1-0.2-0.4-0.2-0.6c3.9-2.3,6.8-6,8.1-10.2c0.2,0,0.5,0.1,0.6,0.1
					c0.2-0.1,0.4-0.3,0.8-0.3c0.8,0.1,1.5,0.4,2.5,0.7c0.4,0.2,0.8,0.4,1.3,0.5c0.1,0,0.2,0.1,0.4,0.1l0,0l0,0
					c0.8,0.2,1.6-0.3,1.8-1c0.2-0.8-0.4-1.5-1.2-1.7c-0.1,0-0.3-0.1-0.4-0.1c-0.5-0.1-0.9-0.1-1.4-0.1c-1-0.1-1.8-0.2-2.5-0.4
					c-0.3-0.1-0.5-0.5-0.6-0.6l-0.6-0.2c0.3-2.1,0.2-4.4-0.3-6.6c-0.5-2.2-1.4-4.3-2.6-6.1c0.1-0.1,0.4-0.4,0.5-0.4
					c0-0.3,0-0.5,0.3-0.8c0.6-0.5,1.3-1,2.1-1.5c0.4-0.2,0.8-0.4,1.2-0.7c0.1-0.1,0.2-0.2,0.3-0.2c0.7-0.5,0.8-1.5,0.3-2.1
					c-0.5-0.6-1.4-0.7-2.1-0.2c-0.1,0.1-0.2,0.2-0.3,0.2c-0.4,0.3-0.6,0.6-0.9,1c-0.7,0.7-1.3,1.3-1.9,1.7c-0.3,0.2-0.7,0.1-0.9,0.1
					L64,36.7c-3.1-3.2-7.2-5.2-11.7-5.6c0-0.2,0-0.5,0-0.6c-0.2-0.2-0.4-0.3-0.5-0.7c-0.1-0.8,0-1.6,0.2-2.6
					c0.1-0.5,0.2-0.8,0.2-1.3c0-0.1,0-0.3,0-0.4C52.1,24.6,51.5,23.9,50.7,23.9L50.7,23.9z M49,34.8l-0.4,7.4l0,0
					c0,0.7-0.6,1.2-1.2,1.2c-0.3,0-0.5-0.1-0.7-0.2l0,0l-6.2-4.3c1.9-1.8,4.2-3.2,7-3.8C48,35,48.5,34.9,49,34.8z M52.5,34.8
					c3.2,0.4,6.2,1.8,8.4,4.1l-6,4.3l0,0c-0.5,0.4-1.3,0.3-1.7-0.2c-0.2-0.2-0.3-0.5-0.3-0.7l0,0L52.5,34.8z M38.3,41.6l5.5,4.9l0,0
					c0.5,0.4,0.6,1.2,0.2,1.7c-0.2,0.2-0.4,0.4-0.6,0.4l0,0l-7.1,2C35.9,47.5,36.7,44.3,38.3,41.6z M63.1,41.6
					c0.8,1.3,1.4,2.8,1.8,4.4c0.4,1.6,0.5,3.2,0.3,4.7l-7.1-2.1l0,0c-0.6-0.2-1-0.8-0.9-1.5c0.1-0.3,0.2-0.5,0.4-0.7l0,0L63.1,41.6
					L63.1,41.6z M49.6,47h2.3l1.4,1.8L52.8,51l-2,1l-2-1l-0.5-2.2L49.6,47z M56.9,53c0.1,0,0.2,0,0.3,0l0,0l7.3,1.2
					c-1.1,3-3.1,5.6-5.9,7.4l-2.8-6.9l0,0c-0.3-0.6,0-1.3,0.6-1.6C56.5,53,56.7,53,56.9,53L56.9,53z M44.5,53c0.6,0,1.1,0.4,1.2,1
					c0.1,0.3,0,0.5-0.1,0.8l0,0l-2.8,6.8c-2.6-1.7-4.7-4.2-5.8-7.3l7.3-1.2l0,0C44.4,53,44.5,53,44.5,53L44.5,53z M50.7,56
					c0.2,0,0.4,0,0.6,0.1c0.2,0.1,0.4,0.3,0.6,0.5l0,0l3.6,6.5c-0.5,0.2-0.9,0.3-1.4,0.4c-2.7,0.6-5.5,0.4-7.9-0.4l3.6-6.5l0,0
					C49.9,56.2,50.3,56,50.7,56z"/>
			</g>
		</g>
	</g>
	<g id="Layer_3">
	</g>
</g>
</svg>
