<svg id="Layer_1" data-name="Layer 1" xmlns="http://www.w3.org/2000/svg" viewBox="0 0 544.4 151.4"><defs><style>.cls-1{font-size:88px;font-family:Lato;letter-spacing:-4px;}.cls-1,.cls-5{fill:#3d3d3d;}.cls-2{letter-spacing:-1px;}.cls-3{letter-spacing:-3px;}.cls-4{fill:#0075a8;}.cls-6{fill:#58d68d;}.cls-7{fill:#2ecc71;}.cls-8{fill:#3498db;}.cls-9{fill:#eadf5a;}.cls-10{fill:#f1c40f;}.cls-11,.cls-12,.cls-13{fill:none;stroke-miterlimit:10;stroke-width:1.16px;}.cls-11{stroke:#2ecc71;}.cls-12{stroke:#f1c40f;}.cls-13{stroke:#0075a8;}</style></defs><title>rancher-rbd</title><text class="cls-1" transform="translate(-564.19 64.96)">R<tspan class="cls-2" x="53.46" y="0">A</tspan><tspan class="cls-3" x="114.27" y="0">N</tspan><tspan class="cls-3" x="178.95" y="0">C</tspan><tspan class="cls-3" x="232.67" y="0">H</tspan><tspan class="cls-3" x="297.52" y="0">E</tspan><tspan x="344.16" y="0">R</tspan><tspan class="cls-4"><tspan x="0" y="87">EFS</tspan></tspan></text><path class="cls-5" d="M188.87,8.52h24.46c11.62,0,19.45,5.63,19.45,16.54a16.62,16.62,0,0,1-12,16.1,17.64,17.64,0,0,1,4.14,5.63c2.46,5,4.14,10.56,9.33,10.56a6.84,6.84,0,0,0,2.38-.44l-1.14,10.47a28.79,28.79,0,0,1-5.9.79c-7,0-11.09-2.73-15.22-12.14-1.76-4.22-4.22-11.62-7.48-11.62h-3.34v23.5h-14.7V8.52Zm14.7,10.65V33.78h5.28c4.22,0,9.15-1.32,9.15-7.66,0-5.19-3.34-7-7.39-7h-7Z"/><path class="cls-5" d="M253.11,8.52H268L288,67.92H273.17l-3.7-11.26H249.59L246,67.92H233.13Zm0,37.22h12.76l-4-12.5a58.09,58.09,0,0,1-2-10.21h-0.35a75.55,75.55,0,0,1-2.2,10.12Z"/><path class="cls-5" d="M289.1,8.52h15.75L320.43,38c1.32,2.55,3.08,7,4.49,10.56h0.35c-0.18-3.34-.62-8.1-0.62-11.53V8.52h12.06v59.4h-15.4L305.11,38.53a82,82,0,0,1-4.31-9.68h-0.35c0.26,3.34.7,7.3,0.7,10.56V67.92H289.1V8.52Z"/><path class="cls-5" d="M340.31,37.83c0-21.47,10.65-30.36,27.1-30.36,17.34,0,24.29,9.5,22.35,22.35L376,31c1.5-9.42-2.2-13.2-8.89-13.2-6.42,0-11.62,4.75-11.62,20.06,0,16.19,5.63,20.33,12.06,20.33,6.07,0,11-3.78,9.94-11.53L390.38,48c1,12.06-7.74,20.94-23.58,20.94C350.7,69,340.31,59.47,340.31,37.83Z"/><path class="cls-5" d="M393.82,8.52h14.7V31h18V8.52h14.7v59.4h-14.7V42.75h-18V67.92h-14.7V8.52Z"/><path class="cls-5" d="M447.59,8.52h39.33V19.43H462.28V32.19H483V43.1H462.28V57H487.8V67.92H447.59V8.52Z"/><path class="cls-5" d="M491.06,8.52h24.46c11.62,0,19.45,5.63,19.45,16.54a16.62,16.62,0,0,1-12,16.1,17.63,17.63,0,0,1,4.14,5.63c2.46,5,4.14,10.56,9.33,10.56a6.84,6.84,0,0,0,2.38-.44L537.7,67.39a28.79,28.79,0,0,1-5.9.79c-7,0-11.09-2.73-15.22-12.14-1.76-4.22-4.22-11.62-7.48-11.62h-3.34v23.5h-14.7V8.52Zm14.7,10.65V33.78H511c4.22,0,9.15-1.32,9.15-7.66,0-5.19-3.34-7-7.39-7h-7Z"/><path class="cls-4" d="M188.87,83.52h24.46c11.62,0,19.45,5.63,19.45,16.54a16.62,16.62,0,0,1-12,16.1,17.64,17.64,0,0,1,4.14,5.63c2.46,5,4.14,10.56,9.33,10.56a6.84,6.84,0,0,0,2.38-.44l-1.14,10.47a28.79,28.79,0,0,1-5.9.79c-7,0-11.09-2.73-15.22-12.14-1.76-4.22-4.22-11.62-7.48-11.62h-3.34v23.5h-14.7V83.52Zm14.7,10.65v14.61h5.28c4.22,0,9.15-1.32,9.15-7.66,0-5.19-3.34-7-7.39-7h-7Z"/><path class="cls-4" d="M238.41,83.52h25.43c10.47,0,18.39,3.52,18.39,14.34,0,8.18-4.49,11.35-12.14,13v0.35c8.71,1.06,14,5.63,14,14.52,0,11.62-8.36,17.16-19.54,17.16H238.41V83.52Zm21.12,22.79c3.87,0,7.74-1.06,7.74-6.16s-3.43-6-6.86-6H253v12.14h6.51Zm1.41,26c4.49,0,8.36-2.2,8.36-8.1,0-5.1-3.87-7.22-8.36-7.22H253v15.31h7.92Z"/><path class="cls-4" d="M287.51,83.52h22.7c14.78,0,26.22,8.62,26.22,29.39,0,20.33-10.91,30-26.22,30h-22.7V83.52Zm21.29,48.75c6.51,0,12.76-4,12.76-19.36s-6.25-18.74-12.76-18.74h-6.6v38.1h6.6Z"/><path class="cls-6" d="M131.16,13.58l-49-8a7.55,7.55,0,0,0-4.37.84L29.61,36a4.41,4.41,0,0,0-1.8,3.53v36L50.9,70.27a19.25,19.25,0,0,1,4.47-.39l75.82,3.88a2.45,2.45,0,0,0,2.62-2.2V16.28A3.19,3.19,0,0,0,131.16,13.58Z"/><path class="cls-7" d="M56.5,69.51a28.54,28.54,0,0,0-5.48.31L27.81,75.4V39.52A4.37,4.37,0,0,1,29.56,36L78.28,6.45c0.58-.35.53-0.63,2.53-0.77V70.44"/><path class="cls-7" d="M86.81,13.53l38,6.36V66.53l-38-2V13.44m-2-1.29V65.64l42,2.12V18.89l-42-6.73h0Z"/><path class="cls-8" d="M111.6,72.79l43.58,1.92a2.46,2.46,0,0,1,2.32,2.43V137a2.54,2.54,0,0,1-2.32,2.49l-43.59,3.15a2.13,2.13,0,0,1-2.32-2.16V75A2.2,2.2,0,0,1,111.6,72.79Z"/><path class="cls-4" d="M115.81,80l34,1.51v51.34l-34,2.48V80.44m-1-1.69v57.79l37-2.65V80.37l-37-1.61h0Z"/><path class="cls-9" d="M6.81,82.52v47.35a3.54,3.54,0,0,0,2.31,3.06l41,13.45a11.77,11.77,0,0,0,3.72.56V147L54,147a0.62,0.62,0,0,0,.26,0s52.47-3.83,52.47-3.83a2.31,2.31,0,0,0,2-2.49V74.81a2.27,2.27,0,0,0-2.09-2.44l-51.6-2.53a19.81,19.81,0,0,0-4.53.4L9.15,79.67A3.12,3.12,0,0,0,6.81,82.52Z"/><path class="cls-10" d="M53.27,69.64a12.35,12.35,0,0,0-3.56.46L9.29,79.6a3.35,3.35,0,0,0-2.48,2.91v47.35a3.54,3.54,0,0,0,2.31,3.06l41,13.45a11.77,11.77,0,0,0,3.72.56v-0.49"/><path class="cls-10" d="M59.47,77l42.35,2.08v57.33l-22.08,1.61-20.11,1.46L59.47,77m-1.25-1.22,0.11,64.94,21.44-1.55,23-1.69V78L58.22,75.83h0Z"/><line class="cls-11" x1="108.31" y1="73.03" x2="108.31" y2="10.47"/><line class="cls-12" x1="82.55" y1="144.88" x2="82.55" y2="71.28"/><line class="cls-13" x1="134.09" y1="140.81" x2="134.09" y2="74.19"/></svg>