<?xml version="1.0" encoding="utf-8"?>
<!-- Generator: Adobe Illustrator 21.1.0, SVG Export Plug-In . SVG Version: 6.00 Build 0)  -->
<svg version="1.1" id="Layer_1" xmlns="http://www.w3.org/2000/svg" xmlns:xlink="http://www.w3.org/1999/xlink" x="0px" y="0px"
	 viewBox="0 0 849.1 151.4" style="enable-background:new 0 0 849.1 151.4;" xml:space="preserve">
<style type="text/css">
	.st0{fill:none;stroke:#BDC3C7;stroke-width:5;stroke-miterlimit:10;}
	.st1{fill:#CCD1D3;}
	.st2{fill:#99A3A8;}
	.st3{fill:none;stroke:#A3ABAF;stroke-width:5;stroke-linecap:round;stroke-linejoin:round;stroke-miterlimit:10;}
	.st4{fill:#3D3D3D;}
	.st5{fill:#0075A8;}
	.st6{fill:#B3C78F;}
	.st7{fill:none;stroke:#CCD1D3;stroke-miterlimit:10;}
	.st8{fill:none;stroke:#CCD1D3;stroke-width:1.893;stroke-miterlimit:10;}
	.st9{fill:#F15354;}
	.st10{fill:#A3ABAF;}
	.st11{fill:#3498DB;}
	.st12{fill:#2980B9;}
	.st13{fill:#E67E22;}
	.st14{fill:#D35401;}
	.st15{fill:#F1C40F;}
	.st16{fill:#E49701;}
	.st17{fill:#EADF5A;}
	.st18{fill:#D7C320;}
	.st19{fill:#34495E;}
	.st20{fill:#2C3E50;}
	.st21{fill:#2B2B2B;}
	.st22{fill:#262626;}
	.st23{fill:#3A6F81;}
	.st24{fill:#356272;}
	.st25{fill:#00558B;}
	.st26{fill:#27AE60;}
	.st27{fill:#169242;}
	.st28{fill:#A5C63B;}
	.st29{fill:#8EB021;}
	.st30{fill:#ECF0F1;}
	.st31{fill:#BDC3C7;}
	.st32{fill:#95A5A6;}
	.st33{fill:#7F8C8D;}
	.st34{fill:#E74C3C;}
	.st35{fill:#C0392B;}
	.st36{fill:#EA3738;}
	.st37{fill:#78C9CF;}
	.st38{fill:#389EA8;}
	.st39{fill:#2D8490;}
	.st40{fill:#1A6470;}
	.st41{fill:#21364A;}
	.st42{fill:#040B15;}
	.st43{fill:#66767C;}
	.st44{fill:#334851;}
	.st45{fill:#5C686F;}
	.st46{fill:#29373C;}
	.st47{fill:#0A141A;}
	.st48{fill:#FFFFFF;}
	.st49{fill:#0D5E8C;}
	.st50{fill:#0071BC;}
	.st51{fill:#808080;stroke:#000000;stroke-width:0.5;stroke-miterlimit:10;}
	.st52{fill:#DFDFDF;stroke:#000000;stroke-width:0.5;stroke-miterlimit:10;}
	.st53{stroke:#000000;stroke-width:0.5;stroke-miterlimit:10;}
	.st54{fill:none;stroke:#A3ABAF;stroke-width:12;stroke-miterlimit:10;}
	.st55{fill:none;stroke:#F15354;stroke-width:0.4376;stroke-miterlimit:10;}
	.st56{fill:none;stroke:#F15354;stroke-miterlimit:10;}
	.st57{fill:none;stroke:#3498DB;stroke-width:15;stroke-linecap:square;stroke-miterlimit:10;}
	.st58{fill:none;stroke:#A3ABAF;stroke-width:9;stroke-miterlimit:10;}
	.st59{opacity:0.5;fill:url(#SVGID_1_);}
	.st60{clip-path:url(#SVGID_3_);enable-background:new    ;}
	.st61{fill:#D3AC0D;}
	.st62{fill:#B5930B;}
	.st63{opacity:0.5;fill:url(#SVGID_4_);}
	.st64{clip-path:url(#SVGID_6_);enable-background:new    ;}
	.st65{opacity:0.5;fill:url(#SVGID_7_);}
	.st66{clip-path:url(#SVGID_9_);enable-background:new    ;}
	.st67{opacity:0.5;fill:url(#SVGID_10_);}
	.st68{clip-path:url(#SVGID_12_);enable-background:new    ;}
	.st69{fill:#58D68D;}
	.st70{fill:#2ECC71;}
	.st71{fill:none;stroke:#2ECC71;stroke-width:1.1621;stroke-miterlimit:10;}
	.st72{fill:none;stroke:#F1C40F;stroke-width:1.1621;stroke-miterlimit:10;}
	.st73{fill:none;stroke:#0075A8;stroke-width:1.1621;stroke-miterlimit:10;}
	.st74{fill:none;stroke:#BDC3C7;stroke-width:10;stroke-miterlimit:10;}
	.st75{fill:none;stroke:#A3ABAF;stroke-width:10;stroke-miterlimit:10;}
	.st76{opacity:0.2;fill:#78C9CF;}
	.st77{fill:none;stroke:#0075A8;stroke-miterlimit:10;}
	.st78{fill:#5D5D5D;}
	.st79{fill:none;stroke:#99A3A8;stroke-miterlimit:10;}
	.st80{fill:none;stroke:#0075A8;stroke-width:1.8275;stroke-miterlimit:10;}
	.st81{opacity:0.7;}
	.st82{fill:none;stroke:#3A6F81;stroke-width:10;stroke-miterlimit:10;}
	.st83{fill:none;stroke:#EADF5A;stroke-width:8;stroke-miterlimit:10;}
	.st84{fill:none;stroke:#EADF5A;stroke-width:5;stroke-miterlimit:10;}
	.st85{fill:none;stroke:#2980B9;stroke-width:4.5153;stroke-miterlimit:10;}
	.st86{fill:none;stroke:#EADF5A;stroke-width:3.6413;stroke-miterlimit:10;}
	.st87{fill:none;stroke:#78C9CF;stroke-width:4.5153;stroke-miterlimit:10;}
	.st88{fill:none;stroke:#A5C63B;stroke-width:10;stroke-linecap:round;stroke-linejoin:round;stroke-miterlimit:10;}
	.st89{fill:#D6EAF8;}
	.st90{fill:#85C1E9;}
</style>
<g>
	<path class="st4" d="M184.7,8.5h24.5c11.6,0,19.4,5.6,19.4,16.5c0,8.9-6.1,14.3-12,16.1c1.8,1.5,3.1,3.5,4.1,5.6
		c2.5,5,4.1,10.6,9.3,10.6c1.3,0,2.4-0.4,2.4-0.4l-1.1,10.5c0,0-3.2,0.8-5.9,0.8c-7,0-11.1-2.7-15.2-12.1
		c-1.8-4.2-4.2-11.6-7.5-11.6h-3.3v23.5h-14.7V8.5z M199.4,19.2v14.6h5.3c4.2,0,9.2-1.3,9.2-7.7c0-5.2-3.3-7-7.4-7H199.4z"/>
	<path class="st4" d="M248.9,8.5h14.9l20.1,59.4H269l-3.7-11.3h-19.9l-3.6,11.3H229L248.9,8.5z M248.9,45.7h12.8l-4-12.5
		c-1.4-4.2-2-10.2-2-10.2h-0.4c0,0-0.9,6.1-2.2,10.1L248.9,45.7z"/>
	<path class="st4" d="M284.9,8.5h15.8L316.3,38c1.3,2.6,3.1,7,4.5,10.6h0.4c-0.2-3.3-0.6-8.1-0.6-11.5V8.5h12.1v59.4h-15.4
		l-16.2-29.4c-1.5-2.6-3.1-6.5-4.3-9.7h-0.4c0.3,3.3,0.7,7.3,0.7,10.6v28.5h-12.1V8.5z"/>
	<path class="st4" d="M336.1,37.8c0-21.5,10.6-30.4,27.1-30.4c17.3,0,24.3,9.5,22.4,22.4L371.9,31c1.5-9.4-2.2-13.2-8.9-13.2
		c-6.4,0-11.6,4.8-11.6,20.1c0,16.2,5.6,20.3,12.1,20.3c6.1,0,11-3.8,9.9-11.5l12.8,1.3c1,12.1-7.7,20.9-23.6,20.9
		C346.5,69,336.1,59.5,336.1,37.8z"/>
	<path class="st4" d="M389.7,8.5h14.7V31h18V8.5h14.7v59.4h-14.7V42.8h-18v25.2h-14.7V8.5z"/>
	<path class="st4" d="M443.4,8.5h39.3v10.9h-24.6v12.8h20.7v10.9h-20.7V57h25.5v10.9h-40.2V8.5z"/>
	<path class="st4" d="M486.9,8.5h24.5c11.6,0,19.4,5.6,19.4,16.5c0,8.9-6.1,14.3-12,16.1c1.8,1.5,3.1,3.5,4.1,5.6
		c2.5,5,4.1,10.6,9.3,10.6c1.3,0,2.4-0.4,2.4-0.4l-1.1,10.5c0,0-3.2,0.8-5.9,0.8c-7,0-11.1-2.7-15.2-12.1
		c-1.8-4.2-4.2-11.6-7.5-11.6h-3.3v23.5h-14.7V8.5z M501.6,19.2v14.6h5.3c4.2,0,9.2-1.3,9.2-7.7c0-5.2-3.3-7-7.4-7H501.6z"/>
	<path class="st5" d="M184.7,83.5h24.9c11.7,0,20.2,5.9,20.2,17.8c0,12.9-8.2,20.4-20.2,20.4h-10.2v21.2h-14.7V83.5z M199.4,94.2
		v16.9h6.9c4.6,0,8.7-2.5,8.7-8.9c0-6.1-4.1-8-8.7-8H199.4z"/>
	<path class="st5" d="M232,83.5h39.3v10.9h-24.6v12.8h20.7v10.9h-20.7V132h25.5v10.9H232V83.5z"/>
	<path class="st5" d="M275.5,83.5H300c11.6,0,19.4,5.6,19.4,16.5c0,8.9-6.1,14.3-12,16.1c1.8,1.5,3.1,3.5,4.1,5.6
		c2.5,5,4.1,10.6,9.3,10.6c1.3,0,2.4-0.4,2.4-0.4l-1.1,10.5c0,0-3.2,0.8-5.9,0.8c-7,0-11.1-2.7-15.2-12.1
		c-1.8-4.2-4.2-11.6-7.5-11.6h-3.3v23.5h-14.7V83.5z M290.2,94.2v14.6h5.3c4.2,0,9.2-1.3,9.2-7.7c0-5.2-3.3-7-7.4-7H290.2z"/>
	<path class="st5" d="M342.1,83.5h14.7V106h18V83.5h14.7v59.4h-14.7v-25.2h-18v25.2h-14.7V83.5z"/>
	<path class="st5" d="M393.2,112.4c0-21.4,11.4-29.9,27.3-29.9c15.7,0,27,8.5,27,29.9c0,23.8-11.7,31.6-27,31.6
		C404.5,144,393.2,135.4,393.2,112.4z M432.4,112.4c0-14.8-5.8-19.5-12.1-19.5s-12.1,4.8-12.1,19.5c0,16.5,5.7,21.2,12.1,21.2
		S432.4,128.8,432.4,112.4z"/>
	<path class="st5" d="M460.9,123.4c-1.1,4.8,0.8,10.2,10.1,10.2c6.2,0,8.3-2.5,8.3-5.7c0-4.9-4.9-6.2-10.7-8.3
		c-8.7-3-19.4-7.2-19.4-19.6c0-11.1,8.5-17.9,23.1-17.5C490,82.8,495,93.3,493,102.4l-13.5,1.2c0.9-6.9-1.6-10.7-8.5-10.7
		c-4.7,0-7.3,1.8-7.3,5.5c0,4.9,4.8,6.4,10.6,8.4c9,3,19.6,6.6,19.6,18.9c0,10.6-7.9,18.3-23.4,18.3c-14.5,0-24.5-6.7-22.4-19.4
		L460.9,123.4z"/>
	<path class="st5" d="M493.1,83.5h47.4v10.9H524v48.5h-14.7V94.4h-16.2V83.5z"/>
	<path class="st5" d="M569.3,123.4c-1.1,4.8,0.8,10.2,10.1,10.2c6.2,0,8.3-2.5,8.3-5.7c0-4.9-4.9-6.2-10.7-8.3
		c-8.7-3-19.4-7.2-19.4-19.6c0-11.1,8.5-17.9,23.1-17.5c17.8,0.4,22.8,10.8,20.9,19.9l-13.5,1.2c0.9-6.9-1.6-10.7-8.5-10.7
		c-4.7,0-7.3,1.8-7.3,5.5c0,4.9,4.8,6.4,10.6,8.4c9,3,19.6,6.6,19.6,18.9c0,10.6-7.9,18.3-23.4,18.3c-14.5,0-24.5-6.7-22.4-19.4
		L569.3,123.4z"/>
	<path class="st5" d="M605.5,83.5h14.7v38.1c0,7.6,3.2,10.7,9.2,10.7c6,0,9.6-3.1,9.6-11V83.5h14.3v37.6c0,13.6-8.9,22.9-24.3,22.9
		c-14.4,0-23.5-8.4-23.5-21.6V83.5z"/>
	<path class="st5" d="M659.1,83.5h25.4c10.5,0,18.4,3.5,18.4,14.3c0,8.2-4.5,11.4-12.1,13v0.4c8.7,1.1,14,5.6,14,14.5
		c0,11.6-8.4,17.2-19.5,17.2h-26.1V83.5z M680.2,106.3c3.9,0,7.7-1.1,7.7-6.2c0-5.2-3.4-6-6.9-6h-7.4v12.1H680.2z M681.6,132.3
		c4.5,0,8.4-2.2,8.4-8.1c0-5.1-3.9-7.2-8.4-7.2h-7.9v15.3H681.6z"/>
	<path class="st5" d="M708.2,83.5h15.8l15.6,29.5c1.3,2.6,3.1,7,4.5,10.6h0.4c-0.2-3.3-0.6-8.1-0.6-11.5V83.5h12.1v59.4h-15.4
		l-16.2-29.4c-1.5-2.6-3.1-6.5-4.3-9.7h-0.4c0.3,3.3,0.7,7.3,0.7,10.6v28.5h-12.1V83.5z"/>
	<path class="st5" d="M762.1,83.5h39.3v10.9h-24.6v12.8h20.7v10.9h-20.7V132h25.5v10.9h-40.2V83.5z"/>
	<path class="st5" d="M801.1,83.5h47.4v10.9H832v48.5h-14.7V94.4h-16.2V83.5z"/>
</g>
<g class="st81">
	<circle class="st2" cx="77.4" cy="17.8" r="3.1"/>
	<circle class="st2" cx="77.4" cy="133.9" r="3.1"/>
	<circle class="st2" cx="19.4" cy="76.2" r="3.1"/>
	<circle class="st2" cx="135.5" cy="76.2" r="3.1"/>
	<ellipse transform="matrix(0.7071 -0.7071 0.7071 0.7071 -13.9669 35.9128)" class="st2" cx="36.4" cy="34.8" rx="3.1" ry="3.1"/>
	
		<ellipse transform="matrix(0.7071 -0.7071 0.7071 0.7071 -47.9745 118.0144)" class="st2" cx="118.5" cy="116.9" rx="3.1" ry="3.1"/>
	<ellipse transform="matrix(0.7071 -0.7071 0.7071 0.7071 -72.0833 60.215)" class="st2" cx="36.6" cy="117.1" rx="3.1" ry="3.1"/>
	<ellipse transform="matrix(0.7071 -0.7071 0.7071 0.7071 10.0183 94.2226)" class="st2" cx="118.7" cy="35" rx="3.1" ry="3.1"/>
	<polygon class="st79" points="38.8,115 77.4,20.8 116.3,114.8 19.4,76.2 116.6,37.2 77.4,130.8 38.5,37 132.5,76.2 	"/>
</g>
<g>
	<circle class="st5" cx="55" cy="146.1" r="5.6"/>
	<circle class="st5" cx="11.3" cy="109.4" r="5.6"/>
	<circle class="st5" cx="104.7" cy="5.6" r="5.6"/>
	<ellipse transform="matrix(0.7048 -0.7094 0.7094 0.7048 -68.4895 120.9228)" class="st5" cx="111" cy="142.8" rx="5.6" ry="5.6"/>
	
		<ellipse transform="matrix(0.7048 -0.7094 0.7094 0.7048 -28.2269 135.3131)" class="st5" cx="148.5" cy="101.6" rx="5.6" ry="5.6"/>
	<ellipse transform="matrix(0.7048 -0.7094 0.7094 0.7048 11.5636 117.4138)" class="st5" cx="146.9" cy="44.8" rx="5.6" ry="5.6"/>
	<ellipse transform="matrix(0.7048 -0.7094 0.7094 0.7048 -34.527 19.7255)" class="st5" cx="6.4" cy="51.3" rx="5.6" ry="5.6"/>
	<ellipse transform="matrix(0.7048 -0.7094 0.7094 0.7048 8.2966 34.5403)" class="st5" cx="45.6" cy="7.3" rx="5.6" ry="5.6"/>
	<polygon class="st77" points="56.6,140.9 48,12.2 143,99 16.3,107 102.5,9.9 108.3,137.3 11.9,53.2 141.3,46.7 	"/>
</g>
</svg>
