<svg id="Layer_1" data-name="Layer 1" xmlns="http://www.w3.org/2000/svg" viewBox="0 0 697.68 151.4"><defs><style>.cls-1{fill:#3d3d3d;}.cls-2{fill:#0075a8;}.cls-3{opacity:0.7;}.cls-4{fill:#99a3a8;}.cls-5,.cls-6{fill:none;stroke-miterlimit:10;}.cls-5{stroke:#99a3a8;}.cls-6{stroke:#0075a8;}</style></defs><title>rancher-catalog-tenso</title><path class="cls-1" d="M184.7,8.52h24.46c11.62,0,19.45,5.63,19.45,16.54a16.62,16.62,0,0,1-12,16.1,17.63,17.63,0,0,1,4.14,5.63c2.46,5,4.14,10.56,9.33,10.56a6.84,6.84,0,0,0,2.38-.44l-1.14,10.47a28.79,28.79,0,0,1-5.9.79c-7,0-11.09-2.73-15.22-12.14-1.76-4.22-4.22-11.62-7.48-11.62H199.4v23.5H184.7V8.52Zm14.7,10.65V33.78h5.28c4.22,0,9.15-1.32,9.15-7.66,0-5.19-3.34-7-7.39-7h-7Z"/><path class="cls-1" d="M248.94,8.52h14.87l20.06,59.4H269l-3.7-11.26H245.42l-3.61,11.26H229Zm0,37.22H261.7l-4-12.5a58,58,0,0,1-2-10.21h-0.35a75.38,75.38,0,0,1-2.2,10.12Z"/><path class="cls-1" d="M284.93,8.52h15.75L316.26,38c1.32,2.55,3.08,7,4.49,10.56h0.35c-0.18-3.34-.62-8.1-0.62-11.53V8.52h12.06v59.4h-15.4L300.95,38.53a82.14,82.14,0,0,1-4.31-9.68h-0.35c0.26,3.34.7,7.3,0.7,10.56V67.92H284.93V8.52Z"/><path class="cls-1" d="M336.15,37.83c0-21.47,10.65-30.36,27.1-30.36,17.34,0,24.29,9.5,22.35,22.35L371.87,31c1.5-9.42-2.2-13.2-8.89-13.2-6.42,0-11.62,4.75-11.62,20.06,0,16.19,5.63,20.33,12.06,20.33,6.07,0,11-3.78,9.94-11.53L386.22,48c1,12.06-7.74,20.94-23.58,20.94C346.53,69,336.15,59.47,336.15,37.83Z"/><path class="cls-1" d="M389.65,8.52h14.7V31h18V8.52h14.7v59.4h-14.7V42.75h-18V67.92h-14.7V8.52Z"/><path class="cls-1" d="M443.42,8.52h39.33V19.43H458.11V32.19h20.68V43.1H458.11V57h25.52V67.92H443.42V8.52Z"/><path class="cls-1" d="M486.89,8.52h24.46c11.62,0,19.45,5.63,19.45,16.54a16.62,16.62,0,0,1-12,16.1A17.63,17.63,0,0,1,523,46.8c2.46,5,4.14,10.56,9.33,10.56a6.84,6.84,0,0,0,2.38-.44l-1.14,10.47a28.79,28.79,0,0,1-5.9.79c-7,0-11.09-2.73-15.22-12.14-1.76-4.22-4.22-11.62-7.48-11.62h-3.34v23.5h-14.7V8.52Zm14.7,10.65V33.78h5.28c4.22,0,9.15-1.32,9.15-7.66,0-5.19-3.34-7-7.39-7h-7Z"/><path class="cls-2" d="M184.7,83.52h14.7V106h18V83.52h14.7v59.4h-14.7V117.75h-18v25.17H184.7V83.52Z"/><path class="cls-2" d="M235.74,112.38c0-21.38,11.35-29.92,27.28-29.92,15.66,0,27,8.54,27,29.92,0,23.76-11.7,31.59-27,31.59C247.09,144,235.74,135.44,235.74,112.38Zm39.25,0c0-14.78-5.81-19.54-12.14-19.54s-12.06,4.75-12.06,19.54c0,16.46,5.72,21.21,12.06,21.21S275,128.84,275,112.38Z"/><path class="cls-2" d="M303.5,123.38c-1.06,4.75.79,10.21,10.12,10.21,6.16,0,8.27-2.46,8.27-5.72,0-4.93-4.93-6.16-10.74-8.27-8.71-3-19.45-7.22-19.45-19.62,0-11.09,8.54-17.86,23.06-17.51,17.78,0.35,22.79,10.82,20.86,19.89l-13.46,1.23c0.88-6.86-1.58-10.74-8.54-10.74-4.66,0-7.3,1.76-7.3,5.46,0,4.93,4.75,6.42,10.56,8.45,9,3,19.62,6.6,19.62,18.92,0,10.65-7.92,18.3-23.41,18.3-14.52,0-24.46-6.69-22.44-19.36Z"/><path class="cls-2" d="M335.71,83.52h47.43V94.43H366.59v48.49H351.9V94.43H335.71V83.52Z"/><path class="cls-2" d="M406.9,123.38c-1.06,4.75.79,10.21,10.12,10.21,6.16,0,8.27-2.46,8.27-5.72,0-4.93-4.93-6.16-10.74-8.27-8.71-3-19.45-7.22-19.45-19.62,0-11.09,8.54-17.86,23.06-17.51C435.94,82.82,441,93.29,439,102.35l-13.46,1.23c0.88-6.86-1.58-10.74-8.54-10.74-4.66,0-7.3,1.76-7.3,5.46,0,4.93,4.75,6.42,10.56,8.45,9,3,19.62,6.6,19.62,18.92,0,10.65-7.92,18.3-23.41,18.3-14.52,0-24.46-6.69-22.44-19.36Z"/><path class="cls-2" d="M443.07,83.52h14.7v38.1c0,7.57,3.17,10.74,9.24,10.74s9.59-3.08,9.59-11V83.52h14.25V121.1c0,13.64-8.89,22.88-24.29,22.88-14.43,0-23.5-8.45-23.5-21.56V83.52Z"/><path class="cls-2" d="M496.66,83.52h25.43c10.47,0,18.39,3.52,18.39,14.34,0,8.18-4.49,11.35-12.14,13v0.35c8.71,1.06,14,5.63,14,14.52,0,11.62-8.36,17.16-19.54,17.16H496.66V83.52Zm21.12,22.79c3.87,0,7.74-1.06,7.74-6.16s-3.43-6-6.86-6h-7.39v12.14h6.51Zm1.41,26c4.49,0,8.36-2.2,8.36-8.1,0-5.1-3.87-7.22-8.36-7.22h-7.92v15.31h7.92Z"/><path class="cls-2" d="M545.76,83.52h15.75L577.09,113c1.32,2.55,3.08,7,4.49,10.56h0.35c-0.18-3.34-.62-8.1-0.62-11.53V83.52h12.06v59.4H578l-16.19-29.39a82.14,82.14,0,0,1-4.31-9.68h-0.35c0.26,3.34.7,7.3,0.7,10.56v28.51H545.76V83.52Z"/><path class="cls-2" d="M599.7,83.52H639V94.43H614.4v12.76h20.68V118.1H614.4V132h25.52v10.91H599.7V83.52Z"/><path class="cls-2" d="M638.69,83.52h47.43V94.43H669.57v48.49h-14.7V94.43H638.69V83.52Z"/><g class="cls-3"><circle class="cls-4" cx="77.4" cy="17.78" r="3.05"/><circle class="cls-4" cx="77.4" cy="133.89" r="3.05"/><circle class="cls-4" cx="19.4" cy="76.17" r="3.05"/><circle class="cls-4" cx="135.51" cy="76.17" r="3.05"/><circle class="cls-4" cx="36.37" cy="34.82" r="3.05" transform="translate(-13.97 35.91) rotate(-45)"/><circle class="cls-4" cx="118.47" cy="116.92" r="3.05" transform="translate(-47.97 118.01) rotate(-45)"/><circle class="cls-4" cx="36.64" cy="117.12" r="3.05" transform="translate(-72.08 60.21) rotate(-45)"/><circle class="cls-4" cx="118.75" cy="35.02" r="3.05" transform="translate(10.02 94.22) rotate(-45)"/><polygon class="cls-5" points="38.8 114.96 77.4 20.83 116.31 114.76 19.4 76.17 116.59 37.18 77.4 130.84 38.53 36.98 132.46 76.17 38.8 114.96"/></g><circle class="cls-2" cx="55.01" cy="146.09" r="5.58"/><circle class="cls-2" cx="11.26" cy="109.37" r="5.58"/><circle class="cls-2" cx="104.7" cy="5.58" r="5.58"/><circle class="cls-2" cx="111.05" cy="142.75" r="5.58" transform="translate(-68.49 120.92) rotate(-45.19)"/><circle class="cls-2" cx="148.47" cy="101.57" r="5.58" transform="translate(-28.23 135.31) rotate(-45.19)"/><circle class="cls-2" cx="146.86" cy="44.81" r="5.58" transform="translate(11.56 117.41) rotate(-45.19)"/><circle class="cls-2" cx="6.44" cy="51.35" r="5.58" transform="translate(-34.53 19.73) rotate(-45.19)"/><circle class="cls-2" cx="45.65" cy="7.3" r="5.58" transform="translate(8.3 34.54) rotate(-45.19)"/><polygon class="cls-6" points="56.58 140.94 47.99 12.17 142.97 98.99 16.3 106.96 102.46 9.91 108.26 137.28 11.88 53.24 141.33 46.68 56.58 140.94"/></svg>