<?xml version="1.0" encoding="utf-8"?>
<!-- Generator: Adobe Illustrator 19.2.1, SVG Export Plug-In . SVG Version: 6.00 Build 0)  -->
<svg version="1.1" id="Layer_1" xmlns="http://www.w3.org/2000/svg" xmlns:xlink="http://www.w3.org/1999/xlink" x="0px" y="0px"
	 viewBox="0 0 619 151.4" style="enable-background:new 0 0 619 151.4;" xml:space="preserve">
<style type="text/css">
	.st0{fill:#99A3A8;}
	.st1{fill:#CCD1D3;}
	.st2{fill:none;stroke:#A3ABAF;stroke-width:5;stroke-linecap:round;stroke-linejoin:round;stroke-miterlimit:10;}
	.st3{fill:#3D3D3D;}
	.st4{fill:#0075A8;}
	.st5{fill:#B3C78F;}
	.st6{fill:none;stroke:#CCD1D3;stroke-miterlimit:10;}
	.st7{fill:none;stroke:#CCD1D3;stroke-width:1.893;stroke-miterlimit:10;}
	.st8{fill:#F15354;}
	.st9{fill:#A3ABAF;}
	.st10{fill:#3498DB;}
	.st11{fill:#2980B9;}
	.st12{fill:#E67E22;}
	.st13{fill:#D35401;}
	.st14{fill:#F1C40F;}
	.st15{fill:#E49701;}
	.st16{fill:#EADF5A;}
	.st17{fill:#D7C320;}
	.st18{fill:#34495E;}
	.st19{fill:#2C3E50;}
	.st20{fill:#2B2B2B;}
	.st21{fill:#262626;}
	.st22{fill:#3A6F81;}
	.st23{fill:#356272;}
	.st24{fill:#00558B;}
	.st25{fill:#27AE60;}
	.st26{fill:#169242;}
	.st27{fill:#A5C63B;}
	.st28{fill:#8EB021;}
	.st29{fill:#ECF0F1;}
	.st30{fill:#BDC3C7;}
	.st31{fill:#95A5A6;}
	.st32{fill:#7F8C8D;}
	.st33{fill:#E74C3C;}
	.st34{fill:#C0392B;}
	.st35{fill:#EA3738;}
	.st36{fill:#78C9CF;}
	.st37{fill:#389EA8;}
	.st38{fill:#2D8490;}
	.st39{fill:#1A6470;}
	.st40{fill:#21364A;}
	.st41{fill:#040B15;}
	.st42{fill:#66767C;}
	.st43{fill:#334851;}
	.st44{fill:#5C686F;}
	.st45{fill:#29373C;}
	.st46{fill:#0A141A;}
	.st47{fill:#FFFFFF;}
	.st48{fill:#0D5E8C;}
	.st49{fill:#0071BC;}
	.st50{fill:#808080;stroke:#000000;stroke-width:0.5;stroke-miterlimit:10;}
	.st51{fill:#DFDFDF;stroke:#000000;stroke-width:0.5;stroke-miterlimit:10;}
	.st52{stroke:#000000;stroke-width:0.5;stroke-miterlimit:10;}
	.st53{fill:none;stroke:#A3ABAF;stroke-width:12;stroke-miterlimit:10;}
	.st54{fill:none;stroke:#F15354;stroke-width:0.4376;stroke-miterlimit:10;}
	.st55{fill:none;stroke:#F15354;stroke-miterlimit:10;}
	.st56{fill:none;stroke:#3498DB;stroke-width:15;stroke-linecap:square;stroke-miterlimit:10;}
	.st57{fill:none;stroke:#A3ABAF;stroke-width:9;stroke-miterlimit:10;}
	.st58{opacity:0.5;fill:url(#SVGID_1_);}
	.st59{clip-path:url(#SVGID_3_);enable-background:new    ;}
	.st60{fill:#D3AC0D;}
	.st61{fill:#B5930B;}
	.st62{opacity:0.5;fill:url(#SVGID_4_);}
	.st63{clip-path:url(#SVGID_6_);enable-background:new    ;}
	.st64{opacity:0.5;fill:url(#SVGID_7_);}
	.st65{clip-path:url(#SVGID_9_);enable-background:new    ;}
	.st66{opacity:0.5;fill:url(#SVGID_10_);}
	.st67{clip-path:url(#SVGID_12_);enable-background:new    ;}
	.st68{fill:#58D68D;}
	.st69{fill:#2ECC71;}
	.st70{fill:none;stroke:#2ECC71;stroke-width:1.1621;stroke-miterlimit:10;}
	.st71{fill:none;stroke:#F1C40F;stroke-width:1.1621;stroke-miterlimit:10;}
	.st72{fill:none;stroke:#0075A8;stroke-width:1.1621;stroke-miterlimit:10;}
	.st73{fill:none;stroke:#BDC3C7;stroke-width:10;stroke-miterlimit:10;}
	.st74{fill:none;stroke:#A3ABAF;stroke-width:10;stroke-miterlimit:10;}
	.st75{opacity:0.2;fill:#78C9CF;}
	.st76{fill:none;stroke:#0075A8;stroke-miterlimit:10;}
	.st77{fill:#5D5D5D;}
	.st78{fill:none;stroke:#99A3A8;stroke-miterlimit:10;}
	.st79{fill:none;stroke:#0075A8;stroke-width:1.8275;stroke-miterlimit:10;}
	.st80{opacity:0.7;}
</style>
<path class="st4" d="M75.7,15c33.5,0,60.7,27.2,60.7,60.7s-27.2,60.7-60.7,60.7S15,109.2,15,75.7S42.2,15,75.7,15 M75.7,0
	C34,0,0,34,0,75.7s34,75.7,75.7,75.7s75.7-34,75.7-75.7S117.5,0,75.7,0L75.7,0z"/>
<path class="st1" d="M75.9,128.9h-0.2c-0.7,0-1.4,0-2.1,0l0.2-5c0.6,0,1.2,0,1.9,0h0.2V128.9z M86.2,127.9l-1-4.9
	c0.6-0.1,1.2-0.3,1.8-0.4l1.2,4.9C87.5,127.6,86.8,127.8,86.2,127.9z M63.4,127.5c-0.7-0.2-1.3-0.3-2-0.5l1.3-4.8
	c0.6,0.2,1.2,0.3,1.8,0.5L63.4,127.5z M97.9,124.1l-2.1-4.5c0.6-0.3,1.1-0.5,1.7-0.8l2.3,4.5C99.1,123.5,98.5,123.8,97.9,124.1z
	 M51.8,123.3c-0.6-0.3-1.2-0.6-1.8-1l2.4-4.4c0.5,0.3,1.1,0.6,1.7,0.9L51.8,123.3z M108.4,117.6l-3.1-3.9c0.5-0.4,1-0.8,1.4-1.2
	l3.2,3.8C109.5,116.8,109,117.2,108.4,117.6z M41.5,116.5c-0.5-0.4-1-0.9-1.6-1.4l3.4-3.7c0.5,0.4,0.9,0.8,1.4,1.2L41.5,116.5z
	 M117.2,109l-3.9-3.1c0.4-0.5,0.8-1,1.1-1.5l4,3C118.1,107.9,117.6,108.4,117.2,109z M33.1,107.5c-0.4-0.6-0.8-1.1-1.2-1.7L36,103
	c0.4,0.5,0.7,1,1.1,1.5L33.1,107.5z M123.8,98.5l-4.5-2.1c0.3-0.6,0.5-1.1,0.8-1.7l4.6,2C124.4,97.3,124.1,97.9,123.8,98.5z
	 M26.9,96.8c-0.3-0.6-0.5-1.3-0.8-1.9l4.7-1.8c0.2,0.6,0.5,1.2,0.7,1.7L26.9,96.8z M127.8,86.8l-4.9-1c0.1-0.6,0.2-1.2,0.4-1.8
	l4.9,0.9C128,85.5,127.9,86.1,127.8,86.8z M23.3,85c-0.1-0.7-0.2-1.4-0.3-2l5-0.7c0.1,0.6,0.2,1.2,0.3,1.8L23.3,85z M123.9,74.6
	c0-0.6,0-1.2-0.1-1.9l5-0.3c0,0.7,0.1,1.4,0.1,2.1L123.9,74.6z M27.6,73l-5-0.3c0-0.7,0.1-1.4,0.2-2.1l5,0.5
	C27.7,71.7,27.6,72.3,27.6,73z M122.4,63.6c-0.2-0.6-0.3-1.2-0.5-1.8l4.8-1.4c0.2,0.7,0.4,1.3,0.6,2L122.4,63.6z M29.5,61.9
	l-4.8-1.4c0.2-0.7,0.4-1.3,0.6-2l4.7,1.6C29.9,60.8,29.7,61.3,29.5,61.9z M118.3,53.1c-0.3-0.5-0.6-1.1-0.9-1.6l4.3-2.5
	c0.3,0.6,0.7,1.2,1,1.8L118.3,53.1z M33.9,51.7l-4.3-2.5c0.3-0.6,0.7-1.2,1.1-1.8l4.2,2.7C34.6,50.6,34.2,51.1,33.9,51.7z
	 M111.9,43.9c-0.4-0.5-0.8-0.9-1.3-1.4l3.6-3.4c0.5,0.5,0.9,1,1.4,1.5L111.9,43.9z M40.6,42.7L37,39.3c0.5-0.5,1-1,1.4-1.5l3.5,3.6
	C41.5,41.8,41,42.2,40.6,42.7z M103.6,36.4c-0.5-0.4-1-0.7-1.5-1.1l2.7-4.2c0.6,0.4,1.1,0.8,1.7,1.2L103.6,36.4z M49.2,35.5
	l-2.8-4.2c0.6-0.4,1.2-0.7,1.7-1.1l2.6,4.3C50.2,34.8,49.7,35.1,49.2,35.5z M93.8,31c-0.6-0.2-1.2-0.5-1.7-0.7l1.7-4.7
	c0.6,0.2,1.3,0.5,1.9,0.7L93.8,31z M59.1,30.4l-1.7-4.7c0.6-0.2,1.3-0.5,2-0.7l1.5,4.8C60.3,30,59.7,30.2,59.1,30.4z M83.1,28.1
	c-0.6-0.1-1.2-0.2-1.8-0.2l0.6-5c0.7,0.1,1.4,0.2,2,0.3L83.1,28.1z M70,27.8l-0.6-5c0.7-0.1,1.4-0.1,2.1-0.2l0.4,5
	C71.3,27.7,70.6,27.8,70,27.8z"/>
<polygon class="st1" points="73.7,89.8 50.3,66.4 57.4,59.3 73.7,75.6 102.8,46.6 109.8,53.7 "/>
<g>
	<path class="st3" d="M182.4,8.5h24.5c11.6,0,19.4,5.6,19.4,16.5c0,8.9-6.1,14.3-12,16.1c1.8,1.5,3.1,3.5,4.1,5.6
		c2.5,5,4.1,10.6,9.3,10.6c1.3,0,2.4-0.4,2.4-0.4L229,67.4c0,0-3.2,0.8-5.9,0.8c-7,0-11.1-2.7-15.2-12.1c-1.8-4.2-4.2-11.6-7.5-11.6
		h-3.3v23.5h-14.7V8.5z M197.1,19.1v14.6h5.3c4.2,0,9.2-1.3,9.2-7.7c0-5.2-3.3-7-7.4-7H197.1z"/>
	<path class="st3" d="M246.5,8.5h14.9l20.1,59.4h-14.9l-3.7-11.3H243l-3.6,11.3h-12.8L246.5,8.5z M246.5,45.7h12.8l-4-12.5
		c-1.4-4.2-2-10.2-2-10.2h-0.4c0,0-0.9,6.1-2.2,10.1L246.5,45.7z"/>
	<path class="st3" d="M282.4,8.5h15.8L313.7,38c1.3,2.6,3.1,7,4.5,10.6h0.4c-0.2-3.3-0.6-8.1-0.6-11.5V8.5H330v59.4h-15.4
		l-16.2-29.4c-1.5-2.6-3.1-6.5-4.3-9.7h-0.4c0.3,3.3,0.7,7.3,0.7,10.6v28.5h-12.1V8.5z"/>
	<path class="st3" d="M333.6,37.8c0-21.5,10.6-30.4,27.1-30.4c17.3,0,24.3,9.5,22.4,22.4L369.3,31c1.5-9.4-2.2-13.2-8.9-13.2
		c-6.4,0-11.6,4.8-11.6,20.1c0,16.2,5.6,20.3,12.1,20.3c6.1,0,11-3.8,9.9-11.5l12.8,1.3c1,12.1-7.7,20.9-23.6,20.9
		C343.9,69,333.6,59.5,333.6,37.8z"/>
	<path class="st3" d="M387,8.5h14.7v22.4h18V8.5h14.7v59.4h-14.7V42.7h-18v25.2H387V8.5z"/>
	<path class="st3" d="M440.6,8.5H480v10.9h-24.6v12.8H476v10.9h-20.7V57h25.5v10.9h-40.2V8.5z"/>
	<path class="st3" d="M484,8.5h24.5c11.6,0,19.4,5.6,19.4,16.5c0,8.9-6.1,14.3-12,16.1c1.8,1.5,3.1,3.5,4.1,5.6
		c2.5,5,4.1,10.6,9.3,10.6c1.3,0,2.4-0.4,2.4-0.4l-1.1,10.5c0,0-3.2,0.8-5.9,0.8c-7,0-11.1-2.7-15.2-12.1
		c-1.8-4.2-4.2-11.6-7.5-11.6h-3.3v23.5H484V8.5z M498.7,19.1v14.6h5.3c4.2,0,9.2-1.3,9.2-7.7c0-5.2-3.3-7-7.4-7H498.7z"/>
	<path class="st4" d="M192.2,123.4c-1.1,4.8,0.8,10.2,10.1,10.2c6.2,0,8.3-2.5,8.3-5.7c0-4.9-4.9-6.2-10.7-8.3
		c-8.7-3-19.4-7.2-19.4-19.6c0-11.1,8.5-17.9,23.1-17.5c17.8,0.4,22.8,10.8,20.9,19.9l-13.5,1.2c0.9-6.9-1.6-10.7-8.5-10.7
		c-4.7,0-7.3,1.8-7.3,5.5c0,4.9,4.8,6.4,10.6,8.4c9,3,19.6,6.6,19.6,18.9c0,10.6-7.9,18.3-23.4,18.3c-14.5,0-24.5-6.7-22.4-19.4
		L192.2,123.4z"/>
	<path class="st4" d="M226.1,112.8c0-21.5,10.6-30.4,27.1-30.4c17.3,0,24.3,9.5,22.4,22.4l-13.7,1.2c1.5-9.4-2.2-13.2-8.9-13.2
		c-6.4,0-11.6,4.8-11.6,20.1c0,16.2,5.6,20.3,12.1,20.3c6.1,0,11-3.8,9.9-11.5l12.8,1.3c1,12.1-7.7,20.9-23.6,20.9
		C236.5,144,226.1,134.5,226.1,112.8z"/>
	<path class="st4" d="M279.5,83.5h14.7v22.4h18V83.5h14.7v59.4h-14.7v-25.2h-18v25.2h-14.7V83.5z"/>
	<path class="st4" d="M333.2,83.5h39.3v10.9h-24.6v12.8h20.7v10.9h-20.7V132h25.5v10.9h-40.2V83.5z"/>
	<path class="st4" d="M376.6,83.5h22.7c14.8,0,26.2,8.6,26.2,29.4c0,20.3-10.9,30-26.2,30h-22.7V83.5z M397.9,132.3
		c6.5,0,12.8-4,12.8-19.4c0-15.3-6.2-18.7-12.8-18.7h-6.6v38.1H397.9z"/>
	<path class="st4" d="M428.6,83.5h14.7v38.1c0,7.6,3.2,10.7,9.2,10.7c6,0,9.6-3.1,9.6-11V83.5h14.3v37.6c0,13.6-8.9,22.9-24.3,22.9
		c-14.4,0-23.5-8.4-23.5-21.6V83.5z"/>
	<path class="st4" d="M482.1,83.5h14.7V132h24.7v10.9h-39.4V83.5z"/>
	<path class="st4" d="M523.1,83.5h39.3v10.9h-24.6v12.8h20.7v10.9h-20.7V132h25.5v10.9h-40.2V83.5z"/>
	<path class="st4" d="M566.5,83.5h24.5c11.6,0,19.4,5.6,19.4,16.5c0,8.9-6.1,14.3-12,16.1c1.8,1.5,3.1,3.5,4.1,5.6
		c2.5,5,4.1,10.6,9.3,10.6c1.3,0,2.4-0.4,2.4-0.4l-1.1,10.5c0,0-3.2,0.8-5.9,0.8c-7,0-11.1-2.7-15.2-12.1
		c-1.8-4.2-4.2-11.6-7.5-11.6h-3.3v23.5h-14.7V83.5z M581.2,94.1v14.6h5.3c4.2,0,9.2-1.3,9.2-7.7c0-5.2-3.3-7-7.4-7H581.2z"/>
</g>
</svg>
