<?xml version="1.0" encoding="utf-8"?>
<!-- Generator: Adobe Illustrator 19.2.1, SVG Export Plug-In . SVG Version: 6.00 Build 0)  -->
<svg version="1.1" id="Layer_1" xmlns="http://www.w3.org/2000/svg" xmlns:xlink="http://www.w3.org/1999/xlink" x="0px" y="0px"
	 viewBox="0 0 698.3 151.4" style="enable-background:new 0 0 698.3 151.4;" xml:space="preserve">
<style type="text/css">
	.st0{fill:#3D3D3D;}
	.st1{fill:#0075A8;}
	.st2{fill:#CCD1D3;}
	.st3{fill:#0D5E8C;}
	.st4{fill:#0071BC;}
	.st5{fill:#FFFFFF;}
	.st6{fill:#BDC3C7;}
	.st7{fill:#F15354;}
	.st8{fill:#A3ABAF;}
	.st9{fill:#58D68D;}
	.st10{fill:#2ECC71;}
	.st11{fill:#3498DB;}
	.st12{fill:#EADF5A;}
	.st13{fill:#F1C40F;}
	.st14{fill:#2D8490;}
	.st15{fill:#3A6F81;}
	.st16{fill:#ECF0F1;}
	.st17{opacity:0.2;fill:#78C9CF;}
</style>
<g>
	<path class="st0" d="M235.6,63.7h-13.5c-2.5,0-4.3-0.9-5.4-2.8l-10.6-18.6c-0.5-0.8-1.1-1.4-1.7-1.7c-0.6-0.4-1.5-0.5-2.6-0.5H198
		v23.7h-14.9V-0.4H204c4.6,0,8.6,0.5,11.9,1.4c3.3,1,5.9,2.3,8,4s3.6,3.7,4.5,6s1.4,4.8,1.4,7.6c0,2.1-0.3,4-0.8,5.9
		c-0.6,1.8-1.4,3.6-2.5,5.1c-1.1,1.6-2.4,3-4,4.2s-3.4,2.2-5.5,3c1,0.5,1.9,1.1,2.7,1.9c0.9,0.7,1.6,1.6,2.3,2.7L235.6,63.7z
		 M204,29.7c2,0,3.7-0.3,5.2-0.8c1.4-0.5,2.6-1.2,3.5-2.1s1.6-2,2-3.2s0.6-2.5,0.6-3.9c0-2.8-0.9-5-2.8-6.6
		c-1.8-1.6-4.7-2.4-8.5-2.4h-6v19H204z"/>
	<path class="st0" d="M299.4,63.7h-11.5c-1.3,0-2.3-0.3-3.1-0.9c-0.8-0.6-1.4-1.4-1.8-2.3l-3.8-11.2h-24.4L251,60.5
		c-0.3,0.8-0.9,1.6-1.7,2.2c-0.8,0.7-1.9,1-3.1,1h-11.6l24.8-64.1h15.2L299.4,63.7z M275.8,39.2l-5.9-17.6c-0.4-1.1-0.9-2.4-1.4-3.9
		s-1-3.1-1.5-4.9c-0.4,1.8-0.9,3.4-1.4,5c-0.5,1.5-1,2.8-1.4,4l-5.9,17.5h17.5V39.2z"/>
	<path class="st0" d="M361.3-0.4v64.1h-7.7c-1.1,0-2.1-0.2-2.9-0.5c-0.8-0.4-1.5-1-2.3-1.9L318.1,23c0.1,1.1,0.2,2.3,0.2,3.3
		c0,1.1,0.1,2.1,0.1,3v34.4h-13.1V-0.4h7.8c0.6,0,1.2,0,1.6,0.1s0.8,0.2,1.2,0.3c0.4,0.2,0.7,0.4,1,0.7s0.7,0.7,1.1,1.2l30.5,38.5
		c-0.1-1.2-0.2-2.4-0.3-3.6c-0.1-1.2-0.1-2.3-0.1-3.3V-0.4H361.3z"/>
	<path class="st0" d="M417.8,47.1c0.4,0,0.7,0.1,1.1,0.2c0.4,0.1,0.7,0.4,1,0.7l5.9,6.2c-2.6,3.4-5.8,5.9-9.7,7.6s-8.5,2.6-13.8,2.6
		c-4.9,0-9.2-0.8-13.1-2.5s-7.1-3.9-9.8-6.9c-2.7-2.9-4.7-6.4-6.2-10.4c-1.4-4-2.2-8.4-2.2-13c0-4.8,0.8-9.2,2.3-13.2
		s3.7-7.5,6.6-10.4c2.8-2.9,6.2-5.2,10.1-6.8s8.3-2.4,13-2.4c2.4,0,4.7,0.2,6.8,0.6c2.1,0.4,4.1,1,6,1.8c1.8,0.7,3.5,1.7,5.1,2.7
		c1.6,1.1,2.9,2.2,4.1,3.4l-5,6.7c-0.3,0.4-0.7,0.8-1.1,1.1s-1.1,0.5-1.8,0.5c-0.5,0-1-0.1-1.5-0.4c-0.5-0.2-1-0.5-1.5-0.9
		c-0.5-0.3-1.1-0.7-1.7-1.1c-0.6-0.4-1.4-0.8-2.2-1.1c-0.9-0.3-1.9-0.6-3-0.9c-1.2-0.2-2.5-0.4-4.1-0.4c-2.5,0-4.7,0.5-6.8,1.4
		c-2,0.9-3.8,2.2-5.3,4c-1.5,1.7-2.6,3.9-3.4,6.4s-1.2,5.4-1.2,8.7s0.4,6.2,1.3,8.8s2.1,4.7,3.7,6.4s3.3,3.1,5.4,4s4.3,1.4,6.6,1.4
		c1.3,0,2.6-0.1,3.7-0.2c1.1-0.1,2.2-0.4,3.1-0.7c1-0.3,1.9-0.7,2.7-1.2c0.8-0.5,1.7-1.2,2.6-2c0.4-0.3,0.7-0.5,1.1-0.7
		S417.3,47.1,417.8,47.1z"/>
	<path class="st0" d="M489.1-0.4v64.1h-15V36.6h-26v27.1h-15V-0.4h15v26.8h26V-0.4H489.1z"/>
	<path class="st0" d="M517.4,11v15h20.2v11h-20.2v15.3h26.3v11.4h-41.3V-0.4h41.3V11H517.4z"/>
	<path class="st0" d="M606.1,63.7h-13.5c-2.5,0-4.3-0.9-5.4-2.8l-10.6-18.6c-0.5-0.8-1.1-1.4-1.7-1.7c-0.6-0.4-1.5-0.5-2.6-0.5h-3.8
		v23.7h-14.9V-0.4h20.9c4.6,0,8.6,0.5,11.9,1.4c3.3,1,5.9,2.3,8,4s3.6,3.7,4.5,6s1.4,4.8,1.4,7.6c0,2.1-0.3,4-0.8,5.9
		c-0.6,1.8-1.4,3.6-2.5,5.1c-1.1,1.6-2.4,3-4,4.2s-3.4,2.2-5.5,3c1,0.5,1.9,1.1,2.7,1.9s1.6,1.6,2.3,2.7L606.1,63.7z M574.6,29.7
		c2,0,3.7-0.3,5.2-0.8c1.4-0.5,2.6-1.2,3.5-2.1s1.6-2,2-3.2s0.6-2.5,0.6-3.9c0-2.8-0.9-5-2.8-6.6c-1.8-1.6-4.7-2.4-8.5-2.4h-6v19
		H574.6z"/>
	<path class="st1" d="M218.6,100.6c-0.4,0.7-0.9,1.2-1.4,1.6s-1.1,0.5-1.9,0.5c-0.7,0-1.4-0.2-2.2-0.6s-1.7-0.9-2.6-1.4
		c-1-0.5-2.1-1-3.4-1.4c-1.3-0.4-2.7-0.6-4.3-0.6c-2.8,0-4.9,0.6-6.2,1.8c-1.4,1.2-2,2.8-2,4.8c0,1.3,0.4,2.4,1.2,3.2
		c0.8,0.9,1.9,1.6,3.2,2.2s2.9,1.2,4.6,1.7c1.7,0.5,3.5,1.1,5.3,1.7s3.5,1.4,5.3,2.2c1.7,0.9,3.2,1.9,4.6,3.3
		c1.3,1.3,2.4,2.9,3.2,4.8s1.2,4.2,1.2,6.8c0,3-0.5,5.7-1.5,8.3s-2.5,4.8-4.5,6.8c-2,1.9-4.4,3.4-7.2,4.5c-2.9,1.1-6.1,1.7-9.7,1.7
		c-2,0-4-0.2-6.1-0.6c-2.1-0.4-4.1-1-6-1.7s-3.8-1.6-5.5-2.7c-1.7-1-3.2-2.2-4.4-3.4l4.4-7c0.4-0.5,0.8-0.9,1.4-1.3
		c0.6-0.3,1.2-0.5,1.9-0.5c0.9,0,1.8,0.3,2.7,0.8c0.9,0.6,1.9,1.2,3,1.8c1.1,0.7,2.4,1.3,3.9,1.8c1.5,0.6,3.2,0.8,5.2,0.8
		c2.7,0,4.8-0.6,6.3-1.8s2.2-3.1,2.2-5.7c0-1.5-0.4-2.7-1.2-3.7c-0.8-0.9-1.9-1.7-3.2-2.3c-1.3-0.6-2.9-1.2-4.6-1.6
		c-1.7-0.5-3.4-1-5.2-1.6s-3.5-1.3-5.2-2.1c-1.7-0.8-3.2-1.9-4.6-3.3c-1.3-1.4-2.4-3.1-3.2-5.1s-1.2-4.6-1.2-7.5
		c0-2.4,0.5-4.8,1.5-7c1-2.3,2.4-4.3,4.3-6.1c1.9-1.8,4.2-3.2,6.9-4.3c2.7-1.1,5.9-1.6,9.4-1.6c2,0,3.9,0.2,5.7,0.5
		c1.9,0.3,3.6,0.8,5.3,1.4s3.2,1.3,4.7,2.2c1.5,0.8,2.8,1.8,3.9,2.8L218.6,100.6z"/>
	<path class="st1" d="M276,135.1c0.4,0,0.7,0.1,1.1,0.2c0.4,0.1,0.7,0.4,1,0.7l5.9,6.2c-2.6,3.4-5.8,5.9-9.7,7.6s-8.5,2.6-13.8,2.6
		c-4.9,0-9.2-0.8-13.1-2.5c-3.9-1.7-7.1-3.9-9.8-6.9c-2.7-2.9-4.7-6.4-6.2-10.4c-1.4-4-2.2-8.4-2.2-13c0-4.8,0.8-9.2,2.3-13.2
		c1.6-4,3.7-7.5,6.6-10.4c2.8-2.9,6.2-5.2,10.1-6.8c3.9-1.6,8.3-2.4,13-2.4c2.4,0,4.7,0.2,6.8,0.6c2.1,0.4,4.1,1,6,1.8
		c1.8,0.7,3.5,1.7,5.1,2.7c1.6,1.1,2.9,2.2,4.1,3.4l-5,6.7c-0.3,0.4-0.7,0.8-1.1,1.1c-0.4,0.3-1.1,0.5-1.8,0.5c-0.5,0-1-0.1-1.5-0.4
		c-0.5-0.2-1-0.5-1.5-0.9c-0.5-0.3-1.1-0.7-1.7-1.1s-1.4-0.8-2.2-1.1c-0.9-0.3-1.9-0.6-3-0.9c-1.2-0.2-2.5-0.4-4.1-0.4
		c-2.5,0-4.7,0.5-6.8,1.4c-2,0.9-3.8,2.2-5.3,4c-1.5,1.7-2.6,3.9-3.4,6.4c-0.8,2.5-1.2,5.4-1.2,8.7c0,3.3,0.4,6.2,1.3,8.8
		c0.9,2.6,2.1,4.7,3.7,6.4s3.3,3.1,5.4,4s4.3,1.4,6.6,1.4c1.3,0,2.6-0.1,3.7-0.2c1.1-0.1,2.2-0.4,3.1-0.7c1-0.3,1.9-0.7,2.7-1.2
		c0.9-0.5,1.7-1.2,2.6-2c0.4-0.3,0.7-0.5,1.1-0.7C275.1,135.2,275.5,135.1,276,135.1z"/>
	<path class="st1" d="M347.3,87.6v64.1h-15v-27.1h-26v27.1h-15V87.6h15v26.8h26V87.6H347.3z"/>
	<path class="st1" d="M375.5,99v15h20.2v11h-20.2v15.3h26.3v11.4h-41.3V87.6h41.3V99H375.5z"/>
	<path class="st1" d="M470.1,119.6c0,4.6-0.8,8.9-2.4,12.8s-3.8,7.3-6.8,10.2c-2.9,2.9-6.4,5.1-10.5,6.7c-4.1,1.6-8.6,2.4-13.6,2.4
		h-24.9V87.6h24.9c5,0,9.5,0.8,13.6,2.4s7.6,3.8,10.5,6.7c2.9,2.8,5.2,6.2,6.8,10.1S470.1,115,470.1,119.6z M454.8,119.6
		c0-3.2-0.4-6-1.2-8.6c-0.8-2.6-2-4.7-3.5-6.5s-3.4-3.1-5.7-4.1c-2.2-1-4.8-1.4-7.6-1.4h-9.9v41.2h9.9c2.8,0,5.4-0.5,7.6-1.4
		c2.2-1,4.1-2.3,5.7-4.1c1.5-1.8,2.7-3.9,3.5-6.5S454.8,122.8,454.8,119.6z"/>
	<path class="st1" d="M506.5,140c2,0,3.8-0.3,5.3-1c1.6-0.7,2.9-1.6,4-2.8s1.9-2.7,2.5-4.5s0.9-3.8,0.9-6v-38H534v38
		c0,3.9-0.6,7.5-1.9,10.8s-3.1,6.1-5.5,8.5s-5.3,4.2-8.7,5.5s-7.2,2-11.5,2s-8.1-0.7-11.5-2s-6.3-3.2-8.7-5.5s-4.2-5.2-5.5-8.5
		s-1.9-6.9-1.9-10.8v-38h14.9v37.9c0,2.3,0.3,4.3,0.9,6c0.6,1.8,1.4,3.3,2.5,4.5s2.4,2.2,4,2.9C502.7,139.6,504.5,140,506.5,140z"/>
	<path class="st1" d="M585.2,139.8v11.9h-38.6V87.6h14.9v52.2H585.2z"/>
	<path class="st1" d="M608.6,99v15h20.2v11h-20.2v15.3h26.3v11.4h-41.3V87.6h41.3V99H608.6z"/>
	<path class="st1" d="M697.4,151.7h-13.5c-2.5,0-4.3-0.9-5.4-2.8l-10.6-18.6c-0.5-0.8-1.1-1.4-1.7-1.7c-0.6-0.4-1.5-0.5-2.6-0.5
		h-3.8v23.7h-14.9V87.6h20.9c4.6,0,8.6,0.5,11.9,1.4c3.3,1,5.9,2.3,8,4s3.6,3.7,4.5,6s1.4,4.8,1.4,7.6c0,2.1-0.3,4-0.8,5.9
		c-0.6,1.8-1.4,3.6-2.5,5.1c-1.1,1.6-2.4,3-4,4.2s-3.4,2.2-5.5,3c1,0.5,1.9,1.1,2.7,1.9s1.6,1.6,2.3,2.7L697.4,151.7z M665.8,117.7
		c2,0,3.7-0.3,5.2-0.8c1.4-0.5,2.6-1.2,3.5-2.1s1.6-2,2-3.2s0.6-2.5,0.6-3.9c0-2.8-0.9-5-2.8-6.6c-1.8-1.6-4.7-2.4-8.5-2.4h-6v19
		H665.8z"/>
</g>
<path class="st1" d="M75.7,15c33.5,0,60.7,27.2,60.7,60.7s-27.2,60.7-60.7,60.7S15,109.2,15,75.7S42.2,15,75.7,15 M75.7,0
	C34,0,0,34,0,75.7s34,75.7,75.7,75.7s75.7-34,75.7-75.7S117.5,0,75.7,0L75.7,0z"/>
<path class="st2" d="M75.9,128.9h-0.2c-0.7,0-1.4,0-2.1,0l0.2-5c0.6,0,1.2,0,1.9,0h0.2V128.9z M86.2,127.9l-1-4.9
	c0.6-0.1,1.2-0.3,1.8-0.4l1.2,4.9C87.5,127.6,86.8,127.8,86.2,127.9z M63.4,127.5c-0.7-0.2-1.3-0.3-2-0.5l1.3-4.8
	c0.6,0.2,1.2,0.3,1.8,0.5L63.4,127.5z M97.9,124.1l-2.1-4.5c0.6-0.3,1.1-0.5,1.7-0.8l2.3,4.5C99.1,123.5,98.5,123.8,97.9,124.1z
	 M51.8,123.3c-0.6-0.3-1.2-0.6-1.8-1l2.4-4.4c0.5,0.3,1.1,0.6,1.7,0.9L51.8,123.3z M108.4,117.6l-3.1-3.9c0.5-0.4,1-0.8,1.4-1.2
	l3.2,3.8C109.5,116.8,109,117.2,108.4,117.6z M41.5,116.5c-0.5-0.4-1-0.9-1.6-1.4l3.4-3.7c0.5,0.4,0.9,0.8,1.4,1.2L41.5,116.5z
	 M117.2,109l-3.9-3.1c0.4-0.5,0.8-1,1.1-1.5l4,3C118.1,107.9,117.6,108.4,117.2,109z M33.1,107.5c-0.4-0.6-0.8-1.1-1.2-1.7L36,103
	c0.4,0.5,0.7,1,1.1,1.5L33.1,107.5z M123.8,98.5l-4.5-2.1c0.3-0.6,0.5-1.1,0.8-1.7l4.6,2C124.4,97.3,124.1,97.9,123.8,98.5z
	 M26.9,96.8c-0.3-0.6-0.5-1.3-0.8-1.9l4.7-1.8c0.2,0.6,0.5,1.2,0.7,1.7L26.9,96.8z M127.8,86.8l-4.9-1c0.1-0.6,0.2-1.2,0.4-1.8
	l4.9,0.9C128,85.5,127.9,86.1,127.8,86.8z M23.3,85c-0.1-0.7-0.2-1.4-0.3-2l5-0.7c0.1,0.6,0.2,1.2,0.3,1.8L23.3,85z M123.9,74.6
	c0-0.6,0-1.2-0.1-1.9l5-0.3c0,0.7,0.1,1.4,0.1,2.1L123.9,74.6z M27.6,73l-5-0.3c0-0.7,0.1-1.4,0.2-2.1l5,0.5
	C27.7,71.7,27.6,72.3,27.6,73z M122.4,63.6c-0.2-0.6-0.3-1.2-0.5-1.8l4.8-1.4c0.2,0.7,0.4,1.3,0.6,2L122.4,63.6z M29.5,61.9
	l-4.8-1.4c0.2-0.7,0.4-1.3,0.6-2l4.7,1.6C29.9,60.8,29.7,61.3,29.5,61.9z M118.3,53.1c-0.3-0.5-0.6-1.1-0.9-1.6l4.3-2.5
	c0.3,0.6,0.7,1.2,1,1.8L118.3,53.1z M33.9,51.7l-4.3-2.5c0.3-0.6,0.7-1.2,1.1-1.8l4.2,2.7C34.6,50.6,34.2,51.1,33.9,51.7z
	 M111.9,43.9c-0.4-0.5-0.8-0.9-1.3-1.4l3.6-3.4c0.5,0.5,0.9,1,1.4,1.5L111.9,43.9z M40.6,42.7L37,39.3c0.5-0.5,1-1,1.4-1.5l3.5,3.6
	C41.5,41.8,41,42.2,40.6,42.7z M103.6,36.4c-0.5-0.4-1-0.7-1.5-1.1l2.7-4.2c0.6,0.4,1.1,0.8,1.7,1.2L103.6,36.4z M49.2,35.5
	l-2.8-4.2c0.6-0.4,1.2-0.7,1.7-1.1l2.6,4.3C50.2,34.8,49.7,35.1,49.2,35.5z M93.8,31c-0.6-0.2-1.2-0.5-1.7-0.7l1.7-4.7
	c0.6,0.2,1.3,0.5,1.9,0.7L93.8,31z M59.1,30.4l-1.7-4.7c0.6-0.2,1.3-0.5,2-0.7l1.5,4.8C60.3,30,59.7,30.2,59.1,30.4z M83.1,28.1
	c-0.6-0.1-1.2-0.2-1.8-0.2l0.6-5c0.7,0.1,1.4,0.2,2,0.3L83.1,28.1z M70,27.8l-0.6-5c0.7-0.1,1.4-0.1,2.1-0.2l0.4,5
	C71.3,27.7,70.6,27.8,70,27.8z"/>
<polygon class="st2" points="73.7,89.8 50.3,66.4 57.4,59.3 73.7,75.6 102.8,46.6 109.8,53.7 "/>
</svg>
