<?xml version="1.0" encoding="utf-8"?>
<!-- Generator: Adobe Illustrator 19.2.1, SVG Export Plug-In . SVG Version: 6.00 Build 0)  -->
<svg version="1.1" id="Layer_1" xmlns="http://www.w3.org/2000/svg" xmlns:xlink="http://www.w3.org/1999/xlink" x="0px" y="0px"
	 viewBox="0 0 100 100" style="enable-background:new 0 0 100 100;" xml:space="preserve">
<style type="text/css">
	.st0{fill:#26A9E0;}
	.st1{opacity:0.8;fill:#333333;}
	.st2{fill:#F2F2F2;}
</style>
<g id="Layer_2">
</g>
<g id="Layer_3">
</g>
<g>
	<path id="Winlogo" class="st0" d="M47.4,25.5L78.9,21v28H47.4V25.5z M45.1,49.2V25.8l-24,3.3v20h24V49.2z M47.4,51.5v23.5l31.5,4
		V51.5H47.4z M45.1,51.5h-24v20l24,3.1V51.5z"/>
</g>
<path class="st1" d="M93,95.5H7c-1.1,0-2-0.9-2-2v-12c0-1.1,0.9-2,2-2H93c1.1,0,2,0.9,2,2v12C95,94.6,94.1,95.5,93,95.5z"/>
<g>
	<path class="st2" d="M21.8,85v1.6h2v0.8h-2v1.6h2.6v0.9h-3.6v-5.8h3.6V85H21.8z"/>
	<path class="st2" d="M30.1,89.9H29c-0.1,0-0.1,0-0.2-0.1c0,0-0.1-0.1-0.1-0.1l-1.3-2.2c0,0.1,0,0.1-0.1,0.2l-1.3,2
		c0,0-0.1,0.1-0.1,0.1c0,0-0.1,0.1-0.2,0.1h-1l1.9-3l-1.8-2.8h1.1c0.1,0,0.1,0,0.2,0c0,0,0.1,0.1,0.1,0.1l1.3,2.1
		c0-0.1,0.1-0.1,0.1-0.2l1.2-1.9c0,0,0.1-0.1,0.1-0.1c0,0,0.1,0,0.1,0h1l-1.9,2.8L30.1,89.9z"/>
	<path class="st2" d="M32.7,84.2c0.4,0,0.7,0,1,0.1s0.5,0.2,0.7,0.4s0.3,0.4,0.4,0.6s0.1,0.5,0.1,0.7c0,0.3,0,0.5-0.1,0.8
		c-0.1,0.2-0.2,0.4-0.4,0.6s-0.4,0.3-0.7,0.4c-0.3,0.1-0.6,0.1-1,0.1h-0.8v2h-1.1v-5.8H32.7z M32.7,87.1c0.2,0,0.4,0,0.5-0.1
		c0.1,0,0.3-0.1,0.4-0.2c0.1-0.1,0.2-0.2,0.2-0.3c0-0.1,0.1-0.3,0.1-0.4c0-0.2,0-0.3-0.1-0.4s-0.1-0.2-0.2-0.3
		c-0.1-0.1-0.2-0.2-0.4-0.2C33,85,32.9,85,32.7,85h-0.8v2.1H32.7z"/>
	<path class="st2" d="M36.9,85v1.6h2v0.8h-2v1.6h2.6v0.9h-3.6v-5.8h3.6V85H36.9z"/>
	<path class="st2" d="M45,89.9h-1c-0.2,0-0.3-0.1-0.4-0.2l-1.2-1.9c0-0.1-0.1-0.1-0.1-0.1s-0.1,0-0.2,0h-0.5v2.3h-1.1v-5.8h1.8
		c0.4,0,0.7,0,1,0.1c0.3,0.1,0.5,0.2,0.7,0.3c0.2,0.1,0.3,0.3,0.4,0.5c0.1,0.2,0.1,0.4,0.1,0.7c0,0.2,0,0.4-0.1,0.6
		c-0.1,0.2-0.1,0.3-0.2,0.5c-0.1,0.1-0.2,0.3-0.4,0.4s-0.3,0.2-0.5,0.3c0.1,0,0.1,0.1,0.2,0.1c0.1,0.1,0.1,0.1,0.2,0.2L45,89.9z
		 M42.3,86.9c0.2,0,0.4,0,0.5-0.1c0.2-0.1,0.3-0.1,0.4-0.2s0.2-0.2,0.2-0.3c0-0.1,0.1-0.3,0.1-0.4c0-0.3-0.1-0.5-0.3-0.7
		C43,85.1,42.7,85,42.3,85h-0.7v1.9H42.3z"/>
	<path class="st2" d="M46.8,89.9h-1.1v-5.8h1.1V89.9z"/>
	<path class="st2" d="M54.5,84.2v5.8h-0.9v-3.7c0-0.1,0-0.3,0-0.5L51.8,89c-0.1,0.2-0.2,0.2-0.4,0.2h-0.2c-0.2,0-0.3-0.1-0.4-0.2
		l-1.8-3.3c0,0.1,0,0.2,0,0.3s0,0.2,0,0.2v3.7h-0.9v-5.8H49c0,0,0.1,0,0.1,0c0,0,0.1,0,0.1,0c0,0,0.1,0,0.1,0.1c0,0,0,0.1,0.1,0.1
		l1.7,3.2c0,0.1,0.1,0.2,0.1,0.3c0,0.1,0.1,0.2,0.1,0.3c0-0.1,0.1-0.2,0.1-0.3c0-0.1,0.1-0.2,0.1-0.3l1.7-3.2c0,0,0-0.1,0.1-0.1
		c0,0,0,0,0.1-0.1c0,0,0.1,0,0.1,0c0,0,0.1,0,0.1,0H54.5z"/>
	<path class="st2" d="M56.9,85v1.6h2v0.8h-2v1.6h2.6v0.9h-3.6v-5.8h3.6V85H56.9z"/>
	<path class="st2" d="M65.4,84.2v5.8h-0.6c-0.1,0-0.2,0-0.2,0c-0.1,0-0.1-0.1-0.2-0.1l-3-3.9c0,0.2,0,0.3,0,0.5v3.6h-0.9v-5.8h0.6
		c0,0,0.1,0,0.1,0c0,0,0.1,0,0.1,0s0,0,0.1,0.1c0,0,0.1,0.1,0.1,0.1l3,3.9c0-0.1,0-0.2,0-0.3c0-0.1,0-0.2,0-0.3v-3.5H65.4z"/>
	<path class="st2" d="M70.8,85H69v4.9H68V85h-1.7v-0.9h4.6V85z"/>
	<path class="st2" d="M76,89.9h-0.8c-0.1,0-0.2,0-0.2-0.1c-0.1,0-0.1-0.1-0.1-0.2l-0.4-1.2H72l-0.4,1.2c0,0.1-0.1,0.1-0.1,0.2
		c-0.1,0.1-0.1,0.1-0.2,0.1h-0.8l2.3-5.8h1.1L76,89.9z M74.1,87.8l-0.7-1.9c0-0.1-0.1-0.2-0.1-0.3c0-0.1-0.1-0.2-0.1-0.4
		c0,0.1-0.1,0.3-0.1,0.4c0,0.1-0.1,0.2-0.1,0.3l-0.7,1.9H74.1z"/>
	<path class="st2" d="M80.1,89.1v0.9h-3.4v-5.8h1.1v4.9H80.1z"/>
</g>
</svg>
