<?xml version="1.0" encoding="utf-8"?>
<!-- Generator: Adobe Illustrator 19.2.1, SVG Export Plug-In . SVG Version: 6.00 Build 0)  -->
<svg version="1.1" id="Layer_1" xmlns="http://www.w3.org/2000/svg" xmlns:xlink="http://www.w3.org/1999/xlink" x="0px" y="0px"
	 viewBox="0 0 100 100" style="enable-background:new 0 0 100 100;" xml:space="preserve">
<style type="text/css">
	.st0{fill:#26A9E0;}
</style>
<g id="Layer_2">
</g>
<g id="Layer_3">
</g>
<g>
	<g id="Windows_8">
		<path class="st0" d="M31.4,78l-3.4,12.2h-1.6L24,81.2c-0.1-0.4-0.2-0.8-0.2-1.2h0c0,0.4-0.1,0.8-0.2,1.2l-2.5,8.9h-1.6L16,78h1.5
			l2.5,9.3c0.1,0.4,0.2,0.8,0.2,1.2h0c0-0.3,0.1-0.7,0.3-1.2l2.6-9.3h1.3l2.5,9.4c0.1,0.3,0.2,0.7,0.2,1.1h0c0-0.3,0.1-0.7,0.2-1.2
			l2.4-9.4H31.4z"/>
		<path class="st0" d="M33.7,79.2c-0.2,0-0.4-0.1-0.6-0.3c-0.2-0.2-0.3-0.4-0.3-0.6c0-0.3,0.1-0.5,0.3-0.6c0.2-0.2,0.4-0.3,0.6-0.3
			c0.2,0,0.5,0.1,0.6,0.3c0.2,0.2,0.3,0.4,0.3,0.6c0,0.2-0.1,0.5-0.3,0.6C34.2,79.2,34,79.2,33.7,79.2z M34.4,90.1H33v-8.7h1.4V90.1
			z"/>
		<path class="st0" d="M44.2,90.1h-1.4v-5c0-1.8-0.7-2.8-2-2.8c-0.7,0-1.2,0.3-1.7,0.8c-0.4,0.5-0.7,1.2-0.7,2v5h-1.4v-8.7h1.4v1.4
			h0c0.6-1.1,1.6-1.6,2.8-1.6c0.9,0,1.6,0.3,2.1,0.9c0.5,0.6,0.7,1.5,0.7,2.7V90.1z"/>
		<path class="st0" d="M53.9,90.1h-1.4v-1.5h0c-0.6,1.1-1.6,1.7-2.9,1.7c-1.1,0-1.9-0.4-2.6-1.2c-0.6-0.8-1-1.8-1-3.2
			c0-1.4,0.4-2.6,1.1-3.5c0.7-0.9,1.6-1.3,2.8-1.3c1.2,0,2,0.5,2.5,1.4h0v-5.4h1.4V90.1z M52.6,86.2v-1.3c0-0.7-0.2-1.3-0.7-1.8
			c-0.5-0.5-1-0.7-1.7-0.7c-0.8,0-1.5,0.3-2,0.9c-0.5,0.6-0.7,1.5-0.7,2.6c0,1,0.2,1.8,0.7,2.4c0.5,0.6,1.1,0.9,1.8,0.9
			c0.8,0,1.4-0.3,1.8-0.8C52.4,87.8,52.6,87.1,52.6,86.2z"/>
		<path class="st0" d="M60.2,90.3c-1.3,0-2.3-0.4-3-1.2c-0.7-0.8-1.1-1.9-1.1-3.2c0-1.5,0.4-2.6,1.2-3.4c0.8-0.8,1.8-1.2,3.2-1.2
			c1.3,0,2.2,0.4,3,1.2c0.7,0.8,1.1,1.9,1.1,3.3c0,1.4-0.4,2.5-1.1,3.3C62.5,89.9,61.5,90.3,60.2,90.3z M60.3,82.4
			c-0.9,0-1.6,0.3-2.1,0.9c-0.5,0.6-0.8,1.4-0.8,2.5c0,1,0.3,1.8,0.8,2.4c0.5,0.6,1.2,0.9,2.1,0.9c0.9,0,1.6-0.3,2-0.9
			c0.5-0.6,0.7-1.4,0.7-2.5c0-1.1-0.2-1.9-0.7-2.5C61.9,82.7,61.2,82.4,60.3,82.4z"/>
		<path class="st0" d="M77.3,81.4l-2.5,8.7h-1.4l-1.7-6.2c-0.1-0.2-0.1-0.5-0.1-0.8h0c0,0.2-0.1,0.5-0.2,0.8l-1.9,6.2H68l-2.6-8.7
			h1.4l1.8,6.5c0.1,0.2,0.1,0.5,0.1,0.8h0.1c0-0.2,0.1-0.5,0.1-0.8l2-6.5h1.2l1.8,6.6c0.1,0.2,0.1,0.5,0.1,0.8h0.1
			c0-0.2,0.1-0.5,0.1-0.8l1.7-6.6H77.3z"/>
		<path class="st0" d="M78.4,89.8v-1.5c0.7,0.6,1.6,0.8,2.4,0.8c1.2,0,1.8-0.4,1.8-1.2c0-0.2-0.1-0.4-0.2-0.6
			c-0.1-0.2-0.2-0.3-0.4-0.4c-0.2-0.1-0.4-0.2-0.6-0.3c-0.2-0.1-0.5-0.2-0.8-0.3c-0.4-0.2-0.7-0.3-1-0.5c-0.3-0.2-0.5-0.3-0.7-0.5
			c-0.2-0.2-0.3-0.4-0.4-0.7c-0.1-0.2-0.1-0.5-0.1-0.9c0-0.4,0.1-0.8,0.3-1.1c0.2-0.3,0.4-0.6,0.7-0.8c0.3-0.2,0.6-0.4,1-0.5
			c0.4-0.1,0.8-0.2,1.2-0.2c0.7,0,1.4,0.1,2,0.4V83c-0.6-0.4-1.3-0.6-2.2-0.6c-0.3,0-0.5,0-0.7,0.1c-0.2,0.1-0.4,0.1-0.5,0.3
			c-0.1,0.1-0.3,0.2-0.3,0.4s-0.1,0.3-0.1,0.5c0,0.2,0,0.4,0.1,0.6c0.1,0.2,0.2,0.3,0.4,0.4c0.2,0.1,0.3,0.2,0.6,0.3
			c0.2,0.1,0.5,0.2,0.8,0.3c0.4,0.1,0.7,0.3,1,0.5c0.3,0.2,0.6,0.3,0.8,0.5c0.2,0.2,0.4,0.4,0.5,0.7c0.1,0.3,0.2,0.6,0.2,0.9
			c0,0.4-0.1,0.8-0.3,1.1c-0.2,0.3-0.4,0.6-0.7,0.8c-0.3,0.2-0.7,0.4-1.1,0.5c-0.4,0.1-0.8,0.2-1.3,0.2C79.8,90.3,79,90.2,78.4,89.8
			z"/>
	</g>
	<path id="Winlogo" class="st0" d="M47.4,14l31.5-4.4v28H47.4V14z M45.1,37.7V14.3l-24,3.3v20H45.1z M47.4,40v23.5l31.5,4V40H47.4z
		 M45.1,40h-24V60l24,3.1V40z"/>
</g>
</svg>
