<?xml version="1.0" encoding="utf-8"?>
<!-- Generator: Adobe Illustrator 19.2.1, SVG Export Plug-In . SVG Version: 6.00 Build 0)  -->
<svg version="1.1" id="Layer_1" xmlns="http://www.w3.org/2000/svg" xmlns:xlink="http://www.w3.org/1999/xlink" x="0px" y="0px"
	 viewBox="0 0 922 228" style="enable-background:new 0 0 922 228;" xml:space="preserve">
<style type="text/css">
	.st0{fill:#CCD1D3;}
	.st1{fill:#99A3A8;}
	.st2{fill:none;stroke:#A3ABAF;stroke-width:5;stroke-linecap:round;stroke-linejoin:round;stroke-miterlimit:10;}
	.st3{fill:#3D3D3D;}
	.st4{fill:#0075A8;}
	.st5{fill:#B3C78F;}
	.st6{fill:none;stroke:#CCD1D3;stroke-miterlimit:10;}
	.st7{fill:none;stroke:#CCD1D3;stroke-width:1.893;stroke-miterlimit:10;}
	.st8{fill:#F15354;}
	.st9{fill:#A3ABAF;}
	.st10{fill:#3498DB;}
	.st11{fill:#2980B9;}
	.st12{fill:#E67E22;}
	.st13{fill:#D35401;}
	.st14{fill:#F1C40F;}
	.st15{fill:#E49701;}
	.st16{fill:#EADF5A;}
	.st17{fill:#D7C320;}
	.st18{fill:#34495E;}
	.st19{fill:#2C3E50;}
	.st20{fill:#2B2B2B;}
	.st21{fill:#262626;}
	.st22{fill:#3A6F81;}
	.st23{fill:#356272;}
	.st24{fill:#00558B;}
	.st25{fill:#27AE60;}
	.st26{fill:#169242;}
	.st27{fill:#A5C63B;}
	.st28{fill:#8EB021;}
	.st29{fill:#ECF0F1;}
	.st30{fill:#BDC3C7;}
	.st31{fill:#95A5A6;}
	.st32{fill:#7F8C8D;}
	.st33{fill:#E74C3C;}
	.st34{fill:#C0392B;}
	.st35{fill:#EA3738;}
	.st36{fill:#78C9CF;}
	.st37{fill:#389EA8;}
	.st38{fill:#2D8490;}
	.st39{fill:#1A6470;}
	.st40{fill:#21364A;}
	.st41{fill:#040B15;}
	.st42{fill:#66767C;}
	.st43{fill:#334851;}
	.st44{fill:#5C686F;}
	.st45{fill:#29373C;}
	.st46{fill:#0A141A;}
	.st47{fill:#FFFFFF;}
	.st48{fill:#0D5E8C;}
	.st49{fill:#0071BC;}
	.st50{fill:#808080;stroke:#000000;stroke-width:0.5;stroke-miterlimit:10;}
	.st51{fill:#DFDFDF;stroke:#000000;stroke-width:0.5;stroke-miterlimit:10;}
	.st52{stroke:#000000;stroke-width:0.5;stroke-miterlimit:10;}
	.st53{fill:none;stroke:#A3ABAF;stroke-width:12;stroke-miterlimit:10;}
	.st54{fill:none;stroke:#F15354;stroke-width:0.4376;stroke-miterlimit:10;}
	.st55{fill:none;stroke:#F15354;stroke-miterlimit:10;}
	.st56{fill:none;stroke:#3498DB;stroke-width:15;stroke-linecap:square;stroke-miterlimit:10;}
	.st57{fill:none;stroke:#A3ABAF;stroke-width:9;stroke-miterlimit:10;}
	.st58{opacity:0.5;fill:url(#SVGID_1_);}
	.st59{clip-path:url(#SVGID_3_);enable-background:new    ;}
	.st60{fill:#D3AC0D;}
	.st61{fill:#B5930B;}
	.st62{opacity:0.5;fill:url(#SVGID_4_);}
	.st63{clip-path:url(#SVGID_6_);enable-background:new    ;}
	.st64{opacity:0.5;fill:url(#SVGID_7_);}
	.st65{clip-path:url(#SVGID_9_);enable-background:new    ;}
	.st66{opacity:0.5;fill:url(#SVGID_10_);}
	.st67{clip-path:url(#SVGID_12_);enable-background:new    ;}
	.st68{fill:#58D68D;}
	.st69{fill:#2ECC71;}
	.st70{fill:none;stroke:#2ECC71;stroke-width:1.1621;stroke-miterlimit:10;}
	.st71{fill:none;stroke:#F1C40F;stroke-width:1.1621;stroke-miterlimit:10;}
	.st72{fill:none;stroke:#0075A8;stroke-width:1.1621;stroke-miterlimit:10;}
	.st73{fill:none;stroke:#BDC3C7;stroke-width:10;stroke-miterlimit:10;}
	.st74{fill:none;stroke:#A3ABAF;stroke-width:10;stroke-miterlimit:10;}
	.st75{opacity:0.2;fill:#78C9CF;}
	.st76{fill:none;stroke:#0075A8;stroke-miterlimit:10;}
	.st77{fill:#5D5D5D;}
	.st78{fill:none;stroke:#99A3A8;stroke-miterlimit:10;}
	.st79{fill:none;stroke:#0075A8;stroke-width:1.8275;stroke-miterlimit:10;}
	.st80{opacity:0.7;}
	.st81{fill:none;stroke:#3A6F81;stroke-width:10;stroke-miterlimit:10;}
	.st82{fill:none;stroke:#EADF5A;stroke-width:8;stroke-miterlimit:10;}
	.st83{fill:none;stroke:#EADF5A;stroke-width:5;stroke-miterlimit:10;}
	.st84{fill:none;stroke:#2980B9;stroke-width:4.5153;stroke-miterlimit:10;}
	.st85{fill:none;stroke:#EADF5A;stroke-width:3.6413;stroke-miterlimit:10;}
	.st86{fill:none;stroke:#78C9CF;stroke-width:4.5153;stroke-miterlimit:10;}
</style>
<g>
	<path class="st3" d="M256.4,8.5h24.5c11.6,0,19.4,5.6,19.4,16.5c0,8.9-6.1,14.3-12,16.1c1.8,1.5,3.1,3.5,4.1,5.6
		c2.5,5,4.1,10.6,9.3,10.6c1.3,0,2.4-0.4,2.4-0.4L303,67.4c0,0-3.2,0.8-5.9,0.8c-7,0-11.1-2.7-15.2-12.1c-1.8-4.2-4.2-11.6-7.5-11.6
		h-3.3v23.5h-14.7V8.5z M271.1,19.2v14.6h5.3c4.2,0,9.2-1.3,9.2-7.7c0-5.2-3.3-7-7.4-7H271.1z"/>
	<path class="st3" d="M320.6,8.5h14.9l20.1,59.4h-14.9L337,56.7h-19.9l-3.6,11.3h-12.8L320.6,8.5z M320.6,45.7h12.8l-4-12.5
		c-1.4-4.2-2-10.2-2-10.2h-0.4c0,0-0.9,6.1-2.2,10.1L320.6,45.7z"/>
	<path class="st3" d="M356.6,8.5h15.8L387.9,38c1.3,2.6,3.1,7,4.5,10.6h0.4c-0.2-3.3-0.6-8.1-0.6-11.5V8.5h12.1v59.4h-15.4
		l-16.2-29.4c-1.5-2.6-3.1-6.5-4.3-9.7H368c0.3,3.3,0.7,7.3,0.7,10.6v28.5h-12.1V8.5z"/>
	<path class="st3" d="M407.8,37.8c0-21.5,10.6-30.4,27.1-30.4c17.3,0,24.3,9.5,22.4,22.4L443.5,31c1.5-9.4-2.2-13.2-8.9-13.2
		c-6.4,0-11.6,4.8-11.6,20.1c0,16.2,5.6,20.3,12.1,20.3c6.1,0,11-3.8,9.9-11.5l12.8,1.3c1,12.1-7.7,20.9-23.6,20.9
		C418.2,69,407.8,59.5,407.8,37.8z"/>
	<path class="st3" d="M461.3,8.5H476V31h18V8.5h14.7v59.4h-14.7V42.8h-18v25.2h-14.7V8.5z"/>
	<path class="st3" d="M515.1,8.5h39.3v10.9h-24.6v12.8h20.7v10.9h-20.7V57h25.5v10.9h-40.2V8.5z"/>
	<path class="st3" d="M558.6,8.5H583c11.6,0,19.4,5.6,19.4,16.5c0,8.9-6.1,14.3-12,16.1c1.8,1.5,3.1,3.5,4.1,5.6
		c2.5,5,4.1,10.6,9.3,10.6c1.3,0,2.4-0.4,2.4-0.4l-1.1,10.5c0,0-3.2,0.8-5.9,0.8c-7,0-11.1-2.7-15.2-12.1
		c-1.8-4.2-4.2-11.6-7.5-11.6h-3.3v23.5h-14.7V8.5z M573.3,19.2v14.6h5.3c4.2,0,9.2-1.3,9.2-7.7c0-5.2-3.3-7-7.4-7H573.3z"/>
	<path class="st4" d="M256.4,83.5h15.8l15.6,29.5c1.3,2.6,3.1,7,4.5,10.6h0.4c-0.2-3.3-0.6-8.1-0.6-11.5V83.5H304v59.4h-15.4
		l-16.2-29.4c-1.5-2.6-3.1-6.5-4.3-9.7h-0.4c0.3,3.3,0.7,7.3,0.7,10.6v28.5h-12.1V83.5z"/>
	<path class="st4" d="M310.3,83.5h39.3v10.9H325v12.8h20.7v10.9H325V132h25.5v10.9h-40.2V83.5z"/>
	<path class="st4" d="M349.3,83.5h47.4v10.9h-16.5v48.5h-14.7V94.4h-16.2V83.5z"/>
	<path class="st4" d="M393.8,83.5h14.4l8.5,33.6c1.1,4.1,1.3,11.3,1.3,11.3h0.4c0,0,0.3-7.3,1.1-11.1l7.6-33.8h13.5l7.7,33.5
		c1,4.2,1.3,12.1,1.3,12.1h0.4c0,0,0.4-8.1,1.4-12l8.2-33.7h12.5l-15.5,59.4H441l-6.1-25.5c-1.1-4.7-1.8-12.8-1.8-12.8h-0.4
		c0,0-0.5,8.2-1.7,12.8l-6.1,25.5h-15.8L393.8,83.5z"/>
	<path class="st4" d="M470.9,112.4c0-21.4,11.4-29.9,27.3-29.9c15.7,0,27,8.5,27,29.9c0,23.8-11.7,31.6-27,31.6
		C482.3,144,470.9,135.4,470.9,112.4z M510.2,112.4c0-14.8-5.8-19.5-12.1-19.5S486,97.6,486,112.4c0,16.5,5.7,21.2,12.1,21.2
		S510.2,128.8,510.2,112.4z"/>
	<path class="st4" d="M528.8,83.5h24.5c11.6,0,19.4,5.6,19.4,16.5c0,8.9-6.1,14.3-12,16.1c1.8,1.5,3.1,3.5,4.1,5.6
		c2.5,5,4.1,10.6,9.3,10.6c1.3,0,2.4-0.4,2.4-0.4l-1.1,10.5c0,0-3.2,0.8-5.9,0.8c-7,0-11.1-2.7-15.2-12.1
		c-1.8-4.2-4.2-11.6-7.5-11.6h-3.3v23.5h-14.7V83.5z M543.5,94.2v14.6h5.3c4.2,0,9.2-1.3,9.2-7.7c0-5.2-3.3-7-7.4-7H543.5z"/>
	<path class="st4" d="M578.4,83.5h14.7v16.6c0,1.8-0.3,4.6-0.4,6.6h0.4c1-1.5,2.2-3.8,3.7-5.5l14.5-17.7H627l-19.4,23.3l20.4,36.1
		h-16.9L597.5,118l-4.4,5.4v19.5h-14.7V83.5z"/>
	<path class="st4" d="M640.4,83.5h24.9c11.7,0,20.2,5.9,20.2,17.8c0,12.9-8.2,20.4-20.2,20.4h-10.2v21.2h-14.7V83.5z M655.1,94.2
		v16.9h6.9c4.6,0,8.7-2.5,8.7-8.9c0-6.1-4.1-8-8.7-8H655.1z"/>
	<path class="st4" d="M685,112.4c0-21.4,11.4-29.9,27.3-29.9c15.7,0,27,8.5,27,29.9c0,23.8-11.7,31.6-27,31.6
		C696.4,144,685,135.4,685,112.4z M724.3,112.4c0-14.8-5.8-19.5-12.1-19.5s-12.1,4.8-12.1,19.5c0,16.5,5.7,21.2,12.1,21.2
		S724.3,128.8,724.3,112.4z"/>
	<path class="st4" d="M742.9,83.5h14.7V132h24.7v10.9h-39.4V83.5z"/>
	<path class="st4" d="M781.4,83.5H812v10.4h-8v38.6h8v10.4h-30.6v-10.4h7.9V93.9h-7.9V83.5z"/>
	<path class="st4" d="M812.9,112.8c0-21.5,10.6-30.4,27.1-30.4c17.3,0,24.3,9.5,22.4,22.4l-13.7,1.2c1.5-9.4-2.2-13.2-8.9-13.2
		c-6.4,0-11.6,4.8-11.6,20.1c0,16.2,5.6,20.3,12.1,20.3c6.1,0,11-3.8,9.9-11.5l12.8,1.3c1,12.1-7.7,20.9-23.6,20.9
		C823.3,144,812.9,134.5,812.9,112.8z"/>
	<path class="st4" d="M879.4,117.8l-19.1-34.3h16.6l7.8,14.5c1.5,2.8,3.2,6.6,3.2,6.6h0.4c0,0,1.5-3.7,3.1-6.8l7.5-14.3h13.6
		l-18.3,34.3v25.1h-14.7V117.8z"/>
	<path class="st4" d="M256.4,158.5h18.2l9.7,26.5c1.5,4.2,2.6,8.5,2.6,8.5h0.4c0,0,1.1-4.5,2.6-8.5l9.4-26.5h17.3v59.4h-13.7v-30
		c0-3.5,1-11.8,1-11.8h-0.4c0,0-1.8,8.4-2.9,11.4L289,217.9h-6.6l-11.5-30.4c-1.2-3.2-2.7-10.8-2.7-10.8h-0.4c0,0,0.6,7.7,0.6,11.3
		v30h-12.1V158.5z"/>
	<path class="st4" d="M337.5,158.5h14.9l20.1,59.4h-14.9l-3.7-11.3H334l-3.6,11.3h-12.8L337.5,158.5z M337.5,195.7h12.8l-4-12.5
		c-1.4-4.2-2-10.2-2-10.2h-0.4c0,0-0.9,6.1-2.2,10.1L337.5,195.7z"/>
	<path class="st4" d="M373.5,158.5h15.8l15.6,29.5c1.3,2.6,3.1,7,4.5,10.6h0.4c-0.2-3.3-0.6-8.1-0.6-11.5v-28.5h12.1v59.4h-15.4
		l-16.2-29.4c-1.5-2.6-3.1-6.5-4.3-9.7h-0.4c0.3,3.3,0.7,7.3,0.7,10.6v28.5h-12.1V158.5z"/>
	<path class="st4" d="M442.1,158.5H457l20.1,59.4h-14.9l-3.7-11.3h-19.9l-3.6,11.3h-12.8L442.1,158.5z M442.1,195.7h12.8l-4-12.5
		c-1.4-4.2-2-10.2-2-10.2h-0.4c0,0-0.9,6.1-2.2,10.1L442.1,195.7z"/>
	<path class="st4" d="M502.1,187.9h24.5v30h-9.9v-10c-2.1,6.6-6.9,11.1-17.1,11.1c-13.7,0-24-9.5-24-31.1s10.4-30.4,26.6-30.4
		c18.2,0,25.3,10.3,23.3,20.8l-13.8,1.5c1.1-8.2-3-11.9-8.8-11.9c-6.4,0-12.1,4.7-12.1,20.3s4.8,20.1,12,20.1c6.6,0,10.3-4,10.5-8.1
		v-1.7h-11.1V187.9z"/>
	<path class="st4" d="M530.9,158.5h39.3v10.9h-24.6v12.8h20.7v10.9h-20.7V207h25.5v10.9h-40.2V158.5z"/>
	<path class="st4" d="M574.4,158.5h24.5c11.6,0,19.4,5.6,19.4,16.5c0,8.9-6.1,14.3-12,16.1c1.8,1.5,3.1,3.5,4.1,5.6
		c2.5,5,4.1,10.6,9.3,10.6c1.3,0,2.4-0.4,2.4-0.4l-1.1,10.5c0,0-3.2,0.8-5.9,0.8c-7,0-11.1-2.7-15.2-12.1
		c-1.8-4.2-4.2-11.6-7.5-11.6h-3.3v23.5h-14.7V158.5z M589.1,169.2v14.6h5.3c4.2,0,9.2-1.3,9.2-7.7c0-5.2-3.3-7-7.4-7H589.1z"/>
</g>
<g>
	<line class="st84" x1="22.8" y1="117.3" x2="126.3" y2="117.3"/>
	<g>
		<polyline class="st84" points="126.3,208.3 73.3,208.3 20.4,116.7 73.3,24.9 126.3,24.9 		"/>
		<line class="st84" x1="125" y1="180.4" x2="20.4" y2="116.7"/>
		<line class="st84" x1="20.4" y1="116.7" x2="125" y2="53.9"/>
		<polyline class="st84" points="102.6,208.3 61.4,116.7 102.6,24.9 		"/>
	</g>
	<circle class="st14" cx="74.9" cy="25.7" r="10.2"/>
	<circle class="st14" cx="65" cy="116.8" r="10.2"/>
	<circle class="st14" cx="24.2" cy="116.8" r="10.2"/>
	<circle class="st14" cx="74.9" cy="207.9" r="10.2"/>
	<path class="st14" d="M126.3,65c-5.6,0-10.2-4.6-10.2-10.2s4.6-10.2,10.2-10.2"/>
	<path class="st14" d="M126.3,127c-5.6,0-10.2-4.6-10.2-10.2c0-5.6,4.6-10.2,10.2-10.2"/>
	<path class="st14" d="M126.3,189c-5.6,0-10.2-4.6-10.2-10.2s4.6-10.2,10.2-10.2"/>
</g>
<g>
	<g>
		<polyline class="st86" points="126.5,25.3 179.5,25.3 232.4,116.8 179.5,208.6 126.5,208.6 		"/>
		<line class="st86" x1="127.7" y1="53.1" x2="232.4" y2="116.8"/>
		<line class="st86" x1="232.4" y1="116.8" x2="127.7" y2="179.6"/>
		<polyline class="st86" points="150.2,25.3 191.3,116.8 150.2,208.6 		"/>
	</g>
	<line class="st86" x1="229.9" y1="116.2" x2="126.5" y2="116.2"/>
	<circle class="st16" cx="177.9" cy="207.9" r="10.2"/>
	<circle class="st16" cx="187.7" cy="116.8" r="10.2"/>
	<circle class="st16" cx="228.6" cy="116.8" r="10.2"/>
	<circle class="st16" cx="177.9" cy="25.7" r="10.2"/>
	<path class="st16" d="M126.5,168.6c5.6,0,10.2,4.6,10.2,10.2s-4.6,10.2-10.2,10.2"/>
	<path class="st16" d="M126.5,106.6c5.6,0,10.2,4.6,10.2,10.2c0,5.6-4.6,10.2-10.2,10.2"/>
	<path class="st16" d="M126.5,44.6c5.6,0,10.2,4.6,10.2,10.2S132.2,65,126.5,65"/>
</g>
</svg>
