<?xml version="1.0" encoding="utf-8"?>
<!-- Generator: Adobe Illustrator 19.2.1, SVG Export Plug-In . SVG Version: 6.00 Build 0)  -->
<svg version="1.1" id="Layer_1" xmlns="http://www.w3.org/2000/svg" xmlns:xlink="http://www.w3.org/1999/xlink" x="0px" y="0px"
	 viewBox="0 0 798.2 211.5" style="enable-background:new 0 0 798.2 211.5;" xml:space="preserve">
<style type="text/css">
	.st0{fill:#3D3D3D;}
	.st1{fill:#0075A8;}
	.st2{fill:#3498DB;}
	.st3{fill:#EADF5A;}
</style>
<g>
	<path class="st0" d="M182,1.1h24.5c11.6,0,19.4,5.6,19.4,16.5c0,8.9-6.1,14.3-12,16.1c1.8,1.5,3.1,3.5,4.1,5.6
		c2.5,5,4.1,10.6,9.3,10.6c1.3,0,2.4-0.4,2.4-0.4l-1.1,10.5c0,0-3.2,0.8-5.9,0.8c-7,0-11.1-2.7-15.2-12.1
		c-1.8-4.2-4.2-11.6-7.5-11.6h-3.3v23.5H182V1.1z M196.7,11.7v14.6h5.3c4.2,0,9.2-1.3,9.2-7.7c0-5.2-3.3-7-7.4-7H196.7z"/>
	<path class="st0" d="M246.2,1.1h14.9l20.1,59.4h-14.9l-3.7-11.3h-19.9l-3.6,11.3h-12.8L246.2,1.1z M246.2,38.3H259l-4-12.5
		c-1.4-4.2-2-10.2-2-10.2h-0.4c0,0-0.9,6.1-2.2,10.1L246.2,38.3z"/>
	<path class="st0" d="M282.2,1.1H298l15.6,29.5c1.3,2.6,3.1,7,4.5,10.6h0.4c-0.2-3.3-0.6-8.1-0.6-11.5V1.1h12.1v59.4h-15.4
		l-16.2-29.4c-1.5-2.6-3.1-6.5-4.3-9.7h-0.4c0.3,3.3,0.7,7.3,0.7,10.6v28.5h-12.1V1.1z"/>
	<path class="st0" d="M333.4,30.4C333.4,8.9,344.1,0,360.5,0c17.3,0,24.3,9.5,22.4,22.4l-13.7,1.2c1.5-9.4-2.2-13.2-8.9-13.2
		c-6.4,0-11.6,4.8-11.6,20.1c0,16.2,5.6,20.3,12.1,20.3c6.1,0,11-3.8,9.9-11.5l12.8,1.3c1,12.1-7.7,20.9-23.6,20.9
		C343.8,61.5,333.4,52,333.4,30.4z"/>
	<path class="st0" d="M386.9,1.1h14.7v22.4h18V1.1h14.7v59.4h-14.7V35.3h-18v25.2h-14.7V1.1z"/>
	<path class="st0" d="M440.7,1.1H480V12h-24.6v12.8h20.7v10.9h-20.7v13.9h25.5v10.9h-40.2V1.1z"/>
	<path class="st0" d="M484.2,1.1h24.5c11.6,0,19.4,5.6,19.4,16.5c0,8.9-6.1,14.3-12,16.1c1.8,1.5,3.1,3.5,4.1,5.6
		c2.5,5,4.1,10.6,9.3,10.6c1.3,0,2.4-0.4,2.4-0.4l-1.1,10.5c0,0-3.2,0.8-5.9,0.8c-7,0-11.1-2.7-15.2-12.1
		c-1.8-4.2-4.2-11.6-7.5-11.6h-3.3v23.5h-14.7V1.1z M498.9,11.7v14.6h5.3c4.2,0,9.2-1.3,9.2-7.7c0-5.2-3.3-7-7.4-7H498.9z"/>
	<path class="st1" d="M182,76.1h39.3V87h-24.6v12.8h20.7v10.9h-20.7v13.9h25.5v10.9H182V76.1z"/>
	<path class="st1" d="M222.7,105.4c0-21.5,10.6-30.4,27.1-30.4c17.3,0,24.3,9.5,22.4,22.4l-13.7,1.2c1.5-9.4-2.2-13.2-8.9-13.2
		c-6.4,0-11.6,4.8-11.6,20.1c0,16.2,5.6,20.3,12.1,20.3c6.1,0,11-3.8,9.9-11.5l12.8,1.3c1,12.1-7.7,20.9-23.6,20.9
		C233.1,136.5,222.7,127,222.7,105.4z"/>
	<path class="st1" d="M276.2,76.1h24.5c11.6,0,19.4,5.6,19.4,16.5c0,8.9-6.1,14.3-12,16.1c1.8,1.5,3.1,3.5,4.1,5.6
		c2.5,5,4.1,10.6,9.3,10.6c1.3,0,2.4-0.4,2.4-0.4l-1.1,10.5c0,0-3.2,0.8-5.9,0.8c-7,0-11.1-2.7-15.2-12.1
		c-1.8-4.2-4.2-11.6-7.5-11.6h-3.3v23.5h-14.7V76.1z M290.9,86.7v14.6h5.3c4.2,0,9.2-1.3,9.2-7.7c0-5.2-3.3-7-7.4-7H290.9z"/>
	<path class="st1" d="M335.1,105.4c0-21.5,10.6-30.4,27.1-30.4c17.3,0,24.3,9.5,22.4,22.4l-13.7,1.2c1.5-9.4-2.2-13.2-8.9-13.2
		c-6.4,0-11.6,4.8-11.6,20.1c0,16.2,5.6,20.3,12.1,20.3c6.1,0,11-3.8,9.9-11.5l12.8,1.3c1,12.1-7.7,20.9-23.6,20.9
		C345.5,136.5,335.1,127,335.1,105.4z"/>
	<path class="st1" d="M388.6,76.1h24.5c11.6,0,19.4,5.6,19.4,16.5c0,8.9-6.1,14.3-12,16.1c1.8,1.5,3.1,3.5,4.1,5.6
		c2.5,5,4.1,10.6,9.3,10.6c1.3,0,2.4-0.4,2.4-0.4l-1.1,10.5c0,0-3.2,0.8-5.9,0.8c-7,0-11.1-2.7-15.2-12.1
		c-1.8-4.2-4.2-11.6-7.5-11.6h-3.3v23.5h-14.7V76.1z M403.3,86.7v14.6h5.3c4.2,0,9.2-1.3,9.2-7.7c0-5.2-3.3-7-7.4-7H403.3z"/>
	<path class="st1" d="M438.2,76.1h39.3V87h-24.6v12.8h20.7v10.9h-20.7v13.9h25.5v10.9h-40.2V76.1z"/>
	<path class="st1" d="M481.6,76.1h22.7c14.8,0,26.2,8.6,26.2,29.4c0,20.3-10.9,30-26.2,30h-22.7V76.1z M502.9,124.8
		c6.5,0,12.8-4,12.8-19.4c0-15.3-6.2-18.7-12.8-18.7h-6.6v38.1H502.9z"/>
	<path class="st1" d="M534.3,76.1h39.3V87H549v12.8h20.7v10.9H549v13.9h25.5v10.9h-40.2V76.1z"/>
	<path class="st1" d="M577.7,76.1h15.8l15.6,29.5c1.3,2.6,3.1,7,4.5,10.6h0.4c-0.2-3.3-0.6-8.1-0.6-11.5V76.1h12.1v59.4h-15.4
		l-16.2-29.4c-1.5-2.6-3.1-6.5-4.3-9.7h-0.4c0.3,3.3,0.7,7.3,0.7,10.6v28.5h-12.1V76.1z"/>
	<path class="st1" d="M627.2,76.1h47.4V87h-16.5v48.5h-14.7V87h-16.2V76.1z"/>
	<path class="st1" d="M673.8,76.1h30.6v10.4h-8v38.6h8v10.4h-30.6v-10.4h7.9V86.4h-7.9V76.1z"/>
	<path class="st1" d="M722.7,76.1h14.9l20.1,59.4h-14.9l-3.7-11.3h-19.9l-3.6,11.3h-12.8L722.7,76.1z M722.7,113.3h12.8l-4-12.5
		c-1.4-4.2-2-10.2-2-10.2h-0.4c0,0-0.9,6.1-2.2,10.1L722.7,113.3z"/>
	<path class="st1" d="M758.7,76.1h14.7v48.5h24.7v10.9h-39.4V76.1z"/>
	<path class="st1" d="M181.5,151.1h14.7v38.1c0,7.6,3.2,10.7,9.2,10.7c6,0,9.6-3.1,9.6-11v-37.8h14.3v37.6
		c0,13.6-8.9,22.9-24.3,22.9c-14.4,0-23.5-8.4-23.5-21.6V151.1z"/>
	<path class="st1" d="M235.1,151.1H260c11.7,0,20.2,5.9,20.2,17.8c0,12.9-8.2,20.4-20.2,20.4h-10.2v21.2h-14.7V151.1z M249.8,161.7
		v16.9h6.9c4.6,0,8.7-2.5,8.7-8.9c0-6.1-4.1-8-8.7-8H249.8z"/>
	<path class="st1" d="M282.4,151.1h22.7c14.8,0,26.2,8.6,26.2,29.4c0,20.3-10.9,30-26.2,30h-22.7V151.1z M303.7,199.8
		c6.5,0,12.8-4,12.8-19.4c0-15.3-6.2-18.7-12.8-18.7h-6.6v38.1H303.7z"/>
	<path class="st1" d="M349.7,151.1h14.9l20.1,59.4h-14.9l-3.7-11.3h-19.9l-3.6,11.3h-12.8L349.7,151.1z M349.7,188.3h12.8l-4-12.5
		c-1.4-4.2-2-10.2-2-10.2h-0.4c0,0-0.9,6.1-2.2,10.1L349.7,188.3z"/>
	<path class="st1" d="M381.2,151.1h47.4V162h-16.5v48.5h-14.7V162h-16.2V151.1z"/>
	<path class="st1" d="M430.5,151.1h39.3V162h-24.6v12.8h20.7v10.9h-20.7v13.9h25.5v10.9h-40.2V151.1z"/>
	<path class="st1" d="M474,151.1h24.5c11.6,0,19.4,5.6,19.4,16.5c0,8.9-6.1,14.3-12,16.1c1.8,1.5,3.1,3.5,4.1,5.6
		c2.5,5,4.1,10.6,9.3,10.6c1.3,0,2.4-0.4,2.4-0.4l-1.1,10.5c0,0-3.2,0.8-5.9,0.8c-7,0-11.1-2.7-15.2-12.1
		c-1.8-4.2-4.2-11.6-7.5-11.6h-3.3v23.5H474V151.1z M488.7,161.7v14.6h5.3c4.2,0,9.2-1.3,9.2-7.7c0-5.2-3.3-7-7.4-7H488.7z"/>
</g>
<path class="st2" d="M73.6,106.9c-6.8-7.5-6.6-19.2,0.7-26.5c3.6-3.6,8.5-5.6,13.6-5.6c4.8,0,9.3,1.8,12.9,4.9L73.6,106.9z"/>
<path class="st2" d="M52.6,94c0-8.4,3-16.1,7.9-22.2l-7.4-6.8c-6.6,7.9-10.5,18-10.5,29c0,11.6,4.4,22.2,11.6,30.2l7.4-6.7
	C56.1,111.4,52.6,103.1,52.6,94z"/>
<path class="st3" d="M123.1,94c0,9.5-3.8,18.1-9.9,24.4l7.5,6.6c7.7-8.1,12.4-19,12.4-31c0-11.4-4.3-21.9-11.3-29.8l-7.4,6.7
	C119.8,77.1,123.1,85.2,123.1,94z"/>
<path class="st3" d="M143.1,94c0,14.5-5.6,27.8-14.8,37.6l7.5,6.6c10.7-11.6,17.3-27.2,17.3-44.2c0-16.6-6.2-31.7-16.4-43.2
	l-7.4,6.7C137.9,67.3,143.1,80.1,143.1,94z"/>
<path class="st2" d="M32.6,94c0-13.6,5-26.1,13.2-35.8l-7.3-6.8C28.6,62.9,22.6,77.8,22.6,94c0,16.7,6.3,32,16.7,43.6l7.4-6.7
	C38,121.1,32.6,108.2,32.6,94z"/>
<path class="st2" d="M12.6,94c0-18.9,7-36.1,18.5-49.3l-7.3-6.8C10.6,52.9,2.6,72.6,2.6,94c0,21.8,8.3,41.8,21.8,56.9l7.4-6.7
	C19.9,130.9,12.6,113.3,12.6,94z"/>
<path class="st3" d="M163.1,94c0,19.6-7.5,37.4-19.8,50.8l7.5,6.6c13.8-15.2,22.3-35.3,22.3-57.4c0-21.7-8.2-41.6-21.6-56.6
	l-7.4,6.7C155.9,57.4,163.1,74.9,163.1,94z"/>
<path class="st3" d="M87.9,113.3c-4.8,0-9.3-1.8-12.9-4.9l27.2-27.2c6.8,7.5,6.6,19.2-0.7,26.5C97.9,111.3,93,113.3,87.9,113.3z"/>
</svg>
