<svg id="Layer_1" data-name="Layer 1" xmlns="http://www.w3.org/2000/svg" viewBox="0 0 1116.34474 227.95335"><defs><style>.cls-1{fill:#3d3d3d;}.cls-2{fill:#0075a8;}.cls-3{fill:#fff;}.cls-4{fill:#dee1e3;}.cls-5{fill:#3498db;}</style></defs><title>rancher-catalogsvg</title><path class="cls-1" d="M226.36816,46.78307h24.90332c11.70312,0,20.15137,5.89649,20.15137,17.7754,0,12.93554-8.1836,20.416-20.15137,20.416h-10.208v21.207H226.36816Zm14.69531,10.64844V74.326h6.86426c4.57519,0,8.71191-2.46289,8.71191-8.88672,0-6.07226-4.13672-8.00781-8.71191-8.00781Z"/><path class="cls-1" d="M278.11132,46.78307h24.46387c11.61523,0,19.44727,5.63282,19.44727,16.54493a16.62522,16.62522,0,0,1-11.96778,16.10351,17.63684,17.63684,0,0,1,4.13574,5.63086c2.46387,5.01563,4.13575,10.56055,9.32813,10.56055a6.83154,6.83154,0,0,0,2.376-.44141L324.75,105.65417a28.82507,28.82507,0,0,1-5.8955.791c-7.04,0-11.08789-2.72656-15.22364-12.14257-1.75976-4.22461-4.22363-11.61524-7.47949-11.61524h-3.34375v23.49414H278.11132Zm14.69629,10.64844V72.03893h5.2793c4.22363,0,9.15234-1.32031,9.15234-7.65625,0-5.1914-3.34472-6.95117-7.39258-6.95117Z"/><path class="cls-1" d="M332.05468,46.78307h39.335V57.69518H346.751V70.455h20.67871V81.36706H346.751V95.2694h25.51856v10.91211H332.05468Z"/><path class="cls-1" d="M378.51855,76.96667h25.25488v11.8789H378.51855Z"/><path class="cls-1" d="M413.10156,46.78307h24.90332c11.7041,0,20.15136,5.89649,20.15136,17.7754,0,12.93554-8.18359,20.416-20.15136,20.416h-10.208v21.207H413.10156Zm14.69531,10.64844V74.326h6.86426c4.57617,0,8.71191-2.46289,8.71191-8.88672,0-6.07226-4.13574-8.00781-8.71191-8.00781Z"/><path class="cls-1" d="M464.31738,46.78307h14.69531V84.88659c0,7.56836,3.168,10.73633,9.24023,10.73633,5.9834,0,9.5918-3.08008,9.5918-11V46.78307H512.0996V84.35925c0,13.63867-8.88769,22.8789-24.28711,22.8789-14.43164,0-23.49511-8.44726-23.49511-21.55859Z"/><path class="cls-1" d="M522.30956,46.78307h14.69532V95.2694h24.72754v10.91211H522.30956Z"/><path class="cls-1" d="M567.80566,46.78307H582.501V95.2694h24.72754v10.91211H567.80566Z"/><path class="cls-1" d="M627.11718,46.78307h30.62305V57.16784h-8.00781V95.7987h8.00781v10.38281H627.11718V95.7987h7.91992V57.16784h-7.91992Z"/><path class="cls-1" d="M665.749,46.78307h18.21484l9.67969,26.48829c1.49609,4.22265,2.55273,8.53515,2.55273,8.53515h.35157a83.86182,83.86182,0,0,1,2.55175-8.53515l9.416-26.48829h17.335v59.39844H712.123V76.17565c0-3.52148.96875-11.793.96875-11.793h-.35254s-1.75976,8.35938-2.90429,11.35157L698.3955,106.18151h-6.59961L680.26855,75.73425A93.74777,93.74777,0,0,1,677.54,64.912h-.35156s.61621,7.74219.61621,11.26367v30.00586H665.749Z"/><path class="cls-1" d="M751.28417,46.78307h14.8711l20.06347,59.39844H771.34765l-3.69629-11.26367H747.76464l-3.6084,11.26367H731.30859Zm0,37.22266h12.75977l-4.04785-12.49414a58.11511,58.11511,0,0,1-2.02442-10.209h-.35156a75.41246,75.41246,0,0,1-2.20019,10.12109Z"/><path class="cls-1" d="M815.61035,76.17565h24.46386v30.00586h-9.94433V96.15026c-2.11133,6.59961-6.86328,11.08789-17.07129,11.08789-13.72754,0-24.02344-9.5039-24.02344-31.0625,0-21.56054,10.38379-30.44726,26.5752-30.44726,18.21582,0,25.34375,10.29492,23.31933,20.76758l-13.81543,1.49609c1.05664-8.18555-2.99121-11.88086-8.7998-11.88086-6.42383,0-12.05567,4.66406-12.05567,20.32812s4.83985,20.0625,11.96778,20.0625c6.59961,0,10.2959-4.04687,10.47168-8.0957V86.73425H815.61035Z"/><path class="cls-1" d="M848.875,46.78307H888.21V57.69518H863.57031V70.455H884.25V81.36706H863.57031V95.2694h25.51953v10.91211H848.875Z"/><path class="cls-1" d="M906.60156,86.64636c-1.05567,4.75195.792,10.207,10.11914,10.207,6.16015,0,8.27246-2.46289,8.27246-5.71875,0-4.92774-4.92774-6.16016-10.73633-8.27149-8.71094-2.99218-19.44727-7.21679-19.44727-19.623,0-11.08789,8.53614-17.86524,23.05567-17.51172,17.77539.35156,22.791,10.82226,20.85547,19.88672l-13.46387,1.23242c.87988-6.86328-1.584-10.73633-8.53613-10.73633-4.66309,0-7.30371,1.75977-7.30371,5.457,0,4.92774,4.75195,6.42383,10.56054,8.44727,8.97559,2.99218,19.62305,6.59961,19.62305,18.91992,0,10.64648-7.91992,18.30273-23.40723,18.30273-14.51953,0-24.46386-6.6875-22.43945-19.35937Z"/><path class="cls-2" d="M226.36816,121.78307h38.45508v10.91211H241.06347v15.40039h19.35938v10.91016H241.06347v22.17578H226.36816Z"/><path class="cls-2" d="M269.13671,150.64636c0-21.38282,11.35157-29.918,27.27832-29.918,15.66407,0,27.01563,8.53515,27.01563,29.918,0,23.75976-11.7041,31.59179-27.01563,31.59179C280.48828,182.23815,269.13671,173.703,269.13671,150.64636Zm39.2461,0c0-14.78321-5.80762-19.53516-12.14356-19.53516s-12.05566,4.75195-12.05566,19.53516c0,16.457,5.71972,21.207,12.05566,21.207S308.38281,167.10339,308.38281,150.64636Z"/><path class="cls-2" d="M331.43847,121.78307h24.46387c11.61523,0,19.44726,5.63282,19.44726,16.54493a16.62521,16.62521,0,0,1-11.96777,16.10351,17.63684,17.63684,0,0,1,4.13574,5.63086c2.46387,5.01563,4.13574,10.56055,9.32813,10.56055a6.83152,6.83152,0,0,0,2.376-.44141l-1.14453,10.47266a28.8252,28.8252,0,0,1-5.8955.791c-7.04,0-11.0879-2.72656-15.22364-12.14257-1.75976-4.22461-4.22363-11.61524-7.47949-11.61524h-3.34375v23.49414H331.43847Zm14.69629,10.64844v14.60742h5.2793c4.22363,0,9.15234-1.32031,9.15234-7.65625,0-5.1914-3.34473-6.95117-7.39258-6.95117Z"/><path class="cls-2" d="M401.83789,121.78307h24.46289c11.61621,0,19.44726,5.63282,19.44726,16.54493a16.6241,16.6241,0,0,1-11.96777,16.10351,17.63973,17.63973,0,0,1,4.13672,5.63086c2.46386,5.01563,4.13574,10.56055,9.32715,10.56055a6.82463,6.82463,0,0,0,2.376-.44141l-1.14355,10.47266a28.8275,28.8275,0,0,1-5.89649.791c-7.03906,0-11.08691-2.72656-15.22363-12.14257-1.75977-4.22461-4.22363-11.61524-7.47949-11.61524H416.5332v23.49414H401.83789Zm14.69531,10.64844v14.60742h5.27929c4.22461,0,9.15235-1.32031,9.15235-7.65625,0-5.1914-3.34375-6.95117-7.3916-6.95117Z"/><path class="cls-2" d="M470.47656,121.78307h14.87109l20.06348,59.39844H490.54l-3.69629-11.26367H466.957l-3.6084,11.26367H450.501Zm0,37.22266h12.75976l-4.04785-12.49414a58.11465,58.11465,0,0,1-2.02441-10.209h-.35157a75.41246,75.41246,0,0,1-2.20019,10.12109Z"/><path class="cls-2" d="M510.86816,121.78307h15.751l15.57617,29.48047c1.31933,2.55078,3.0791,7.03907,4.4873,10.5586h.35254c-.17676-3.34375-.61621-8.09571-.61621-11.52735V121.78307H558.4746v59.39844H543.07519l-16.19141-29.39062a82.21412,82.21412,0,0,1-4.3125-9.67969h-.35156c.26367,3.34375.7041,7.30469.7041,10.56055v28.50976H510.86816Z"/><path class="cls-2" d="M566.48339,151.08776c0-21.47265,10.64844-30.35937,27.10352-30.35937,17.33594,0,24.28711,9.5039,22.35156,22.35156l-13.72754,1.23047c1.4961-9.416-2.20019-13.19922-8.88769-13.19922-6.42383,0-11.61621,4.75195-11.61621,20.06445,0,16.19141,5.63183,20.32617,12.05566,20.32617,6.07227,0,11-3.7832,9.94434-11.52734l12.84765,1.32031c.96778,12.05469-7.74414,20.94336-23.584,20.94336C576.86718,182.23815,566.48339,172.73425,566.48339,151.08776Z"/><path class="cls-2" d="M624.38769,121.78307H639.083v22.43946h18.03906V121.78307h14.69629v59.39844H657.12206v-25.166H639.083v25.166H624.38769Z"/><path class="cls-2" d="M682.55566,121.78307h39.335v10.91211H697.251V145.455h20.67969v10.91211H697.251V170.2694H722.7705v10.91211H682.55566Z"/><path class="cls-2" d="M730.42675,121.78307h24.46289c11.61621,0,19.44727,5.63282,19.44727,16.54493a16.6241,16.6241,0,0,1-11.96777,16.10351,17.6397,17.6397,0,0,1,4.13671,5.63086c2.46387,5.01563,4.13575,10.56055,9.32715,10.56055a6.82472,6.82472,0,0,0,2.376-.44141l-1.14356,10.47266a28.82734,28.82734,0,0,1-5.89648.791c-7.03906,0-11.08691-2.72656-15.22363-12.14257-1.75977-4.22461-4.22364-11.61524-7.4795-11.61524h-3.34375v23.49414H730.42675Zm14.69531,10.64844v14.60742h5.28028c4.22363,0,9.15137-1.32031,9.15137-7.65625,0-5.1914-3.34375-6.95117-7.39161-6.95117Z"/><path class="cls-2" d="M810.68164,161.64636c-1.05567,4.752.792,10.207,10.11914,10.207,6.16015,0,8.27246-2.46289,8.27246-5.71875,0-4.92774-4.92774-6.16016-10.73633-8.27149-8.71094-2.99218-19.44727-7.21679-19.44727-19.623,0-11.08789,8.53614-17.86524,23.05567-17.51172,17.77539.35156,22.791,10.82226,20.85547,19.88672l-13.46387,1.23242c.87988-6.86328-1.584-10.73633-8.53613-10.73633-4.66309,0-7.30372,1.75977-7.30372,5.457,0,4.92774,4.752,6.42383,10.56055,8.44727,8.97559,2.99218,19.62305,6.59961,19.62305,18.91992,0,10.64648-7.91992,18.30273-23.40723,18.30273-14.51953,0-24.46387-6.6875-22.43945-19.35937Z"/><path class="cls-2" d="M851.77734,121.78307h39.335v10.91211H866.47265V145.455h20.67969v10.91211H866.47265V170.2694h25.51953v10.91211H851.77734Z"/><path class="cls-2" d="M899.64843,121.78307h24.46289c11.61621,0,19.44727,5.63282,19.44727,16.54493a16.6241,16.6241,0,0,1-11.96778,16.10351,17.63958,17.63958,0,0,1,4.13672,5.63086c2.46387,5.01563,4.13575,10.56055,9.32715,10.56055a6.82472,6.82472,0,0,0,2.376-.44141l-1.14356,10.47266a28.82734,28.82734,0,0,1-5.89648.791c-7.03906,0-11.08691-2.72656-15.22363-12.14257-1.75977-4.22461-4.22364-11.61524-7.4795-11.61524h-3.34375v23.49414H899.64843Zm14.69531,10.64844v14.60742h5.2793c4.22461,0,9.15235-1.32031,9.15235-7.65625,0-5.1914-3.34375-6.95117-7.39161-6.95117Z"/><path class="cls-2" d="M948.13574,121.78307h15.22363l11.17578,33.52735a58.0409,58.0409,0,0,1,1.93555,10.73633h.35254a59.83491,59.83491,0,0,1,2.02343-10.64844l11-33.61524h13.28711l-20.32714,59.39844H968.55078Z"/><path class="cls-2" d="M1008.50292,121.78307h39.335v10.91211h-24.63965V145.455h20.67968v10.91211h-20.67968V170.2694h25.51953v10.91211h-40.21485Z"/><path class="cls-2" d="M1056.374,121.78307h24.46289c11.61621,0,19.44726,5.63282,19.44726,16.54493a16.62409,16.62409,0,0,1-11.96777,16.10351,17.63973,17.63973,0,0,1,4.13672,5.63086c2.46387,5.01563,4.13574,10.56055,9.32715,10.56055a6.82463,6.82463,0,0,0,2.376-.44141l-1.14355,10.47266a28.82747,28.82747,0,0,1-5.89648.791c-7.03907,0-11.08692-2.72656-15.22364-12.14257-1.75976-4.22461-4.22363-11.61524-7.47949-11.61524h-3.34375v23.49414H1056.374Zm14.69531,10.64844v14.60742h5.28027c4.22364,0,9.15137-1.32031,9.15137-7.65625,0-5.1914-3.34375-6.95117-7.3916-6.95117Z"/><rect class="cls-3" x="24.7125" y="24.72447" width="138.64153" height="138.64153" rx="14.05633" ry="14.05633"/><path class="cls-4" d="M149.29772,16.72441h-16v8h16v-8Zm-24,0h-16v8h16v-8Zm-24,0h-16v8h16v-8Zm-24,0h-16v8h16v-8Zm-24,0H38.76885a22.11593,22.11593,0,0,0-2.30432.1206l.8357,7.95606.01361-.00147h.00165l.02038-.00219.00171-.00025.02081-.002.001-.00024.02155-.002.0003-.00024q.375-.037.75537-.0542h.00177l.0202-.001h.00251l.01935-.001H38.184l.01893-.001h.00366l.01819-.00073.00488-.00025.01739-.00073h.00531l.017-.00073.00586-.00025.01654-.00048.00617-.00025.01623-.00049.00678-.00024.01574-.00049.007-.00024.01551-.00049.0075-.00025.015-.00024.00781-.00024.01471-.00049.00854-.00025.014-.00024.00879-.00024.01386-.00025.00909-.00024.01367-.00025.0091-.00024.01355-.00025.00976-.00024.01294-.00024.00983-.00025h.013l.00983-.00024.01306-.00025h.01l.01263-.00024.01086-.00024h.012l.0108-.00025h.012l.01148-.00024h.023l.01129-.00025h.023l.01111-.00024H53.29772v-8Zm-28.29559,4.844a21.96552,21.96552,0,0,0-8.28961,17.21241v3.40283h8V38.78081h0v-.02369l.00006-.01977v-.00366l.00006-.01978.00006-.00293.00006-.01977.00006-.00171.00013-.01978V38.6663l.00018-.01928.00006-.00415.00018-.01954.00006-.00293.00019-.01928.00006-.00171.00024-.02026.00006-.00293.00031-.01954.00006-.0039.00031-.01953.00006-.00318.00036-.01953v-.00122l.00043-.02.00006-.00366.00043-.01953.00006-.00342.00049-.01978.00006-.00268.00049-.01953.00006-.00171.00049-.02026.00012-.00293.00055-.01978.00006-.00317.00061-.02027.00006-.00171.00061-.02075.00006-.001.00067-.02051.00006-.00269.00074-.02.00006-.00317.00073-.02027.00006-.0017.00079-.02051.00006-.001.0008-.02051.00012-.00268.00079-.02.00013-.00293.00085-.02051.00006-.00122.00092-.021.00006-.00073.00091-.02075.00013-.00244.001-.02.00012-.00317.001-.02.00012-.002.001-.02.00006-.00146.001-.02.00018-.00318.001-.01977.00018-.00293.0011-.02051.00012-.001.00116-.02124.00006-.00049.00122-.02124.00013-.00171.00122-.02051.00012-.00244.00128-.02075.00006-.001.00134-.02075.00007-.00122.00128-.02027.00018-.00293.00134-.01953.00019-.00342.0014-.02.00006-.00123.0014-.02026.00013-.00146.00146-.02027.00018-.00268.00147-.02027.00018-.00244.00147-.02026.00012-.00147.00153-.02.00012-.00171.00158-.02.00019-.00292.00158-.01978.00025-.00293L24.759,37.637l.00006-.001.00171-.02051.00012-.00146.00171-.02051.00018-.0022.00171-.02026.00018-.0022.00373-.04224.00012-.00122.00183-.02026.00024-.00268.00183-.01978.00025-.00293.00189-.02026.00006-.00025.002-.021.00019-.00147.002-.02026.00025-.00244.002-.02027.00024-.00219.00208-.02051.00006-.00074.00207-.02026.00013-.00171.00207-.02.00031-.00293.00207-.01953.00025-.00268.00445-.04151.00018-.00171.00226-.02026.00019-.002.00231-.02051.00019-.00171.00482-.04248.00006-.00073.00244-.021.00019-.00146.00244-.02076.00018-.00146L24.815,37.085l.00006-.00048.00256-.02124.00012-.001.00269-.02124.00006-.00049.00543-.04321.00006-.00073.00269-.02076.00024-.00171.00269-.0205.00018-.00122.00562-.04224.00012-.00122.00281-.02075.00018-.00147.00287-.02075.00012-.001.006-.04272.00006-.00049.003-.02124.00013-.001.00311-.02124h0l.00952-.06518.00012-.00049.00318-.02148V36.691l.00659-.043.00012-.00073.00317-.02075.00025-.00122.00323-.021.00012-.00049.00678-.043.00006-.00024.00348-.02148v-.00025l.00354-.02148h0l.00714-.04322.00006-.00024.0036-.02148v-.00025q.01457-.08643.03022-.17261l.00006-.00048a14.10153,14.10153,0,0,1,5.06817-8.468l-5.003-6.24268Zm-.28961,28.61524h-8v16h8v-16Zm0,24h-8v16h8v-16Zm0,24h-8v16h8v-16Zm0,24h-8v16h8v-16Zm0,24h-8v3.126a21.92,21.92,0,0,0,8.6297,17.4795l4.88061-6.33863a14.25242,14.25242,0,0,1-1.13922-.977l-.00079-.001-.04529-.04322-.00006-.00024-.015-.01441-.00043-.00048-.04462-.04322-.00122-.001L28.962,159.356l-.00079-.001-.02875-.02807-.00165-.00147-.01379-.01367-.00129-.00122-.02856-.02832-.001-.001-.01349-.01342-.00238-.00245-.01324-.01318-.00159-.00146-.01245-.01246-.00195-.00195-.01288-.01294-.00269-.00268-.01275-.0127-.00244-.00244-.02674-.0271-.00232-.00244-.01269-.0127-.00275-.00293-.01282-.01294-.00177-.0017-.01251-.01294-.00152-.00147-.01246-.01269-.00354-.00367-.012-.01245-.00287-.00268-.01141-.012-.0025-.00244-.01172-.0122-.003-.00318-.01172-.012-.00409-.0044-.01154-.012-.00274-.00293-.01081-.011-.00287-.00318-.012-.01245-.00317-.00342-.012-.01245-.00329-.00342-.01007-.01074-.00379-.0039-.01068-.01124-.00391-.00415-.01135-.012-.00378-.0039-.01087-.01148-.0036-.00391-.01019-.01074-.00324-.00366-.01135-.012-.004-.0044-.01141-.0122-.00311-.00318-.00989-.01074-.00342-.00366-.01129-.01221-.00336-.00342-.01159-.01269-.00354-.00367-.01087-.01171-.00323-.00367-.01-.01074-.00385-.00415-.01086-.012-.00427-.00464-.01087-.01172-.00384-.00439-.00855-.00928-.00476-.00513-.00958-.0105-.005-.00561-.01025-.01123-.00464-.00513-.00879-.00976-.00476-.00538-.00946-.01025-.004-.00464-.01037-.01147-.00483-.00537-.01043-.01172-.00373-.00415-.00836-.00928-.00427-.00488-.01025-.01148-.00464-.00512-.0102-.01148-.00476-.00537-.00805-.009-.0055-.00635-.00872-.00977-.00458-.00512-.01019-.01172-.00434-.00488-.00995-.01124-.00433-.00488-.00812-.00928-.00439-.00512-.01-.01148-.00488-.00561-.00995-.01123-.00458-.00537-.00739-.00855-.00653-.00757-.00787-.009-.00494-.00586-.00965-.011-.00494-.00586-.0083-.00952-.00562-.00659-.00751-.00879-.00494-.00561-.00958-.01123-.00476-.00562-.00922-.011-.00555-.00634-.00659-.00782-.00733-.00854-.007-.0083-.00561-.00659-.00891-.0105-.00537-.00635-.00708-.00854-.0069-.00806-.00653-.00781-.00543-.00659-.009-.01075-.00543-.00634-.00751-.009-.00671-.008-.00647-.00782-.00647-.00781-.00787-.00952-.00507-.0061-.009-.011-.00562-.00684-.00592-.00708-.00793-.00952-.00586-.00732-.00568-.00684-.00891-.01074-.00525-.00659-.00671-.00806-.00769-.00952-.00574-.00708-.007-.00855-.00726-.00878-.00556-.00684-.00872-.011-.00531-.00634-.006-.00757-.0075-.00928-.00641-.00781-.00519-.00659-.00891-.011-.00537-.00684-.00611-.00756-.008-.01-.00543-.00684-.00727-.009-.007-.009-.00543-.00683-.00671-.0083-.00745-.00952-.00519-.0066-.00848-.01049-.00513-.0066-.00622-.00781-.00794-.01025-.00567-.00733-.00586-.00732-.00818-.0105-.00507-.00659-.0075-.00952-.00641-.0083-.00592-.00757-.00544-.00708-.00842-.01074-.0047-.00611-.00879-.01147-.00494-.00635-.0061-.00781-.0047-.00611-.00916-.012-.00464-.0061-.009-.01172-.00464-.0061-.00726-.00953-.00672-.00879-.00573-.00756-.00464-.00611-.0094-.01245-.004-.00537-.01-.01318-.00348-.00464-.00653-.00855-.0036-.00488-.01007-.01343-.00385-.00512-.01031-.01368-.0033-.00439-.01037-.01392-.00354-.00488-.00617-.0083-.00409-.00537-.00946-.0127-.00409-.00561-.00848-.01148-.00507-.00683-.006-.00806-.00421-.00586-.00946-.01269-.00391-.00537-.01-.01368-.00329-.00464-.00989-.01342-.00391-.00537-.006-.00806-.00409-.00586-.00921-.0127-.00422-.00561-.00866-.01221-.00446-.0061-.00622-.00855-.00379-.00537-.0094-.01294-.00409-.00561-.00958-.01343-.0036-.00513-.00623-.00854-.00024-.00049-.01331-.01855-.00268-.00391-.01032-.0144-.00354-.00513-.008-.01123-.00543-.00757-.00574-.0083-.00409-.00562-.00916-.01318-.004-.00562-.0091-.01294-.004-.00561-.00586-.00855-.00745-.01049-.00562-.00806-.00366-.00537-.00982-.01416-.00324-.00464-.00842-.01221-.00476-.00683-.00586-.00855-.00385-.00561-.00915-.01319-.00366-.00537-.01-.01465-.00287-.00415-.00617-.009-.00238-.00342-.01074-.01587-.00281-.0039-.0105-.01563-.0025-.00366-.01916-.02832-.00318-.00464-.00952-.01416-.00366-.00561-.00934-.01392-.0033-.00488-.006-.00879-.00409-.00635-.00836-.01245-.00372-.00562-.00928-.01391-.00336-.00513-.00573-.00879-.00312-.00464-.0097-.01465-.00354-.00537L27.0119,156.99l-.00446-.00659-.00732-.01123-.00495-.00757-.00561-.00879-.00348-.00512-.009-.01392-.00361-.00561-.009-.01368-.00329-.00537-.0058-.00879-.00318-.00488-.00946-.01465-.0028-.00439-.00965-.01514-.00323-.00488-.00843-.01318-.004-.00635-.00544-.00855-.00451-.00708-.00775-.0122-.00373-.00586-.00873-.01368-.00347-.00561-.0055-.00855-.00421-.00683-.00812-.0127-.0036-.00586-.00842-.01342-.00372-.00586L26.8388,156.72l-.00348-.00561-.00555-.00879-.00366-.00586-.00824-.01343-.00385-.0061-.00757-.01221-.00445-.00732-.00513-.0083-.00452-.00733-.00763-.01245-.00354-.00561-.0086-.01416-.00342-.00537-.0177-.02906-.0025-.00415-.00928-.01538-.003-.00488-.00885-.01465-.00311-.00513-.00544-.009-.00366-.0061-.00818-.01343-.00366-.0061-.00726-.01221-.0047-.00781-.00476-.00806-.00678-.01148-.00494-.0083-.00391-.00659-.00769-.01294-.0039-.00659-.00519-.00879-.00647-.011-.00464-.00782-.00519-.00879-.00641-.011-.00421-.00708-.00665-.01148-.005-.00854-.00433-.00757-.00708-.012-.00433-.00757-.005-.00855-.006-.01025-.0047-.0083-.00464-.00806-.00677-.01172-.0044-.00757-.005-.00878-.00653-.01148-.004-.00708-.00647-.01123-.005-.00854-.00445-.00806-.00684-.012-.00433-.00782-.00439-.00756-.00654-.01172-.00439-.00757-.00452-.00806-.00659-.012-.00458-.00806-.00463-.0083-.00635-.01123-.00421-.00757-.00623-.01123-.00482-.00879-.00464-.0083-.00446-.008-.00659-.012-.00384-.00683-.0069-.01245-.00378-.00708-.00489-.00879-.00622-.01148-.00482-.00854-.0033-.00635-.00775-.01392-.00342-.00634-.00549-.01026-.00562-.01025-.00439-.00806-.00482-.009-.006-.01123-.00372-.00684-.00653-.01221-.00433-.008-.00434-.00806-.00647-.01221-.00415-.00781-.00458-.00854-.006-.01148-.00415-.00757-.00482-.00927-.006-.01123-.00409-.00782-.00525-.01-.00507-.00952-.00482-.00928-.00384-.00732-.00623-.012-.00409-.00781-.00659-.0127-.00366-.00708-.00488-.00928-.00538-.0105-.0047-.009-.00384-.00757L26.258,155.698l-.004-.00781-.00506-.00977-.00495-.00976-.00464-.009-.00409-.00805-.0061-.012-.00372-.00733-.00666-.01318-.00335-.00659L26.21,155.6038l-.00409-.008-.00556-.011-.00348-.00684-.00665-.01342-.0036-.00708-.00488-.00977-.005-.01-.00476-.00976-.00323-.00635-.00672-.01343-.00354-.00732-.00653-.01319-.00329-.00659-.00483-.00976-.00476-.00977-.005-.01025-.00348-.00708-.00659-.01343-.00336-.00684-.00513-.0105-.00457-.00952-.00446-.00928-.00372-.00756-.00623-.01294-.0036-.00757-.00525-.01074-.00451-.00952-.00452-.00953-.0044-.009-.00506-.01074-.00366-.00757-.00629-.01318-.00336-.00708-.0047-.01-.00445-.00953-.00507-.01074-.003-.00634-.00635-.01343-.00354-.00757-.00531-.01148-.004-.00854-.00464-.00977-.00379-.008-.00567-.01245-.0033-.00708-.00622-.01343-.00336-.00733-.0044-.00952-.00464-.01-.00457-.01-.0033-.00732-.00616-.01343-.0033-.00708-.00488-.011-.00434-.00927-.00451-.01-.0033-.00733-.00586-.01294-.00329-.00756-.00623-.01368-.00281-.00634-.00476-.0105-.004-.009-.00513-.01147-.00281-.00635-.00629-.01416-.003-.00659-.00537-.01221-.00342-.00781-.00482-.01074-.003-.00708-.006-.01367-.00293-.00684-.00635-.0144-.00256-.00586-.00488-.01123-.00312-.00733-.00543-.01245-.00311-.00708-.00592-.01367-.003-.00732-.00446-.01026-.00427-.01-.0044-.01025-.003-.00708-.00573-.01343-.00336-.00781-.005-.012-.00366-.00854-.004-.00952-.00378-.009-.00507-.012-.00287-.00683-.00579-.01392-.00306-.00732-.00445-.01075-.00372-.009-.00464-.01123-.00293-.00684-.0058-.01416-.00275-.00659-.00555-.01343-.00287-.00708-.00458-.01123-.00244-.00586-.006-.01489-.0025-.0061-.00611-.01514-.0022-.00537-.00524-.01294-.00245-.0061-.00561-.01392-.00226-.00561-.006-.0149-.0025-.00634-.00531-.01343-.00293-.00708-.00421-.01074-.00287-.00733-.00562-.01416-.00256-.00659-.00574-.0144-.00262-.00684-.00434-.011-.00305-.00781-.005-.01269-.00263-.00684-.00561-.0144-.00238-.00635-.00556-.01416-.002-.00537-.005-.01294-.00226-.00586-.00567-.0149-.0025-.00659-.00568-.01489-.00214-.00561-.0047-.01246-.00213-.00561-.00574-.01514-.00214-.00561-.00573-.01538-.0022-.00586-.00525-.01392-.00183-.00488-.00531-.01441-.002-.00512-.00586-.01587-.002-.00537-.00579-.01563-.002-.00537-.00464-.0127-.002-.00537-.00555-.01513-.00232-.00635-.0055-.01514-.002-.00561-.005-.01392-.00183-.00488-.00537-.01489-.00183-.00513L25.526,154.011l-.00208-.00562-.00543-.01513-.00189-.00537-.00464-.01319-.00189-.00537-.00562-.01587-.00195-.00537-.00544-.01562-.002-.00586-.00464-.01319-.00183-.00512-.00513-.0149-.00213-.0061-.00531-.01538-.002-.00562-.00518-.01513-.0019-.00537-.00457-.01343-.00183-.00537-.00531-.01563-.00214-.0061-.00531-.01563-.00159-.00488-.00488-.0144-.00122-.00366-.00556-.01661-.00177-.00512-.00524-.01587-.002-.00586-.00482-.01441-.00183-.00561-.00458-.01367-.00189-.00562-.00519-.01587-.00183-.00561-.00519-.01587-.00171-.00537-.00451-.01367-.00135-.00416-.00524-.01635-.00184-.00562-.00524-.01611-.00153-.00488-.00476-.0149-.00171-.00537-.0047-.01465-.00165-.00512-.00506-.01612-.00183-.00586-.00507-.01611-.0014-.00439-.00434-.01368-.00158-.00512-.00507-.01612-.00171-.00561-.005-.01611-.00159-.00513-.0047-.01538-.001-.00318-.00506-.0166-.00147-.00488-.00519-.01685-.00128-.00439-.00525-.01733-.001-.00318-.00483-.01587-.001-.00366-.00507-.0166-.00165-.00562-.00488-.01635-.00134-.0044-.00458-.01562-.001-.00318-.005-.01709-.00147-.00488-.00488-.0166-.00147-.00513-.0047-.01611-.00122-.00415-.00439-.01514-.00128-.00464-.00488-.0166-.00147-.00537-.00476-.01636-.00134-.00488-.00428-.01514-.001-.00341-.00489-.01734-.00128-.00464-.00488-.01709-.00116-.00415-.0047-.01684-.00092-.00342-.00451-.01611-.00116-.0044-.00482-.01733-.00122-.0044-.00489-.01782-.00067-.00244-.00458-.0166-.001-.00366-.0047-.01734-.00122-.00439-.0047-.01758-.0011-.00391-.00458-.01709-.00049-.002-.0047-.01758-.00116-.00439-.00451-.01709-.00129-.00489-.00451-.01709-.001-.00415-.00409-.01538-.001-.0039-.00439-.01709-.00146-.00537-.0044-.01709-.001-.00391-.00427-.0166-.00061-.0022-.00458-.01831-.001-.00391-.00446-.01757-.0011-.0044-.00451-.01807-.00055-.00219-.00428-.01709-.00091-.00342-.0044-.01782-.001-.0044-.0044-.01782-.00085-.00342-.00428-.01733-.00042-.00171-.00458-.019-.00073-.00318-.00452-.01831-.00079-.00342-.00446-.01879-.00049-.00171-.00415-.01758-.00079-.00342-.00427-.01807-.001-.00415-.00421-.01806-.00067-.00293-.00385-.0166-.00085-.00367-.00409-.01757-.001-.0044-.00409-.01782-.00085-.00391-.00422-.01831-.00024-.00122-.00415-.01806-.00092-.00416-.004-.01757-.001-.0044-.004-.01806-.00067-.00293-.00366-.01685-.00079-.00342-.00391-.01782-.001-.00464-.00384-.01782-.00086-.00366-.00372-.01734-.00049-.00244-.004-.01831-.00079-.00366-.00385-.01807-.00091-.00415-.004-.0188-.00018-.001-.00385-.01831-.00073-.00342-.00378-.01807-.00086-.00415-.00372-.01782-.00086-.0044-.00341-.0166-.00055-.00268-.00373-.01807-.00091-.00464-.00354-.01758-.00092-.00439-.0036-.01831-.00055-.00269-.00335-.01684-.00074-.00366-.00354-.01807-.00091-.00439-.00354-.01807-.00067-.00366-.00324-.01661-.00061-.00341-.00354-.01831-.00079-.00415-.00342-.01807-.00079-.00391-.00354-.019-.00013-.00049-.00347-.01855-.00074-.00391-.00342-.01831-.00067-.00391-.00348-.01879-.00042-.00245-.00336-.01831-.00037-.00219-.00341-.0188-.00068-.00391-.00335-.01855-.00055-.00318-.007-.03906-.00055-.00342-.00323-.01855-.00068-.00391-.00329-.019-.00037-.00195-.00311-.01832-.00049-.00268-.00317-.0188-.00061-.00391-.00312-.01855-.00061-.00366-.00317-.019-.00006-.00024-.00317-.01929-.00061-.0039-.00306-.01856-.00055-.00366-.00311-.019-.00036-.0022-.00287-.01807-.00049-.00317-.00293-.01856-.00067-.00415-.00287-.01855-.00055-.00342-.00269-.01758-.00042-.00244-.00287-.019-.00055-.00366-.00287-.0188-.00049-.00318-.00592-.03979-.00049-.00293-.0028-.01929-.00049-.00317-.00275-.01929-.00037-.00268-.00274-.019-.00019-.00122-.00274-.01928-.00055-.00415-.00263-.0188-.00048-.00318-.00275-.01977v-.00025l-.00275-.02-.00042-.00268-.00257-.01929-.00049-.00366-.00256-.01929-.0003-.00195-.00245-.01856-.00036-.00268-.00244-.019-.00055-.00391-.00238-.0188-.00049-.00342-.00238-.019-.00012-.001-.00251-.01977-.00036-.00318-.00244-.01953-.00037-.00268-.00244-.02-.00019-.00147-.00231-.01953-.00025-.00195-.00238-.01953-.00037-.00342-.00231-.01953-.00031-.00269-.0022-.0188-.00018-.00195-.00226-.01953-.00036-.00318-.0022-.01953-.00037-.00317-.0022-.02-.00006-.00049-.00213-.01953-.00037-.00317-.00207-.01929-.00037-.00342-.002-.01929-.00037-.00317-.00189-.01831-.00025-.0022-.002-.0188-.00049-.00488-.00189-.01831-.00037-.00391-.002-.01953-.00006-.001-.002-.01953-.00031-.00293-.00183-.019-.00043-.00439-.00177-.0188-.00024-.00269-.00171-.01831-.00031-.00293-.00177-.019-.0003-.00391-.00177-.01928-.00025-.00318-.00354-.04028-.0003-.00317-.00165-.01929-.0003-.00366-.00165-.01953-.00018-.00245-.00153-.01855-.00024-.00293-.00153-.0188-.00037-.00464-.00152-.0188-.00025-.00317-.00146-.01929-.00012-.00122-.00147-.01977-.0003-.00367-.00141-.019-.0003-.00415-.00141-.019-.00018-.00269-.00128-.01782-.00025-.00366-.00134-.019-.00024-.00415-.00134-.01929-.00019-.00293-.00122-.0188-.00012-.00195-.00128-.01978-.00025-.00366-.00122-.01953-.00024-.00318-.00122-.02026v-.00024l-.00128-.021-.00013-.00195-.00116-.01978-.00018-.00366-.00116-.02-.00006-.00171-.0011-.01977-.00012-.00171-.001-.02-.00018-.00342-.001-.01953-.00018-.00366-.001-.02-.00006-.00049-.001-.01978-.00012-.00366-.00091-.01929-.00019-.00366-.00091-.01977-.00012-.0022-.00086-.01953-.00006-.00171-.00085-.02027-.00013-.00341-.00079-.01978-.00012-.00293-.0008-.02026-.00006-.00049-.00073-.02051-.00012-.00293-.00073-.01977-.00013-.00342-.00067-.02026-.00006-.001-.00061-.02-.00012-.00244-.00061-.02027-.00006-.00293-.00061-.02026-.00006-.00269-.00055-.01977-.00006-.00122-.00055-.01953-.00006-.0044-.00049-.019-.00012-.00415-.00043-.01978-.00006-.00146-.00043-.01929-.00006-.00317-.00037-.01929-.00006-.00439-.00036-.01953-.00006-.00245-.00031-.01977-.00006-.00171-.00031-.02026-.00006-.00318-.00024-.01977-.00006-.00391-.00025-.02v-.00024l-.00018-.02027-.00006-.00341-.00018-.01954v-.0039l-.00013-.01953-.00006-.00293-.00006-.01929-.00006-.00195-.00006-.02v-.00366l-.00006-.02v-.02369h0v-3.126Zm12.86316,17.13183-.6781,7.97119c.61889.05274,1.24847.07935,1.87127.07935H53.57446v-8H38.71929l-.01422-.00024h-.02832l-.04193-.00049H38.6134l-.00684-.00025h-.01422l-.00732-.00024-.01587-.00024h-.00489l-.04272-.00074h-.00476l-.01648-.00024-.006-.00025-.01593-.00024-.00519-.00024-.01831-.00025-.00293-.00024-.04321-.001h-.004l-.01776-.00049-.00428-.00024-.018-.00049H38.3612l-.06592-.00195-.00079-.00025-.02087-.00048-.00226-.00025-.02076-.00073h-.00079q-.33911-.01245-.67413-.041Zm39.99878.05054h-16v8h16v-8Zm24,0h-16v8h16v-8Zm24,0h-16v8h16v-8Zm24.00012-.00269-.071.00123h-.00988l-.00782.00024-.0144.00024h-.00159l-.06714.00049H149.4l-.04224.00025-.01086.00024H133.57446v8h15.72326q.21717,0,.43348-.00415l-.15662-7.99854Zm21.77942-16.2622h-8v2.20849h0v.02442l-.00012.02v.02441l-.00013.01978v.00464l-.00024.01928v.00074l-.00012.02v.00464l-.00025.01953V149.47l-.00024.01758-.00012.00464-.00025.01929v.00415l-.00036.01929v.001l-.00037.02v.0044l-.00037.01953-.00012.00317-.00024.01758-.00012.00439-.00049.019v.00464l-.00049.01806v.0022l-.00049.01953-.00012.00488-.00049.01953-.00012.0022-.00049.01831-.00012.00415-.00061.01953-.00012.00367-.00061.01855v.0022l-.00061.01977-.00025.0044-.00061.01977-.00012.00171-.00061.0188-.00012.00415-.00074.01929-.00024.00415-.00073.01807v.00219l-.00086.01978-.00012.00439-.00085.01978-.00013.00122-.00073.0188-.00024.00464-.00086.01953-.00012.00293-.001.01855-.00013.00269-.001.01977-.00013.00415-.001.0188-.00012.00269-.001.01831-.00024.00488-.001.019-.00025.00367-.001.01757-.00012.00318-.0011.01953-.00037.00439-.0011.01954v.00024l-.00122.02-.00024.00439-.00122.01953-.00013.00269-.00122.01807-.00012.00341-.00134.01929-.00025.00464-.00122.01782-.00012.0022-.00134.01953-.00024.00464-.00135.019-.00024.00342-.00122.01733-.00037.00367-.00134.01928-.00037.00415-.00122.01807-.00024.0022-.00147.01929-.00036.00488-.00147.01929-.00012.00195-.00147.01831-.00036.0039-.00159.01929-.00024.00415-.00147.01709-.00024.00342-.00159.019-.00049.00464-.00158.01929-.00013.00195-.00158.01807-.00037.00415-.00171.019-.00036.0044-.00159.01684-.00025.00342-.00183.019-.00036.00464-.00183.01953-.00013.00049-.00183.01929-.00036.00415-.00183.01929-.00037.00366-.00171.01684-.00037.00391-.00183.0188-.00048.00488-.00184.01782-.00036.00318-.00183.01758-.00049.00488-.00195.01855-.00049.0044-.00171.0166-.00037.00366-.00207.0188-.00049.00464-.00208.01929v.00024l-.00232.01978-.00036.0039-.0022.01978-.00024.00195-.00208.01807-.00049.0039-.00219.019-.00049.0039-.00208.01856-.00024.00146-.00232.01953-.00049.00391-.00232.01953-.00036.00244-.0022.01807-.00037.00317-.00244.01929-.00037.00366-.00232.01831-.00024.002-.00244.01928-.00061.00415-.00244.01953-.00025.00147-.00244.01855-.00049.00367-.00256.01928-.00037.00318-.00244.01806-.00024.00244-.00269.01929-.00049.00391-.00268.01953-.00025.00171-.00256.01806-.00049.00415-.00268.0188-.00061.00415-.00232.01685-.00049.00293-.00269.019-.00061.00415-.0028.01953-.00013.001-.00268.01831-.00073.00464-.00281.0188-.00049.00317-.00256.01734-.00049.00341-.00281.01856-.00073.00439-.00269.01807-.00049.00293-.00268.01758-.00073.00464-.00293.0188-.00049.00341-.00281.01685-.00049.00342-.00305.0188-.00061.00415-.00623.03881-.00073.0044-.00317.0188-.00037.00268-.00281.01685-.00073.00439-.00317.01856-.00061.00415-.00293.01709-.00049.00268-.00305.01831-.001.00513-.00317.01831-.00049.00318-.00293.0166-.00073.00415-.0033.01855-.00061.00391-.00317.01758-.00037.00219-.00329.01856-.00086.00488-.00342.0188-.00036.0022-.00318.01709-.00073.00439-.00342.01856-.00073.00366-.00317.01709-.00049.00293-.00354.01831-.00086.00488-.00354.01856-.00036.00219-.0033.01685-.00085.00464-.00342.01831-.00086.00415-.00317.01636-.00061.00341-.00366.01807-.001.00513-.00366.01855-.00024.00147-.00342.01709-.001.00537-.00366.01782-.00073.00391-.0033.01611-.00085.00391-.00354.01782-.0011.00561-.00342.01636-.00086.00415-.00329.01587-.00122.00562-.00354.01733-.0011.00488-.00305.01514-.001.00439-.00366.01734-.00134.0061-.00342.01611-.00049.00245-.00378.01757-.00122.00538-.00379.01782-.001.00415-.00329.01513-.0011.00489-.00378.01733-.00122.00537-.00354.01612-.00049.00268-.00415.01807-.0011.00488-.004.01807-.00073.00342-.00367.01611-.001.00415-.00415.01807-.001.00439-.00378.0166-.00061.00244-.00415.01783-.00122.00537-.00415.01806-.00062.00244-.0039.01685-.001.00415-.00427.01807-.0011.00415-.00378.01635-.00074.00269-.00427.01831-.00122.00464-.00439.01807-.00049.00244-.00427.01709-.00086.00366-.00439.01831-.0011.00415-.004.01636-.00061.00268-.00452.01831-.00122.00464-.00451.01831-.00049.00147-.00427.01733-.0011.0044-.00464.01806-.00073.00318-.0044.01709-.00073.00268-.00464.01831-.0011.00415-.00464.01831-.00036.00122-.00476.01831-.00086.00342-.00488.01856-.00086.00317-.00439.01685-.00073.00268-.00476.01831-.00122.0044-.00489.01806-.00012.00049-.00488.01856-.00122.00439-.00476.01782-.001.00342-.00427.01563-.0011.00415-.00488.01782-.00123.00439-.00476.01734-.00036.00122-.00513.01855-.001.00391-.00512.01831-.00073.00269-.00477.01684-.00085.00317-.00513.01807-.00122.00415-.00464.01685-.00061.002-.00512.01782-.00135.00489-.00512.01782-.00074.00268-.00463.01612-.00123.00415-.00512.01757-.00122.00416-.00464.01611-.00086.00293-.00537.01806-.0011.00391-.00537.01807-.00073.00244-.00476.01611-.00134.00464-.00513.01709-.00146.00513-.00452.01489-.001.00342-.00537.01758-.00146.00463-.00525.01758-.00086.00269-.00476.01562-.00146.00489-.00537.01733-.00122.00415-.00464.01489-.00135.0044-.00525.01709-.00158.00488-.00476.01538-.00171.00537-.00464.01465-.00159.00513-.00525.01684-.00158.00489-.00452.0144-.00134.0044-.0055.01684-.00158.00513-.00513.01611-.00085.00244-.0055.01685-.00146.00488-.00562.01733-.0011.00342-.005.01514-.00147.00464-.00561.01733-.00134.00391-.00537.01636-.00074.00219-.00573.01758-.00159.00464-.00574.01709-.00134.00391-.00488.01464-.00147.00464-.00574.01709-.00158.00464-.00513.01514-.001.00317-.00573.0166-.002.00562-.00561.0166-.00135.00415-.00488.01416-.00171.00488-.00586.01709-.00146.00415-.00525.01514-.00122.00342-.00586.01709-.00171.00488-.006.01685-.00122.00342-.00525.01513-.00159.00464-.006.0166-.00171.00489-.005.0144-.00135.00366-.006.01685-.00183.00512-.0061.01709-.00086.0022-.00561.01563-.00183.00488-.00611.01709-.00134.00366-.00537.01465-.00146.00415-.00611.0166-.00183.00513-.00549.01514-.002.00512-.00537.01441-.00183.00512-.00622.01685-.00135.00366-.00561.01489-.00147.00391-.00622.0166-.00183.00488-.00611.01636-.00073.002-.00622.01661-.002.00488-.00647.01709-.001.00268-.00586.01514-.00159.0044-.00647.01684-.00171.0044-.006.01562-.00085.0022-.00672.01733-.00159.00415-.00671.01709-.00122.00342-.00586.01489-.00159.00415-.00647.01661-.00195.00488-.00561.0144-.00135.00342-.00647.01636-.00207.00512-.00672.01685-.001.00269-.00611.01513-.00183.0044-.00659.0166-.00171.00439-.00586.01441-.00146.00366-.00672.0166-.00195.00488-.00684.01661-.00109.00268-.006.01489-.00195.00464-.00659.01612-.0022.00537-.00549.01342-.00171.00415-.00659.01612-.00232.00537-.00684.01636-.001.00244-.00611.01465-.00219.00537-.00672.01587-.00195.00488-.00549.01294-.0022.00513-.00647.01562-.00256.00562-.00586.01391-.00245.00586-.00561.01343-.00244.00537-.00672.01587-.00207.00488-.00574.01319-.002.00463-.00684.01587-.00219.00513-.007.01611-.00037.00074-.0072.01684-.0022.00488-.00708.01612-.00183.00415-.00586.01343-.0022.00488-.007.01587-.0022.00488-.00647.01465-.0011.00268-.0072.01636-.00232.00489-.007.01586-.00207.00464-.006.01319-.00207.00464-.00708.01586-.00232.00489-.00647.01465-.00122.00244-.0072.01611-.00257.00562-.00708.01562-.00183.00391-.00622.01367-.00208.00464-.00732.01587-.0022.00464-.00635.01391-.00158.00342-.00745.01611-.0022.00489-.00757.01611-.00158.00342-.00647.01391-.0022.00464-.00745.01587-.00207.00439-.00672.01441-.00134.00293-.00769.01636-.0022.00463-.00732.01563-.00195.00391-.00647.01342-.00244.00513-.00745.01587-.00208.00415-.00647.01367-.00183.00391-.00769.01587-.00232.00488-.00695.01416-.00245.00513-.00659.01367-.00232.00488-.00769.01563-.00207.00439-.00672.01367-.00171.00342-.00781.01611-.00244.00489-.00732.01489-.00122.00269-.00769.01538-.00232.00464-.00782.01586-.002.00367-.00659.01342-.0022.0044-.00781.01562-.00232.00464-.00732.01465-.00135.00244-.00818.01636-.00195.00391-.0083.01635-.00147.00293-.00744.01465-.00159.00318-.0083.01635-.00207.00415-.00757.01465-.00122.00244-.00806.01587-.00269.00489-.008.01562-.00159.00317-.0072.01416-.00208.00391-.0083.01587-.00207.00415-.00733.01392-.00158.00317-.00843.01611-.00207.00391-.00855.01636-.00122.00244-.00781.01465-.00195.00366-.0083.01587-.00232.00439-.00733.01367-.00171.00318-.00842.01587-.00232.00439-.00854.01587-.0011.00195-.00781.01465-.0022.0044-.00855.01562-.00207.00391-.0072.01343-.0022.0039-.00842.01538-.00245.00464-.00781.01465-.0022.00391-.00756.01367-.00232.00439-.00855.01563-.0022.0039-.00744.01343-.00195.00366-.00855.01538-.00256.00464-.0083.01514-.00086.00146-.00867.01563-.00231.00415-.00879.01587-.002.00342-.00732.01294-.00256.00464-.00855.01513-.00244.0044-.00806.0144-.0011.00195-.00915.01612-.00208.00366-.00891.01587-.00219.00366-.00733.01294-.00244.00415-.00879.01538-.00244.0044-.00806.01391-.00134.00244-.00879.01538-.00281.00464-.00879.01538-.00183.00318-.00769.01318-.00256.0044-.00891.01538-.00208.00366-.0083.01416-.00146.00244-.00928.01587-.0022.00366-.0094.01587-.00134.00244-.00818.01392-.00256.00415-.00891.01514-.00269.00439-.00745.0127-.00219.00366-.00891.01489-.00281.00464-.009.01538-.00171.00268-.00782.01319-.00305.00488-.00879.01465-.00268.00439-.0072.01221-.00281.0044-.00879.0144-.00293.00513-.00794.01294-.00341.00561-.00733.012-.00317.00538-.00891.0144-.00269.00415-.00744.01245-.00257.00415-.009.01441-.00293.00488-.00867.01392-.00183.00317-.00854.01367-.00306.00488-.00915.01465-.00232.00391-.00793.01245-.00257.00415-.0094.01489-.00244.00391-.00879.01416-.00158.00244-.00928.01465-.00281.00464-.0094.01465-.00232.00366-.00793.01245-.00269.00415-.00928.01465-.00293.00464-.008.01245-.00244.0039-.00879.01368-.00354.00561-.00916.01416-.00232.00366-.00781.01221-.00305.00464-.00928.01416-.00293.00464-.00781.012-.00269.00415-.00915.01392-.00354.00537-.00916.01416-.00268.00415-.00733.01123-.00354.00537-.00891.01343-.00366.00561-.00745.01123-.0028.00415-.00916.01368-.00366.00586-.0094.01391-.00208.00318-.00781.01171-.00378.00562-.00916.01367-.00317.00488-.00757.01123-.00317.00464-.00916.01368-.00378.00561-.00782.01147-.00427.00635-.00732.01074-.00379.00562-.00915.01343-.00342.00512-.00769.01124-.00293.00415-.00952.01391-.00366.00537-.00843.01245-.0028.00391-.00867.01245-.00354.00513-.00952.01391-.00305.0044-.0077.01123-.00341.00488-.00952.01367-.0033.00464-.00867.01245-.00268.00391-.00916.01294-.00342.00488-.00964.01392-.00305.00415-.00855.01221-.00244.00341-.01.01416-.00329.00464-.00867.01221-.00208.00293-.00988.01392-.00367.00512-.01.01392-.00207.00293-.009.01269-.00281.00391-.01013.01416-.00293.00415-.00879.01221-.00232.00317-.01013.01392-.00342.00488-.01.01367-.00269.00366-.00842.01172-.00342.00464-.00976.01343-.00366.00513-.00794.01049-.00305.0044-.00977.01318-.0039.00537-.00989.01343-.00244.00342-.00867.01172-.00366.00488-.00977.01318-.00378.00513-.00757.01025-.00354.00464-.00977.01294-.00415.00586-.00793.0105-.00513.00684-.00781.01025-.00391.00537-.00976.01294-.004.00537-.00769.01-.00317.0044-.01014.01342-.0039.00513-.0094.01221-.00244.00317-.00989.01294-.00317.0044-.01038.01367-.0033.00415-.00818.01074-.00341.00439-.01038.01343-.00354.00464-.00928.012-.00256.00342-.01038.01319-.00305.00415-.01062.01367-.00305.0039-.00867.01123-.00317.00391-.01038.01343-.0039.00488-.00867.01123-.00305.00366-.01.01294-.004.00513-.01025.01294-.0033.00415-.00818.01025-.00378.00489-.01038.01294-.00378.00488-.0083.01025-.00391.00513-.00989.01245-.0039.00488-.01026.0127-.00342.00439-.00842.0105-.00366.00464-.0105.0127-.0039.00512-.00867.0105-.00281.00366-.011.01343-.00354.0044-.01074.01318-.00268.00342-.00891.011-.004.00489-.0105.01269-.00366.00464-.00843.01025-.00366.0044-.0105.01269-.00415.00513-.00879.01074-.00524.00635-.00794.00952-.00439.00537-.01038.01245-.004.00489-.0083.00976-.00366.00464-.01062.0127-.00415.00488-.00964.01147-.00318.00391-.00976.01147-.00391.00464-.01074.01294-.00379.0044-.0083.00976-.004.00489-.01074.01245-.004.00488-.00891.0105-.00415.00488-.00989.01148-.00378.00439-.01074.0127-.004.00463-.00842.01-.00379.0044-.01111.01269-.00378.0044-.00891.01025-.0044.00513-.00952.011-.00451.00537-.01075.01245-.00354.0039-.00878.01-.004.00489-.01087.0122-.00415.00489-.00854.00976-.004.0044-.0105.012-.00427.00488-.01062.01221-.00391.00439-.00891.01-.004.00464-.01086.01221-.0044.00488-.0083.00952-.00378.00415-.011.01221-.00439.00513-.01.011-.00452.00513-.00879.00977-.00451.00488-.011.01221-.00391.00439-.00866.00977-.00391.00439-.011.012-.00451.00513-.00867.00952-.00659.00708-.00806.00879-.00464.00513-.01123.01245-.00342.00366-.00939.01026-.00367.0039-.01111.01221-.00451.00488-.00965.0105-.00463.00488-.00928.01026-.00464.00488-.01123.01221-.00391.00415-.0083.009-.00476.00488-.01086.01172-.00476.00513-.009.00976-.00512.00538-.0094.01-.00489.00512-.011.01172-.00427.00464-.00831.00879-.00463.00488-.011.01148-.00488.00537-.0083.00879-.00647.00659-.00855.009-.00561.00586-.01087.01123-.004.0044-.00842.00878-.00488.00513-.01087.01123-.00512.00537-.00794.0083-.00671.00684-.00891.00928-.00525.00537-.01087.01123-.00439.00464-.00842.00854-.005.00513-.01074.011-.00574.00585-.00732.00757-.00659.00684-.00928.00928-.00574.00586-.00891.009-.00659.00684-.00757.00756-.006.00611-.01038.0105-.00573.00585-.00708.00708-.00745.00733-.00879.009-.006.00586-.00769.00781-.00818.00806-.00732.00732-.00586.00586-.01062.0105-.00586.00586-.007.00708-.00708.00684-.00928.00927-.00622.00611-.00769.00757-.00782.00781-.00744.00732-.00647.00635-.01038.01025-.00586.00562-.0072.00708-.00586.00562-.01074.01049-.0055.00537-.009.00879-.00586.00562-.00915.009-.00586.00562-.00916.00879-.00744.00732-.00733.00708-.00574.00537-.01074.01026-.00622.0061-.00745.00708-.00818.00781-.00757.00733-.00671.00634-.00855.00806-.00781.00757-.0072.00683-.00623.00586-.01074.01026-.00586.00537-.00781.00732-.0072.00684-.00916.00879-.00586.00537-.00891.0083-.00781.00757-.00757.00683-.00586.00562-.01074.01-.00684.00635-.00659.0061-.00793.00732-.00891.00831-.00647.00585-.00794.00757-.00867.00782-.00732.00683-.00659.00611-.01062.00976-.00623.00562-.00732.00683-.00659.00586-.01.00928-.00684.0061-.00622.00586-.01087.00977-.00671.0061-.00647.00586-.01074.00977-.0066.00586-.007.00634-.006.00537-.01086.00977-.00684.00635-.0072.00634-.00964.00855-.0072.00659-.00672.00586-.01086.00977-.00635.00561-.00684.00611-.00647.00561-.011.00977-.00659.00586-.00721.00634-.00976.00879-.00733.00635-.007.0061-.00769.00684-.00977.00854-.00647.00562-.00659.00586-.01087.00952-.0072.0061-.00634.00562-.01111.00952-.00623.00562-.00757.00659-.00708.0061-.01013.00855-.00684.0061-.00646.00537-.01136.01-.00647.00537-.007.00611-.01049.009-.00708.0061-.00721.00586-.00659.00586-.01111.00928-.00647.00561-.00683.00586-.01074.009-.00782.00659-.00549.00464-.01172.01-.00647.00537-.00769.00634-.006.00513-.012.01-.00562.00488-.00769.00635-.00757.00635-.011.009-.005.00415-.01379.01148-.00452.0039-.00867.00708-.00329.00269-.01575.01294-.00354.00317-.00867.00708-.00439.00342-.014.01172-.005.00391-.014.01147-.0044.00366-.00854.00708-.00415.00342-.01465.01172-.00427.00366-.00842.00684-.00525.00415-.01368.011-.00427.00342-.01672.01367-.00208.00171-.00891.00708-.00378.00293-.01538.01245-.00391.00293-.00854.00708-.00391.00293-.01562.01245-.00355.00293-.01892.01514h-.00012l-.00928.00733-.00341.00268-.01648.01294-.00269.0022-.0094.00732-.00281.0022-.01635.01294-.00379.00293-.02856.02221-.00293.00245-.01709.01318-.00269.0022-.00915.00708-.0033.00244-.016.01245-.004.00317-.02868.022-.00318.00244-.01574.012-.00416.00317-.00854.0066-.005.0039-.0149.01123-.00378.00293-.029.022-.00293.00219-.02967.02222-.00207.00171-.01868.01391-.00159.00123-.03027.02246-.00232.00171-.03.02246-.00244.0017-.01819.01343-.00207.00147-.03064.02246-.00159.00122-.03076.02246-.00195.00146-.01893.01368-.0017.00122-.03089.02221-.00183.00147-.03064.022-.0022.00147-.05224.03735-.00073.00049-.03174.02246-.0011.00073-.05371.0376v.00024l-.03235.02246-.00086.00049-.08679.05982-.00061.00024c-.02881.01978-.05823.03955-.08716.05908l-.00048.00025,4.46069,6.64111a22.04752,22.04752,0,0,0,9.79419-18.31763v-2.20849Zm0-24h-8v16h8v-16Zm0-24h-8v16h8v-16Zm0-24h-8v16h8v-16Zm0-24h-8v16h8v-16Zm-7.20081-28.60083-5.39489,5.90722a14.26041,14.26041,0,0,1,1.58776,1.7085l.00013.00024.01281.01636.00025.00025.01269.01635.00049.00049.0127.01636.00012.00024.06457.08326.00013.00024.01245.01611.00061.001.01184.01538.00134.00171.0116.01538.00122.00146.01147.01514.00159.0022.01147.01514.0011.00146.0116.01538.00134.00171.01148.01514.00061.001.01135.01514.00159.002.01111.01514.00158.002.011.01465.00195.00269.01074.0144.00208.00269.0105.0144.00232.00293.01062.01465.00158.0022.01087.01465.00232.00292.01049.01465.00147.002.01025.01391.00232.00318.01038.01416.00134.00195.01074.01465.0022.00293.01013.01416.00244.00342.00977.01342.00317.0044.0094.01318.00293.00391.00952.01318.00342.00488.00916.01294.003.00415.00818.01148.00464.00635.00757.01074.0039.00561.00855.012.00293.00415.00927.01318.00318.0044.00879.01245.0039.00561.00855.012.00378.00562.00855.01221.0039.00561.00843.012.004.00586.00733.0105.005.00708.00684.01.00513.00733.00683.01.00488.00683.007.01026.00489.00708.00708.01025.00439.00635.00781.01147.0044.00659.00757.011.00488.00708.0072.0105.00525.00781.00439.00659.00794.01172.00427.00611.00769.01147.0044.00659.00756.01123.00464.00708.00757.01123.004.00586.00793.012.0044.0066.00683.01025.005.00757.00549.00806.00684.01049.005.00757.00635.00952.00586.009.005.00756.00683.01026.0044.00683.00744.01124.0044.00683.0072.011.00427.00659.00806.01245.00366.00537.00769.012.00415.0066.007.01049.00488.00757.00525.0083.00635.00977.00574.009.00305.00464.00854.01343.00366.00561.00806.0127.00391.0061.00757.012.0039.0061.00818.01294.00317.00488.00843.01343.00329.00513.00879.01391.00269.0044.00891.01416.00268.00439.01111.01782.00049.00049.00574.00928.00183.00317.00977.01538.00244.00415.00891.01441.00293.00464.00866.01416.00257.0039.009.01465.00244.00415.0094.01514.00183.00317.0105.01709.00073.00122.02893.04761.00086.00147.01062.01757.00122.0022.00989.01636.00244.0039.00879.01465.00232.00415.00891.0149.00244.00415.009.01489.00208.00366.00915.01538.0022.00366.00977.01661.00122.00219.00976.0166.00159.00269.00537.009.00256.0044.00843.0144.00317.00562.00781.01318.00281.00488.0083.01416.00257.0044.00891.01538.00171.00293.00927.01636.00183.00317.00916.01587.00171.00293.02746.04834.001.00146.00964.01709.00245.00415.00866.01539.00171.00317.00928.0166.00134.0022.00952.01709.00147.00244.00928.0166.00158.00293.01026.01831.00024.00049.03784.06885.00049.00073.0105.019.00012.00025.01062.01953.00012.00024.0105.01929.00037.00073.01049.01953h0l.03711.06909.001.00171.00964.01831.00049.001.00977.01831.00122.0022.00915.01733.00122.00244.00879.01661.00183.00366.009.01709.001.00195.00965.01855.00061.00123.02563.04956.00074.00122.00964.0188.00061.00122.00928.01806.00122.00244.00891.01734.00134.00268.00879.01734.0011.00244.00891.01733.00122.00269.00928.01807.00061.00146.01514.03.00048.001.00965.01928.00012.00025.0094.019.00146.00293.00843.01685.00158.00317.00806.0166.00171.00342.00854.01733.0011.0022.00867.01782.0011.0022.03406.07031.00085.00171.00879.01831.00085.00171.00879.01856.00086.0017.00879.01856.00085.00171.00879.01855.00085.00171.00892.0188.00048.00122.03321.071.00122.00244.00805.01758.00135.00268.00781.01709.00183.00391.00745.01611.00183.00391.00732.01635.00183.00391.00794.01733.0011.00245.00769.01684.00158.00366.01368.03028.00122.00268.00781.01734.00159.00341.00744.01685.00159.00366.00732.01636.00171.00391.00757.01709.00134.00293.00745.01709.00146.00317.00831.019.00061.00122.02233.05127.00049.00122.00843.01953.00073.00147.00793.01855.00135.00318.00769.01782.00085.0022.00781.01831.001.0022.00806.01879.00061.00171.00781.01831.0011.00269.03015.072.00085.0022.00757.01806.00134.00318.00745.01831.00073.00146.00757.0188.0011.00244.00732.01807.00123.00269.00708.01782.00122.00293.02087.05176.00122.00268.007.01758.00159.00415.00683.01709.00122.00293.00684.01733.00159.00391.00634.01636.00183.00464.00586.01489.00244.00635.0055.01391.00244.00635.00561.01416.00245.00659.00378.00977.00244.0061.00549.0144.0022.00586.00586.01514.00147.00391.00659.01684.00158.0044.00611.01587.00183.00512.00586.01538.00207.00562.0055.0144.00232.00611.00586.01562.00183.00513.01147.03076.00134.00366.00635.01709.00171.00464.006.01636.00183.00464.00562.01562.00207.00562.00574.01562.00183.00513.00537.01465.00232.00659.00513.01416.00232.00659.00488.01343.00257.00732.00427.01172.00317.009.00354.00976.00244.00684.005.01416.002.00586.00537.01489.00208.00586.00512.01489.0022.00635.00488.01392.00245.00708.00463.01318.00269.00781.00464.01343.00244.00708.00391.01123.00329.00977.00318.00927.0039.01148.0033.00952.00342.01025.00354.0105.0028.0083.00428.01245.0028.00855.004.0122.00281.00831.004.0122.00317.00928.00354.01074.00318.00952.00366.01123.00317.00953.003.00927.00367.01148.00305.00927.004.01221.00268.00855.00366.01123.0033.01.00268.00854.004.01245.00244.00757.00428.01343.00256.00781.004.0127.00244.008.00427.01319.00244.00781.00391.01269.00256.00806.00428.01343.00232.00781.00293.00928.00378.01221.00281.009.00329.01074.00318.01.00293.00952.00354.01172.0028.00928.00342.01123.00293.00952.00342.01148.00281.00927.00342.01148.0028.00927.00342.01124.00305.01025.00244.0083.00391.01318.00232.00782.00391.01342.00244.00806.00378.01318.00244.00806.003.01074.00306.01.00305.01074.00293.01026.00281.00976.00354.01221.00244.0083.00329.01172.00281.01025.00232.00782.00378.01342.0022.00757.00391.01416.00207.00708.00391.01416.00207.00733.00379.01391.00207.00733.00367.01318.002.00733.00354.01294.00232.008.00329.012.00232.00879.00342.0127.00183.00684.00379.01391.00183.00684.004.01489.0017.00659.00391.01441.00183.00708.00391.0144.00171.00684.0039.01464.00171.0066.00391.01489.00159.0061.00305.01221.00256.00952.00305.012.002.00757.00354.01367.00146.00586.004.01563.00146.00586.00379.01513.00171.0066.00378.01489.00159.00635.00378.01513.00147.00635.0039.01538.00135.00562.00366.01465.00171.00708.00329.01367.00171.00683.00342.01392.00147.00635.00366.01489.00134.00561.00366.01539.00159.00659.00354.01489.00146.00635.00367.01538.00146.00635.00366.01513.00135.00611.00366.01562.00134.00586.00342.01465.00159.00684.00305.01367.00171.00683.00317.01416.00146.00635.0033.01489.00134.00562.00354.01562.00135.00635.00341.01514.00147.00659.00342.01514.00134.00634.00342.01563.00122.00561.00354.01636.00122.00513.0033.01562.00134.00586.00305.01465.00146.00635.00306.01416.00134.00659.00317.01514.00122.00586.0033.01538.00134.00635.00318.01562.00134.0061.00317.01539.00135.00659.00317.01587.0011.00512.00342.0166.001.00513.00342.0166.00085.0044.00306.01513.00122.00611.00305.01538.00085.00439.0033.01685.0011.00537.00317.01636.0011.00537.00317.0166.001.00513.00317.01684.001.00464.00318.01709.001.00513.00318.01684.00085.0044.00317.01684.00086.00464.00317.01685.00049.00293.0033.01782.00073.00391.00317.01733.00086.00488.003.01685.001.00513.00293.01684.00085.00464.00317.01758.00061.00415.00318.01782.00073.00391.00305.01782.00073.00391.00306.01806.00061.00318.00293.01733.00048.00293.00318.01855.00061.00342.00293.01783.00073.00439.00293.01782.00073.00391.00293.01806.00061.00367.00293.01831.00061.00342.00293.01831.00061.0039.00293.01831.00049.00342.00293.01807.00049.00341.00281.01758.00048.00293.00269.01782.00073.0044.00269.01782.00061.00415.00268.01782.00074.0044.00268.01782.00061.00391.00257.01806.00061.00415.00268.01807.00049.00342.00281.0188.00036.00293.00281.01928.00025.00171.00256.01831.00049.00318.00256.0188.00049.00317.00256.01855.00049.00391.00256.01831.00049.00342.00244.01855.00049.00391.00257.01831.00036.00342.00244.01855.00049.00367.00244.01879.00037.00269.00244.0188.00037.00293.00232.01807.00036.00317.00244.0188.00037.00342.00232.01879.00049.00318.0022.01855.00048.00391.0022.01831.00049.00391.0022.01855.00036.00342.00232.0188.00037.00317.0022.01929.00024.00244.00232.02026h0l.00232.02076.00024.0017.0022.02.00024.00245.0022.01928.00025.00318.00207.019.00037.00317.00195.0188.00049.00391.002.01831.00037.00415.00183.01807.00049.00415.00183.01855.00036.00293.00183.0188.00025.0022.00183.019.00037.00293.00183.0188.00024.00366.00183.01929.00037.00293.00171.019.00036.00366.00171.0188.00037.00317.00171.01905.00024.00366.00171.01929.00025.002.0017.02051.00013.00122.00183.02124h0l.00171.02075.00024.0022.00159.02.00024.00219.00159.01978.00024.00293.00147.01929.00024.00317.00159.019.00024.00367.00147.019.00024.00317.00134.01953.00025.00245.00146.02.00013.002.00134.01953.00024.00171.00135.02026.00012.00244.00134.01953.00024.00318.00122.019.00025.00366.00122.0188.00024.00391.00122.0188.00025.00342.00122.01928.00012.00269.00122.02026v.00147l.00134.021v.001l.00123.02124v.00049l.00122.02124v.00146l.0011.02027.00012.00293.0011.019.00012.00366.001.01929.00013.00317.001.01929.00013.00342.001.01953.00012.00244.00086.02.00012.00268.001.02051v.00049l.00085.02149.00012.00073.00086.021v.002l.00085.01977.00012.00318.00074.01953v.00317l.00073.01953.00012.00318.00073.01953v.00293l.00074.01977.00012.00293.00061.02v.002l.00061.021v.00049l.00061.02173V38.397l.00061.02075v.00268l.00049.01978.00012.00293.00049.01953v.00342l.00049.01953v.00293l.00048.01977v.00293l.00037.02v.0022l.00037.02051v.002l.00061.04273.00012.00171.00024.0205v.00244l.00025.02v.00293l.00012.01978v.00317l.00024.01929v.00366l.00013.01953v.02539l.00012.02051v4.34351h8V38.78081a22.10764,22.10764,0,0,0-7.20081-16.28052Zm-14.85547-5.77588v8h.04981l.014.00024h.02881l.01794.00025h.00281l.02087.00024h.02149l.00708.00025h.01391l.00781.00024.01429.00024h.00659l.01794.00025h.00318l.02111.00049h.00525l.01551.00024.00781.00024.01355.00025.00757.00024.01416.00025.0072.00024.01611.00025.00476.00024.02076.00049h.00561l.01563.00049.007.00024.01416.00024.00745.00025.01428.00049.00684.00024.01623.00049.00476.00024.02112.00049.00318.00025.01782.00048.00659.00025.0144.00049.00733.00048.01392.00049.00744.00025.01575.00049.00488.00024.04248.00171.00513.00024.01562.00073.007.00025.01453.00073.00659.00025.01575.00073.00525.00024.04211.0022.00574.00024.01538.00074.00647.00048.015.00074.00635.00048.01587.00074.005.00024.04273.00244.00293.00025.01794.001.0055.00049.016.001.00549.00024.01672.00122.00428.00025.04321.00268.00085.00025.02015.00122.0039.00024.01734.00122.00488.00049.01733.00122.00366.00025.06446.00463.00342.00025.01806.00146.00391.00025.01819.00146.00305.00025.06531.00537.00061.00024.02075.00171.0022.00024.01977.00171h.00195l.06568.00611h.00024l.02136.002h.00135l.02063.002.00122.00025.08728.00854.00159.00025.02063.00219h.00085q.466.04871.92285.1272l1.35742-7.88379a22.06532,22.06532,0,0,0-3.73462-.3186Z"/><rect class="cls-5" x="64.57537" y="64.58735" width="138.64153" height="138.64153" rx="14.05633" ry="14.05633"/></svg>